<svg width="24" height="24" viewBox="0 0 24 24" fill="none" xmlns="http://www.w3.org/2000/svg">
<path d="M13.9363 8.5224C14.9778 7.48097 14.9778 5.79248 13.9363 4.75105C12.8949 3.70962 11.2064 3.70961 10.165 4.75104C9.12354 5.79247 9.12354 7.48096 10.165 8.52239C11.2064 9.56382 12.8949 9.56383 13.9363 8.5224Z" stroke="#CDCDCD" stroke-width="0.643775" stroke-miterlimit="10"/>
<path d="M12.7543 8.21701C12.7543 8.60527 12.4412 8.91839 12.0529 8.91839C11.6647 8.91839 11.3516 8.60527 11.3516 8.21701C11.3516 7.82874 11.6647 7.51562 12.0529 7.51562C12.4412 7.51562 12.7543 7.82874 12.7543 8.21701Z" stroke="#CDCDCD" stroke-width="0.321887" stroke-miterlimit="10"/>
<path d="M12.7543 5.06857C12.7543 5.45683 12.4412 5.76995 12.0529 5.76995C11.6647 5.76995 11.3516 5.45683 11.3516 5.06857C11.3516 4.6803 11.6647 4.36719 12.0529 4.36719C12.4412 4.36719 12.7543 4.6803 12.7543 5.06857Z" stroke="#CDCDCD" stroke-width="0.321887" stroke-miterlimit="10"/>
<path d="M13.6291 5.9375C14.0174 5.9375 14.3305 6.25062 14.3305 6.63888C14.3305 7.02715 14.0174 7.34026 13.6291 7.34026C13.2408 7.34026 12.9277 7.02715 12.9277 6.63888C12.9277 6.25062 13.2408 5.9375 13.6291 5.9375Z" stroke="#CDCDCD" stroke-width="0.321887" stroke-miterlimit="10"/>
<path d="M10.4807 5.9375C10.8689 5.9375 11.1821 6.25062 11.1821 6.63888C11.1821 7.02715 10.8689 7.34026 10.4807 7.34026C10.0924 7.34026 9.7793 7.02715 9.7793 6.63888C9.7793 6.25062 10.0924 5.9375 10.4807 5.9375Z" stroke="#CDCDCD" stroke-width="0.321887" stroke-miterlimit="10"/>
<path d="M12.0515 20.1695C13.5244 20.1695 14.7183 18.9755 14.7183 17.5027C14.7183 16.0299 13.5244 14.8359 12.0515 14.8359C10.5787 14.8359 9.38477 16.0299 9.38477 17.5027C9.38477 18.9755 10.5787 20.1695 12.0515 20.1695Z" stroke="#CDCDCD" stroke-width="0.643775" stroke-miterlimit="10"/>
<path d="M12.7543 19.0803C12.7543 19.4685 12.4412 19.7817 12.0529 19.7817C11.6647 19.7817 11.3516 19.4685 11.3516 19.0803C11.3516 18.692 11.6647 18.3789 12.0529 18.3789C12.4412 18.3789 12.7543 18.692 12.7543 19.0803Z" stroke="#CDCDCD" stroke-width="0.321887" stroke-miterlimit="10"/>
<path d="M12.7543 15.9319C12.7543 16.3201 12.4412 16.6332 12.0529 16.6332C11.6647 16.6332 11.3516 16.3201 11.3516 15.9319C11.3516 15.5436 11.6647 15.2305 12.0529 15.2305C12.4412 15.2305 12.7543 15.5436 12.7543 15.9319Z" stroke="#CDCDCD" stroke-width="0.321887" stroke-miterlimit="10"/>
<path d="M13.6291 16.8047C14.0174 16.8047 14.3305 17.1178 14.3305 17.5061C14.3305 17.8943 14.0174 18.2074 13.6291 18.2074C13.2408 18.2074 12.9277 17.8943 12.9277 17.5061C12.9277 17.1178 13.2408 16.8047 13.6291 16.8047Z" stroke="#CDCDCD" stroke-width="0.321887" stroke-miterlimit="10"/>
<path d="M10.4807 16.8047C10.8689 16.8047 11.1821 17.1178 11.1821 17.5061C11.1821 17.8943 10.8689 18.2074 10.4807 18.2074C10.0924 18.2074 9.7793 17.8943 9.7793 17.5061C9.7793 17.1178 10.0924 16.8047 10.4807 16.8047Z" stroke="#CDCDCD" stroke-width="0.321887" stroke-miterlimit="10"/>
<path d="M18.5577 13.3467C19.2324 12.672 19.2324 11.578 18.5577 10.9033C17.883 10.2286 16.789 10.2286 16.1143 10.9033C15.4396 11.578 15.4396 12.672 16.1143 13.3467C16.789 14.0214 17.883 14.0214 18.5577 13.3467Z" stroke="#B7B7B7" stroke-width="1.5" stroke-miterlimit="10"/>
<path d="M8.45724 12.5189C8.67652 11.5902 8.10146 10.6596 7.17281 10.4404C6.24417 10.2211 5.31359 10.7961 5.09431 11.7248C4.87503 12.6534 5.45008 13.584 6.37873 13.8033C7.30738 14.0226 8.23796 13.4475 8.45724 12.5189Z" stroke="#B7B7B7" stroke-width="1.5" stroke-miterlimit="10"/>
<path d="M22.1197 12.0661C22.1197 17.625 17.6125 22.126 12.0599 22.126C6.50096 22.126 2 17.6188 2 12.0661C2 9.18652 3.92809 5.63708 3.92809 5.63708L3.45232 4.38507L6.34446 2.29422L7.38363 3.13933C7.38363 3.13933 10.3446 2 12.0599 2C13.7751 2 16.7361 3.13933 16.7361 3.13933L17.7753 2.29422L20.6674 4.38507L20.1917 5.63708C20.1917 5.63708 22.1197 9.18652 22.1197 12.0661Z" stroke="#B7B7B7" stroke-width="1.5" stroke-miterlimit="10" stroke-linejoin="round"/>
</svg>
