<svg width="28" height="28" viewBox="0 0 28 28" fill="none" xmlns="http://www.w3.org/2000/svg">
<g clip-path="url(#clip0_2919_95148)">
<path d="M13.9998 4.10988C13.9998 2.2931 12.527 0.820312 10.7102 0.820312C8.89345 0.820312 7.42066 2.2931 7.42066 4.10988H6.61183C4.79505 4.10988 3.32227 5.58266 3.32227 7.39944C3.32227 8.17868 3.59319 8.89459 4.046 9.4582" stroke="#FD4D00" stroke-width="2" stroke-miterlimit="10"/>
<path d="M4.046 18.543C3.59319 19.1066 3.32227 19.8225 3.32227 20.6017C3.32227 22.4185 4.79505 23.8913 6.61183 23.8913H7.42066C7.42066 25.7081 8.89345 27.1809 10.7102 27.1809C12.527 27.1809 13.9998 25.7081 13.9998 23.8913" stroke="#FD4D00" stroke-width="2" stroke-miterlimit="10"/>
<path d="M5.94097 18.7893H5.631C2.98598 18.7893 0.841797 16.6452 0.841797 14.0001C0.841797 11.3551 2.98598 9.21094 5.631 9.21094H5.94097" stroke="#FD4D00" stroke-width="2" stroke-miterlimit="10"/>
<path d="M22.0586 18.7893H22.3686C25.0136 18.7893 27.1578 16.6452 27.1578 14.0001C27.1578 11.3551 25.0136 9.21094 22.3686 9.21094H22.0586" stroke="#FD4D00" stroke-width="2" stroke-miterlimit="10"/>
<path d="M14 4.10988C14 2.2931 15.4728 0.820312 17.2896 0.820312C19.1063 0.820312 20.5791 2.2931 20.5791 4.10988H21.388C23.2047 4.10988 24.6775 5.58266 24.6775 7.39944C24.6775 8.17868 24.4066 8.89459 23.9538 9.4582" stroke="#FD4D00" stroke-width="2" stroke-miterlimit="10"/>
<path d="M23.9538 18.543C24.4066 19.1066 24.6776 19.8225 24.6776 20.6017C24.6776 22.4185 23.2048 23.8913 21.388 23.8913H20.5792C20.5792 25.7081 19.1064 27.1809 17.2896 27.1809C15.4728 27.1809 14 25.7081 14 23.8913" stroke="#FD4D00" stroke-width="2" stroke-miterlimit="10"/>
<path d="M14 3.04688V4.98489H14.9315C15.9762 4.98489 16.8232 5.83184 16.8232 6.87659C16.8232 7.92134 15.9762 8.76828 14.9315 8.76828H14V14.0009" stroke="#FD4D00" stroke-width="2" stroke-miterlimit="10"/>
<path d="M13.9999 24.9541V23.0161H13.0685C12.0237 23.0161 11.1768 22.1691 11.1768 21.1244C11.1768 20.0796 12.0237 19.2327 13.0685 19.2327H13.9999V14" stroke="#FD4D00" stroke-width="2" stroke-miterlimit="10"/>
<path d="M14 14.035H10.7161V13.999V13.0675C10.7161 12.0227 9.86912 11.1758 8.82437 11.1758C7.77962 11.1758 6.93267 12.0227 6.93267 13.0675V13.999V14.035H0.841797" stroke="#FD4D00" stroke-width="2" stroke-miterlimit="10"/>
<path d="M14 14.0352H17.284V14.0711V15.0026C17.284 16.0474 18.1309 16.8943 19.1757 16.8943C20.2204 16.8943 21.0674 16.0474 21.0674 15.0026V14.0711V14.0352H27.1582" stroke="#FD4D00" stroke-width="2" stroke-miterlimit="10"/>
</g>
<defs>
<clipPath id="clip0_2919_95148">
<rect width="28" height="28" fill="white"/>
</clipPath>
</defs>
</svg>
