<svg width="28" height="28" viewBox="0 0 28 28" fill="none" xmlns="http://www.w3.org/2000/svg">
<path d="M23.3337 11.2013C23.3337 6.53464 21.467 4.66797 16.8003 4.66797H11.2003C6.53366 4.66797 4.66699 6.53464 4.66699 11.2013V16.8013C4.66699 21.468 6.53366 23.3346 11.2003 23.3346" stroke="#FD4D00" stroke-width="2" stroke-linecap="round" stroke-linejoin="round"/>
<path d="M19.0753 9.33464C18.4337 8.51797 17.3603 8.16797 15.7503 8.16797H12.2503C9.33366 8.16797 8.16699 9.33464 8.16699 12.2513V15.7513C8.16699 17.3613 8.51699 18.4346 9.32199 19.0763" stroke="#FD4D00" stroke-width="2" stroke-linecap="round" stroke-linejoin="round"/>
<path d="M9.34473 4.66536V2.33203" stroke="#FD4D00" stroke-width="1.75" stroke-linecap="round" stroke-linejoin="round"/>
<path d="M14 4.66536V2.33203" stroke="#FD4D00" stroke-width="1.75" stroke-linecap="round" stroke-linejoin="round"/>
<path d="M18.667 4.66536V2.33203" stroke="#FD4D00" stroke-width="1.75" stroke-linecap="round" stroke-linejoin="round"/>
<path d="M23.333 9.33203H25.6663" stroke="#FD4D00" stroke-width="1.75" stroke-linecap="round" stroke-linejoin="round"/>
<path d="M9.34473 23.332V25.6654" stroke="#FD4D00" stroke-width="1.75" stroke-linecap="round" stroke-linejoin="round"/>
<path d="M2.33301 9.33203H4.66634" stroke="#FD4D00" stroke-width="1.75" stroke-linecap="round" stroke-linejoin="round"/>
<path d="M2.33301 14H4.66634" stroke="#FD4D00" stroke-width="1.75" stroke-linecap="round" stroke-linejoin="round"/>
<path d="M2.33301 18.668H4.66634" stroke="#FD4D00" stroke-width="1.75" stroke-linecap="round" stroke-linejoin="round"/>
<path d="M19.4956 21.6905C20.5201 21.6905 21.3506 20.86 21.3506 19.8355C21.3506 18.811 20.5201 17.9805 19.4956 17.9805C18.4711 17.9805 17.6406 18.811 17.6406 19.8355C17.6406 20.86 18.4711 21.6905 19.4956 21.6905Z" stroke="#FD4D00" stroke-width="1.75" stroke-miterlimit="10" stroke-linecap="round" stroke-linejoin="round"/>
<path d="M13.3115 20.3717V19.2867C13.3115 18.6451 13.8365 18.1201 14.4782 18.1201C15.5982 18.1201 16.0532 17.3267 15.4932 16.3584C15.1665 15.7984 15.3649 15.0751 15.9249 14.7601L16.9865 14.1417C17.4765 13.8501 18.1065 14.0251 18.3982 14.5151L18.4682 14.6317C19.0282 15.6001 19.9382 15.6001 20.4982 14.6317L20.5682 14.5151C20.8599 14.0251 21.4899 13.8617 21.9799 14.1417L23.0415 14.7601C23.6015 15.0867 23.7999 15.7984 23.4732 16.3584C22.9132 17.3267 23.3682 18.1201 24.4882 18.1201C25.1299 18.1201 25.6549 18.6451 25.6549 19.2867V20.3717C25.6549 21.0134 25.1299 21.5384 24.4882 21.5384C23.3682 21.5384 22.9132 22.3317 23.4732 23.3001C23.7999 23.8601 23.6015 24.5834 23.0415 24.8984L21.9799 25.5167C21.4899 25.8084 20.8599 25.6334 20.5682 25.1434L20.4982 25.0267C19.9382 24.0584 19.0282 24.0584 18.4682 25.0267L18.3982 25.1434C18.1065 25.6334 17.4765 25.7967 16.9865 25.5167L15.9249 24.8984C15.3649 24.5717 15.1665 23.8601 15.4932 23.3001C16.0532 22.3317 15.5982 21.5384 14.4782 21.5384C13.8365 21.5501 13.3115 21.0251 13.3115 20.3717Z" stroke="#FD4D00" stroke-width="1.75" stroke-miterlimit="10" stroke-linecap="round" stroke-linejoin="round"/>
</svg>
