<svg width="110" height="134" viewBox="0 0 110 134" fill="none" xmlns="http://www.w3.org/2000/svg">
<g filter="url(#filter0_d_360_18894)">
<g filter="url(#filter1_f_360_18894)">
<ellipse cx="55.1399" cy="96.3998" rx="6.1399" ry="2.19282" fill="#6C6C6C" fill-opacity="0.8"/>
</g>
<path d="M71.5148 27.8822C68.5177 25.3999 65.0134 23.6213 61.2546 22.6748C57.4958 21.7283 53.5762 21.6374 49.7784 22.4087C44.8953 23.4214 40.4029 25.8327 36.8364 29.3552C33.2698 32.8778 30.7794 37.3632 29.6619 42.2771C28.5443 47.191 28.8467 52.3263 30.533 57.0713C32.2193 61.8163 35.2184 65.9709 39.1732 69.0403C43.6884 72.3832 47.5327 76.5656 50.5007 81.3638L52.5229 84.7654C52.7798 85.1974 53.1427 85.5549 53.5766 85.8031C54.0104 86.0513 54.5003 86.1818 54.9987 86.1818C55.4971 86.1818 55.9871 86.0513 56.4209 85.8031C56.8547 85.5549 57.2177 85.1974 57.4746 84.7654L59.413 81.4982C61.9975 76.9025 65.5215 72.9174 69.7496 69.8089C73.065 67.5015 75.8049 64.4463 77.7532 60.8845C79.7016 57.3226 80.805 53.3515 80.9764 49.2844C81.1479 45.2173 80.3827 41.1656 78.7412 37.4489C77.0997 33.7322 74.6268 30.4521 71.5177 27.8676L71.5148 27.8822Z" fill="#FD4D00"/>
<path d="M54.9998 51.8926C52.1598 51.8926 49.8398 49.5859 49.8398 46.7326C49.8398 43.8793 52.1598 41.5859 54.9998 41.5859C57.8398 41.5859 60.1598 43.8926 60.1598 46.7459C60.1598 49.5993 57.8398 51.8926 54.9998 51.8926ZM54.9998 43.5859C53.2665 43.5859 51.8398 44.9993 51.8398 46.7459C51.8398 48.4926 53.2532 49.9059 54.9998 49.9059C56.7465 49.9059 58.1598 48.4926 58.1598 46.7459C58.1598 44.9993 56.7332 43.5859 54.9998 43.5859Z" fill="white"/>
<path d="M55.0002 63.346C53.0269 63.346 51.0402 62.5993 49.4936 61.1194C45.5602 57.3327 41.2136 51.2927 42.8536 44.106C44.3336 37.586 50.0269 34.666 55.0002 34.666C55.0002 34.666 55.0002 34.666 55.0136 34.666C59.9869 34.666 65.6802 37.586 67.1602 44.1193C68.7869 51.306 64.4402 57.3327 60.5069 61.1194C58.9602 62.5993 56.9736 63.346 55.0002 63.346ZM55.0002 36.666C51.1202 36.666 46.1336 38.7327 44.8136 44.546C43.3736 50.826 47.3202 56.2393 50.8936 59.666C53.2002 61.8927 56.8136 61.8927 59.1202 59.666C62.6802 56.2393 66.6269 50.826 65.2136 44.546C63.8802 38.7327 58.8802 36.666 55.0002 36.666Z" fill="white"/>
</g>
<defs>
<filter id="filter0_d_360_18894" x="-0.0681" y="-0.051075" width="110.136" height="134.136" filterUnits="userSpaceOnUse" color-interpolation-filters="sRGB">
<feFlood flood-opacity="0" result="BackgroundImageFix"/>
<feColorMatrix in="SourceAlpha" type="matrix" values="0 0 0 0 0 0 0 0 0 0 0 0 0 0 0 0 0 0 127 0" result="hardAlpha"/>
<feOffset dy="7.01702"/>
<feGaussianBlur stdDeviation="14.034"/>
<feComposite in2="hardAlpha" operator="out"/>
<feColorMatrix type="matrix" values="0 0 0 0 0.992157 0 0 0 0 0.301961 0 0 0 0 0 0 0 0 0.2 0"/>
<feBlend mode="normal" in2="BackgroundImageFix" result="effect1_dropShadow_360_18894"/>
<feBlend mode="normal" in="SourceGraphic" in2="effect1_dropShadow_360_18894" result="shape"/>
</filter>
<filter id="filter1_f_360_18894" x="44.6144" y="89.8214" width="21.0506" height="13.156" filterUnits="userSpaceOnUse" color-interpolation-filters="sRGB">
<feFlood flood-opacity="0" result="BackgroundImageFix"/>
<feBlend mode="normal" in="SourceGraphic" in2="BackgroundImageFix" result="shape"/>
<feGaussianBlur stdDeviation="2.19282" result="effect1_foregroundBlur_360_18894"/>
</filter>
</defs>
</svg>
