<svg width="40" height="46" viewBox="0 0 40 46" fill="none" xmlns="http://www.w3.org/2000/svg">
<g filter="url(#filter0_f_454_1999)">
<ellipse cx="20" cy="39.3571" rx="5" ry="1.78571" fill="black" fill-opacity="0.2"/>
</g>
<g filter="url(#filter1_d_454_1999)">
<path fill-rule="evenodd" clip-rule="evenodd" d="M20 4C28.2843 4 35 10.7157 35 19C35 25.3518 31.052 30.7815 25.476 32.9691L20.8544 39.2862C20.758 39.4184 20.6301 39.5264 20.4814 39.6009C20.3327 39.6754 20.1676 39.7143 20 39.7143C19.8324 39.7143 19.6673 39.6754 19.5186 39.6009C19.3699 39.5264 19.242 39.4184 19.1456 39.2862L14.524 32.9691C8.94804 30.7815 5 25.3518 5 19C5 10.7157 11.7157 4 20 4Z" fill="white"/>
</g>
<path d="M32.1427 19C32.1427 12.2937 26.7061 6.85715 19.9998 6.85715C13.2935 6.85715 7.85693 12.2937 7.85693 19C7.85693 25.7063 13.2935 31.1429 19.9998 31.1429C26.7061 31.1429 32.1427 25.7063 32.1427 19Z" fill="#013283"/>
<path d="M22.3809 17.8095L23.6603 18.1934C24.4776 18.4386 24.8863 18.5612 25.1217 18.8775C25.357 19.1939 25.357 19.6205 25.357 20.4739V24.9524" stroke="white" stroke-linejoin="round"/>
<path d="M17.6187 17.2143L19.4044 17.2143M17.6187 19.5952L19.4044 19.5952" stroke="white" stroke-linecap="round" stroke-linejoin="round"/>
<path d="M19.9996 24.9524V23.1667C19.9996 22.6055 19.9996 22.3249 19.8253 22.1505C19.6509 21.9762 19.3703 21.9762 18.8092 21.9762H18.2139C17.6527 21.9762 17.3721 21.9762 17.1978 22.1505C17.0234 22.3249 17.0234 22.6055 17.0234 23.1667V24.9524" stroke="white" stroke-linejoin="round"/>
<path d="M14.0474 24.9524L25.9521 24.9524" stroke="white" stroke-linecap="round"/>
<path d="M14.6426 24.9524V15.8555C14.6426 14.361 14.6426 13.6138 15.1135 13.243C15.5845 12.8723 16.2779 13.0736 17.6649 13.4761L20.6411 14.34C21.4781 14.583 21.8966 14.7044 22.1386 15.0355C22.3807 15.3666 22.3807 15.8175 22.3807 16.7194V24.9524" stroke="white" stroke-linecap="round" stroke-linejoin="round"/>
<defs>
<filter id="filter0_f_454_1999" x="13" y="35.5714" width="14" height="7.57143" filterUnits="userSpaceOnUse" color-interpolation-filters="sRGB">
<feFlood flood-opacity="0" result="BackgroundImageFix"/>
<feBlend mode="normal" in="SourceGraphic" in2="BackgroundImageFix" result="shape"/>
<feGaussianBlur stdDeviation="1" result="effect1_foregroundBlur_454_1999"/>
</filter>
<filter id="filter1_d_454_1999" x="0" y="0" width="40" height="45.7143" filterUnits="userSpaceOnUse" color-interpolation-filters="sRGB">
<feFlood flood-opacity="0" result="BackgroundImageFix"/>
<feColorMatrix in="SourceAlpha" type="matrix" values="0 0 0 0 0 0 0 0 0 0 0 0 0 0 0 0 0 0 127 0" result="hardAlpha"/>
<feOffset dy="1"/>
<feGaussianBlur stdDeviation="2.5"/>
<feComposite in2="hardAlpha" operator="out"/>
<feColorMatrix type="matrix" values="0 0 0 0 0 0 0 0 0 0 0 0 0 0 0 0 0 0 0.1 0"/>
<feBlend mode="normal" in2="BackgroundImageFix" result="effect1_dropShadow_454_1999"/>
<feBlend mode="normal" in="SourceGraphic" in2="effect1_dropShadow_454_1999" result="shape"/>
</filter>
</defs>
</svg>
