<svg width="28" height="28" viewBox="0 0 28 28" fill="none" xmlns="http://www.w3.org/2000/svg">
<path d="M24.8004 7.54843C24.7474 7.41725 24.6633 7.30089 24.5553 7.20935C24.4474 7.1178 24.3189 7.0538 24.1808 7.02282C24.0427 6.99185 23.8992 6.99483 23.7625 7.03152C23.6258 7.0682 23.5001 7.13748 23.3961 7.23343L18.9883 11.3011L17.1037 10.8964L16.699 9.01187L20.7667 4.60406C20.8626 4.50003 20.9319 4.37429 20.9686 4.23761C21.0053 4.10093 21.0083 3.95739 20.9773 3.8193C20.9463 3.68122 20.8823 3.5527 20.7908 3.44478C20.6992 3.33686 20.5829 3.25276 20.4517 3.19968C19.2561 2.71606 17.9601 2.53346 16.6775 2.66792C15.3949 2.80238 14.1649 3.24979 13.0957 3.97083C12.0264 4.69187 11.1506 5.66448 10.5452 6.80321C9.93979 7.94193 9.62331 9.21191 9.62356 10.5016C9.62215 11.5906 9.84556 12.6682 10.2798 13.6669L3.69434 19.3609C3.67794 19.3741 3.66263 19.3894 3.64731 19.4036C2.99086 20.06 2.62207 20.9504 2.62207 21.8787C2.62207 22.3384 2.71261 22.7936 2.88852 23.2183C3.06443 23.643 3.32227 24.0289 3.64731 24.3539C3.97236 24.6789 4.35824 24.9368 4.78293 25.1127C5.20761 25.2886 5.66279 25.3791 6.12247 25.3791C7.05083 25.3791 7.94117 25.0104 8.59763 24.3539C8.61185 24.3397 8.62716 24.3233 8.64028 24.308L14.3333 17.7203C15.5325 18.2467 16.844 18.4657 18.1492 18.3575C19.4544 18.2493 20.712 17.8173 21.8082 17.1006C22.9043 16.3838 23.8044 15.4051 24.427 14.2528C25.0495 13.1006 25.3749 11.8112 25.3736 10.5016C25.3753 9.48938 25.1806 8.48649 24.8004 7.54843ZM17.4986 16.6266C16.4629 16.6251 15.4443 16.3618 14.5378 15.8609C14.3621 15.7639 14.1585 15.7302 13.961 15.7654C13.7634 15.8007 13.584 15.9027 13.4528 16.0545L7.33872 23.1355C7.00786 23.4498 6.5673 23.6224 6.11097 23.6166C5.65463 23.6108 5.21864 23.4269 4.89593 23.1042C4.57323 22.7815 4.38936 22.3455 4.38351 21.8892C4.37767 21.4328 4.55032 20.9923 4.86466 20.6614L11.9401 14.5484C12.0922 14.4171 12.1944 14.2375 12.2297 14.0397C12.2649 13.842 12.231 13.6381 12.1337 13.4623C11.5759 12.4535 11.3142 11.3077 11.3785 10.1568C11.4429 9.00582 11.8307 7.89638 12.4975 6.956C13.1642 6.01563 14.0828 5.2825 15.1476 4.84091C16.2124 4.39931 17.3803 4.26717 18.5168 4.45968L15.1043 8.15765C15.0094 8.26065 14.9406 8.38495 14.9036 8.52008C14.8667 8.65521 14.8628 8.79724 14.8922 8.93421L15.5112 11.8141C15.5466 11.9788 15.6288 12.1298 15.748 12.2489C15.8671 12.368 16.0181 12.4502 16.1828 12.4856L19.0648 13.1047C19.2018 13.1341 19.3438 13.1301 19.4789 13.0932C19.6141 13.0563 19.7384 12.9874 19.8414 12.8925L23.5393 9.47999C23.6868 10.3583 23.6411 11.2581 23.4055 12.117C23.1699 12.9758 22.7501 13.7731 22.1752 14.4532C21.6003 15.1334 20.8841 15.6801 20.0765 16.0554C19.2688 16.4308 18.3891 16.6257 17.4986 16.6266Z" fill="#FD4D00"/>
</svg>
