<svg width="28" height="28" viewBox="0 0 28 28" fill="none" xmlns="http://www.w3.org/2000/svg">
<path d="M20.3647 14.992C19.7533 14.992 19.1627 15.0828 18.6054 15.2513V6.03039H18.7005C19.1151 6.03039 19.4525 5.69297 19.4525 5.27844V4.10758C19.4525 3.69305 19.1151 3.35563 18.7005 3.35563H16.4255V3.03242C16.4255 2.48937 15.9837 2.04695 15.4401 2.04695H13.4697V2.04203C13.4697 1.36828 12.9217 0.820312 12.2474 0.820312H8.74359C8.06984 0.820312 7.52187 1.36828 7.52187 2.04203V2.04695H5.55148C5.00844 2.04695 4.56602 2.48883 4.56602 3.03242V3.35563H2.29102C1.87648 3.35563 1.53906 3.69305 1.53906 4.10758V5.27844C1.53906 5.69297 1.87648 6.03039 2.29102 6.03039H2.38617V22.4148H2.29102C1.87648 22.4148 1.53906 22.7522 1.53906 23.1667V24.3381C1.53906 24.7527 1.87648 25.0901 2.29102 25.0901H7.51367V25.2613C7.51367 25.9623 8.08406 26.5327 8.78516 26.5327H12.2053C12.9064 26.5327 13.4768 25.9623 13.4768 25.2613V25.0901H15.7737C16.8915 26.3698 18.5348 27.1797 20.3636 27.1797C23.7236 27.1797 26.4574 24.4459 26.4574 21.0859C26.4574 17.7259 23.7247 14.992 20.3647 14.992ZM17.9491 15.4919C17.7337 15.5854 17.5248 15.6904 17.3235 15.8069V6.03039H17.9491V15.4919ZM14.4174 22.4153H13.6906V6.03094H15.1798V17.8877C14.6039 18.818 14.2709 19.9139 14.2709 21.0859C14.2709 21.5425 14.3217 21.9871 14.4174 22.4153ZM5.15609 6.03039V22.4148H4.32484V6.03039H5.15609ZM5.81234 6.03039H7.30148V22.4148H5.81234V6.03039ZM7.95773 6.03039H10.1682V22.4148H7.95773V6.03039ZM10.8239 6.03039H13.0344V22.4148H10.8239V6.03039ZM15.836 6.03039H16.6673V16.2455C16.367 16.4752 16.0887 16.7322 15.836 17.0127V6.03039ZM8.17812 2.04203C8.17812 1.73031 8.43187 1.47656 8.74359 1.47656H12.2474C12.5591 1.47656 12.8134 1.73031 12.8134 2.04203V2.04695H8.17812V2.04203ZM5.22281 3.03297C5.22281 2.85141 5.37047 2.70375 5.55203 2.70375H15.4406C15.6222 2.70375 15.7698 2.85141 15.7698 3.03297V3.35617H5.22281V3.03297ZM2.19586 5.27898V4.10758C2.19586 4.05562 2.23961 4.01188 2.29156 4.01188H18.7005C18.7525 4.01188 18.7962 4.05562 18.7962 4.10758V5.27844C18.7962 5.33039 18.7525 5.37414 18.7005 5.37414H2.29156C2.23961 5.37414 2.19586 5.33039 2.19586 5.27898ZM3.04297 6.03039H3.66859V22.4148H3.04297V6.03039ZM12.8216 25.2613C12.8216 25.6003 12.5455 25.8765 12.2064 25.8765H8.78625C8.44719 25.8765 8.17101 25.6003 8.17101 25.2613V25.0901H12.8216V25.2613ZM2.29156 24.4338C2.23961 24.4338 2.19586 24.3901 2.19586 24.3381V23.1667C2.19586 23.1148 2.23961 23.071 2.29156 23.071H14.6034C14.7707 23.5555 14.9977 24.0122 15.2755 24.4333H2.29156V24.4338ZM20.3647 26.5234C17.3667 26.5234 14.9271 24.0844 14.9271 21.0859C14.9271 18.0873 17.3662 15.6483 20.3647 15.6483C23.3632 15.6483 25.8023 18.0873 25.8023 21.0859C25.8023 24.0844 23.3627 26.5234 20.3647 26.5234ZM23.6219 19.6142C23.8319 20.078 23.938 20.5734 23.938 21.0859C23.938 23.0562 22.3351 24.6597 20.3641 24.6597C20.1295 24.6597 19.8988 24.6367 19.6729 24.5924L19.978 25.1945C20.0601 25.3564 19.995 25.5538 19.8337 25.6353C19.7861 25.6594 19.7358 25.6709 19.6855 25.6709C19.5657 25.6709 19.4503 25.6052 19.3923 25.4909L18.735 24.1927C18.653 24.0308 18.718 23.8334 18.8794 23.7519L20.1777 23.0945C20.3395 23.0125 20.537 23.0776 20.6184 23.2389C20.7005 23.4008 20.6354 23.5982 20.4741 23.6797L19.9053 23.9679C20.0557 23.9914 20.2088 24.004 20.3641 24.004C21.9725 24.004 23.2817 22.6953 23.2817 21.0864C23.2817 20.6675 23.1948 20.2634 23.0236 19.8849C22.9487 19.7198 23.022 19.5256 23.1871 19.4507C23.3528 19.3758 23.547 19.4491 23.6219 19.6142ZM17.4471 21.0859C17.4471 21.5048 17.5341 21.9089 17.7052 22.2873C17.7802 22.4525 17.7069 22.6466 17.5417 22.7216C17.498 22.7413 17.452 22.7511 17.4066 22.7511C17.282 22.7511 17.1622 22.6795 17.1075 22.558C16.8975 22.0943 16.7914 21.5988 16.7914 21.0864C16.7914 19.116 18.3943 17.5126 20.3652 17.5126C20.5998 17.5126 20.8306 17.5355 21.0565 17.5798L20.7513 16.9777C20.6693 16.8159 20.7344 16.6184 20.8957 16.537C21.0576 16.4549 21.255 16.52 21.3365 16.6813L21.9938 17.9796C22.0332 18.0573 22.0398 18.1475 22.013 18.2301C21.9856 18.3127 21.9271 18.3816 21.8495 18.4204L20.5512 19.0777C20.5036 19.1018 20.4533 19.1133 20.403 19.1133C20.2832 19.1133 20.1678 19.0477 20.1098 18.9334C20.0278 18.7715 20.0929 18.5741 20.2542 18.4926L20.823 18.2044C20.6726 18.1809 20.5189 18.1688 20.3641 18.1688C18.7558 18.1688 17.4471 19.4775 17.4471 21.0859Z" fill="#FD4D00"/>
</svg>
