<svg width="28" height="28" viewBox="0 0 28 28" fill="none" xmlns="http://www.w3.org/2000/svg">
<path d="M20.6337 16.2799C20.6337 16.4609 20.4866 16.608 20.3056 16.608H19.0757L19.8714 17.4037C19.9994 17.5317 19.9994 17.7395 19.8714 17.868C19.8074 17.932 19.7232 17.9643 19.6395 17.9643C19.5553 17.9643 19.4716 17.932 19.4077 17.868L18.1477 16.608H14.7926L17.1649 18.9804H18.9466C19.1277 18.9804 19.2748 19.1275 19.2748 19.3085C19.2748 19.4895 19.1277 19.6366 18.9466 19.6366H17.8212L18.6907 20.5062C18.8187 20.6341 18.8187 20.842 18.6907 20.9705C18.6267 21.0345 18.5425 21.0667 18.4588 21.0667C18.3746 21.0667 18.2909 21.0345 18.227 20.9705L17.3574 20.1009V21.2264C17.3574 21.4074 17.2103 21.5545 17.0293 21.5545C16.8483 21.5545 16.7012 21.4074 16.7012 21.2264V19.4447L14.3283 17.0723V20.4274L15.5883 21.6874C15.7163 21.8154 15.7163 22.0232 15.5883 22.1517C15.5243 22.2157 15.4401 22.248 15.3564 22.248C15.2727 22.248 15.1885 22.2157 15.1245 22.1517L14.3283 21.3555V22.5854C14.3283 22.7664 14.1812 22.9135 14.0002 22.9135C13.8191 22.9135 13.672 22.7664 13.672 22.5854V21.3555L12.8763 22.1512C12.7484 22.2791 12.5405 22.2791 12.4126 22.1512C12.2846 22.0232 12.2846 21.8154 12.4126 21.6869L13.672 20.4274V17.0723L11.2997 19.4447V21.2264C11.2997 21.4074 11.1526 21.5545 10.9716 21.5545C10.7905 21.5545 10.6434 21.4074 10.6434 21.2264V20.1009L9.77391 20.9705C9.70992 21.0345 9.6257 21.0667 9.54203 21.0667C9.45836 21.0667 9.37414 21.0345 9.31016 20.9705C9.18219 20.8425 9.18219 20.6347 9.31016 20.5062L10.1797 19.6366H9.05422C8.8732 19.6366 8.72609 19.4895 8.72609 19.3085C8.72609 19.1275 8.8732 18.9804 9.05422 18.9804H10.8359L13.2083 16.608H9.8532L8.5932 17.868C8.52922 17.932 8.445 17.9643 8.36133 17.9643C8.27766 17.9643 8.19344 17.932 8.12945 17.868C8.00148 17.7401 8.00148 17.5323 8.12945 17.4037L8.92516 16.608H7.69469C7.51367 16.608 7.36656 16.4609 7.36656 16.2799C7.36656 16.0989 7.51367 15.9518 7.69469 15.9518H8.92461L8.12891 15.1561C8.00094 15.0281 8.00094 14.8203 8.12891 14.6918C8.25688 14.5638 8.46469 14.5638 8.59266 14.6918L9.85266 15.9518H13.2077L10.8354 13.5795H9.05367C8.87266 13.5795 8.72555 13.4323 8.72555 13.2513C8.72555 13.0703 8.87266 12.9232 9.05367 12.9232H10.1791L9.30961 12.0537C9.18164 11.9257 9.18164 11.7179 9.30961 11.5894C9.43758 11.4614 9.64539 11.4614 9.77336 11.5894L10.6429 12.4589V11.3334C10.6429 11.1524 10.79 11.0053 10.971 11.0053C11.152 11.0053 11.2991 11.1524 11.2991 11.3334V13.1152L13.672 15.488V12.133L12.412 10.873C12.2841 10.745 12.2841 10.5372 12.412 10.4087C12.54 10.2807 12.7478 10.2807 12.8758 10.4087L13.672 11.2049V9.975C13.672 9.79398 13.8191 9.64687 14.0002 9.64687C14.1812 9.64687 14.3283 9.79398 14.3283 9.975V11.2049L15.124 10.4092C15.252 10.2812 15.4598 10.2812 15.5877 10.4092C15.7157 10.5372 15.7157 10.745 15.5877 10.8735L14.3283 12.133V15.488L16.7006 13.1157V11.334C16.7006 11.153 16.8477 11.0059 17.0288 11.0059C17.2098 11.0059 17.3569 11.153 17.3569 11.334V12.4595L18.2264 11.5899C18.3544 11.462 18.5622 11.462 18.6902 11.5899C18.8181 11.7179 18.8181 11.9257 18.6902 12.0542L17.8206 12.9237H18.9461C19.1271 12.9237 19.2742 13.0709 19.2742 13.2519C19.2742 13.4329 19.1271 13.58 18.9461 13.58H17.1644L14.792 15.9523H18.1471L19.4071 14.6923C19.5351 14.5644 19.7429 14.5644 19.8714 14.6923C19.9994 14.8203 19.9994 15.0281 19.8714 15.1566L19.0757 15.9523H20.3056C20.4866 15.9518 20.6337 16.0989 20.6337 16.2799ZM24.7927 5.22484V25.7201C24.7927 26.5251 24.1381 27.1797 23.3331 27.1797H4.66664C3.86164 27.1797 3.20703 26.5251 3.20703 25.7201V2.27992C3.20758 1.47492 3.86219 0.820312 4.66664 0.820312H13.083C13.573 0.820312 13.9974 1.04125 14.2785 1.44211L15.9066 3.76523H17.1398V2.17328C17.1398 1.64938 17.5663 1.22281 18.0902 1.22281H22.1103C22.6342 1.22281 23.0608 1.64938 23.0608 2.17328V3.76523H23.3331C24.1381 3.76523 24.7927 4.42039 24.7927 5.22484ZM17.796 3.76523H22.4045V2.17328C22.4045 2.01086 22.2727 1.87906 22.1103 1.87906H18.0902C17.9278 1.87906 17.796 2.01086 17.796 2.17328V3.76523ZM24.1365 5.22484C24.1365 4.78188 23.7761 4.42148 23.3331 4.42148H15.7359C15.6287 4.42148 15.5287 4.36953 15.4674 4.28148L13.7415 1.81836C13.5845 1.59469 13.357 1.47602 13.0836 1.47602H4.66664C4.22367 1.47602 3.86328 1.83641 3.86328 2.27938V25.7195C3.86328 26.1625 4.22367 26.5229 4.66664 26.5229H23.3331C23.7761 26.5229 24.1365 26.1625 24.1365 25.7195V5.22484ZM13.5982 5.97789L6.87383 10.6488C6.71906 10.7565 6.54297 10.8106 6.36578 10.8106C6.22469 10.8106 6.0825 10.7762 5.94961 10.7067C5.64938 10.5498 5.47 10.2534 5.47 9.91484V3.97688C5.47 3.48414 5.87086 3.08328 6.36359 3.08328H12.1998C12.4957 3.08328 12.762 3.22219 12.9321 3.46445L13.8197 4.73156C13.9591 4.93062 14.01 5.16195 13.9679 5.40094C13.9258 5.63992 13.7978 5.83953 13.5982 5.97789ZM13.2827 5.10781L12.3951 3.8407C12.3475 3.77234 12.2835 3.73953 12.2004 3.73953H6.36414C6.23289 3.73953 6.1268 3.84617 6.1268 3.97688V9.91484C6.1268 10.0089 6.17109 10.0816 6.25422 10.1254C6.33789 10.1691 6.42266 10.1637 6.49977 10.1101L13.2241 5.43922C13.281 5.39984 13.3105 5.35391 13.3226 5.28555C13.3346 5.21773 13.3226 5.16414 13.2827 5.10781Z" fill="#FD4D00" stroke="#FD4D00" stroke-width="0.5"/>
</svg>
