<svg width="28" height="28" viewBox="0 0 28 28" fill="none" xmlns="http://www.w3.org/2000/svg">
<g clip-path="url(#clip0_2916_102572)">
<path d="M26.8067 24.9725C28.3776 22.244 28.3776 18.8857 26.8067 16.1572C26.8053 16.1416 26.8053 16.126 26.8067 16.1105L26.7647 16.0685C25.9979 14.7607 24.9085 13.6713 23.6007 12.9045C23.589 12.8896 23.5748 12.877 23.5587 12.8672H23.5167C21.6035 11.7705 19.3466 11.4371 17.198 11.9338C18.0992 9.478 17.8668 6.74923 16.5634 4.48116C16.5619 4.46563 16.5619 4.45001 16.5634 4.43449L16.5214 4.39249C15.7546 3.08467 14.6652 1.99532 13.3574 1.22849C13.3457 1.21364 13.3315 1.201 13.3154 1.19116H13.2734C10.5542 -0.37101 7.20987 -0.37101 4.49071 1.19116H4.44871C4.4326 1.201 4.41838 1.21364 4.40671 1.22849C3.09377 1.99342 1.99943 3.08293 1.22871 4.39249L1.18671 4.43449C1.18816 4.45001 1.18816 4.46563 1.18671 4.48116C-0.374738 7.19717 -0.374738 10.5385 1.18671 13.2545C1.18816 13.27 1.18816 13.2856 1.18671 13.3012C1.20431 13.3281 1.22464 13.3531 1.24738 13.3758C2.01341 14.6694 3.09576 15.7469 4.39271 16.5072C4.40438 16.522 4.4186 16.5346 4.43471 16.5445C4.454 16.5557 4.47431 16.5651 4.49538 16.5725C5.82661 17.3346 7.33408 17.7352 8.86805 17.7345C9.52117 17.7315 10.1721 17.6579 10.8094 17.5152C10.4525 18.4818 10.2692 19.504 10.268 20.5345C10.2681 22.0891 10.6769 23.6164 11.4534 24.9632C11.9057 25.7481 12.4772 26.4581 13.1474 27.0678H11.668C11.4103 27.0678 11.2014 27.2768 11.2014 27.5345C11.2014 27.7922 11.4103 28.0012 11.668 28.0012H26.6014C26.8591 28.0012 27.0681 27.7922 27.0681 27.5345C27.0681 27.2768 26.8591 27.0678 26.6014 27.0678H25.1221C25.7881 26.4603 26.3564 25.7535 26.8067 24.9725ZM9.33471 16.8012V16.3345C9.33471 16.0768 9.12578 15.8678 8.86805 15.8678C8.61032 15.8678 8.40138 16.0768 8.40138 16.3345V16.8012C7.32757 16.7392 6.27781 16.4581 5.31671 15.9752L5.54071 15.5925C5.66958 15.3683 5.59228 15.082 5.36805 14.9532C5.14382 14.8243 4.85758 14.9016 4.72871 15.1258L4.50471 15.5132C3.60778 14.9196 2.83962 14.1514 2.24605 13.2545L2.63338 13.0305C2.85761 12.9016 2.93491 12.6154 2.80605 12.3912C2.67718 12.1669 2.39094 12.0896 2.16671 12.2185L1.78405 12.4425C1.29805 11.4743 1.01686 10.4162 0.958048 9.33449H1.40138C1.65911 9.33449 1.86805 9.12556 1.86805 8.86782C1.86805 8.61009 1.65911 8.40116 1.40138 8.40116H0.934714C0.996693 7.32734 1.27779 6.27758 1.76071 5.31649L2.14338 5.54049C2.36761 5.66936 2.65385 5.59205 2.78271 5.36782C2.91158 5.14359 2.83428 4.85736 2.61005 4.72849L2.22271 4.50449C2.8231 3.60526 3.59937 2.83693 4.50471 2.24582L4.72871 2.63316C4.85758 2.85738 5.14382 2.93469 5.36805 2.80582C5.59228 2.67696 5.66958 2.39072 5.54071 2.16649L5.31671 1.78382C6.27781 1.3009 7.32757 1.0198 8.40138 0.957822V1.40116C8.40138 1.65889 8.61032 1.86782 8.86805 1.86782C9.12578 1.86782 9.33471 1.65889 9.33471 1.40116V0.934489C10.4085 0.996467 11.4583 1.27757 12.4194 1.76049L12.1954 2.14316C12.0665 2.36738 12.1438 2.65362 12.368 2.78249C12.5923 2.91136 12.8785 2.83405 13.0074 2.60982L13.2314 2.22249C14.1283 2.81606 14.8965 3.58423 15.49 4.48116L15.1027 4.70516C14.8785 4.83402 14.8012 5.12026 14.93 5.34449C15.0589 5.56872 15.3452 5.64602 15.5694 5.51716L15.952 5.29316C16.4461 6.25962 16.7353 7.31773 16.8014 8.40116H16.3347C16.077 8.40116 15.868 8.61009 15.868 8.86782C15.868 9.12556 16.077 9.33449 16.3347 9.33449H16.7734C16.7214 10.3407 16.4725 11.3269 16.0407 12.2372C15.5935 12.4043 15.1598 12.6056 14.7434 12.8392H14.7014C14.6853 12.849 14.671 12.8616 14.6594 12.8765C13.3516 13.6433 12.2622 14.7327 11.4954 16.0405L11.4534 16.0825C11.4548 16.098 11.4548 16.1136 11.4534 16.1292C11.402 16.2178 11.3507 16.3065 11.304 16.3998C10.6676 16.6178 10.0057 16.7527 9.33471 16.8012ZM14.6454 27.0678C13.7995 26.4893 13.0736 25.7524 12.508 24.8978L12.9 24.6738C13.1243 24.545 13.2016 24.2587 13.0727 24.0345C12.9438 23.8103 12.6576 23.733 12.4334 23.8618L12.0414 24.0905C11.5543 23.1285 11.2685 22.0773 11.2014 21.0012H11.668C11.9258 21.0012 12.1347 20.7922 12.1347 20.5345C12.1347 20.2768 11.9258 20.0678 11.668 20.0678H11.2247C11.2867 18.994 11.5678 17.9443 12.0507 16.9832L12.4334 17.2072C12.6576 17.336 12.9438 17.2587 13.0727 17.0345C13.2016 16.8103 13.1243 16.524 12.9 16.3952L12.5127 16.1712C13.1063 15.2742 13.8745 14.5061 14.7714 13.9125L14.9954 14.2998C15.1242 14.524 15.4105 14.6014 15.6347 14.4725C15.8589 14.3436 15.9362 14.0574 15.8074 13.8332L15.5834 13.4505C16.5445 12.9676 17.5942 12.6865 18.668 12.6245V13.0678C18.668 13.3256 18.877 13.5345 19.1347 13.5345C19.3924 13.5345 19.6014 13.3256 19.6014 13.0678V12.6245C20.6752 12.6865 21.725 12.9676 22.6861 13.4505L22.462 13.8332C22.3332 14.0574 22.4105 14.3436 22.6347 14.4725C22.8589 14.6014 23.1452 14.524 23.274 14.2998L23.498 13.9125C24.395 14.5061 25.1631 15.2742 25.7567 16.1712L25.3694 16.3952C25.1452 16.524 25.0679 16.8103 25.1967 17.0345C25.3256 17.2587 25.6118 17.336 25.8361 17.2072L26.2187 16.9832C26.7097 17.9425 26.9988 18.9923 27.0681 20.0678H26.6014C26.3437 20.0678 26.1347 20.2768 26.1347 20.5345C26.1347 20.7922 26.3437 21.0012 26.6014 21.0012H27.0681C27.0053 22.0763 26.7242 23.1275 26.2421 24.0905L25.85 23.8618C25.705 23.7785 25.5265 23.7788 25.3818 23.8628C25.2371 23.9467 25.1481 24.1015 25.1484 24.2687C25.1488 24.436 25.2383 24.5905 25.3834 24.6738L25.7754 24.8978C25.2057 25.7537 24.475 26.4907 23.6241 27.0678H14.6454Z" fill="#FD4D00"/>
<path d="M19.1352 14.9336C16.0424 14.9336 13.5352 17.4408 13.5352 20.5336C13.5352 23.6264 16.0424 26.1336 19.1352 26.1336C22.228 26.1336 24.7352 23.6264 24.7352 20.5336C24.7352 17.4408 22.228 14.9336 19.1352 14.9336ZM23.4052 18.6669L20.7032 19.5443C20.4521 19.144 20.0585 18.8538 19.6018 18.7323V15.8903C21.2779 16.0614 22.7315 17.1227 23.4052 18.6669ZM18.2018 20.5336C18.2018 20.0181 18.6197 19.6003 19.1352 19.6003C19.6506 19.6003 20.0685 20.0181 20.0685 20.5336C20.0685 21.0491 19.6506 21.4669 19.1352 21.4669C18.6197 21.4669 18.2018 21.0491 18.2018 20.5336ZM18.6685 15.8669V18.7089C18.2133 18.8281 17.82 19.1148 17.5672 19.5116L14.8652 18.6669C15.5388 17.1227 16.9924 16.0614 18.6685 15.8903V15.8669ZM14.4685 20.5336C14.4683 20.2009 14.5043 19.8692 14.5758 19.5443L17.2685 20.4216V20.5336C17.2722 20.9655 17.4256 21.3828 17.7025 21.7143L16.0318 24.0103C15.0396 23.1267 14.4709 21.8622 14.4685 20.5336ZM16.8018 24.5609L18.4678 22.2649C18.9041 22.4454 19.3942 22.4454 19.8305 22.2649L21.4685 24.5609C20.0197 25.4133 18.2227 25.4133 16.7738 24.5609H16.8018ZM22.2525 24.0103L20.5818 21.7143C20.8537 21.3809 21.0021 20.9638 21.0018 20.5336C21.0018 20.4963 21.0018 20.4589 21.0018 20.4216L23.7038 19.5443C23.7722 19.8695 23.8051 20.2012 23.8018 20.5336C23.7994 21.8622 23.2307 23.1267 22.2385 24.0103H22.2525Z" fill="#FD4D00"/>
<path d="M14.4695 8.86953C14.4695 5.77674 11.9623 3.26953 8.86953 3.26953C5.77674 3.26953 3.26953 5.77674 3.26953 8.86953C3.26953 11.9623 5.77674 14.4695 8.86953 14.4695C10.3547 14.4695 11.7791 13.8795 12.8293 12.8293C13.8795 11.7791 14.4695 10.3547 14.4695 8.86953ZM11.9729 12.3462L10.3022 10.0502C10.5791 9.71871 10.7325 9.30145 10.7362 8.86953C10.7362 8.8322 10.7362 8.79487 10.7362 8.75753L13.4382 7.8802C13.5066 8.20546 13.5394 8.53718 13.5362 8.86953C13.5337 10.1981 12.9651 11.4627 11.9729 12.3462ZM7.9362 8.86953C7.9362 8.35407 8.35407 7.9362 8.86953 7.9362C9.385 7.9362 9.80287 8.35407 9.80287 8.86953C9.80287 9.385 9.385 9.80287 8.86953 9.80287C8.35407 9.80287 7.9362 9.385 7.9362 8.86953ZM13.1395 7.00286L10.4375 7.8802C10.1864 7.47989 9.79285 7.18971 9.3362 7.0682V4.2262C11.0122 4.39736 12.4659 5.45862 13.1395 7.00286ZM8.40286 4.2262V7.0682C7.94772 7.1874 7.55437 7.47407 7.30153 7.87087L4.59953 7.00286C5.27315 5.45862 6.72682 4.39736 8.40286 4.2262ZM4.20286 8.86953C4.2027 8.53684 4.23869 8.20511 4.3102 7.8802L7.00286 8.75753V8.86953C7.00658 9.30145 7.15996 9.71871 7.43686 10.0502L5.7662 12.3462C4.77394 11.4627 4.20532 10.1981 4.20286 8.86953ZM6.5362 12.8969L8.2022 10.6009C8.6385 10.7813 9.12857 10.7813 9.56487 10.6009L11.2029 12.8969C9.75403 13.7492 7.95703 13.7492 6.5082 12.8969H6.5362Z" fill="#FD4D00"/>
<path d="M21.0016 3.73438H20.0682C19.8105 3.73438 19.6016 3.94331 19.6016 4.20104C19.6016 4.45877 19.8105 4.66771 20.0682 4.66771H21.0016C22.8057 4.66771 24.2682 6.13024 24.2682 7.93437V8.67637L23.6662 8.06971C23.5479 7.95133 23.3753 7.9051 23.2136 7.94843C23.0519 7.99176 22.9256 8.11806 22.8823 8.27977C22.839 8.44147 22.8852 8.614 23.0036 8.73237L24.4036 10.1324C24.4912 10.2207 24.6105 10.2704 24.7349 10.2704C24.8593 10.2704 24.9786 10.2207 25.0662 10.1324L26.4662 8.73237C26.6492 8.54938 26.6492 8.2527 26.4662 8.06971C26.2832 7.88672 25.9866 7.88672 25.8036 8.06971L25.2016 8.67637V7.93437C25.2016 5.61478 23.3212 3.73438 21.0016 3.73438Z" fill="#FD4D00"/>
<path d="M7.93368 23.3332H7.00035C5.19622 23.3332 3.73368 21.8706 3.73368 20.0665V19.3245L4.33568 19.9312C4.4233 20.0195 4.54258 20.0692 4.66701 20.0692C4.79144 20.0692 4.91072 20.0195 4.99835 19.9312C5.08669 19.8435 5.13639 19.7243 5.13639 19.5998C5.13639 19.4754 5.08669 19.3561 4.99835 19.2685L3.59835 17.8685C3.51072 17.7802 3.39144 17.7305 3.26701 17.7305C3.14258 17.7305 3.0233 17.7802 2.93568 17.8685L1.53568 19.2685C1.35269 19.4515 1.35269 19.7482 1.53568 19.9312C1.71867 20.1142 2.01536 20.1142 2.19835 19.9312L2.80035 19.3245V20.0665C2.80035 22.3861 4.68075 24.2665 7.00035 24.2665H7.93368C8.19141 24.2665 8.40035 24.0576 8.40035 23.7998C8.40035 23.5421 8.19141 23.3332 7.93368 23.3332Z" fill="#FD4D00"/>
</g>
<defs>
<clipPath id="clip0_2916_102572">
<rect width="28" height="28" fill="white"/>
</clipPath>
</defs>
</svg>
