<svg width="28" height="28" viewBox="0 0 28 28" fill="none" xmlns="http://www.w3.org/2000/svg">
<path d="M26.3544 8.23438H1.64453V23.6094H26.3544V8.23438Z" stroke="#FD4D00" stroke-miterlimit="10" stroke-linecap="round" stroke-linejoin="round"/>
<path d="M26.3549 25.8058H1.64511C1.03857 25.8058 0.546875 25.3141 0.546875 24.7076C0.546875 24.1011 1.03857 23.6094 1.64511 23.6094H26.3549C26.9615 23.6094 27.4532 24.1011 27.4532 24.7076C27.4531 25.3141 26.9614 25.8058 26.3549 25.8058Z" stroke="#FD4D00" stroke-miterlimit="10" stroke-linecap="round" stroke-linejoin="round"/>
<path d="M26.3549 8.23548H1.64511C1.03857 8.23548 0.546875 7.74384 0.546875 7.1373C0.546875 6.53076 1.03857 6.03906 1.64511 6.03906H26.3549C26.9615 6.03906 27.4532 6.53076 27.4532 7.1373C27.4531 7.74384 26.9614 8.23548 26.3549 8.23548Z" stroke="#FD4D00" stroke-miterlimit="10" stroke-linecap="round" stroke-linejoin="round"/>
<path d="M7.68359 6.03908V3.84266C7.68359 2.93288 8.42111 2.19531 9.33095 2.19531H18.6658C19.5756 2.19531 20.3131 2.93283 20.3131 3.84266V6.03908" stroke="#FD4D00" stroke-miterlimit="10" stroke-linecap="round" stroke-linejoin="round"/>
<path d="M9.88281 2.19531V3.84266" stroke="#FD4D00" stroke-miterlimit="10" stroke-linecap="round" stroke-linejoin="round"/>
<path d="M12.6289 2.19531V3.84266" stroke="#FD4D00" stroke-miterlimit="10" stroke-linecap="round" stroke-linejoin="round"/>
<path d="M15.3711 2.19531V3.84266" stroke="#FD4D00" stroke-miterlimit="10" stroke-linecap="round" stroke-linejoin="round"/>
<path d="M18.1172 2.19531V3.84266" stroke="#FD4D00" stroke-miterlimit="10" stroke-linecap="round" stroke-linejoin="round"/>
<path d="M4.94084 3.84375H2.19531V6.04016H4.94084V3.84375Z" stroke="#FD4D00" stroke-miterlimit="10" stroke-linecap="round" stroke-linejoin="round"/>
<path d="M26.3549 3.84375H23.6094V6.04016H26.3549V3.84375Z" stroke="#FD4D00" stroke-miterlimit="10" stroke-linecap="round" stroke-linejoin="round"/>
<path d="M3.56641 3.84266V2.19531" stroke="#FD4D00" stroke-miterlimit="10" stroke-linecap="round" stroke-linejoin="round"/>
<path d="M24.9805 3.84266V2.19531" stroke="#FD4D00" stroke-miterlimit="10" stroke-linecap="round" stroke-linejoin="round"/>
<path d="M7.68527 17.5698C9.50486 17.5698 10.9799 16.0947 10.9799 14.2751C10.9799 12.4555 9.50486 10.9805 7.68527 10.9805C5.86569 10.9805 4.39062 12.4555 4.39062 14.2751C4.39062 16.0947 5.86569 17.5698 7.68527 17.5698Z" stroke="#FD4D00" stroke-miterlimit="10" stroke-linecap="round" stroke-linejoin="round"/>
<path d="M6.58594 14.2773H8.78235" stroke="#FD4D00" stroke-miterlimit="10" stroke-linecap="round" stroke-linejoin="round"/>
<path d="M7.68359 13.1758V15.3722" stroke="#FD4D00" stroke-miterlimit="10" stroke-linecap="round" stroke-linejoin="round"/>
<path d="M20.3142 17.5698C22.1338 17.5698 23.6088 16.0947 23.6088 14.2751C23.6088 12.4555 22.1338 10.9805 20.3142 10.9805C18.4946 10.9805 17.0195 12.4555 17.0195 14.2751C17.0195 16.0947 18.4946 17.5698 20.3142 17.5698Z" stroke="#FD4D00" stroke-miterlimit="10" stroke-linecap="round" stroke-linejoin="round"/>
<path d="M19.2148 14.2773H21.4113" stroke="#FD4D00" stroke-miterlimit="10" stroke-linecap="round" stroke-linejoin="round"/>
<path d="M1.64453 20.3164H26.3543" stroke="#FD4D00" stroke-miterlimit="10" stroke-linecap="round" stroke-linejoin="round"/>
</svg>
