<svg width="28" height="28" viewBox="0 0 28 28" fill="none" xmlns="http://www.w3.org/2000/svg">
<path d="M1.03516 14.6217C1.03516 8.05202 6.16849 2.63869 12.7277 2.29647C13.0077 2.27573 13.2566 2.49869 13.2722 2.78906C13.2877 3.07424 13.0648 3.31795 12.7796 3.3335C6.77516 3.64461 2.07219 8.60165 2.07219 14.6217C2.07219 20.8542 7.1433 25.9254 13.3759 25.9254C19.3959 25.9254 24.3529 21.2224 24.664 15.2179C24.6796 14.9328 24.9285 14.7098 25.2085 14.7254C25.4937 14.7409 25.7166 14.9846 25.7011 15.2698C25.3589 21.8291 19.9455 26.9624 13.3759 26.9624C6.57293 26.9624 1.03516 21.4246 1.03516 14.6217ZM10.3685 14.6217C10.3685 12.9624 11.7166 11.6142 13.3759 11.6142C15.0352 11.6142 16.3833 12.9624 16.3833 14.6217C16.3833 16.2809 15.0352 17.6291 13.3759 17.6291C11.7166 17.6291 10.3685 16.2809 10.3685 14.6217ZM11.4055 14.6217C11.4055 15.7105 12.287 16.592 13.3759 16.592C14.4648 16.592 15.3463 15.7105 15.3463 14.6217C15.3463 13.5328 14.4648 12.6513 13.3759 12.6513C12.287 12.6513 11.4055 13.5328 11.4055 14.6217ZM13.3759 11.1476C13.8633 11.1476 14.2574 10.7535 14.2574 10.2661C14.2574 9.77869 13.8633 9.38461 13.3759 9.38461C12.8885 9.38461 12.4944 9.77869 12.4944 10.2661C12.4944 10.7535 12.8885 11.1476 13.3759 11.1476ZM17.4203 13.6365C17.9077 13.6365 18.3018 13.2424 18.3018 12.755C18.3018 12.2676 17.9077 11.8735 17.4203 11.8735C16.9329 11.8735 16.5389 12.2676 16.5389 12.755C16.5389 13.2424 16.9329 13.6365 17.4203 13.6365ZM15.6055 18.0439C15.6055 18.5313 15.9996 18.9254 16.487 18.9254C16.9744 18.9254 17.3685 18.5313 17.3685 18.0439C17.3685 17.5565 16.9744 17.1624 16.487 17.1624C15.9996 17.1624 15.6055 17.5565 15.6055 18.0439ZM8.44997 12.755C8.44997 13.2424 8.84405 13.6365 9.33145 13.6365C9.81886 13.6365 10.2129 13.2424 10.2129 12.755C10.2129 12.2676 9.81886 11.8735 9.33145 11.8735C8.84405 11.8735 8.44997 12.2676 8.44997 12.755ZM9.3833 18.0439C9.3833 18.5313 9.77738 18.9254 10.2648 18.9254C10.7522 18.9254 11.1463 18.5313 11.1463 18.0439C11.1463 17.5565 10.7522 17.1624 10.2648 17.1624C9.77738 17.1624 9.3833 17.5565 9.3833 18.0439ZM14.2211 3.06906C14.0966 2.86684 14.1277 2.60239 14.2937 2.43128L15.5381 1.18684C15.6677 1.05721 15.8544 1.00535 16.0307 1.05202L18.4574 1.65869H20.884C21.024 1.65869 21.1537 1.71573 21.2522 1.80906L23.1189 3.67573C23.2174 3.77424 23.2692 3.90387 23.2692 4.04387V4.7698H23.9952C24.1352 4.7698 24.2648 4.82684 24.3633 4.92017L26.23 6.78684C26.3285 6.88535 26.3803 7.01498 26.3803 7.15498V9.58684L26.9455 12.0187C26.987 12.1898 26.9352 12.3713 26.8159 12.4957L25.6129 13.7402C25.5144 13.8439 25.3744 13.9009 25.2396 13.9009C25.1463 13.9009 25.0529 13.875 24.97 13.8231C24.4307 13.4913 23.1552 13.315 22.7092 13.2735C22.5018 13.2528 22.3255 13.1179 22.2633 12.9209C20.91 8.83498 18.5922 6.50684 15.1855 5.79647C14.9626 5.7498 14.7966 5.56313 14.7759 5.33498C14.7292 4.88906 14.5529 3.60832 14.2211 3.06906ZM15.2944 2.90313C15.5589 3.54091 15.6989 4.37573 15.7611 4.86313C19.2715 5.7135 21.6929 8.14535 23.1396 12.2728C23.6166 12.335 24.4826 12.4698 25.1359 12.7394L25.8774 11.972L25.364 9.75795C25.3537 9.72165 25.3485 9.68017 25.3485 9.63869V7.36239L25.0789 7.09276L23.8552 8.31647C23.7515 8.42017 23.6218 8.46684 23.487 8.46684C23.3522 8.46684 23.2226 8.41499 23.1189 8.31647C22.9166 8.11424 22.9166 7.78758 23.1189 7.58535L24.3426 6.36165L23.7826 5.80165H22.7507C22.4655 5.80165 22.2322 5.56832 22.2322 5.28313V4.25647L21.7966 3.82091L20.5885 5.02906C20.4848 5.13276 20.3552 5.18461 20.2203 5.18461C20.0855 5.18461 19.9559 5.13276 19.8522 5.03424C19.65 4.83202 19.65 4.50536 19.8522 4.30313L21.0603 3.09498L20.6715 2.69573H18.3952C18.3537 2.69573 18.3122 2.69054 18.2707 2.68017L16.067 2.13054L15.2944 2.90313ZM9.8396 8.1661C10.8922 7.59054 12.0952 7.25869 13.3759 7.25869C17.4359 7.25869 20.7389 10.5617 20.7389 14.6217C20.7389 14.9017 20.7181 15.1765 20.687 15.4513C22.1959 15.9854 22.6055 17.5876 22.6055 18.4017C22.6055 18.6868 22.3722 18.9202 22.087 18.9202C21.8018 18.9202 21.5685 18.6868 21.5685 18.4017C21.5685 18.3394 21.5426 16.9861 20.49 16.4883C19.7122 19.4491 17.1352 21.6839 14.0033 21.9483C13.9203 23.592 12.4477 24.4268 11.644 24.6446C11.5974 24.655 11.5559 24.6602 11.5092 24.6602C11.2811 24.6602 11.0685 24.5098 11.0115 24.2765C10.9389 24.0016 11.0996 23.7165 11.3796 23.6439C11.4418 23.6283 12.8522 23.2187 12.9663 21.9587C9.79812 21.7824 7.16405 19.5994 6.31367 16.6646C6.03886 16.7528 5.76404 16.7994 5.50479 16.7994C4.49886 16.7994 3.61738 16.2342 3.19219 15.8091C2.98997 15.6068 2.98997 15.2802 3.19219 15.0779C3.39442 14.8757 3.72108 14.8757 3.9233 15.0779C3.96997 15.1194 4.98108 16.0942 6.0959 15.6431C6.04923 15.3061 6.01812 14.9691 6.01812 14.6217C6.01812 12.2157 7.18479 10.0794 8.97886 8.73647C8.06627 7.53869 8.49145 6.0298 8.89071 5.34017C9.0359 5.09128 9.35219 5.00832 9.60108 5.14832C9.84997 5.2935 9.93293 5.6098 9.79293 5.85869C9.75145 5.91573 9.04108 7.19647 9.8396 8.1661ZM13.3759 8.29573C9.88627 8.29573 7.04997 11.132 7.04997 14.6217C7.04997 18.1113 9.88627 20.9476 13.3759 20.9476C16.8655 20.9476 19.7018 18.1113 19.7018 14.6217C19.7018 11.132 16.8655 8.29573 13.3759 8.29573Z" fill="#FD4D00"/>
</svg>
