<svg width="28" height="28" viewBox="0 0 28 28" fill="none" xmlns="http://www.w3.org/2000/svg">
<g clip-path="url(#clip0_2916_102640)">
<path d="M12.0859 19.1952C13.8981 19.1952 15.3671 17.7262 15.3671 15.914C15.3671 14.1019 13.8981 12.6328 12.0859 12.6328C10.2737 12.6328 8.80469 14.1019 8.80469 15.914C8.80469 17.7262 10.2737 19.1952 12.0859 19.1952Z" stroke="#FD4D00" stroke-miterlimit="10" stroke-linecap="round" stroke-linejoin="round"/>
<path d="M12.0859 17.5546C12.992 17.5546 13.7265 16.8201 13.7265 15.914C13.7265 15.008 12.992 14.2734 12.0859 14.2734C11.1798 14.2734 10.4453 15.008 10.4453 15.914C10.4453 16.8201 11.1798 17.5546 12.0859 17.5546Z" stroke="#FD4D00" stroke-miterlimit="10" stroke-linecap="round" stroke-linejoin="round"/>
<path d="M21.3008 16.7344C21.7538 16.7344 22.1211 16.3671 22.1211 15.9141C22.1211 15.461 21.7538 15.0938 21.3008 15.0938C20.8477 15.0938 20.4805 15.461 20.4805 15.9141C20.4805 16.3671 20.8477 16.7344 21.3008 16.7344Z" stroke="#FD4D00" stroke-miterlimit="10" stroke-linecap="round" stroke-linejoin="round"/>
<path d="M16.6914 8.75388C17.1444 8.75388 17.5117 8.38662 17.5117 7.93358C17.5117 7.48054 17.1444 7.11328 16.6914 7.11328C16.2384 7.11328 15.8711 7.48054 15.8711 7.93358C15.8711 8.38662 16.2384 8.75388 16.6914 8.75388Z" stroke="#FD4D00" stroke-miterlimit="10" stroke-linecap="round" stroke-linejoin="round"/>
<path d="M7.47655 8.75388C7.92959 8.75388 8.29685 8.38662 8.29685 7.93358C8.29685 7.48054 7.92959 7.11328 7.47655 7.11328C7.02351 7.11328 6.65625 7.48054 6.65625 7.93358C6.65625 8.38662 7.02351 8.75388 7.47655 8.75388Z" stroke="#FD4D00" stroke-miterlimit="10" stroke-linecap="round" stroke-linejoin="round"/>
<path d="M2.87108 16.7344C3.32412 16.7344 3.69138 16.3671 3.69138 15.9141C3.69138 15.461 3.32412 15.0938 2.87108 15.0938C2.41804 15.0938 2.05078 15.461 2.05078 15.9141C2.05078 16.3671 2.41804 16.7344 2.87108 16.7344Z" stroke="#FD4D00" stroke-miterlimit="10" stroke-linecap="round" stroke-linejoin="round"/>
<path d="M7.47655 24.7148C7.92959 24.7148 8.29685 24.3476 8.29685 23.8945C8.29685 23.4415 7.92959 23.0742 7.47655 23.0742C7.02351 23.0742 6.65625 23.4415 6.65625 23.8945C6.65625 24.3476 7.02351 24.7148 7.47655 24.7148Z" stroke="#FD4D00" stroke-miterlimit="10" stroke-linecap="round" stroke-linejoin="round"/>
<path d="M16.6914 24.7148C17.1444 24.7148 17.5117 24.3476 17.5117 23.8945C17.5117 23.4415 17.1444 23.0742 16.6914 23.0742C16.2384 23.0742 15.8711 23.4415 15.8711 23.8945C15.8711 24.3476 16.2384 24.7148 16.6914 24.7148Z" stroke="#FD4D00" stroke-miterlimit="10" stroke-linecap="round" stroke-linejoin="round"/>
<path d="M27.2765 4.439C27.2774 4.439 25.4493 0.857508 25.4493 0.857508C25.1448 0.261039 24.2925 0.261039 23.9881 0.857508L22.1599 4.439C21.9611 4.83028 21.8477 5.27303 21.8477 5.74251C21.8477 7.32815 23.1331 8.61357 24.7187 8.61357C26.3044 8.61357 27.5898 7.32815 27.5898 5.74251C27.5898 5.27303 27.4763 4.83028 27.2765 4.439Z" stroke="#FD4D00" stroke-miterlimit="10" stroke-linecap="round" stroke-linejoin="round"/>
<path d="M1.5874 10.7999C0.833596 12.3444 0.410156 14.0796 0.410156 15.9139C0.410156 22.3622 5.6375 27.5895 12.0858 27.5895C18.5341 27.5895 23.7614 22.3622 23.7614 15.9139C23.7614 9.46562 18.5341 4.23828 12.0858 4.23828C8.05837 4.23828 4.50734 6.27744 2.40857 9.3796" stroke="#FD4D00" stroke-miterlimit="10" stroke-linecap="round" stroke-linejoin="round"/>
<path d="M6.69023 19.9763C7.92287 21.6109 9.88088 22.6678 12.0858 22.6678C15.8159 22.6678 18.8397 19.644 18.8397 15.914C18.8397 12.1839 15.8159 9.16016 12.0858 9.16016C8.35583 9.16016 5.33203 12.1839 5.33203 15.914C5.33203 16.8517 5.52327 17.7447 5.86867 18.5563" stroke="#FD4D00" stroke-miterlimit="10" stroke-linecap="round" stroke-linejoin="round"/>
</g>
<defs>
<clipPath id="clip0_2916_102640">
<rect width="28" height="28" fill="white"/>
</clipPath>
</defs>
</svg>
