<svg width="28" height="28" viewBox="0 0 28 28" fill="none" xmlns="http://www.w3.org/2000/svg">
<g clip-path="url(#clip0_2916_102909)">
<path d="M20.3333 4.75113L15.8658 1.62353V0H14.9325V1.4H13.0658V0H12.1325V1.62353L7.66512 4.7502C7.45354 4.89738 7.40127 5.18817 7.54839 5.39974C7.63583 5.52545 7.77933 5.60029 7.93252 5.6H20.0658C20.3236 5.59982 20.5323 5.3907 20.5322 5.13298C20.5321 4.98091 20.4578 4.8384 20.3333 4.75113ZM9.41278 4.66667L12.7462 2.33333H15.2522L18.5856 4.66667H9.41278Z" fill="#FD4D00"/>
<path d="M6.06771 18.1992H5.13437C4.36117 18.1992 3.73438 18.826 3.73438 19.5992V20.0659C3.73438 20.8391 4.36117 21.4659 5.13437 21.4659H6.06771C6.84092 21.4659 7.46771 20.8391 7.46771 20.0659V19.5992C7.46771 18.826 6.84092 18.1992 6.06771 18.1992ZM6.53437 20.0659C6.53437 20.3236 6.32542 20.5326 6.06771 20.5326H5.13437C4.87666 20.5326 4.66771 20.3236 4.66771 20.0659V19.5992C4.66771 19.3415 4.87666 19.1326 5.13437 19.1326H6.06771C6.32542 19.1326 6.53437 19.3415 6.53437 19.5992V20.0659Z" fill="#FD4D00"/>
<path d="M22.8685 18.1992H21.9352C21.1619 18.1992 20.5352 18.826 20.5352 19.5992V20.0659C20.5352 20.8391 21.1619 21.4659 21.9352 21.4659H22.8685C23.6417 21.4659 24.2685 20.8391 24.2685 20.0659V19.5992C24.2685 18.826 23.6417 18.1992 22.8685 18.1992ZM23.3352 20.0659C23.3352 20.3236 23.1262 20.5326 22.8685 20.5326H21.9352C21.6774 20.5326 21.4685 20.3236 21.4685 20.0659V19.5992C21.4685 19.3415 21.6774 19.1326 21.9352 19.1326H22.8685C23.1262 19.1326 23.3352 19.3415 23.3352 19.5992V20.0659Z" fill="#FD4D00"/>
<path d="M18.1984 18.1992H9.79844C9.02523 18.1992 8.39844 18.826 8.39844 19.5992V20.0659C8.39844 20.8391 9.02523 21.4659 9.79844 21.4659H18.1984C18.9716 21.4659 19.5984 20.8391 19.5984 20.0659V19.5992C19.5984 18.826 18.9716 18.1992 18.1984 18.1992ZM18.6651 20.0659C18.6651 20.3236 18.4562 20.5326 18.1984 20.5326H9.79844C9.54072 20.5326 9.33177 20.3236 9.33177 20.0659V19.5992C9.33177 19.3415 9.54072 19.1326 9.79844 19.1326H18.1984C18.4562 19.1326 18.6651 19.3415 18.6651 19.5992V20.0659Z" fill="#FD4D00"/>
<path d="M24.6667 16.8296L23.6321 16.4156L20.5371 12.1601C20.0972 11.5573 19.3962 11.2004 18.6499 11.1992H9.35113C8.60487 11.2004 7.90388 11.5573 7.46393 12.1601L4.369 16.4156L3.3344 16.8296C2.44627 17.1814 1.86417 18.041 1.8672 18.9963V27.0659C1.8672 27.5814 2.28504 27.9992 2.80053 27.9992H5.60053C6.11602 27.9992 6.53387 27.5814 6.53387 27.0659V25.1992H21.4672V27.0659C21.4672 27.5814 21.885 27.9992 22.4005 27.9992H25.2005C25.716 27.9992 26.1339 27.5814 26.1339 27.0659V18.9963C26.1369 18.041 25.5548 17.1814 24.6667 16.8296ZM8.21853 12.7094C8.48249 12.3475 8.90325 12.1333 9.35113 12.1326H18.6499C19.0978 12.1333 19.5186 12.3475 19.7825 12.7094L22.4173 16.3326H5.58373L8.21853 12.7094ZM5.60053 27.0659H2.80053V25.1194C2.83973 25.1334 2.8822 25.1409 2.92327 25.1512C2.95033 25.1582 2.97647 25.1675 3.00447 25.1726C3.09097 25.1898 3.179 25.1987 3.2672 25.1992H5.60053V27.0659ZM25.2005 27.0659H22.4005V25.1992H24.7339C24.8221 25.1987 24.9101 25.1898 24.9966 25.1726C25.0246 25.1675 25.0507 25.1582 25.0783 25.1512C25.1189 25.1409 25.1613 25.1334 25.2005 25.1194V27.0659ZM25.2005 23.7992C25.2005 24.0569 24.9916 24.2659 24.7339 24.2659H6.0672H3.2672C3.00948 24.2659 2.80053 24.0569 2.80053 23.7992V23.3326H25.2005V23.7992ZM25.2005 22.3992H2.80053V18.9963C2.79855 18.4232 3.14779 17.9075 3.68067 17.6966L4.7568 17.2659H23.2443L24.3204 17.6966C24.8533 17.9075 25.2025 18.4232 25.2005 18.9963V22.3992Z" fill="#FD4D00"/>
<path d="M14.4685 6.53516H13.5352V7.93516H14.4685V6.53516Z" fill="#FD4D00"/>
<path d="M14.4685 8.86719H13.5352V10.2672H14.4685V8.86719Z" fill="#FD4D00"/>
<path d="M8.97312 6.23727L8.08594 7.32031L8.80796 7.91177L9.69514 6.82873L8.97312 6.23727Z" fill="#FD4D00"/>
<path d="M7.49279 8.0421L6.60547 9.125L7.3274 9.71655L8.21472 8.63365L7.49279 8.0421Z" fill="#FD4D00"/>
<path d="M6.01623 9.84679L5.12891 10.9297L5.85084 11.5212L6.73816 10.4383L6.01623 9.84679Z" fill="#FD4D00"/>
<path d="M4.53576 11.6554L3.64844 12.7383L4.37037 13.3298L5.25769 12.2469L4.53576 11.6554Z" fill="#FD4D00"/>
<path d="M11.2205 6.40614L10.8281 7.75L11.724 8.01161L12.1165 6.66775L11.2205 6.40614Z" fill="#FD4D00"/>
<path d="M10.5649 8.64066L10.1719 9.98438L11.0677 10.2464L11.4607 8.90264L10.5649 8.64066Z" fill="#FD4D00"/>
<path d="M6.32601 6.09377L5.29688 7.04297L5.92936 7.72872L6.9585 6.77952L6.32601 6.09377Z" fill="#FD4D00"/>
<path d="M4.60726 7.67971L3.57812 8.62891L4.21061 9.31466L5.23975 8.36546L4.60726 7.67971Z" fill="#FD4D00"/>
<path d="M2.89633 9.25783L1.86719 10.207L2.49967 10.8928L3.52881 9.94358L2.89633 9.25783Z" fill="#FD4D00"/>
<path d="M1.18148 10.8399L0.152344 11.7891L0.784828 12.4748L1.81397 11.5256L1.18148 10.8399Z" fill="#FD4D00"/>
<path d="M19.0265 6.33481L18.3047 6.92578L19.1916 8.0091L19.9134 7.41813L19.0265 6.33481Z" fill="#FD4D00"/>
<path d="M20.5033 8.13511L19.7812 8.72656L20.6684 9.8096L21.3905 9.21815L20.5033 8.13511Z" fill="#FD4D00"/>
<path d="M21.9837 9.9437L21.2617 10.5352L22.1489 11.6181L22.8708 11.0266L21.9837 9.9437Z" fill="#FD4D00"/>
<path d="M23.4602 11.7484L22.7383 12.3398L23.6255 13.4227L24.3474 12.8313L23.4602 11.7484Z" fill="#FD4D00"/>
<path d="M16.7827 6.5082L15.8867 6.76953L16.2787 8.11353L17.1747 7.8522L16.7827 6.5082Z" fill="#FD4D00"/>
<path d="M17.4349 8.73811L16.5391 9L16.9319 10.3437L17.8277 10.0818L17.4349 8.73811Z" fill="#FD4D00"/>
<path d="M21.6755 6.19325L21.043 6.87891L22.072 7.82811L22.7045 7.14245L21.6755 6.19325Z" fill="#FD4D00"/>
<path d="M23.3904 7.77537L22.7578 8.46094L23.7867 9.41028L24.4192 8.72471L23.3904 7.77537Z" fill="#FD4D00"/>
<path d="M25.1052 9.35741L24.4727 10.043L25.5015 10.9923L26.1341 10.3067L25.1052 9.35741Z" fill="#FD4D00"/>
<path d="M26.82 10.9393L26.1875 11.625L27.2165 12.5742L27.849 11.8885L26.82 10.9393Z" fill="#FD4D00"/>
</g>
<defs>
<clipPath id="clip0_2916_102909">
<rect width="28" height="28" fill="white"/>
</clipPath>
</defs>
</svg>
