<svg width="28" height="28" viewBox="0 0 28 28" fill="none" xmlns="http://www.w3.org/2000/svg">
<g clip-path="url(#clip0_2916_102756)">
<path fill-rule="evenodd" clip-rule="evenodd" d="M10.9896 0.960686C10.6012 1.26683 10.2378 1.60457 9.89821 1.97262C9.92719 1.86833 9.96082 1.76661 9.9996 1.66785C10.0386 1.56865 10.0164 1.45588 9.94272 1.37883C9.869 1.30183 9.75733 1.27465 9.65649 1.30921C9.01938 1.52752 8.40403 1.79237 7.81423 2.09977C7.77786 2.11869 7.7462 2.1456 7.72164 2.17841C7.42403 2.57626 7.15897 2.99845 6.92507 3.44404C6.92605 3.33718 6.93207 3.23158 6.94366 3.12751C6.95553 3.02158 6.90472 2.91844 6.81356 2.86326C6.7224 2.80808 6.6075 2.81087 6.51912 2.87043C5.96235 3.24564 5.43532 3.66132 4.94215 4.11342C4.91185 4.1412 4.88818 4.17543 4.87297 4.21366C4.68983 4.67276 4.54403 5.14674 4.43405 5.63488C4.40753 5.53196 4.38603 5.42898 4.37034 5.32601C4.35432 5.22073 4.27868 5.13438 4.17647 5.10463C4.07426 5.07488 3.96407 5.10715 3.89407 5.18732C3.45525 5.68995 3.05347 6.22551 2.69275 6.78977C2.67054 6.8245 2.65649 6.86382 2.65162 6.90472C2.59305 7.39697 2.57473 7.89413 2.59497 8.39572C2.54192 8.30193 2.49401 8.20672 2.45174 8.10993C2.40919 8.01236 2.31382 7.94832 2.20734 7.94592C2.10086 7.94351 2.0027 8.00312 1.95573 8.09872C1.66331 8.69372 1.41361 9.31404 1.21082 9.95508C1.19841 9.99424 1.19502 10.0357 1.20087 10.0764C1.27169 10.5696 1.38298 11.0569 1.5331 11.5386C1.45785 11.4619 1.38714 11.3826 1.32151 11.3005L1.3214 11.3006L1.31998 11.2985C1.1469 11.082 0.822598 11.4957 0.838019 11.4168C0.711254 12.0656 0.631302 12.7305 0.601826 13.4083C0.600021 13.4493 0.607515 13.4902 0.623702 13.5279C0.819265 13.984 1.05212 14.4242 1.32069 14.8491C1.22827 14.7945 1.1394 14.7362 1.05464 14.6737C0.968941 14.6105 0.854371 14.6029 0.760965 14.6541C0.667613 14.7052 0.612434 14.8059 0.619543 14.9122C0.664988 15.5867 0.76042 16.2478 0.90217 16.892C0.911029 16.9322 0.928857 16.9699 0.954287 17.0022C1.26207 17.3937 1.60195 17.7598 1.97251 18.1018C1.86828 18.0728 1.76656 18.0392 1.66785 18.0004C1.56865 17.9614 1.45583 17.9836 1.37883 18.0573C1.30183 18.131 1.27465 18.2427 1.30915 18.3435C1.52747 18.9806 1.79232 19.596 2.09972 20.1858C2.11869 20.2222 2.1456 20.2538 2.17841 20.2783C2.57621 20.5759 2.99839 20.841 3.44393 21.075C3.33713 21.0739 3.23158 21.068 3.12746 21.0563C3.02158 21.0445 2.91844 21.0953 2.86326 21.1864C2.80803 21.2776 2.81082 21.3925 2.87037 21.4809C3.24558 22.0376 3.66132 22.5647 4.11336 23.0578C4.14115 23.0882 4.17544 23.1118 4.21361 23.1271C4.67254 23.3102 5.14652 23.4559 5.63477 23.566C5.5319 23.5925 5.42898 23.6139 5.32595 23.6296C5.22073 23.6457 5.13438 23.7213 5.10463 23.8235C5.07488 23.9257 5.10715 24.0357 5.18732 24.1057C5.6899 24.5448 6.22545 24.9468 6.78972 25.3072C6.8245 25.3296 6.86376 25.3433 6.90472 25.3482C7.39691 25.4067 7.89397 25.4253 8.39567 25.4051C8.30188 25.4581 8.20667 25.5062 8.10993 25.5483C8.01231 25.591 7.94832 25.6862 7.94592 25.7928C7.94351 25.8989 8.00312 25.9973 8.09866 26.0444C8.69372 26.3369 9.31398 26.5863 9.95503 26.7892C9.99424 26.8018 10.0357 26.8051 10.0764 26.7991C10.5695 26.7285 11.0568 26.6169 11.5385 26.4671C11.4614 26.5426 11.3816 26.6137 11.2988 26.6798C11.2154 26.746 11.1783 26.8548 11.2036 26.9587C11.229 27.0621 11.3122 27.1414 11.4168 27.1622C12.0656 27.2891 12.7304 27.3689 13.4083 27.3984C13.4493 27.4001 13.4902 27.3924 13.5279 27.3765C13.984 27.1808 14.4241 26.9478 14.849 26.6793C14.7945 26.7717 14.7362 26.8608 14.6737 26.9451C14.6105 27.0309 14.6028 27.1458 14.654 27.2393C14.7052 27.3323 14.8059 27.3875 14.9122 27.3804C15.5867 27.335 16.2478 27.2398 16.892 27.0976C16.9322 27.0889 16.9698 27.0714 17.0022 27.0457C17.3937 26.7378 17.7599 26.3982 18.1017 26.0274C18.0727 26.1319 18.0392 26.2336 18.0004 26.332C17.9614 26.4316 17.9836 26.5442 18.0573 26.6213C18.131 26.6984 18.2426 26.7252 18.3435 26.6908C18.9806 26.4726 19.5959 26.2079 20.1857 25.9005C20.2221 25.8814 20.2538 25.8546 20.2783 25.8218C20.5759 25.4237 20.8411 25.0015 21.0749 24.5558C21.0739 24.663 21.0679 24.7685 21.0563 24.8724C21.0445 24.9785 21.0953 25.0813 21.1864 25.1366C21.2776 25.1918 21.3925 25.1891 21.4809 25.1294C22.0376 24.7543 22.5647 24.3387 23.0578 23.8866C23.0881 23.8588 23.1118 23.8245 23.127 23.7864C23.3102 23.3273 23.4559 22.8533 23.5659 22.3652C23.5925 22.4681 23.6139 22.5711 23.6296 22.674C23.6457 22.7792 23.7213 22.8657 23.8235 22.8954C23.9257 22.9252 24.0357 22.8929 24.1057 22.8127C24.5448 22.3101 24.9468 21.7745 25.3072 21.2103C25.3296 21.1755 25.3433 21.1362 25.3482 21.0953C25.4067 20.603 25.4253 20.1059 25.4051 19.6043C25.4581 19.6981 25.5057 19.7933 25.5483 19.8901C25.591 19.9877 25.6862 20.0517 25.7928 20.0541C25.8989 20.0565 25.9973 19.9969 26.0444 19.9013C26.3369 19.3063 26.5863 18.686 26.7892 18.045C26.8018 18.0057 26.8051 17.9643 26.7991 17.9236C26.7285 17.4305 26.6169 16.9432 26.4671 16.4615C26.5426 16.5386 26.6137 16.6184 26.6798 16.7012C26.746 16.7846 26.8548 16.8217 26.9587 16.7964C27.0621 16.7711 27.1414 16.6878 27.1622 16.5832C27.2885 15.9344 27.3689 15.2696 27.3984 14.5918C27.4001 14.5507 27.3924 14.5098 27.3765 14.4721C27.1808 14.016 26.9478 13.5758 26.6793 13.151C26.7717 13.2055 26.8603 13.2638 26.9451 13.3263C27.0309 13.3895 27.1458 13.3972 27.2393 13.346C27.3323 13.2948 27.3875 13.1941 27.3804 13.0879C27.335 12.4133 27.2398 11.7522 27.0976 11.108C27.0889 11.0678 27.0714 11.0301 27.0457 10.9978C26.7378 10.6064 26.3982 10.2402 26.0274 9.89826C26.1319 9.92725 26.2336 9.96082 26.332 9.99965C26.4316 10.0386 26.5442 10.0164 26.6213 9.94272C26.6979 9.86906 26.7252 9.75733 26.6908 9.65649C26.4726 9.01943 26.2079 8.40403 25.9005 7.81423C25.8814 7.77786 25.8546 7.74625 25.8218 7.72164C25.4237 7.42409 25.0015 7.15902 24.5558 6.92507C24.663 6.92611 24.7685 6.93207 24.8724 6.94372C24.9785 6.95553 25.0813 6.90472 25.1366 6.81356C25.1918 6.72245 25.1891 6.6075 25.1294 6.51912C24.7543 5.9624 24.3387 5.43538 23.8866 4.94215C23.8588 4.91185 23.8245 4.88823 23.7864 4.87297C23.3274 4.68988 22.8535 4.54408 22.3652 4.43405C22.4681 4.40753 22.571 4.38609 22.674 4.3704C22.7792 4.35437 22.8656 4.27868 22.8953 4.17647C22.9251 4.07426 22.8928 3.96412 22.8127 3.89407C22.3101 3.45531 21.7745 3.05347 21.2103 2.69275C21.1755 2.67054 21.1362 2.65649 21.0953 2.65162C20.6031 2.59311 20.106 2.57479 19.6043 2.59491C19.6981 2.54197 19.7933 2.49401 19.8901 2.45179C19.9877 2.40919 20.0517 2.31382 20.0541 2.20734C20.0565 2.10092 19.9969 2.0027 19.9013 1.95578C19.3063 1.66336 18.686 1.41366 18.045 1.21082C18.0057 1.19841 17.9642 1.19502 17.9235 1.20087C17.4305 1.27169 16.9432 1.38298 16.4615 1.53299C16.5386 1.45736 16.6184 1.38621 16.7012 1.3202C16.7846 1.25375 16.8217 1.14493 16.7964 1.04141C16.771 0.937882 16.6878 0.858473 16.5832 0.838019C15.9344 0.711254 15.2696 0.631357 14.5917 0.601826C14.5507 0.600021 14.5098 0.607515 14.4721 0.623702C14.016 0.819265 13.5758 1.05212 13.151 1.32069C13.2055 1.22827 13.2638 1.1394 13.3262 1.05469C13.3895 0.968998 13.3972 0.854371 13.346 0.760965C13.2948 0.667613 13.1941 0.612436 13.0878 0.6196C12.4133 0.66499 11.7522 0.760418 11.108 0.902223L10.9974 0.954561L10.9896 0.960686ZM9.45912 3.18029L9.47329 3.18067L9.70084 3.0597L9.49204 3.16317L9.701 3.05948C10.1715 2.44004 10.6986 1.8925 11.2869 1.42301C11.7124 1.33147 12.1455 1.26108 12.5852 1.2129C12.4517 1.46523 12.3386 1.73785 12.24 2.02474C12.2007 2.13909 12.2411 2.26575 12.3396 2.33607C12.438 2.4064 12.5709 2.40372 12.6664 2.32946C13.2837 1.84941 13.9374 1.45424 14.6304 1.15105C15.0743 1.17254 15.5122 1.21651 15.9434 1.28197C15.749 1.49126 15.569 1.72549 15.3994 1.97722C15.3318 2.07757 15.3381 2.21035 15.415 2.30375C15.4919 2.39716 15.6209 2.42899 15.7324 2.38196C16.4545 2.07741 17.1899 1.86456 17.9396 1.7513C18.3593 1.88632 18.7696 2.04235 19.1692 2.21806C18.9271 2.36998 18.6926 2.54974 18.4634 2.74907C18.3721 2.82848 18.3439 2.95842 18.394 3.06856C18.4441 3.17865 18.5605 3.24279 18.6804 3.22622C19.4544 3.11926 20.2174 3.10378 20.9685 3.18751C21.3385 3.42654 21.6954 3.68407 22.038 3.95876C21.7664 4.04271 21.4947 4.15509 21.2233 4.28765C21.1146 4.34076 21.0537 4.45893 21.0735 4.57826C21.0934 4.69759 21.1893 4.78968 21.3093 4.80472C22.0832 4.90152 22.823 5.08357 23.5257 5.358C23.8219 5.68432 24.1019 6.02584 24.3633 6.38131C24.0794 6.39203 23.7876 6.43031 23.4909 6.48811C23.3722 6.5113 23.2828 6.60969 23.2711 6.73005C23.2593 6.85047 23.3281 6.96422 23.4402 7.00983C24.1653 7.30465 24.8347 7.67347 25.4439 8.1225C25.6446 8.51193 25.8262 8.9129 25.9864 9.32421C25.708 9.26039 25.4149 9.22156 25.1119 9.2005C24.9911 9.19214 24.879 9.26405 24.8369 9.37731C24.7942 9.49057 24.8314 9.61826 24.9276 9.69133C25.5522 10.1642 26.104 10.6944 26.577 11.2869C26.6683 11.7124 26.7389 12.1455 26.787 12.5852C26.5349 12.4517 26.262 12.3386 25.9755 12.24C25.8606 12.2007 25.7343 12.2412 25.6637 12.3396C25.5937 12.438 25.5965 12.5709 25.6703 12.6664C26.1505 13.2837 26.5458 13.9374 26.8488 14.6305C26.8275 15.0743 26.7837 15.5122 26.7181 15.9434C26.5119 15.7518 26.2812 15.5743 26.034 15.4069L26.0323 15.4111C26.0301 15.4062 26.0274 15.4024 26.023 15.3997C25.7447 15.2116 25.6183 15.7327 25.6183 15.7327L25.6244 15.7472C25.9257 16.4646 26.1362 17.195 26.2489 17.9397C26.1138 18.3593 25.9574 18.7697 25.7819 19.1692C25.632 18.9307 25.4554 18.6994 25.2596 18.4735L25.258 18.4777C25.2563 18.4721 25.2547 18.4675 25.2514 18.4639C25.0414 18.2225 24.774 18.6806 24.774 18.6806L24.7762 18.6963C24.8812 19.4649 24.8959 20.2226 24.8123 20.9685C24.5733 21.3385 24.3157 21.6954 24.0412 22.038C23.9586 21.7704 23.8482 21.5028 23.7182 21.2353L23.7156 21.2395C23.7156 21.2334 23.7147 21.2281 23.7126 21.2238C23.5821 20.956 23.1953 21.3096 23.1953 21.3096L23.1933 21.3253C23.096 22.0933 22.9146 22.8276 22.642 23.5257C22.3157 23.8219 21.9742 24.1019 21.6187 24.3633C21.6081 24.0833 21.5708 23.7962 21.5144 23.504L21.5108 23.5084C21.5125 23.5019 21.5129 23.4963 21.512 23.4915C21.4668 23.2586 20.989 23.4431 20.9884 23.4445C20.6939 24.168 20.3256 24.8358 19.8775 25.4439C19.488 25.6446 19.0871 25.8262 18.6758 25.9864C18.7387 25.7119 18.7773 25.4237 18.7985 25.1251L18.7994 25.1125L18.3085 24.9282L18.299 24.9408C17.8285 25.5598 17.3015 26.1073 16.7131 26.577C16.2876 26.6683 15.8545 26.7389 15.4148 26.787C15.5482 26.5349 15.6614 26.262 15.76 25.9755C15.7993 25.8606 15.7588 25.7343 15.6604 25.6637C15.562 25.5937 15.4291 25.5965 15.3336 25.6703C14.7162 26.1505 14.0626 26.5458 13.3695 26.8488C12.9257 26.8275 12.4878 26.7837 12.0566 26.7181C12.251 26.5087 12.431 26.2746 12.6006 26.023C12.6682 25.9224 12.6618 25.7895 12.585 25.696C12.5081 25.603 12.3791 25.5713 12.2676 25.6178C11.5455 25.9224 10.8101 26.1357 10.0604 26.2489C9.64063 26.1138 9.23036 25.9574 8.83082 25.7819C9.07287 25.6298 9.30742 25.4505 9.53656 25.2508C9.62783 25.1715 9.65605 25.0414 9.60601 24.9315C9.55592 24.8216 9.43949 24.757 9.31961 24.774C8.54562 24.8806 7.78257 24.8965 7.03144 24.8128C6.66147 24.5733 6.30453 24.3157 5.96196 24.0412C6.2336 23.9575 6.50523 23.8449 6.7767 23.7123C6.88542 23.6593 6.94629 23.5411 6.92644 23.4218C6.90658 23.3024 6.81066 23.2103 6.69068 23.1953C5.91674 23.0985 5.17698 22.9165 4.4743 22.642C4.17806 22.3157 3.89839 21.9742 3.63649 21.6187C3.92075 21.608 4.2124 21.5697 4.50908 21.5119C4.62781 21.4887 4.71722 21.3903 4.72893 21.2699C4.74063 21.1496 4.67183 21.0358 4.55978 20.9902C3.8349 20.6954 3.16536 20.3266 2.55597 19.8775C2.35532 19.488 2.17409 19.0871 2.01331 18.6758C2.292 18.7396 2.58512 18.7784 2.88826 18.7995C3.00895 18.8079 3.12079 18.736 3.16322 18.6227C3.20571 18.5094 3.16869 18.3817 3.07228 18.3087C2.44764 17.8358 1.89584 17.3056 1.42296 16.7131C1.33147 16.2876 1.26108 15.8545 1.2129 15.4148C1.46518 15.5483 1.73785 15.6614 2.02469 15.7601C2.13909 15.7994 2.26575 15.7588 2.33607 15.6604C2.4064 15.562 2.40372 15.4291 2.32946 15.3336C1.84941 14.7163 1.45424 14.0626 1.15105 13.3695C1.17249 12.9258 1.21646 12.4878 1.28203 12.0567C1.49121 12.251 1.72549 12.431 1.97722 12.6006C2.02239 12.6311 2.07554 12.6473 2.13001 12.6473C2.13001 12.6473 2.40585 12.3244 2.37583 12.2531C2.37567 12.2527 2.37556 12.2524 2.37539 12.2521C2.07418 11.5344 1.86369 10.8045 1.75125 10.0604C1.88633 9.64063 2.04235 9.23036 2.21806 8.83087C2.36993 9.07286 2.54968 9.30747 2.74907 9.53656C2.80097 9.59628 2.87622 9.63051 2.95536 9.63051C2.95536 9.63051 3.23366 9.37381 3.22404 9.30397C3.22398 9.30337 3.22387 9.30272 3.22382 9.30211C3.11898 8.53447 3.10438 7.77704 3.18751 7.03144C3.42654 6.66147 3.68407 6.30458 3.95876 5.96196C4.04271 6.2336 4.15509 6.50529 4.28765 6.7767C4.33348 6.8706 4.42886 6.93015 4.53336 6.93015L4.80664 6.67498L4.55354 6.89783L4.80669 6.67476C4.90398 5.90673 5.08538 5.17239 5.358 4.4743C5.68426 4.17811 6.02579 3.89839 6.38131 3.63649C6.39203 3.92075 6.43031 4.2124 6.48811 4.50914C6.51316 4.63754 6.62565 4.73024 6.75652 4.73024L7.01574 4.54518L6.77697 4.70541L7.01585 4.54496C7.30968 3.82571 7.67653 3.1612 8.12245 2.55597C8.51194 2.35538 8.9129 2.17409 9.32415 2.01336C9.26039 2.292 9.22156 2.58512 9.2005 2.88831C9.19525 2.96394 9.22161 3.03832 9.27335 3.09377C9.32186 3.14573 9.38852 3.17662 9.45912 3.18029ZM8.57576 5.91778C10.1261 4.87456 11.9925 4.26561 14 4.26561C19.3725 4.26561 23.7344 8.62743 23.7344 14C23.7344 19.3725 19.3725 23.7344 14 23.7344C8.62743 23.7344 4.26561 19.3725 4.26561 14C4.26561 11.4164 5.27432 9.06652 6.91911 7.32308C7.02263 7.21327 7.0176 7.04008 6.90784 6.93655C6.79803 6.83297 6.62483 6.83801 6.52131 6.94782C4.78411 8.78926 3.71874 11.2712 3.71874 14C3.71874 19.6744 8.32561 24.2812 14 24.2812C19.6744 24.2812 24.2812 19.6744 24.2812 14C24.2812 8.32561 19.6744 3.71874 14 3.71874C11.8795 3.71874 9.90811 4.36214 8.27043 5.46404C8.1452 5.54831 8.11195 5.71833 8.19622 5.84357C8.28044 5.96875 8.45052 6.00205 8.57576 5.91778ZM12.6558 4.85504C12.6525 4.85547 12.6494 4.85591 12.6462 4.85646C11.116 5.08144 9.7074 5.68197 8.51729 6.56101C8.50143 6.56993 8.48623 6.58054 8.4719 6.59295C8.46813 6.59618 8.46447 6.59957 8.46097 6.60296C7.75714 7.13102 7.13107 7.75714 6.60296 8.46097C6.59957 8.46447 6.59618 8.46813 6.59295 8.4719C6.58054 8.48623 6.56993 8.50143 6.56101 8.51729C5.68197 9.70778 5.08155 11.1162 4.85646 12.6462C4.85591 12.6494 4.85547 12.6525 4.85504 12.6558C4.791 13.0946 4.7578 13.5435 4.7578 14C4.7578 14.4565 4.791 14.9053 4.85504 15.3442C4.85547 15.3474 4.85591 15.3506 4.85646 15.3538C5.08144 16.884 5.68197 18.2926 6.56101 19.4827C6.56993 19.4985 6.58054 19.5137 6.59295 19.5281C6.59618 19.5318 6.59957 19.5355 6.60296 19.539C7.13102 20.2428 7.75714 20.8689 8.46097 21.397C8.46447 21.4004 8.46813 21.4038 8.4719 21.407C8.48623 21.4194 8.50143 21.43 8.51729 21.439C9.70778 22.318 11.1162 22.9184 12.6462 23.1435C12.6494 23.1441 12.6525 23.1445 12.6558 23.1449C13.0946 23.209 13.5435 23.2422 14 23.2422C14.4565 23.2422 14.9053 23.209 15.3442 23.1449C15.3474 23.1445 15.3506 23.1441 15.3538 23.1435C16.884 22.9185 18.2926 22.318 19.4827 21.439C19.4985 21.43 19.5137 21.4194 19.5281 21.407C19.5318 21.4038 19.5355 21.4004 19.539 21.397C20.2428 20.869 20.8689 20.2428 21.397 19.539C21.4004 19.5355 21.4038 19.5318 21.407 19.5281C21.4194 19.5137 21.43 19.4985 21.439 19.4827C22.318 18.2922 22.9184 16.8838 23.1435 15.3538C23.1441 15.3506 23.1445 15.3474 23.1449 15.3442C23.209 14.9053 23.2422 14.4565 23.2422 14C23.2422 13.544 23.2091 13.0957 23.1452 12.6573C23.1446 12.6533 23.1441 12.6492 23.1434 12.6452C23.065 12.1126 22.9411 11.5947 22.7757 11.0955C22.7283 10.9523 22.5735 10.8745 22.4302 10.922C22.287 10.9694 22.2092 11.1242 22.2566 11.2675C22.3853 11.656 22.4873 12.0567 22.5604 12.4673C22.3207 12.531 22.1034 12.6496 21.9225 12.8086C20.1724 13.4553 18.7914 13.2956 17.7114 12.4627C17.8861 11.11 18.7497 10.0206 20.4444 9.24037C20.6842 9.22495 20.9211 9.15539 21.1352 9.03168C21.2934 9.25847 21.4411 9.49292 21.5775 9.73453C21.6517 9.86594 21.8186 9.91237 21.95 9.83821C22.0814 9.764 22.1279 9.59704 22.0537 9.46563C21.8678 9.13636 21.6623 8.81961 21.4389 8.51713C21.43 8.50132 21.4194 8.48618 21.407 8.4719C21.4039 8.46824 21.4005 8.46463 21.3972 8.46113C20.869 7.75714 20.2428 7.13091 19.5387 6.60268C19.5353 6.59935 19.5317 6.59612 19.5281 6.59295C19.5139 6.58065 19.4988 6.57004 19.483 6.56118C18.2922 5.68175 16.8836 5.08128 15.3535 4.8564C15.3505 4.85591 15.3475 4.85547 15.3446 4.85509C14.9054 4.791 14.4566 4.7578 14 4.7578C13.5435 4.7578 13.0946 4.791 12.6558 4.85504ZM14.7494 22.2492C14.5603 22.0523 14.2943 21.9297 14 21.9297C13.7057 21.9297 13.4397 22.0523 13.2506 22.2492C13.2471 22.2532 13.2434 22.257 13.2397 22.2607C13.1394 22.3684 13.0617 22.4973 13.0141 22.6399C13.3373 22.6765 13.6664 22.6953 14 22.6953C14.3335 22.6953 14.6627 22.6765 14.9859 22.6399C14.9383 22.4973 14.8606 22.3683 14.7603 22.2607C14.7565 22.257 14.7529 22.2532 14.7494 22.2492ZM12.4627 17.7114C11.11 17.8861 10.0206 18.7497 9.24037 20.4444C9.22495 20.6842 9.15539 20.9211 9.03168 21.1352C10.0414 21.8399 11.2075 22.336 12.4673 22.5604C12.5311 22.3207 12.6496 22.1034 12.8086 21.9225C13.4553 20.1724 13.2956 18.7914 12.4627 17.7114ZM15.5373 17.7114C14.7044 18.7914 14.5447 20.1724 15.1914 21.9225C15.3504 22.1034 15.4689 22.3207 15.5327 22.5604C16.7922 22.336 17.9582 21.84 18.9683 21.1352C18.8446 20.9211 18.775 20.6842 18.7596 20.4444C17.9794 18.7497 16.89 17.8861 15.5373 17.7114ZM14.8545 17.7322C14.5797 17.795 14.2937 17.8281 14 17.8281C13.7063 17.8281 13.4203 17.795 13.1454 17.7322C13.7797 18.7437 13.9432 19.9698 13.535 21.4522C13.6821 21.4071 13.8382 21.3828 14 21.3828C14.1618 21.3828 14.3179 21.4071 14.465 21.4522C14.0568 19.9697 14.2203 18.7437 14.8545 17.7322ZM8.69683 20.3629C8.7023 20.09 8.60096 19.8152 8.39288 19.6071C8.18474 19.399 7.90993 19.2977 7.63704 19.3031C7.63174 19.3035 7.62643 19.3036 7.62118 19.3036C7.47479 19.3088 7.32932 19.3447 7.19528 19.4113C7.60565 19.9265 8.07329 20.3941 8.58872 20.8047C8.65533 20.6707 8.69126 20.5252 8.6964 20.3788C8.6964 20.3735 8.6965 20.3682 8.69683 20.3629ZM20.3629 19.3031C20.09 19.2977 19.8152 19.399 19.6071 19.6071C19.399 19.8152 19.2977 20.09 19.3031 20.3629C19.3035 20.3682 19.3036 20.3735 19.3036 20.3788C19.3088 20.5252 19.3447 20.6707 19.4113 20.8047C19.9265 20.3943 20.3941 19.9267 20.8047 19.4113C20.6707 19.3447 20.5252 19.3087 20.3788 19.3036C20.3735 19.3036 20.3682 19.3035 20.3629 19.3031ZM10.7569 16.0337C10.4904 17.1979 9.73896 18.1808 8.40168 18.9407C8.53764 19.0128 8.66517 19.1061 8.77958 19.2204C8.89393 19.3348 8.98717 19.4623 9.0593 19.5983C9.81918 18.2609 10.8022 17.5094 11.9663 17.2431C11.4781 16.9361 11.064 16.522 10.7569 16.0337ZM17.2431 16.0337C16.9361 16.5219 16.522 16.936 16.0337 17.2431C17.1979 17.5096 18.1808 18.261 18.9407 19.5983C19.0128 19.4623 19.1061 19.3348 19.2204 19.2204C19.3348 19.1061 19.4623 19.0128 19.5983 18.9407C18.2609 18.1808 17.5094 17.1978 17.2431 16.0337ZM10.2886 15.5373C9.2086 14.7044 7.82758 14.5447 6.07752 15.1914C5.89662 15.3504 5.67923 15.4689 5.43959 15.5327C5.66403 16.7922 6.15994 17.9582 6.8648 18.9683C7.0789 18.8446 7.31581 18.775 7.55556 18.7596C9.25027 17.9794 10.1138 16.89 10.2886 15.5373ZM21.9225 15.1914C20.1724 14.5447 18.7914 14.7044 17.7114 15.5373C17.8861 16.89 18.7497 17.9794 20.4444 18.7596C20.6842 18.775 20.9211 18.8446 21.1352 18.9683C21.8399 17.9586 22.336 16.7925 22.5604 15.5327C22.3207 15.4689 22.1034 15.3504 21.9225 15.1914ZM14.9291 10.8523C14.6346 10.7654 14.3227 10.7187 14 10.7187C13.6773 10.7187 13.3654 10.7654 13.0708 10.8523C13.0609 10.856 13.0508 10.8591 13.0403 10.8615C12.834 10.9246 12.6363 11.0075 12.4493 11.1081L12.4471 11.1093C12.4462 11.1098 12.4452 11.1104 12.4441 11.1109L12.4423 11.1119C11.8799 11.4161 11.4161 11.8799 11.1119 12.4423L11.1109 12.4441C11.1104 12.4452 11.1098 12.4462 11.1093 12.4471L11.1081 12.4493C11.0076 12.6362 10.9246 12.8339 10.8615 13.0403C10.8591 13.0508 10.856 13.0609 10.8523 13.0708C10.7654 13.3654 10.7187 13.6773 10.7187 14C10.7187 14.3227 10.7654 14.6346 10.8523 14.9291C10.856 14.939 10.8591 14.9492 10.8615 14.9596C10.9246 15.166 11.0075 15.3637 11.1081 15.5507L11.1093 15.5528C11.1098 15.5538 11.1104 15.5548 11.1109 15.5558L11.1119 15.5577C11.4161 16.1201 11.8799 16.5839 12.4423 16.8881L12.4441 16.8891C12.4452 16.8896 12.4462 16.8902 12.4471 16.8907L12.4493 16.8919C12.6362 16.9924 12.8339 17.0753 13.0403 17.1384C13.0508 17.1409 13.0609 17.144 13.0708 17.1476C13.3654 17.2345 13.6773 17.2812 14 17.2812C14.3227 17.2812 14.6346 17.2345 14.9291 17.1476C14.939 17.144 14.9492 17.1409 14.9596 17.1384C15.166 17.0753 15.3637 16.9924 15.5507 16.8919L15.5528 16.8907C15.5538 16.8902 15.5548 16.8896 15.5558 16.8891L15.5577 16.8881C16.1201 16.5839 16.5839 16.1201 16.8881 15.5577L16.8891 15.5558C16.8896 15.5548 16.8902 15.5538 16.8907 15.5528L16.8919 15.5507C16.9924 15.3637 17.0753 15.166 17.1384 14.9596C17.1409 14.9492 17.144 14.939 17.1476 14.9291C17.2345 14.6346 17.2812 14.3227 17.2812 14C17.2812 13.6773 17.2345 13.3654 17.1476 13.0708C17.144 13.0609 17.1409 13.0508 17.1384 13.0403C17.0753 12.834 16.9924 12.6363 16.8919 12.4493L16.8907 12.4471C16.8902 12.4462 16.8896 12.4452 16.8891 12.4441L16.8881 12.4423C16.5839 11.8799 16.1201 11.4161 15.5577 11.1119L15.5558 11.1109C15.5548 11.1104 15.5538 11.1098 15.5528 11.1093L15.5507 11.1081C15.3637 11.0076 15.166 10.9246 14.9596 10.8615C14.9492 10.8591 14.939 10.856 14.9291 10.8523ZM14 11.3203C12.521 11.3203 11.3203 12.521 11.3203 14C11.3203 15.479 12.521 16.6797 14 16.6797C15.479 16.6797 16.6797 15.479 16.6797 14C16.6797 12.521 15.479 11.3203 14 11.3203ZM14 11.8672C15.1771 11.8672 16.1328 12.8228 16.1328 14C16.1328 15.1771 15.1771 16.1328 14 16.1328C12.8228 16.1328 11.8672 15.1771 11.8672 14C11.8672 12.8228 12.8228 11.8672 14 11.8672ZM22.6399 13.0141C22.4973 13.0617 22.3683 13.1394 22.2607 13.2397C22.257 13.2434 22.2532 13.2471 22.2492 13.2506C22.0523 13.4397 21.9297 13.7057 21.9297 14C21.9297 14.2943 22.0523 14.5603 22.2492 14.7494C22.2532 14.7529 22.257 14.7565 22.2607 14.7603C22.3684 14.8606 22.4973 14.9383 22.6399 14.9859C22.6765 14.6627 22.6953 14.3335 22.6953 14C22.6953 13.6666 22.6765 13.3376 22.6399 13.0141ZM5.36007 13.0141C5.32349 13.3373 5.30468 13.6664 5.30468 14C5.30468 14.3335 5.32349 14.6627 5.36007 14.9859C5.5027 14.9383 5.63165 14.8606 5.73928 14.7603C5.743 14.7565 5.74683 14.7529 5.75082 14.7494C5.94769 14.5603 6.0703 14.2943 6.0703 14C6.0703 13.7057 5.94769 13.4397 5.75082 13.2506C5.74683 13.2471 5.743 13.2434 5.73928 13.2397C5.6316 13.1394 5.5027 13.0617 5.36007 13.0141ZM17.7322 13.1454C17.795 13.4203 17.8281 13.7063 17.8281 14C17.8281 14.2937 17.795 14.5797 17.7322 14.8545C18.7437 14.2203 19.9698 14.0568 21.4522 14.465C21.4071 14.3179 21.3828 14.1618 21.3828 14C21.3828 13.8382 21.4071 13.6821 21.4522 13.535C19.9697 13.9432 18.7437 13.7797 17.7322 13.1454ZM10.2678 13.1454C9.25623 13.7797 8.03014 13.9432 6.54778 13.535C6.5929 13.6821 6.61718 13.8382 6.61718 14C6.61718 14.1618 6.5929 14.3179 6.54778 14.465C8.03025 14.0568 9.25629 14.2203 10.2678 14.8545C10.205 14.5797 10.1719 14.2937 10.1719 14C10.1719 13.7063 10.205 13.4203 10.2678 13.1454ZM6.8648 9.03168C6.16004 10.0414 5.66403 11.2075 5.43959 12.4673C5.67923 12.5311 5.89662 12.6496 6.07752 12.8086C7.82758 13.4553 9.20854 13.2956 10.2886 12.4627C10.1139 11.11 9.25027 10.0206 7.55556 9.24037C7.31581 9.22495 7.07885 9.15539 6.8648 9.03168ZM18.9407 8.40168C18.1808 9.73907 17.1978 10.4905 16.0337 10.7569C16.5219 11.0639 16.936 11.478 17.2431 11.9663C17.5096 10.802 18.261 9.81913 19.5983 9.0593C19.4623 8.98717 19.3348 8.89393 19.2204 8.77958C19.1061 8.66517 19.0128 8.53764 18.9407 8.40168ZM9.0593 8.40168C8.98717 8.53764 8.89393 8.66517 8.77958 8.77958C8.66517 8.89393 8.53764 8.98717 8.40168 9.0593C9.73907 9.81918 10.4905 10.8022 10.7569 11.9663C11.0639 11.4781 11.478 11.064 11.9663 10.7569C10.802 10.4904 9.81913 9.73896 9.0593 8.40168ZM15.5327 5.43959C15.4689 5.67923 15.3504 5.89662 15.1914 6.07752C14.5447 7.82758 14.7044 9.20854 15.5373 10.2886C16.89 10.1139 17.9794 9.25027 18.7596 7.55556C18.775 7.31581 18.8446 7.07896 18.9683 6.86486C17.9586 6.1601 16.7926 5.66403 15.5327 5.43959ZM12.4673 5.43959C11.2078 5.66403 10.0418 6.15994 9.03168 6.8648C9.15539 7.0789 9.22495 7.31581 9.24037 7.55556C10.0206 9.25027 11.11 10.1138 12.4627 10.2886C13.2956 9.2086 13.4553 7.82758 12.8086 6.07752C12.6496 5.89662 12.531 5.67923 12.4673 5.43959ZM14.465 6.54778C14.3179 6.5929 14.1618 6.61718 14 6.61718C13.8382 6.61718 13.6821 6.5929 13.535 6.54778C13.9432 8.03025 13.7797 9.25629 13.1454 10.2678C13.4203 10.205 13.7063 10.1719 14 10.1719C14.2937 10.1719 14.5797 10.205 14.8545 10.2678C14.2203 9.25623 14.0568 8.03014 14.465 6.54778ZM19.4113 7.19533C19.3447 7.32937 19.3088 7.47479 19.3036 7.62118C19.3036 7.62643 19.3035 7.63174 19.3031 7.63704C19.2977 7.90993 19.399 8.18474 19.6071 8.39288C19.8152 8.60096 20.09 8.7023 20.3629 8.69683C20.3682 8.6965 20.3735 8.6964 20.3788 8.6964C20.5252 8.6912 20.6707 8.65533 20.8046 8.58872C20.3942 8.07334 19.9264 7.6056 19.4113 7.19533ZM8.58872 7.19528C8.07351 7.60565 7.60587 8.07329 7.19528 8.58872C7.32932 8.65533 7.47479 8.69126 7.62118 8.6964C7.62643 8.6964 7.63174 8.6965 7.63704 8.69683C7.90993 8.7023 8.18474 8.60096 8.39288 8.39288C8.60096 8.18474 8.7023 7.90993 8.69683 7.63704C8.6965 7.63174 8.6964 7.62643 8.6964 7.62118C8.6912 7.47479 8.65533 7.32932 8.58872 7.19528ZM14.9859 5.36007C14.6624 5.32349 14.3334 5.30468 14 5.30468C13.6664 5.30468 13.3373 5.32349 13.0141 5.36007C13.0617 5.5027 13.1394 5.63165 13.2397 5.73928C13.2434 5.743 13.2471 5.74683 13.2506 5.75082C13.4397 5.94769 13.7057 6.0703 14 6.0703C14.2943 6.0703 14.5603 5.94769 14.7494 5.75082C14.7529 5.74683 14.7565 5.743 14.7603 5.73928C14.8606 5.6316 14.9383 5.5027 14.9859 5.36007ZM10.9896 0.960686L10.9897 0.960629C10.9783 0.969598 10.9669 0.978569 10.9555 0.987592L10.9896 0.960686Z" fill="#FD4D00"/>
</g>
<defs>
<clipPath id="clip0_2916_102756">
<rect width="28" height="28" fill="white"/>
</clipPath>
</defs>
</svg>
