<svg width="28" height="28" viewBox="0 0 28 28" fill="none" xmlns="http://www.w3.org/2000/svg">
<g clip-path="url(#clip0_2916_102594)">
<path d="M19.1043 1.99527V1.25437C19.1043 0.562729 18.5416 0 17.85 0H7.49784C7.27168 0 7.08832 0.183299 7.08832 0.409516C7.08832 0.635732 7.27168 0.819031 7.49784 0.819031H17.85C18.09 0.819031 18.2853 1.01429 18.2853 1.25437V1.99385H3.73789V1.25437C3.73789 1.01434 3.93314 0.819031 4.17317 0.819031H5.75259C5.97875 0.819031 6.16211 0.635732 6.16211 0.409516C6.16211 0.183299 5.97875 0 5.75259 0H4.17317C3.48153 0 2.91885 0.562729 2.91885 1.25437V1.99527C2.36661 2.01067 1.92188 2.46365 1.92188 3.0195V3.57436C1.92188 4.06644 2.27029 4.4783 2.73332 4.57707C2.6091 4.79974 2.538 5.05593 2.538 5.32851V6.06645C2.538 6.29267 2.72136 6.47597 2.94752 6.47597C3.17368 6.47597 3.35704 6.29267 3.35704 6.06645V5.32851C3.35704 4.9268 3.68383 4.59995 4.08559 4.59995H17.9376C18.3393 4.59995 18.6661 4.92675 18.6661 5.32851V6.41989C18.6661 6.64611 18.8495 6.82941 19.0757 6.82941C19.3018 6.82941 19.4852 6.64611 19.4852 6.41989V5.32851C19.4852 5.05593 19.4141 4.79974 19.2899 4.57707C19.7529 4.47824 20.1013 4.06638 20.1013 3.57436V3.0195C20.1013 2.46365 19.6565 2.01067 19.1043 1.99527ZM2.94752 3.78092C2.83362 3.78092 2.74091 3.68826 2.74091 3.57436V3.0195C2.74091 2.90554 2.83357 2.81288 2.94752 2.81288H19.0757C19.1896 2.81288 19.2823 2.90554 19.2823 3.0195V3.57436C19.2823 3.68826 19.1896 3.78092 19.0757 3.78092H2.94752Z" fill="#FD4D00"/>
<path d="M19.2899 12.7181C19.4141 12.4954 19.4852 12.2392 19.4852 11.9667V8.16342C19.4852 7.93721 19.3018 7.75391 19.0757 7.75391C18.8495 7.75391 18.6661 7.93721 18.6661 8.16342V11.9667C18.6661 12.3683 18.3394 12.6952 17.9376 12.6952H4.08559C3.68388 12.6952 3.35704 12.3684 3.35704 11.9667V11.2287C3.35704 11.0025 3.17368 10.8192 2.94752 10.8192C2.72136 10.8192 2.538 11.0025 2.538 11.2287V11.9667C2.538 12.2392 2.6091 12.4954 2.73332 12.7181C2.27029 12.8169 1.92188 13.2288 1.92188 13.7208V14.2757C1.92188 14.7678 2.27035 15.1796 2.73332 15.2784C2.6091 15.5011 2.53795 15.7573 2.53795 16.0299V16.7678C2.53795 16.9941 2.7213 17.1774 2.94747 17.1774C3.17363 17.1774 3.35698 16.9941 3.35698 16.7678V16.0299C3.35698 15.6282 3.68377 15.3013 4.08554 15.3013H17.9375C18.3392 15.3013 18.6661 15.6281 18.6661 16.0299V22.6697C18.6661 23.0714 18.3393 23.3983 17.9375 23.3983H4.08559C3.68388 23.3983 3.35704 23.0715 3.35704 22.6697V21.9318C3.35704 21.7056 3.17368 21.5223 2.94752 21.5223C2.72136 21.5223 2.538 21.7056 2.538 21.9318V22.6697C2.538 22.9423 2.6091 23.1985 2.73332 23.4212C2.27029 23.52 1.92188 23.9319 1.92188 24.4239V24.9788C1.92188 25.5346 2.36661 25.9876 2.91885 26.003V26.7439C2.91885 27.4355 3.48158 27.9982 4.17323 27.9982H17.85C18.5417 27.9982 19.1043 27.4355 19.1043 26.7439V26.003C19.6565 25.9876 20.1013 25.5346 20.1013 24.9788V24.424C20.1013 23.9319 19.7529 23.52 19.2899 23.4212C19.4141 23.1985 19.4852 22.9423 19.4852 22.6698V16.0299C19.4852 15.7573 19.4141 15.5011 19.2898 15.2784C19.7528 15.1796 20.1013 14.7677 20.1013 14.2757V13.7208C20.1013 13.2288 19.7529 12.8169 19.2899 12.7181ZM2.94758 14.4823C2.83368 14.4823 2.74096 14.3896 2.74096 14.2757V13.7209C2.74096 13.607 2.83362 13.5143 2.94758 13.5143H19.0757C19.1896 13.5143 19.2823 13.607 19.2823 13.7209V14.2757C19.2823 14.3896 19.1897 14.4823 19.0757 14.4823H2.94758ZM19.2823 24.9788C19.2823 25.0927 19.1896 25.1854 19.0757 25.1854H16.9818C16.7556 25.1854 16.5723 25.3687 16.5723 25.5949C16.5723 25.8211 16.7556 26.0044 16.9818 26.0044H18.2853V26.7439C18.2853 26.9839 18.09 27.1792 17.85 27.1792H4.17323C3.9332 27.1792 3.73789 26.984 3.73789 26.7439V26.0044H15.2365C15.4627 26.0044 15.6461 25.8211 15.6461 25.5949C15.6461 25.3687 15.4627 25.1854 15.2365 25.1854H2.94758C2.83368 25.1854 2.74096 25.0927 2.74096 24.9788V24.424C2.74096 24.31 2.83362 24.2174 2.94758 24.2174H19.0757C19.1896 24.2174 19.2823 24.31 19.2823 24.424V24.9788H19.2823Z" fill="#FD4D00"/>
<path d="M17.3112 11.7315V5.60092C17.3112 5.37471 17.1279 5.19141 16.9017 5.19141C16.6755 5.19141 16.4922 5.37471 16.4922 5.60092V11.7315C16.4922 11.9578 16.6755 12.141 16.9017 12.141C17.1279 12.141 17.3112 11.9578 17.3112 11.7315Z" fill="#FD4D00"/>
<path d="M15.6432 11.7315V5.60092C15.6432 5.37471 15.4599 5.19141 15.2337 5.19141C15.0076 5.19141 14.8242 5.37471 14.8242 5.60092V11.7315C14.8242 11.9578 15.0076 12.141 15.2337 12.141C15.4599 12.141 15.6432 11.9578 15.6432 11.7315Z" fill="#FD4D00"/>
<path d="M13.9792 11.7315V5.60092C13.9792 5.37471 13.7958 5.19141 13.5697 5.19141C13.3435 5.19141 13.1602 5.37471 13.1602 5.60092V11.7315C13.1602 11.9578 13.3435 12.141 13.5697 12.141C13.7958 12.141 13.9792 11.9578 13.9792 11.7315Z" fill="#FD4D00"/>
<path d="M12.3151 11.7315V5.60092C12.3151 5.37471 12.1318 5.19141 11.9056 5.19141C11.6794 5.19141 11.4961 5.37471 11.4961 5.60092V11.7315C11.4961 11.9578 11.6794 12.141 11.9056 12.141C12.1318 12.141 12.3151 11.9578 12.3151 11.7315Z" fill="#FD4D00"/>
<path d="M10.6472 11.7315V5.60092C10.6472 5.37471 10.4638 5.19141 10.2376 5.19141C10.0115 5.19141 9.82812 5.37471 9.82812 5.60092V11.7315C9.82812 11.9578 10.0115 12.141 10.2376 12.141C10.4638 12.141 10.6472 11.9578 10.6472 11.7315Z" fill="#FD4D00"/>
<path d="M8.98309 11.7315V5.60092C8.98309 5.37471 8.79974 5.19141 8.57358 5.19141C8.34742 5.19141 8.16406 5.37471 8.16406 5.60092V11.7315C8.16406 11.9578 8.34742 12.141 8.57358 12.141C8.79974 12.141 8.98309 11.9578 8.98309 11.7315Z" fill="#FD4D00"/>
<path d="M7.31903 6.47674V5.60092C7.31903 5.37471 7.13568 5.19141 6.90952 5.19141C6.68335 5.19141 6.5 5.37471 6.5 5.60092V6.47674C6.5 6.70296 6.68335 6.88625 6.90952 6.88625C7.13568 6.88625 7.31903 6.7029 7.31903 6.47674Z" fill="#FD4D00"/>
<path d="M6.90952 10.4102C6.68335 10.4102 6.5 10.5935 6.5 10.8197V11.7323C6.5 11.9586 6.68335 12.1419 6.90952 12.1419C7.13568 12.1419 7.31903 11.9586 7.31903 11.7323V10.8197C7.31903 10.5935 7.13568 10.4102 6.90952 10.4102Z" fill="#FD4D00"/>
<path d="M24.2386 9.40207H21.5111C21.285 9.40207 21.1016 9.58537 21.1016 9.81159C21.1016 10.0378 21.285 10.2211 21.5111 10.2211H23.9629V10.7437C23.9629 10.9548 24.0868 11.1485 24.2784 11.237C24.3509 11.2704 24.4285 11.2868 24.5056 11.2868C24.6326 11.2868 24.7585 11.2425 24.8585 11.1574L27.3182 9.06299C27.4397 8.95958 27.5093 8.80882 27.5093 8.64927C27.5093 8.48972 27.4397 8.33891 27.3182 8.23561L24.8585 6.14118C24.6978 6.00429 24.4701 5.97295 24.2784 6.06157C24.0867 6.15008 23.9628 6.3437 23.9628 6.55485V7.07739H21.5111C21.2849 7.07739 21.1016 7.26069 21.1016 7.4869C21.1016 7.71312 21.2849 7.89642 21.5111 7.89642H24.2385C24.5381 7.89642 24.7819 7.65267 24.7819 7.35313V7.1517L26.5407 8.64933L24.7819 10.147V9.94553C24.7819 9.64581 24.5382 9.40207 24.2386 9.40207Z" fill="#FD4D00"/>
<path d="M4.17125 9.40207H0.897797C0.671635 9.40207 0.488281 9.58537 0.488281 9.81159C0.488281 10.0378 0.671635 10.2211 0.897797 10.2211H3.89556V10.7437C3.89556 10.9548 4.01945 11.1485 4.21111 11.237C4.28356 11.2704 4.36115 11.2868 4.4383 11.2868C4.56531 11.2868 4.69122 11.2425 4.79114 11.1574L7.25091 9.06299C7.3724 8.95958 7.44202 8.80882 7.44202 8.64927C7.44202 8.48972 7.3724 8.33891 7.25091 8.23561L4.79114 6.14118C4.63045 6.00429 4.4027 5.97295 4.211 6.06157C4.01934 6.15008 3.89545 6.3437 3.89545 6.55485V7.07739H0.897797C0.671635 7.07739 0.488281 7.26069 0.488281 7.4869C0.488281 7.71312 0.671635 7.89642 0.897797 7.89642H4.17125C4.47085 7.89642 4.71459 7.65267 4.71459 7.35313V7.1517L6.47349 8.64933L4.71459 10.147V9.94553C4.71459 9.64581 4.47085 9.40207 4.17125 9.40207Z" fill="#FD4D00"/>
<path d="M17.3112 22.3995V16.2689C17.3112 16.0427 17.1279 15.8594 16.9017 15.8594C16.6755 15.8594 16.4922 16.0427 16.4922 16.2689V22.3995C16.4922 22.6257 16.6755 22.809 16.9017 22.809C17.1279 22.809 17.3112 22.6257 17.3112 22.3995Z" fill="#FD4D00"/>
<path d="M15.6432 22.3995V16.2689C15.6432 16.0427 15.4599 15.8594 15.2337 15.8594C15.0076 15.8594 14.8242 16.0427 14.8242 16.2689V22.3995C14.8242 22.6257 15.0076 22.809 15.2337 22.809C15.4599 22.809 15.6432 22.6257 15.6432 22.3995Z" fill="#FD4D00"/>
<path d="M13.9792 22.3995V16.2689C13.9792 16.0427 13.7958 15.8594 13.5697 15.8594C13.3435 15.8594 13.1602 16.0427 13.1602 16.2689V22.3995C13.1602 22.6257 13.3435 22.809 13.5697 22.809C13.7958 22.809 13.9792 22.6257 13.9792 22.3995Z" fill="#FD4D00"/>
<path d="M12.3151 22.3995V16.2689C12.3151 16.0427 12.1318 15.8594 11.9056 15.8594C11.6794 15.8594 11.4961 16.0427 11.4961 16.2689V22.3995C11.4961 22.6257 11.6794 22.809 11.9056 22.809C12.1318 22.809 12.3151 22.6257 12.3151 22.3995Z" fill="#FD4D00"/>
<path d="M10.6472 22.3995V16.2689C10.6472 16.0427 10.4638 15.8594 10.2376 15.8594C10.0115 15.8594 9.82812 16.0427 9.82812 16.2689V22.3995C9.82812 22.6257 10.0115 22.809 10.2376 22.809C10.4638 22.809 10.6472 22.6257 10.6472 22.3995Z" fill="#FD4D00"/>
<path d="M8.98309 22.3995V16.2689C8.98309 16.0427 8.79974 15.8594 8.57358 15.8594C8.34742 15.8594 8.16406 16.0427 8.16406 16.2689V22.3995C8.16406 22.6257 8.34742 22.809 8.57358 22.809C8.79974 22.809 8.98309 22.6257 8.98309 22.3995Z" fill="#FD4D00"/>
<path d="M6.90952 21.1133C6.68335 21.1133 6.5 21.2966 6.5 21.5228V22.3986C6.5 22.6248 6.68335 22.8081 6.90952 22.8081C7.13568 22.8081 7.31903 22.6248 7.31903 22.3986V21.5228C7.31903 21.2966 7.13568 21.1133 6.90952 21.1133Z" fill="#FD4D00"/>
<path d="M7.31903 17.1816V16.2689C7.31903 16.0427 7.13568 15.8594 6.90952 15.8594C6.68335 15.8594 6.5 16.0427 6.5 16.2689V17.1816C6.5 17.4078 6.68335 17.5911 6.90952 17.5911C7.13568 17.5911 7.31903 17.4078 7.31903 17.1816Z" fill="#FD4D00"/>
<path d="M27.3221 18.9387L24.8624 16.8442C24.7017 16.7073 24.4739 16.6762 24.2823 16.7646C24.0906 16.8531 23.9667 17.0468 23.9667 17.2579V17.7805H21.515C21.2888 17.7805 21.1055 17.9638 21.1055 18.19C21.1055 18.4162 21.2888 18.5995 21.515 18.5995H24.2424C24.542 18.5995 24.7858 18.3558 24.7858 18.0562V17.8548L26.5446 19.3524L24.7858 20.85V20.6486C24.7858 20.349 24.542 20.1053 24.2424 20.1053H21.515C21.2888 20.1053 21.1055 20.2886 21.1055 20.5148C21.1055 20.741 21.2888 20.9243 21.515 20.9243H23.9667V21.4469C23.9667 21.658 24.0906 21.8516 24.2823 21.9401C24.3547 21.9736 24.4323 21.9899 24.5095 21.9899C24.6365 21.9899 24.7624 21.9457 24.8623 21.8605L27.3221 19.7662C27.4436 19.6628 27.5132 19.512 27.5132 19.3524C27.5132 19.1929 27.4435 19.042 27.3221 18.9387Z" fill="#FD4D00"/>
<path d="M3.89556 21.4468C3.89556 21.658 4.01945 21.8516 4.21111 21.9401C4.28356 21.9736 4.36115 21.9899 4.43836 21.9899C4.56536 21.9899 4.69122 21.9456 4.7912 21.8605L7.25097 19.7661C7.37246 19.6627 7.44207 19.5119 7.44207 19.3524C7.44207 19.1928 7.37246 19.042 7.25097 18.9387L4.7912 16.8443C4.63045 16.7074 4.40276 16.6761 4.21111 16.7647C4.0194 16.8532 3.89556 17.0468 3.89556 17.258V17.7806H0.897797C0.671635 17.7806 0.488281 17.9639 0.488281 18.1901C0.488281 18.4163 0.671635 18.5996 0.897797 18.5996H4.17125C4.47085 18.5996 4.71459 18.3558 4.71459 18.0562V17.8548L6.47349 19.3524L4.71459 20.8501V20.6486C4.71459 20.3491 4.47085 20.1053 4.17125 20.1053H0.897797C0.671635 20.1053 0.488281 20.2886 0.488281 20.5149C0.488281 20.7411 0.671635 20.9244 0.897797 20.9244H3.89556V21.4468Z" fill="#FD4D00"/>
</g>
<defs>
<clipPath id="clip0_2916_102594">
<rect width="28" height="28" fill="white"/>
</clipPath>
</defs>
</svg>
