<svg width="28" height="28" viewBox="0 0 28 28" fill="none" xmlns="http://www.w3.org/2000/svg">
<path d="M12.821 8.83904L6.82016 14.8398L3.60547 11.6251L9.60627 5.62434L12.821 8.83904Z" stroke="#FD4D00" stroke-width="0.8" stroke-miterlimit="10" stroke-linecap="round" stroke-linejoin="round"/>
<mask id="mask0_2916_102766" style="mask-type:luminance" maskUnits="userSpaceOnUse" x="0" y="0" width="28" height="28">
<path d="M0 1.90735e-06H28V28H0V1.90735e-06Z" fill="white"/>
</mask>
<g mask="url(#mask0_2916_102766)">
<path d="M5.01044 3.67836L5.787 2.9018C6.35193 2.33688 7.24443 2.26961 7.887 2.74375L10.5361 4.69664L2.67857 12.5547L0.72513 9.90563C0.251536 9.2625 0.318255 8.37 0.883177 7.80508L3.85052 4.83773" stroke="#FD4D00" stroke-width="0.8" stroke-miterlimit="10" stroke-linecap="round" stroke-linejoin="round"/>
<path d="M7.3833 11.8646C7.07262 12.1753 6.56884 12.1753 6.25816 11.8646L4.8125 10.419L5.93764 9.29384L7.3833 10.7395C7.69404 11.0502 7.69404 11.554 7.3833 11.8646Z" stroke="#FD4D00" stroke-width="0.8" stroke-miterlimit="10" stroke-linecap="round" stroke-linejoin="round"/>
<path d="M9.84815 9.40371C9.53741 9.71439 9.03369 9.71439 8.72301 9.40371L7.27734 7.95804L8.40248 6.8329L9.84815 8.27857C10.1588 8.58925 10.1588 9.09303 9.84815 9.40371Z" stroke="#FD4D00" stroke-width="0.8" stroke-miterlimit="10" stroke-linecap="round" stroke-linejoin="round"/>
<path d="M1.65625 11.1719L9.15035 3.67777" stroke="#FD4D00" stroke-width="0.8" stroke-miterlimit="10" stroke-linecap="round" stroke-linejoin="round"/>
<path d="M15.1758 8.83904L21.1766 14.8398L24.3912 11.6251L18.3905 5.62434L15.1758 8.83904Z" stroke="#FD4D00" stroke-width="0.8" stroke-miterlimit="10" stroke-linecap="round" stroke-linejoin="round"/>
<path d="M17.4648 4.69708L25.3225 12.5547L27.2757 9.90568C27.7496 9.26294 27.6825 8.37022 27.1178 7.80552L22.214 2.90174C21.6493 2.33699 20.7566 2.26994 20.1138 2.74386L17.4648 4.69708Z" stroke="#FD4D00" stroke-width="0.8" stroke-miterlimit="10" stroke-linecap="round" stroke-linejoin="round"/>
<path d="M20.6159 11.8646C20.9265 12.1753 21.4303 12.1753 21.741 11.8646L23.1867 10.419L22.0615 9.29384L20.6159 10.7395C20.3051 11.0502 20.3051 11.554 20.6159 11.8646Z" stroke="#FD4D00" stroke-width="0.8" stroke-miterlimit="10" stroke-linecap="round" stroke-linejoin="round"/>
<path d="M18.151 9.40371C18.4617 9.71439 18.9654 9.71439 19.2761 9.40371L20.7218 7.95804L19.5966 6.8329L18.151 8.27857C17.8403 8.58925 17.8403 9.09303 18.151 9.40371Z" stroke="#FD4D00" stroke-width="0.8" stroke-miterlimit="10" stroke-linecap="round" stroke-linejoin="round"/>
<path d="M26.3418 11.1719L18.8477 3.67777" stroke="#FD4D00" stroke-width="0.8" stroke-miterlimit="10" stroke-linecap="round" stroke-linejoin="round"/>
<path d="M7.70215 17.5781L6.82031 14.8407" stroke="#FD4D00" stroke-width="0.8" stroke-miterlimit="10" stroke-linecap="round" stroke-linejoin="round"/>
<path d="M21.1799 14.8413L20.6484 16.4922" stroke="#FD4D00" stroke-width="0.8" stroke-miterlimit="10" stroke-linecap="round" stroke-linejoin="round"/>
<path d="M12.4844 21.1562H13.9995H19.1437" stroke="#FD4D00" stroke-width="0.8" stroke-miterlimit="10" stroke-linecap="round" stroke-linejoin="round"/>
<path d="M12.8242 8.83984H15.1794" stroke="#FD4D00" stroke-width="0.8" stroke-miterlimit="10" stroke-linecap="round" stroke-linejoin="round"/>
<path d="M4.70258 12.7203C3.6132 13.4734 2.89844 14.7306 2.89844 16.152C2.89844 18.2749 4.49422 20.0326 6.54938 20.2891M5.89586 13.9136C5.09031 14.3369 4.54016 15.1807 4.54016 16.152C4.54016 17.4666 5.55023 18.5505 6.83539 18.6681" stroke="#FD4D00" stroke-width="0.8" stroke-miterlimit="10" stroke-linecap="round" stroke-linejoin="round"/>
<path d="M23.277 19.5979C22.6371 20.0348 21.8693 20.2984 21.043 20.3203M23.2966 12.7215C24.386 13.474 25.1008 14.7313 25.1008 16.1526C25.1008 16.9937 24.8503 17.7773 24.4199 18.433M22.1036 13.9145C22.9087 14.3376 23.4588 15.1817 23.4588 16.1527C23.4588 17.2715 22.7276 18.2234 21.7172 18.554" stroke="#FD4D00" stroke-width="0.8" stroke-miterlimit="10" stroke-linecap="round" stroke-linejoin="round"/>
<path d="M10.4784 22.9633V24.7625C10.4784 25.2108 10.115 25.5742 9.6667 25.5742C9.21892 25.5742 8.85547 25.2108 8.85547 24.7625V22.9873" stroke="#FD4D00" stroke-width="0.8" stroke-miterlimit="10" stroke-linecap="round" stroke-linejoin="round"/>
<path d="M12.4867 21.1569H13.3691V24.7624C13.3691 25.2108 13.0056 25.5742 12.5573 25.5742C12.1095 25.5742 11.7461 25.2108 11.7461 24.7624V22.2396" stroke="#FD4D00" stroke-width="0.8" stroke-miterlimit="10" stroke-linecap="round" stroke-linejoin="round"/>
<path d="M15.4443 25.5742C14.9961 25.5742 14.6328 25.2109 14.6328 24.7628V21.1569H16.2557V24.7628C16.2557 25.2109 15.8924 25.5742 15.4443 25.5742Z" stroke="#FD4D00" stroke-width="0.8" stroke-miterlimit="10" stroke-linecap="round" stroke-linejoin="round"/>
<path d="M18.3309 25.5742C17.8828 25.5742 17.5195 25.2109 17.5195 24.7628V21.1569H19.1424V24.7628C19.1424 25.2109 18.7791 25.5742 18.3309 25.5742Z" stroke="#FD4D00" stroke-width="0.8" stroke-miterlimit="10" stroke-linecap="round" stroke-linejoin="round"/>
<path d="M17.5194 24.7617H16.2539" stroke="#FD4D00" stroke-width="0.8" stroke-miterlimit="10" stroke-linecap="round" stroke-linejoin="round"/>
<path d="M11.746 24.7617H10.4805" stroke="#FD4D00" stroke-width="0.8" stroke-miterlimit="10" stroke-linecap="round" stroke-linejoin="round"/>
<path d="M14.6327 24.7617H13.3672" stroke="#FD4D00" stroke-width="0.8" stroke-miterlimit="10" stroke-linecap="round" stroke-linejoin="round"/>
<path d="M15.9123 14.1044C15.9123 13.0489 15.0566 12.1932 14.0011 12.1932C12.9455 12.1932 12.0898 13.0489 12.0898 14.1044C12.0898 15.16 12.9455 16.0156 14.0011 16.0156C15.0566 16.0156 15.9123 15.16 15.9123 14.1044Z" stroke="#FD4D00" stroke-width="0.8" stroke-miterlimit="10" stroke-linecap="round" stroke-linejoin="round"/>
<path d="M21.719 18.5819C21.719 17.1601 20.5664 16.0075 19.1447 16.0075C17.7229 16.0075 16.5703 17.1601 16.5703 18.5819C16.5703 20.0037 17.7229 21.1562 19.1447 21.1562C20.5664 21.1562 21.719 20.0037 21.719 18.5819Z" stroke="#FD4D00" stroke-width="0.8" stroke-miterlimit="10" stroke-linecap="round" stroke-linejoin="round"/>
<path d="M12.7097 19.9948C12.7097 18.2897 11.3275 16.9075 9.62243 16.9075C7.91738 16.9075 6.53516 18.2897 6.53516 19.9948C6.53516 21.6998 7.91738 23.082 9.62243 23.082C11.3275 23.082 12.7097 21.6998 12.7097 19.9948Z" stroke="#FD4D00" stroke-width="0.8" stroke-miterlimit="10" stroke-linecap="round" stroke-linejoin="round"/>
<path d="M10.4525 19.9964C10.4525 19.5392 10.0819 19.1686 9.62468 19.1686C9.16749 19.1686 8.79688 19.5392 8.79688 19.9964C8.79688 20.4536 9.16749 20.8242 9.62468 20.8242C10.0819 20.8242 10.4525 20.4536 10.4525 19.9964Z" stroke="#FD4D00" stroke-width="0.8" stroke-miterlimit="10" stroke-linecap="round" stroke-linejoin="round"/>
<path d="M19.972 18.5824C19.972 18.1252 19.6014 17.7545 19.1442 17.7545C18.687 17.7545 18.3164 18.1252 18.3164 18.5824C18.3164 19.0395 18.687 19.4102 19.1442 19.4102C19.6014 19.4102 19.972 19.0395 19.972 18.5824Z" stroke="#FD4D00" stroke-width="0.8" stroke-miterlimit="10" stroke-linecap="round" stroke-linejoin="round"/>
<path d="M7.20312 18.082L12.7197 12.6878" stroke="#FD4D00" stroke-width="0.8" stroke-miterlimit="10" stroke-linecap="round" stroke-linejoin="round"/>
<path d="M15.3047 12.709L20.199 16.2344" stroke="#FD4D00" stroke-width="0.8" stroke-miterlimit="10" stroke-linecap="round" stroke-linejoin="round"/>
<path d="M11.7461 22.2383L16.9223 17.2836" stroke="#FD4D00" stroke-width="0.8" stroke-miterlimit="10" stroke-linecap="round" stroke-linejoin="round"/>
</g>
</svg>
