<svg width="28" height="28" viewBox="0 0 28 28" fill="none" xmlns="http://www.w3.org/2000/svg">
<path d="M25.375 19.4688H25.0349L22.0654 4.9928C22.3331 4.91002 22.5312 4.6698 22.5312 4.375V1.75C22.5312 0.905762 21.8442 0.21875 21 0.21875H7C6.15576 0.21875 5.46875 0.905762 5.46875 1.75V4.375C5.46875 4.6698 5.66689 4.91002 5.93456 4.9928L2.96509 19.4688H2.625C2.2627 19.4688 1.96875 19.7627 1.96875 20.125V22.75C1.96875 23.5942 2.65576 24.2812 3.5 24.2812H7.21875V27.125C7.21875 27.4873 7.5127 27.7812 7.875 27.7812H20.125C20.4873 27.7812 20.7812 27.4873 20.7812 27.125V24.2812H24.5C25.3442 24.2812 26.0312 23.5942 26.0312 22.75V20.125C26.0312 19.7627 25.7373 19.4688 25.375 19.4688ZM11.2024 19.4688L12.1893 5.03125H13.3438V19.4688H11.2024ZM7.75217 19.4688L9.72679 5.03125H10.8743L9.88733 19.4688H7.75217ZM14.6562 5.03125H15.8107L16.7976 19.4688H14.6562V5.03125ZM18.1127 19.4688L17.1257 5.03125H18.2732L20.2478 19.4688H18.1127ZM21.5726 19.4688L19.598 5.03125H20.7343L23.6958 19.4688H21.5726ZM6.78125 1.75C6.78125 1.62952 6.87952 1.53125 7 1.53125H21C21.1205 1.53125 21.2188 1.62952 21.2188 1.75V3.71875H6.78125V1.75ZM7.26575 5.03125H8.40201L6.42738 19.4688H4.30418L7.26575 5.03125ZM19.4688 26.4688H8.53125V24.2812H19.4688V26.4688ZM24.7188 22.75C24.7188 22.8705 24.6205 22.9688 24.5 22.9688H3.5C3.37952 22.9688 3.28125 22.8705 3.28125 22.75V20.7812H24.7188V22.75Z" fill="#FD4D00"/>
</svg>
