<svg width="28" height="28" viewBox="0 0 28 28" fill="none" xmlns="http://www.w3.org/2000/svg">
<path d="M25.1501 18.2824C24.785 17.9461 24.313 17.7717 23.8134 17.7892C23.3148 17.8082 22.8548 18.0193 22.5188 18.3837L19.8695 21.2421C19.5119 20.7214 18.912 20.3791 18.2338 20.3791H15.1091C14.8049 20.3791 14.5574 20.2962 14.3057 20.1102L13.3069 19.374C12.9193 19.0812 12.4866 18.9391 11.9846 18.9391H8.51918C8.12937 18.9391 7.80556 19.0175 7.49734 19.1871L6.9613 19.4865C6.81998 18.7971 6.2088 18.277 5.47823 18.277H2.68785C2.44821 18.277 2.25391 18.4713 2.25391 18.7109V26.9532C2.25391 27.1929 2.44821 27.3871 2.68785 27.3871H5.47823C6.26004 27.3871 6.90502 26.7915 6.98383 26.0301C7.6164 26.3337 8.22327 26.6941 8.57682 26.9855C8.98676 27.3244 9.46281 27.4963 9.99153 27.4963H18.1759C18.8087 27.4963 19.372 27.2508 19.8055 26.7855L25.2522 20.9146C25.9452 20.1625 25.9005 18.9827 25.1501 18.2824ZM5.47823 26.5192H3.12174V19.1448H5.47828C5.83452 19.1448 6.1243 19.4346 6.1243 19.7909V25.368V25.3718V25.8727C6.1243 26.2293 5.83446 26.5192 5.47823 26.5192ZM24.615 20.325L19.1698 26.1943C18.8978 26.4863 18.5726 26.6283 18.176 26.6283H9.99159C9.66116 26.6283 9.38734 26.5292 9.12949 26.316C8.58481 25.8673 7.7097 25.3951 6.9922 25.0783V20.4636L7.91844 19.9459C8.09562 19.8484 8.27527 19.8068 8.51918 19.8068H11.9846C12.2953 19.8068 12.549 19.8893 12.7878 20.0695L13.7902 20.8084C14.1891 21.1035 14.6206 21.247 15.109 21.247H18.2338C18.8488 21.247 19.3492 21.7475 19.3492 22.3626C19.3492 22.9778 18.8488 23.478 18.2338 23.478H14.241C14.0014 23.478 13.8072 23.6723 13.8072 23.912C13.8072 24.1517 14.0014 24.346 14.241 24.346H18.2338C19.3272 24.346 20.2169 23.4562 20.2169 22.3627C20.2169 22.2927 20.2135 22.2236 20.2064 22.1556L23.1562 18.9729C23.335 18.779 23.5799 18.6666 23.8457 18.6566C24.1124 18.648 24.3664 18.7405 24.5597 18.9188C24.9605 19.2927 24.9847 19.9239 24.615 20.325ZM4.00921 14.5358V15.5795C4.00921 16.1237 4.4518 16.5667 4.99605 16.5667H7.2011C7.74535 16.5667 8.18794 16.1237 8.18794 15.5795V14.7022H9.05277C9.17647 14.7022 9.29427 14.6493 9.37663 14.5571C9.50602 14.4121 9.68523 14.3355 9.89495 14.3355H14.7748C14.9879 14.3355 15.1658 14.4118 15.3038 14.5619C15.3861 14.6514 15.5021 14.7022 15.6234 14.7022H16.3808C16.2179 15.1003 16.1282 15.5338 16.1282 15.9847C16.1282 17.3664 16.9565 18.5945 18.2383 19.1131C18.2906 19.1343 18.3459 19.1448 18.401 19.1448C18.4864 19.1448 18.5709 19.1196 18.6436 19.0708C18.7632 18.9899 18.835 18.8553 18.835 18.7109V16.0291L19.5003 15.6441L20.1659 16.0291V18.7109C20.1659 18.8553 20.2377 18.9904 20.3577 19.071C20.4778 19.1514 20.6297 19.1671 20.7635 19.113C22.0407 18.5926 22.8659 17.3649 22.8659 15.9848C22.8659 14.6916 22.146 13.539 21.0079 12.9712V6.67351C22.146 6.10563 22.8659 4.95309 22.8659 3.66001C22.8659 2.27981 22.0406 1.05213 20.7635 0.531993C20.63 0.477798 20.4775 0.493657 20.3575 0.573884C20.2377 0.654493 20.1659 0.789516 20.1659 0.934055V3.6156L19.5003 4.00066L18.835 3.6156V0.934001C18.835 0.789462 18.7632 0.654985 18.6436 0.573993C18.5243 0.493438 18.3723 0.477579 18.2384 0.53172C17.0573 1.00958 16.2632 2.09004 16.1454 3.33735C13.5238 2.98402 10.87 2.99337 8.25012 3.3723C7.77286 3.44268 7.38704 3.69703 7.13564 4.10462C6.78116 4.66998 6.4124 5.34777 6.03555 6.12324L5.4832 5.80431C5.41709 5.76624 5.34222 5.74617 5.26609 5.74617H4.5073C4.26772 5.74617 4.07336 5.94053 4.07336 6.18017C4.07336 6.41981 4.26772 6.61423 4.5073 6.61423H5.14966L5.55233 6.84676C4.83521 7.26577 4.1718 7.77366 3.58336 8.36806C3.27684 8.6742 3.12196 9.04985 3.12196 9.48499V13.111C3.12202 13.7352 3.48448 14.2752 4.00921 14.5358ZM7.3201 15.5795C7.3201 15.6451 7.26667 15.6988 7.2011 15.6988H4.99605C4.93042 15.6988 4.87699 15.6452 4.87699 15.5795V14.7022H7.3201V15.5795ZM17.967 1.67802V3.86574C17.967 4.02056 18.0496 4.16374 18.1835 4.24134L19.2827 4.87774C19.4174 4.95523 19.5834 4.95523 19.7175 4.87774L20.817 4.24134C20.9513 4.16384 21.0337 4.02056 21.0337 3.86574V1.68081C21.6344 2.14735 21.9981 2.87016 21.9981 3.66001C21.9981 4.69546 21.3765 5.6094 20.4148 5.98855C20.2492 6.05374 20.1401 6.21408 20.1401 6.39231V13.2524C20.1401 13.4306 20.2492 13.5908 20.4148 13.6562C21.3765 14.035 21.9981 14.9493 21.9981 15.9847C21.9981 16.7746 21.6344 17.497 21.0337 17.9642V15.779C21.0337 15.6242 20.9513 15.4808 20.817 15.4033L19.7175 14.767C19.5834 14.6894 19.4174 14.6894 19.2827 14.767L18.1835 15.4033C18.0496 15.4809 17.967 15.6242 17.967 15.779V17.9666C17.3623 17.5002 16.9961 16.7763 16.9961 15.9847C16.9961 15.4681 17.1515 14.9811 17.4276 14.5756C17.4557 14.5475 17.4785 14.5148 17.4982 14.4797C17.7693 14.1196 18.1381 13.8311 18.5803 13.6556C18.7457 13.5903 18.8542 13.4303 18.8542 13.2524V6.39231C18.8542 6.21441 18.7457 6.05439 18.5803 5.98888C17.6181 5.60748 16.9961 4.69322 16.9961 3.66001C16.9961 2.86802 17.3623 2.14456 17.967 1.67802ZM17.9864 10.3627C17.6671 10.3851 17.381 10.3994 17.1168 10.4047C17.3536 10.2144 17.6629 10.0353 17.9864 9.89767V10.3627ZM7.87266 4.56301C7.99041 4.37231 8.15518 4.26359 8.37557 4.23106C10.9664 3.85656 13.5926 3.85256 16.1754 4.21569C16.3426 5.23041 16.9606 6.10804 17.8666 6.60783H12.338H6.76541C7.14598 5.81634 7.51714 5.12984 7.87266 4.56301ZM3.98974 9.48488C3.98974 9.28287 4.05553 9.12291 4.19843 8.98017C4.79201 8.38058 5.46576 7.87674 6.19879 7.47556H12.338H17.9864V8.96918C17.3357 9.18913 16.6996 9.56336 16.3067 9.96903C16.0853 10.1903 16.0237 10.5261 16.1513 10.8087C16.2717 11.097 16.5413 11.2754 16.8579 11.2754C17.1986 11.2754 17.5653 11.2614 17.9864 11.2328V12.9715C17.5599 13.1852 17.1922 13.4806 16.8991 13.8342H15.7964C15.514 13.5967 15.1581 13.4678 14.7748 13.4678H9.89495C9.50968 13.4678 9.1552 13.5964 8.877 13.8342H4.71315C4.31431 13.8342 3.98969 13.5099 3.98969 13.1109L3.98974 9.48488ZM7.14647 12.4937C7.14647 12.7334 6.95211 12.9276 6.71252 12.9276H5.58087C5.34123 12.9276 5.14698 12.7334 5.14698 12.4937C5.14698 12.254 5.34123 12.0598 5.58087 12.0598H6.71252C6.95216 12.0599 7.14647 12.254 7.14647 12.4937ZM5.391 11.1046C6.22493 11.2115 7.03819 11.269 7.80857 11.2754H7.81202C8.12259 11.2754 8.39482 11.0984 8.52695 10.804C8.64775 10.517 8.58344 10.1893 8.36802 9.97368C7.72616 9.3118 6.49891 8.77313 5.63173 8.77313C5.51678 8.77313 5.40713 8.78226 5.30509 8.80031C4.8211 8.8871 4.51595 9.30939 4.52705 9.87546C4.53771 10.4145 4.84238 11.0285 5.391 11.1046ZM5.40402 9.74596C5.42102 9.66158 5.44427 9.65742 5.45755 9.6548C5.50912 9.64583 5.5677 9.64124 5.63179 9.64124C6.18506 9.64124 7.02791 9.98473 7.55055 10.4031C6.90021 10.3877 6.21979 10.3351 5.52646 10.247C5.45739 10.1873 5.36437 9.94191 5.40402 9.74596ZM9.71869 10.6421C9.72892 10.4094 9.92093 10.2275 10.1519 10.2275C10.1583 10.2275 10.1648 10.2275 10.1713 10.2279C11.6066 10.2916 13.0627 10.2916 14.4984 10.2279C14.7458 10.2111 14.9409 10.4026 14.9511 10.6421C14.9618 10.8818 14.7764 11.0843 14.537 11.0948C13.8064 11.1272 13.0704 11.1434 12.3348 11.1434C11.5991 11.1434 10.8636 11.1272 10.1328 11.0948C9.89337 11.0843 9.70809 10.8818 9.71869 10.6421Z" fill="#FD4D00"/>
</svg>
