<svg width="28" height="28" viewBox="0 0 28 28" fill="none" xmlns="http://www.w3.org/2000/svg">
<path d="M19.9927 6.57453C19.9473 6.44164 19.8226 6.3525 19.682 6.3525C19.5415 6.3525 19.4168 6.44164 19.3714 6.57453C19.2741 6.85891 19.0564 7.30516 18.8048 7.82195C17.9238 9.63102 16.7174 12.1084 17.5809 13.4635C17.9462 14.0372 18.6298 14.3276 19.6126 14.3276C19.6416 14.3276 19.6711 14.3276 19.7012 14.327C20.7271 14.309 21.4337 13.9956 21.8006 13.3952C22.6286 12.0405 21.4501 9.63977 20.5898 7.88648C20.3268 7.34781 20.0987 6.88297 19.9927 6.57453ZM21.2417 13.0523C20.9995 13.4487 20.4777 13.6566 19.6908 13.6702C18.9044 13.6839 18.3805 13.4958 18.1355 13.1108C17.4694 12.0657 18.6752 9.58891 19.396 8.10906C19.4983 7.89852 19.5956 7.69945 19.682 7.51516C19.7783 7.71859 19.8866 7.94008 20.002 8.17469C20.7501 9.70047 21.8816 12.0055 21.2417 13.0523ZM24.7352 7.77984L19.8975 3.66406C19.8384 3.61375 19.763 3.58586 19.6848 3.58586H18.9963V1.14844C18.9963 0.967422 18.8491 0.820312 18.6681 0.820312H15.2004C15.0194 0.820312 14.8723 0.967422 14.8723 1.14844V3.58586H14.764C14.263 3.58586 13.8556 3.99328 13.8556 4.49422V5.36102H11.5752C11.4182 5.36102 11.2837 5.47203 11.253 5.6257L10.8166 7.83945C10.2796 8.00406 9.75844 8.22008 9.26188 8.48422L7.38664 7.22695C7.25648 7.13945 7.08258 7.15641 6.97211 7.26742L4.39469 9.84484C4.28367 9.95586 4.26672 10.1292 4.35422 10.2594L5.61148 12.1346C5.3468 12.6317 5.13078 13.1529 4.96672 13.6894L2.75297 14.1258C2.5993 14.1559 2.48828 14.2909 2.48828 14.4479V18.0928C2.48828 18.2498 2.5993 18.3843 2.75297 18.4149L4.96672 18.8513C5.13078 19.3884 5.34734 19.9095 5.61148 20.4061L4.35422 22.2813C4.26672 22.4115 4.28367 22.5854 4.39469 22.6959L6.97211 25.2733C7.08313 25.3843 7.25648 25.4013 7.38664 25.3138L9.26188 24.0565C9.75844 24.3206 10.2796 24.5372 10.8166 24.7013L11.253 26.9155C11.2831 27.0692 11.4182 27.1802 11.5752 27.1802H15.2201C15.377 27.1802 15.5116 27.0692 15.5422 26.9155L15.9786 24.7013C16.5156 24.5372 17.0368 24.3206 17.5334 24.0565L19.4086 25.3138C19.5387 25.4013 19.7127 25.3843 19.8231 25.2733L22.4005 22.6959C22.5116 22.5848 22.5285 22.4115 22.441 22.2813L21.1838 20.4061C21.4479 19.9095 21.6645 19.3878 21.8285 18.8513L24.0423 18.4149C24.1959 18.3848 24.307 18.2498 24.307 18.0928V17.0942H24.6247C25.1158 17.0942 25.515 16.695 25.515 16.2039V9.46586C25.5145 8.79648 25.2448 8.21352 24.7352 7.77984ZM15.528 1.47656H18.3395V3.58586H15.528V1.47656ZM11.2623 13.7741V14.4987C11.2623 14.6798 11.4095 14.8269 11.5905 14.8269C11.7715 14.8269 11.9186 14.6798 11.9186 14.4987V13.1409C11.9186 12.9598 11.7715 12.8127 11.5905 12.8127H10.2326C10.0516 12.8127 9.90445 12.9598 9.90445 13.1409C9.90445 13.3219 10.0516 13.469 10.2326 13.469H10.6258C9.88859 14.2013 9.45547 15.2086 9.45547 16.2701C9.45547 18.4434 11.2235 20.2114 13.3968 20.2114C15.26 20.2114 16.8678 18.8896 17.2512 17.0937H19.0427C18.6402 19.8581 16.2269 21.9751 13.3968 21.9751C10.2506 21.9751 7.69125 19.4157 7.69125 16.2695C7.69125 13.1234 10.2506 10.564 13.3968 10.564C13.5494 10.564 13.7025 10.5705 13.8551 10.5831V16.2039C13.8551 16.695 14.2543 17.0942 14.7454 17.0942H16.5774C16.2083 18.521 14.9029 19.5557 13.3973 19.5557C11.5861 19.5557 10.1123 18.0819 10.1123 16.2706C10.1117 15.3043 10.5416 14.3927 11.2623 13.7741ZM23.6502 17.8232L21.5053 18.2459C21.3839 18.27 21.2866 18.3602 21.2527 18.4795C21.0788 19.0991 20.8299 19.6995 20.5133 20.2628C20.4526 20.3705 20.458 20.5034 20.527 20.6062L21.7448 22.4224L19.5491 24.6181L17.733 23.4002C17.6302 23.3313 17.4973 23.3259 17.3895 23.3866C16.8262 23.7032 16.2263 23.952 15.6062 24.1259C15.487 24.1593 15.3967 24.2572 15.3732 24.3786L14.9499 26.5234H11.8442L11.4215 24.3786C11.3974 24.2572 11.3072 24.1598 11.1885 24.1259C10.5684 23.9515 9.96789 23.7027 9.40516 23.3866C9.29742 23.3259 9.16453 23.3313 9.06172 23.4002L7.24555 24.6181L5.04984 22.4224L6.26773 20.6062C6.33664 20.5034 6.34211 20.3705 6.28141 20.2628C5.96477 19.6995 5.71594 19.0996 5.54148 18.4795C5.50812 18.3602 5.41023 18.27 5.28883 18.2459L3.14398 17.8232V14.7175L5.28883 14.2948C5.41023 14.2707 5.50758 14.1805 5.54148 14.0612C5.71539 13.4416 5.96422 12.8417 6.28141 12.2779C6.34211 12.1702 6.33664 12.0373 6.26773 11.9345L5.04984 10.1183L7.24555 7.92258L9.06172 9.14047C9.16453 9.20938 9.29742 9.21484 9.40516 9.15414C9.96789 8.8375 10.5678 8.58867 11.1885 8.41477C11.3077 8.38141 11.398 8.28352 11.4215 8.16211L11.8442 6.01727H13.8551V9.92578C13.7025 9.91484 13.5494 9.90883 13.3968 9.90883C9.88914 9.90883 7.035 12.7624 7.035 16.2706C7.035 19.7783 9.88859 22.6324 13.3968 22.6324C15.0052 22.6324 16.5397 22.0309 17.7188 20.9388C18.8163 19.9216 19.5147 18.5664 19.7055 17.0948H23.6502V17.8232ZM24.8582 16.2039C24.8582 16.333 24.7532 16.438 24.6241 16.438H14.7454C14.6163 16.438 14.5113 16.333 14.5113 16.2039V4.49422C14.5113 4.35531 14.6245 4.24211 14.7634 4.24211H19.5639L24.3097 8.27969C24.6734 8.58922 24.8582 8.98844 24.8582 9.46586V16.2039Z" fill="#FD4D00" stroke="#FD4D00" stroke-width="0.5"/>
</svg>
