<svg width="28" height="28" viewBox="0 0 28 28" fill="none" xmlns="http://www.w3.org/2000/svg">
<g clip-path="url(#clip0_2916_103089)">
<path d="M1.9282 5.83148C1.99109 5.94195 2.09664 6.0218 2.22023 6.05242L3.96148 6.48828L9.93664 12.4634L10.5967 11.8034L4.53023 5.73688C4.47062 5.67727 4.3957 5.63461 4.31367 5.61438L2.64023 5.19602L1.04883 2.41133L2.41164 1.04852L5.19578 2.63938L5.61414 4.31281C5.63437 4.39484 5.67703 4.47031 5.73719 4.52992L11.8037 10.5964L12.4637 9.93633L6.48859 3.96063L6.05328 2.21992C6.02211 2.09633 5.94281 1.99078 5.83179 1.92789L2.56476 0.0614066C2.38156 -0.0430465 2.15187 -0.0118747 2.00312 0.136875L0.136638 2.00336C-0.0121117 2.15211 -0.0427367 2.3818 0.0611695 2.565L1.92765 5.83148H1.9282Z" fill="#FD4D00"/>
<path d="M8.53516 18.8008L18.8001 8.53586L19.4597 9.19547L9.19477 19.4604L8.53516 18.8008Z" fill="#FD4D00"/>
<path d="M7.3991 19.828C7.31488 19.6874 7.16285 19.6016 6.99879 19.6016H4.19879C4.03473 19.6016 3.8827 19.688 3.79848 19.828L2.39848 22.1615C2.30988 22.3091 2.30988 22.494 2.39848 22.6416L3.79848 24.9752C3.8827 25.1157 4.03473 25.2016 4.19879 25.2016H6.99879C7.16285 25.2016 7.31488 25.1152 7.3991 24.9752L8.7991 22.6416C8.8877 22.494 8.8877 22.3091 8.7991 22.1615L7.3991 19.828ZM6.73465 24.268H4.46348L3.34348 22.4016L4.46348 20.5351H6.73465L7.85465 22.4016L6.73465 24.268Z" fill="#FD4D00"/>
<path d="M21.3303 16.0016C21.1482 15.8195 20.8545 15.8195 20.6724 16.0016L20.4389 16.2351C20.2338 16.4402 19.9024 16.4402 19.6968 16.2351C19.5989 16.1372 19.5426 16.0065 19.5426 15.8665C19.5426 15.7265 19.5984 15.5958 19.6968 15.4979L19.9303 15.2644C20.1124 15.0823 20.1124 14.7837 19.9303 14.6016L18.8617 13.533L21.3068 11.0879C21.6754 11.1628 22.044 11.2 22.3989 11.2C25.4882 11.2 27.9989 8.6893 27.9989 5.6C27.9989 5.15648 27.9431 4.70422 27.831 4.24648C27.7889 4.08297 27.6631 3.95227 27.4996 3.90578C27.341 3.86367 27.1638 3.9107 27.0468 4.02719L24.1396 6.93437L21.8345 6.16438L21.0695 3.8593L23.9723 0.952109C24.0937 0.835625 24.1402 0.662813 24.0937 0.499297C24.0472 0.335781 23.9209 0.214375 23.7579 0.172813C23.3007 0.0563281 22.843 0 22.4 0C19.3151 0 16.8 2.5107 16.8 5.6C16.8 5.9593 16.8421 6.32352 16.9165 6.69211L6.69648 16.9121C6.32297 16.8372 5.9593 16.8 5.6 16.8C2.51508 16.8 0 19.3107 0 22.4C0 25.4893 2.51508 28 5.6 28C8.68492 28 11.2 25.4893 11.2 22.4C11.2 22.0407 11.1628 21.6765 11.0879 21.3079L13.533 18.8579L14.6065 19.9314C14.7886 20.1135 15.0823 20.1135 15.2644 19.9314L15.4979 19.6979C15.703 19.4928 16.0344 19.4928 16.24 19.6979C16.3379 19.7958 16.3942 19.9265 16.3942 20.0665C16.3942 20.2065 16.3384 20.3372 16.24 20.4351L16.0065 20.6686C15.8244 20.8507 15.8244 21.1493 16.0065 21.3314L21.5737 26.8986C22.283 27.6079 23.2302 28 24.2337 28C26.3102 28 27.9995 26.3107 27.9995 24.2342C27.9995 23.2263 27.6073 22.2835 26.898 21.5693L21.3309 16.0021L21.3303 16.0016ZM24.2331 27.0659C23.8875 27.0659 23.5566 27.0009 23.2438 26.8838L26.8888 23.2389C27.0052 23.5517 27.0659 23.8875 27.0659 24.2331C27.0659 25.7966 25.7966 27.0659 24.2331 27.0659ZM10.2452 20.8283C10.1292 20.9442 10.0827 21.1127 10.1221 21.2718C10.2184 21.6552 10.267 22.0347 10.267 22.4C10.267 24.973 8.17359 27.0665 5.60055 27.0665C3.0275 27.0665 0.934062 24.973 0.934062 22.4C0.934062 19.827 3.0275 17.7335 5.60055 17.7335C5.96969 17.7335 6.33883 17.7811 6.72875 17.8784C6.88734 17.9173 7.05578 17.8713 7.17172 17.7554L17.7559 7.17117C17.8719 7.05523 17.9184 6.8868 17.8784 6.72766C17.7827 6.3443 17.7335 5.96531 17.7335 5.6C17.7335 2.93891 19.973 0.778203 22.6652 0.941719L20.2038 3.40375C20.0785 3.52844 20.0353 3.71383 20.0911 3.88117L21.0246 6.68117C21.0711 6.82062 21.1805 6.93 21.3199 6.97594L24.1199 7.90945C24.2878 7.96633 24.4727 7.92203 24.5973 7.7968L27.0594 5.33477C27.0648 5.42391 27.0676 5.5125 27.0676 5.6C27.0676 8.17305 24.9741 10.2665 22.4011 10.2665C22.0369 10.2665 21.6573 10.2178 21.2734 10.1216C21.1143 10.0816 20.9464 10.1281 20.8299 10.2441L10.2457 20.8283H10.2452ZM22.231 26.2352L16.9903 20.9945C17.2052 20.7331 17.3261 20.411 17.3261 20.0659C17.3261 19.6787 17.1719 19.3102 16.8968 19.0345C16.3603 18.5024 15.511 18.4696 14.9368 18.9459L14.1947 18.1995L18.1989 14.1909L18.9454 14.9373C18.7305 15.1987 18.6096 15.5209 18.6096 15.8659C18.6096 16.2531 18.7638 16.6217 19.0389 16.8973C19.571 17.4295 20.4247 17.4623 20.994 16.9859L26.2391 22.2316C26.2948 22.2873 26.3463 22.348 26.3977 22.4087L22.4077 26.3988C22.347 26.3473 22.2862 26.2916 22.2305 26.2352H22.231Z" fill="#FD4D00"/>
<path d="M18.8008 19.4648L19.4604 18.8052L24.1264 23.4712L23.4668 24.1308L18.8008 19.4648Z" fill="#FD4D00"/>
</g>
<defs>
<clipPath id="clip0_2916_103089">
<rect width="28" height="28" fill="white"/>
</clipPath>
</defs>
</svg>
