<svg width="28" height="28" viewBox="0 0 28 28" fill="none" xmlns="http://www.w3.org/2000/svg">
<g clip-path="url(#clip0_2916_103046)">
<path d="M17.7333 20.9998H0.933333V15.8664C0.933333 15.0932 1.56012 14.4664 2.33333 14.4664H10.2667V13.5331H3.55507L6.56367 7.51542C6.72111 7.19861 7.04474 6.9987 7.39853 6.99975H17.2667V6.06642H7.39853C6.69077 6.06403 6.04327 6.46419 5.7288 7.09822L2.5116 13.5331H2.33333C1.04533 13.5346 0.00151667 14.5784 0 15.8664V26.5998C0 27.373 0.626792 27.9998 1.4 27.9998H5.13333C5.90654 27.9998 6.53333 27.373 6.53333 26.5998V23.7998H17.7333V22.8664H2.33333C2.247 22.8658 2.1609 22.8571 2.0762 22.8403C2.05053 22.8356 2.02533 22.8281 1.99967 22.8221C1.9425 22.8079 1.88627 22.7903 1.8312 22.7694C1.80507 22.7591 1.77893 22.7488 1.75373 22.7372C1.69919 22.712 1.64634 22.6833 1.59553 22.6513C1.5764 22.6392 1.55587 22.6284 1.5372 22.6158C1.4707 22.5694 1.40823 22.5174 1.35053 22.4604C1.34073 22.4506 1.33233 22.4389 1.32253 22.4287C1.2761 22.3796 1.23305 22.3274 1.19373 22.2724C1.17833 22.2504 1.16433 22.2257 1.15033 22.2047C1.12006 22.1561 1.09258 22.1057 1.0682 22.0539C1.057 22.0292 1.04487 22.004 1.03507 21.9784C1.029 21.9639 1.0262 21.948 1.0206 21.9317H17.7333V20.9998ZM4.66667 23.7998H5.6V26.5998C5.6 26.8575 5.39105 27.0664 5.13333 27.0664H4.66667V23.7998ZM2.8 23.7998H3.73333V27.0664H2.8V23.7998ZM1.11067 23.4456C1.18889 23.4943 1.26992 23.5384 1.35333 23.5776C1.4 23.5991 1.44667 23.6192 1.49333 23.6378C1.58375 23.6721 1.67615 23.7007 1.77007 23.7237C1.8032 23.7321 1.83353 23.7466 1.8676 23.7536V27.0664H1.4C1.14228 27.0664 0.933333 26.8575 0.933333 26.5998V23.3331C0.951067 23.3461 0.972067 23.3559 0.990267 23.369C1.029 23.3966 1.07007 23.4204 1.11067 23.4456Z" fill="#FD4D00"/>
<path d="M9.79844 16.3318H17.7318V15.3984H9.79844C9.02523 15.3984 8.39844 16.0252 8.39844 16.7984V18.6651C8.39844 19.4383 9.02523 20.0651 9.79844 20.0651H17.7318V19.1318H9.79844C9.54072 19.1318 9.33177 18.9228 9.33177 18.6651V18.1984H17.7318V17.2651H9.33177V16.7984C9.33177 16.5407 9.54072 16.3318 9.79844 16.3318Z" fill="#FD4D00"/>
<path d="M6.06719 15.3984H3.26719C2.49398 15.3984 1.86719 16.0252 1.86719 16.7984V18.6651C1.86719 19.4383 2.49398 20.0651 3.26719 20.0651H6.06719C6.8404 20.0651 7.46719 19.4383 7.46719 18.6651V16.7984C7.46719 16.0252 6.8404 15.3984 6.06719 15.3984ZM6.53385 18.6651C6.53385 18.9228 6.3249 19.1318 6.06719 19.1318H3.26719C3.00947 19.1318 2.80052 18.9228 2.80052 18.6651V16.7984C2.80052 16.5407 3.00947 16.3318 3.26719 16.3318H6.06719C6.3249 16.3318 6.53385 16.5407 6.53385 16.7984V18.6651Z" fill="#FD4D00"/>
<path d="M28.0003 13.0667V11.6667C28.0003 11.4089 27.7913 11.2 27.5336 11.2H25.5367L25.1765 10.1192C25.1129 9.92857 24.9346 9.79994 24.7336 9.8H23.3336V9.05987C24.7389 8.48388 25.6595 7.11877 25.6669 5.6V0.466667C25.6669 0.20895 25.458 0 25.2003 0H18.6669C18.4092 0 18.2003 0.20895 18.2003 0.466667V5.6C18.2077 7.11877 19.1283 8.48388 20.5336 9.05987V9.8H17.7336V9.33333H16.8003V9.97827L15.1917 10.7823C15.0335 10.8614 14.9335 11.0231 14.9336 11.2V12.1333C14.9335 12.3102 15.0335 12.472 15.1917 12.551L16.8003 13.3551V14H17.7336V13.5333H20.3815L19.8747 15.3067C19.7793 15.6371 19.4775 15.8652 19.1336 15.8667V16.8C19.8936 16.7976 20.5609 16.2943 20.7721 15.5643L20.8187 15.4H22.3909L23.2309 19.6H21.9336V20.5333H23.4176L23.8096 22.4933C23.8539 22.7106 24.0451 22.8667 24.2669 22.8667H25.2003V23.8C25.2003 24.0577 24.9913 24.2667 24.7336 24.2667H20.5336C19.5027 24.2667 18.6669 25.1024 18.6669 26.1333C18.6669 27.1643 19.5027 28 20.5336 28H28.0003V27.0667H20.5336C20.0181 27.0667 19.6003 26.6488 19.6003 26.1333C19.6003 25.6178 20.0181 25.2 20.5336 25.2H24.7336C25.5068 25.2 26.1336 24.5732 26.1336 23.8V22.8667H27.0669C27.3246 22.8666 27.5335 22.6576 27.5335 22.3999C27.5335 22.3742 27.5313 22.3484 27.5271 22.323L26.184 14.2632L27.7422 13.4867C27.9012 13.4072 28.0013 13.2444 28.0003 13.0667ZM16.8003 12.3116L15.8669 11.8449V11.4884L16.8003 11.0217V12.3116ZM19.1336 0.933333H24.7336V1.86667H19.1336V0.933333ZM19.1336 5.6V2.8H24.7336V5.6C24.728 6.83626 23.9167 7.92429 22.7335 8.2824C22.5358 8.34137 22.4003 8.5232 22.4003 8.72947V9.8H21.4669V8.72947C21.4669 8.5232 21.3314 8.34137 21.1337 8.2824C19.9505 7.92429 19.1392 6.83626 19.1336 5.6ZM21.0857 14.4667L21.3521 13.5333H22.0176L22.2043 14.4667H21.0857ZM27.0669 12.7783L25.4583 13.5823C25.2749 13.674 25.1728 13.8748 25.2068 14.077L25.2717 14.4667H24.2669V15.4H25.4271L25.5829 16.3333H24.7336V17.2667H25.7383L25.8937 18.2H25.2003V19.1333H26.0491L26.205 20.0667H25.6669V21H26.3604L26.5158 21.9333H24.6491L22.8576 12.9733C22.8133 12.756 22.622 12.5999 22.4003 12.6H17.7336V10.7333H24.3971L24.7574 11.8141C24.8209 12.0048 24.9993 12.1334 25.2003 12.1333H27.0669V12.7783Z" fill="#FD4D00"/>
<path d="M14.001 11.1992H10.7344V12.1326H14.001V11.1992Z" fill="#FD4D00"/>
<path d="M11.4096 8.45429L10.9922 9.28906L13.792 10.689L14.2094 9.8542L11.4096 8.45429Z" fill="#FD4D00"/>
<path d="M13.7881 12.647L10.9883 14.0469L11.4057 14.8816L14.2055 13.4817L13.7881 12.647Z" fill="#FD4D00"/>
<path d="M9.80052 11.1992H8.86719V12.1326H9.80052V11.1992Z" fill="#FD4D00"/>
<path d="M10.2654 7.93359H9.33203V8.86693H10.2654V7.93359Z" fill="#FD4D00"/>
<path d="M8.86693 9.33203H7.93359V10.2654H8.86693V9.33203Z" fill="#FD4D00"/>
<path d="M20.9997 5.60156H20.0664C20.0664 6.63249 20.9021 7.46823 21.9331 7.46823V6.5349C21.4176 6.5349 20.9997 6.11705 20.9997 5.60156Z" fill="#FD4D00"/>
<path d="M20.9997 3.73438H20.0664V4.66771H20.9997V3.73438Z" fill="#FD4D00"/>
</g>
<defs>
<clipPath id="clip0_2916_103046">
<rect width="28" height="28" fill="white"/>
</clipPath>
</defs>
</svg>
