<svg width="28" height="28" viewBox="0 0 28 28" fill="none" xmlns="http://www.w3.org/2000/svg">
<path d="M5.25663 19.5774C5.45885 19.3752 5.79071 19.3752 5.98774 19.5826L7.96848 21.5789C8.17071 21.7812 8.17071 22.113 7.9633 22.31C7.85959 22.4086 7.72997 22.4604 7.60034 22.4604C7.46552 22.4604 7.33589 22.4086 7.23219 22.3049L5.25145 20.3086C5.05441 20.1063 5.05441 19.7797 5.25663 19.5774ZM25.8159 1.62115C26.5366 2.36782 26.5314 3.57078 25.8003 4.30708L24.39 5.733L23.9337 7.11745C23.9077 7.19523 23.8663 7.26263 23.8092 7.31967L22.8189 8.32041L20.5011 10.6641V12.4478C20.5011 12.5826 20.4492 12.7123 20.3507 12.8108L18.8263 14.3663C18.7226 14.47 18.5877 14.5219 18.4581 14.5219C18.3285 14.5219 18.1937 14.47 18.0951 14.3715C17.8929 14.1693 17.8877 13.8426 18.09 13.6404L19.4692 12.2404V10.6693L16.804 7.97819H15.2433L12.7855 10.4567L18.3233 16.0463C18.5255 16.2486 18.5255 16.5752 18.3233 16.7774L15.85 19.2767C15.7514 19.3752 15.6218 19.4323 15.4818 19.4323C15.3418 19.4323 15.2122 19.3752 15.1137 19.2767L14.5329 18.6908L13.2833 19.9508L13.8692 20.5419C14.0714 20.7441 14.0714 21.0708 13.8692 21.273L11.8885 23.2693C11.79 23.3678 11.6603 23.4249 11.5203 23.4249C11.3803 23.4249 11.2507 23.3678 11.1522 23.2693L10.5714 22.6834L7.96848 25.3071C7.86997 25.4056 7.74034 25.4626 7.60034 25.4626C7.46034 25.4626 7.33071 25.4056 7.23219 25.3071L6.60997 24.6797L4.50478 26.8056C4.40626 26.9041 4.27663 26.9612 4.13663 26.9612C3.99663 26.9612 3.867 26.9041 3.76848 26.8056L1.78774 24.8093C1.58552 24.6071 1.58552 24.2752 1.79293 24.0782C1.99515 23.876 2.327 23.876 2.52404 24.0834L4.13663 25.7115L5.87885 23.9486L5.13219 23.1967L4.53071 23.8293C4.427 23.9382 4.29219 23.99 4.15737 23.99C4.02774 23.99 3.89811 23.9434 3.7996 23.8449C3.59219 23.6478 3.58182 23.3212 3.77885 23.1137L4.40108 22.4604L2.28034 20.3189C2.07811 20.1167 2.07811 19.79 2.28034 19.5878L4.88848 16.9537L4.26108 16.3212C4.05885 16.1189 4.05885 15.7923 4.26108 15.59L6.24182 13.5937C6.43885 13.3967 6.78108 13.3967 6.97811 13.5937L7.60034 14.2212L8.84997 12.9612L8.22256 12.3286C8.02034 12.1263 8.02034 11.7997 8.22256 11.5974L10.6959 9.09819C10.8929 8.90115 11.2351 8.90115 11.4322 9.09819L12.0544 9.7256L14.6574 7.10189C14.7559 7.00337 14.8855 6.94634 15.0255 6.94634H16.7885L19.1114 4.60263L20.0966 3.60708C20.1537 3.55004 20.2211 3.50856 20.2989 3.48263L21.6677 3.02115L23.0522 1.62115C23.4151 1.25819 23.9129 1.05078 24.4211 1.05078C24.9292 1.05078 25.4322 1.25819 25.79 1.62115C25.8055 1.61078 25.8107 1.61597 25.8159 1.62115ZM9.84034 21.9471L5.6196 17.6849L3.3796 19.9456L5.47959 22.0663L6.96774 23.57L7.58997 24.1974L9.84034 21.9471ZM12.77 20.9049L6.60997 14.6878L5.36034 15.9478L5.98774 16.5804L10.9396 21.5789L11.5203 22.1649L12.77 20.9049ZM13.8018 17.9493L9.58108 13.6923L8.33145 14.9523L12.5522 19.2093L13.8018 17.9493ZM15.5233 14.6878L13.7759 16.4508L15.4818 18.1723L17.2292 16.4093L15.5233 14.6878ZM13.5426 12.6915L11.7951 14.4545L13.0448 15.7145L14.7922 13.9515L13.5426 12.6915ZM11.0692 10.1923L9.32182 11.9552L9.94404 12.5826L11.064 13.713L12.8114 11.95L11.0692 10.1923ZM21.7196 7.95745L19.4796 5.69671L17.7374 7.45967L19.9774 9.72041L21.7196 7.95745ZM23.3426 5.59819L22.6944 4.94486L21.8129 4.053L20.75 4.41078L20.2107 4.95523L22.4507 7.21597L22.9848 6.67671L23.3426 5.59819ZM25.064 2.33671C25.0589 2.33152 25.0589 2.33152 25.0537 2.32634C24.7166 1.99967 24.1255 2.00486 23.7989 2.33671L22.6892 3.45671L23.524 4.30189L23.9389 4.72189L25.0692 3.58115C25.4063 3.23893 25.4063 2.67893 25.064 2.33671Z" fill="#FD4D00"/>
</svg>
