<svg width="28" height="28" viewBox="0 0 28 28" fill="none" xmlns="http://www.w3.org/2000/svg">
<g clip-path="url(#clip0_2916_102841)">
<path d="M8.80469 4.64844C9.10213 4.64844 9.3929 4.56024 9.64021 4.39498C9.88753 4.22973 10.0803 3.99485 10.1941 3.72005C10.3079 3.44525 10.3377 3.14286 10.2797 2.85113C10.2217 2.55941 10.0784 2.29143 9.86811 2.08111C9.65778 1.87078 9.38981 1.72755 9.09809 1.66952C8.80636 1.61149 8.50397 1.64128 8.22917 1.7551C7.95436 1.86893 7.71949 2.06169 7.55423 2.30901C7.38898 2.55632 7.30078 2.84709 7.30078 3.14453C7.30136 3.54322 7.45999 3.9254 7.7419 4.20731C8.02382 4.48923 8.406 4.64786 8.80469 4.64844ZM8.80469 2.46094C8.93989 2.46094 9.07206 2.50103 9.18447 2.57614C9.29689 2.65126 9.38451 2.75802 9.43625 2.88293C9.48799 3.00784 9.50152 3.14529 9.47515 3.27789C9.44877 3.4105 9.38366 3.5323 9.28806 3.62791C9.19246 3.72351 9.07065 3.78861 8.93805 3.81499C8.80545 3.84137 8.668 3.82783 8.54309 3.77609C8.41818 3.72435 8.31141 3.63673 8.2363 3.52432C8.16119 3.4119 8.12109 3.27973 8.12109 3.14453C8.12138 2.96332 8.1935 2.78961 8.32163 2.66148C8.44977 2.53334 8.62348 2.46123 8.80469 2.46094Z" fill="#FD4D00"/>
<path d="M8.80469 24.1719C8.56132 24.1719 8.32343 24.244 8.12108 24.3792C7.91873 24.5145 7.76101 24.7066 7.66788 24.9315C7.57475 25.1563 7.55038 25.4037 7.59786 25.6424C7.64534 25.8811 7.76253 26.1003 7.93462 26.2724C8.1067 26.4445 8.32595 26.5617 8.56464 26.6092C8.80332 26.6566 9.05073 26.6323 9.27557 26.5391C9.50041 26.446 9.69258 26.2883 9.82779 26.086C9.96299 25.8836 10.0352 25.6457 10.0352 25.4023C10.0349 25.0761 9.90514 24.7633 9.67444 24.5326C9.44375 24.3019 9.13094 24.1722 8.80469 24.1719ZM8.80469 25.8125C8.72357 25.8125 8.64427 25.7884 8.57682 25.7434C8.50937 25.6983 8.4568 25.6342 8.42575 25.5593C8.39471 25.4844 8.38659 25.4019 8.40241 25.3223C8.41824 25.2428 8.4573 25.1697 8.51466 25.1123C8.57203 25.055 8.64511 25.0159 8.72467 25.0001C8.80423 24.9842 8.8867 24.9924 8.96165 25.0234C9.03659 25.0545 9.10065 25.107 9.14572 25.1745C9.19079 25.2419 9.21484 25.3212 9.21484 25.4023C9.21484 25.5111 9.17163 25.6154 9.09471 25.6924C9.01779 25.7693 8.91347 25.8125 8.80469 25.8125Z" fill="#FD4D00"/>
<path d="M12.3594 10.9385H11.9492V8.88768C11.9487 8.58515 11.837 8.29337 11.6353 8.06789C11.4336 7.8424 11.1561 7.69896 10.8555 7.66487V5.5244C11.3422 5.10569 11.689 4.54805 11.8495 3.9264C12.0099 3.30475 11.9762 2.64889 11.7529 2.04695C11.5296 1.44502 11.1274 0.925858 10.6004 0.559234C10.0733 0.19261 9.4467 -0.00390625 8.80469 -0.00390625C8.16267 -0.00390625 7.53604 0.19261 7.009 0.559234C6.48196 0.925858 6.07977 1.44502 5.85647 2.04695C5.63318 2.64889 5.59948 3.30475 5.75991 3.9264C5.92035 4.54805 6.26721 5.10569 6.75391 5.5244V7.66323C6.45331 7.69732 6.17574 7.84076 5.97406 8.06625C5.77237 8.29173 5.66065 8.58351 5.66016 8.88604V10.9385H5.25C4.92366 10.9385 4.61068 11.0681 4.37993 11.2989C4.14917 11.5296 4.01953 11.8426 4.01953 12.1689C4.01953 12.4953 4.14917 12.8082 4.37993 13.039C4.61068 13.2698 4.92366 13.3994 5.25 13.3994H7.30078V14.6906L6.53516 14.5626C6.21332 14.5096 5.88359 14.5863 5.61821 14.776C5.35283 14.9656 5.17342 15.2527 5.1193 15.5743C5.06585 15.8962 5.14239 16.2262 5.3321 16.4917C5.52181 16.7571 5.80916 16.9365 6.13102 16.9902L7.30133 17.1854V18.5187L6.5357 18.3907C6.21387 18.3377 5.88414 18.4144 5.61876 18.6041C5.35338 18.7937 5.17397 19.0808 5.11984 19.4024C5.06639 19.7243 5.14294 20.0543 5.33264 20.3198C5.52235 20.5853 5.80971 20.7646 6.13156 20.8183L7.30188 21.0135V23.2874C6.85262 23.6064 6.51643 24.06 6.3419 24.5826C6.16736 25.1052 6.16352 25.6698 6.33093 26.1947C6.49834 26.7197 6.82833 27.1778 7.27321 27.5029C7.71808 27.8279 8.2548 28.0031 8.80578 28.0031C9.35677 28.0031 9.89348 27.8279 10.3384 27.5029C10.7832 27.1778 11.1132 26.7197 11.2806 26.1947C11.448 25.6698 11.4442 25.1052 11.2697 24.5826C11.0951 24.06 10.7589 23.6064 10.3097 23.2874V21.5145L11.0753 21.6424C11.1423 21.6538 11.2102 21.6594 11.2782 21.6594C11.5693 21.6588 11.8508 21.5551 12.0728 21.3669C12.2948 21.1786 12.443 20.9178 12.4912 20.6307C12.5446 20.3088 12.4681 19.9789 12.2784 19.7134C12.0887 19.4479 11.8013 19.2686 11.4795 19.2149L10.3091 19.0196V17.6864L11.0748 17.8143C11.1418 17.8256 11.2097 17.8313 11.2777 17.8313C11.5687 17.8306 11.8502 17.727 12.0722 17.5387C12.2942 17.3505 12.4425 17.0897 12.4906 16.8026C12.5441 16.4807 12.4675 16.1508 12.2778 15.8853C12.0881 15.6198 11.8008 15.4405 11.4789 15.3867L10.3086 15.1915V13.3994H12.3594C12.6857 13.3994 12.9987 13.2698 13.2294 13.039C13.4602 12.8082 13.5898 12.4953 13.5898 12.1689C13.5898 11.8426 13.4602 11.5296 13.2294 11.2989C12.9987 11.0681 12.6857 10.9385 12.3594 10.9385ZM6.48047 3.14549C6.48047 2.6858 6.61678 2.23644 6.87217 1.85422C7.12756 1.47201 7.49055 1.17411 7.91525 0.998194C8.33994 0.822279 8.80727 0.776252 9.25812 0.865932C9.70897 0.955613 10.1231 1.17697 10.4482 1.50202C10.7732 1.82707 10.9946 2.2412 11.0842 2.69206C11.1739 3.14291 11.1279 3.61024 10.952 4.03493C10.7761 4.45963 10.4782 4.82262 10.096 5.07801C9.71374 5.3334 9.26437 5.46971 8.80469 5.46971C8.18849 5.46899 7.59773 5.22388 7.16202 4.78816C6.7263 4.35244 6.48119 3.76169 6.48047 3.14549ZM8.80469 6.29002C9.2276 6.2904 9.64619 6.20501 10.0352 6.03901V7.65721H7.57422V6.03901C7.96319 6.20501 8.38178 6.2904 8.80469 6.29002ZM6.48047 8.88768C6.48047 8.7789 6.52368 8.67457 6.6006 8.59766C6.67752 8.52074 6.78184 8.47752 6.89062 8.47752H10.7188C10.8275 8.47752 10.9319 8.52074 11.0088 8.59766C11.0857 8.67457 11.1289 8.7789 11.1289 8.88768V10.9385H6.48047V8.88768ZM8.80469 27.1806C8.45316 27.1806 8.10953 27.0764 7.81725 26.8811C7.52497 26.6858 7.29716 26.4082 7.16264 26.0835C7.02811 25.7587 6.99292 25.4013 7.0615 25.0566C7.13007 24.7118 7.29935 24.3951 7.54792 24.1465C7.79648 23.898 8.11317 23.7287 8.45794 23.6601C8.80272 23.5915 9.16008 23.6267 9.48485 23.7613C9.80961 23.8958 10.0872 24.1236 10.2825 24.4159C10.4778 24.7081 10.582 25.0518 10.582 25.4033C10.5815 25.8745 10.394 26.3262 10.0608 26.6594C9.72763 26.9926 9.27589 27.1801 8.80469 27.1806ZM9.48828 22.8975C9.04079 22.775 8.56859 22.775 8.12109 22.8975V21.1503L9.48828 21.3778V22.8975ZM11.6107 20.1899C11.6578 20.2559 11.6842 20.3342 11.6868 20.4152C11.6894 20.4961 11.668 20.576 11.6252 20.6448C11.5825 20.7136 11.5203 20.7681 11.4466 20.8016C11.3729 20.8352 11.2909 20.8461 11.2109 20.8331L6.26664 20.0089C6.21162 20.0025 6.15847 19.9849 6.11041 19.9574C6.06235 19.9298 6.02038 19.8928 5.98702 19.8485C5.95366 19.8043 5.9296 19.7538 5.91631 19.7C5.90301 19.6462 5.90075 19.5903 5.90966 19.5356C5.91857 19.4809 5.93847 19.4286 5.96815 19.3818C5.99783 19.3351 6.03668 19.2948 6.08236 19.2634C6.12804 19.2321 6.17959 19.2103 6.23392 19.1994C6.28824 19.1885 6.34421 19.1888 6.39844 19.2001L11.3427 20.0242C11.3961 20.0327 11.4473 20.0518 11.4933 20.0802C11.5393 20.1087 11.5792 20.146 11.6107 20.1899ZM9.48828 18.8829L8.12109 18.6554V17.3221L9.48828 17.5496V18.8829ZM11.6107 16.3618C11.6578 16.4277 11.6842 16.5061 11.6868 16.587C11.6894 16.668 11.668 16.7479 11.6252 16.8167C11.5825 16.8854 11.5203 16.94 11.4466 16.9735C11.3729 17.007 11.2909 17.018 11.2109 17.0049L6.26664 16.1808C6.21162 16.1743 6.15847 16.1568 6.11041 16.1292C6.06235 16.1017 6.02038 16.0647 5.98702 16.0204C5.95366 15.9762 5.9296 15.9257 5.91631 15.8719C5.90301 15.8181 5.90075 15.7622 5.90966 15.7075C5.91857 15.6528 5.93847 15.6005 5.96815 15.5537C5.99783 15.5069 6.03668 15.4666 6.08236 15.4353C6.12804 15.4039 6.17959 15.3822 6.23392 15.3713C6.28824 15.3604 6.34421 15.3606 6.39844 15.372L11.3427 16.1961C11.3961 16.2046 11.4473 16.2236 11.4933 16.2521C11.5393 16.2805 11.5792 16.3178 11.6107 16.3618ZM9.48828 15.0548L8.12109 14.8273V13.3994H9.48828V15.0548ZM12.3594 12.5791H5.25C5.14122 12.5791 5.0369 12.5359 4.95998 12.459C4.88306 12.382 4.83984 12.2777 4.83984 12.1689C4.83984 12.0601 4.88306 11.9558 4.95998 11.8789C5.0369 11.802 5.14122 11.7588 5.25 11.7588H12.3594C12.4682 11.7588 12.5725 11.802 12.6494 11.8789C12.7263 11.9558 12.7695 12.0601 12.7695 12.1689C12.7695 12.2777 12.7263 12.382 12.6494 12.459C12.5725 12.5359 12.4682 12.5791 12.3594 12.5791Z" fill="#FD4D00"/>
<path d="M19.1953 4.64844C19.4928 4.64844 19.7835 4.56024 20.0308 4.39498C20.2782 4.22973 20.4709 3.99485 20.5847 3.72005C20.6986 3.44525 20.7283 3.14286 20.6703 2.85113C20.6123 2.55941 20.4691 2.29143 20.2587 2.08111C20.0484 1.87078 19.7804 1.72755 19.4887 1.66952C19.197 1.61149 18.8946 1.64128 18.6198 1.7551C18.345 1.86893 18.1101 2.06169 17.9449 2.30901C17.7796 2.55632 17.6914 2.84709 17.6914 3.14453C17.692 3.54322 17.8506 3.9254 18.1325 4.20731C18.4144 4.48923 18.7966 4.64786 19.1953 4.64844ZM19.1953 2.46094C19.3305 2.46094 19.4627 2.50103 19.5751 2.57614C19.6875 2.65126 19.7751 2.75802 19.8269 2.88293C19.8786 3.00784 19.8921 3.14529 19.8658 3.27789C19.8394 3.4105 19.7743 3.5323 19.6787 3.62791C19.5831 3.72351 19.4613 3.78861 19.3287 3.81499C19.1961 3.84137 19.0586 3.82783 18.9337 3.77609C18.8088 3.72435 18.702 3.63673 18.6269 3.52432C18.5518 3.4119 18.5117 3.27973 18.5117 3.14453C18.512 2.96332 18.5841 2.78961 18.7123 2.66148C18.8404 2.53334 19.0141 2.46123 19.1953 2.46094Z" fill="#FD4D00"/>
<path d="M19.1953 24.1719C18.9519 24.1719 18.7141 24.244 18.5117 24.3792C18.3094 24.5145 18.1516 24.7066 18.0585 24.9315C17.9654 25.1563 17.941 25.4037 17.9885 25.6424C18.036 25.8811 18.1532 26.1003 18.3252 26.2724C18.4973 26.4445 18.7166 26.5617 18.9553 26.6092C19.1939 26.6566 19.4414 26.6323 19.6662 26.5391C19.891 26.446 20.0832 26.2883 20.2184 26.086C20.3536 25.8836 20.4258 25.6457 20.4258 25.4023C20.4255 25.0761 20.2958 24.7633 20.0651 24.5326C19.8344 24.3019 19.5216 24.1722 19.1953 24.1719ZM19.1953 25.8125C19.1142 25.8125 19.0349 25.7884 18.9674 25.7434C18.9 25.6983 18.8474 25.6342 18.8164 25.5593C18.7853 25.4844 18.7772 25.4019 18.793 25.3223C18.8089 25.2428 18.8479 25.1697 18.9053 25.1123C18.9626 25.055 19.0357 25.0159 19.1153 25.0001C19.1949 24.9842 19.2773 24.9924 19.3523 25.0234C19.4272 25.0545 19.4913 25.107 19.5363 25.1745C19.5814 25.2419 19.6055 25.3212 19.6055 25.4023C19.6055 25.5111 19.5623 25.6154 19.4853 25.6924C19.4084 25.7693 19.3041 25.8125 19.1953 25.8125Z" fill="#FD4D00"/>
<path d="M22.75 13.3994C23.0763 13.3994 23.3893 13.2698 23.6201 13.039C23.8508 12.8082 23.9805 12.4953 23.9805 12.1689C23.9805 11.8426 23.8508 11.5296 23.6201 11.2989C23.3893 11.0681 23.0763 10.9385 22.75 10.9385H22.3398V8.88768C22.3394 8.58515 22.2276 8.29337 22.0259 8.06789C21.8243 7.8424 21.5467 7.69896 21.2461 7.66487V5.5244C21.7328 5.10569 22.0797 4.54805 22.2401 3.9264C22.4005 3.30475 22.3668 2.64889 22.1435 2.04695C21.9202 1.44502 21.518 0.925858 20.991 0.559234C20.464 0.19261 19.8373 -0.00390625 19.1953 -0.00390625C18.5533 -0.00390625 17.9267 0.19261 17.3996 0.559234C16.8726 0.925858 16.4704 1.44502 16.2471 2.04695C16.0238 2.64889 15.9901 3.30475 16.1505 3.9264C16.311 4.54805 16.6578 5.10569 17.1445 5.5244V7.66323C16.8439 7.69732 16.5664 7.84076 16.3647 8.06625C16.163 8.29173 16.0513 8.58351 16.0508 8.88604V10.9385H15.6406C15.3143 10.9385 15.0013 11.0681 14.7706 11.2989C14.5398 11.5296 14.4102 11.8426 14.4102 12.1689C14.4102 12.4953 14.5398 12.8082 14.7706 13.039C15.0013 13.2698 15.3143 13.3994 15.6406 13.3994H17.6914V15.1915L16.5211 15.3867C16.1992 15.4404 15.9118 15.6198 15.7221 15.8853C15.5324 16.1509 15.456 16.481 15.5096 16.8029C15.5633 17.1248 15.7427 17.4122 16.0082 17.6019C16.2738 17.7916 16.6039 17.868 16.9258 17.8143L17.6914 17.6864V19.0196L16.5211 19.2149C16.1992 19.2685 15.9118 19.4479 15.7221 19.7135C15.5324 19.979 15.456 20.3091 15.5096 20.631C15.5633 20.9529 15.7427 21.2403 16.0082 21.43C16.2738 21.6197 16.6039 21.6961 16.9258 21.6424L17.6914 21.5145V23.2874C17.2422 23.6064 16.906 24.06 16.7314 24.5826C16.5569 25.1052 16.5531 25.6698 16.7205 26.1947C16.8879 26.7197 17.2179 27.1778 17.6627 27.5029C18.1076 27.8279 18.6443 28.0031 19.1953 28.0031C19.7463 28.0031 20.283 27.8279 20.7279 27.5029C21.1728 27.1778 21.5027 26.7197 21.6702 26.1947C21.8376 25.6698 21.8337 25.1052 21.6592 24.5826C21.4847 24.06 21.1485 23.6064 20.6992 23.2874V21.0135L21.8695 20.8183C22.0289 20.7917 22.1815 20.734 22.3186 20.6485C22.4557 20.5629 22.5746 20.4512 22.6685 20.3197C22.7625 20.1882 22.8296 20.0395 22.866 19.8821C22.9025 19.7246 22.9075 19.5616 22.881 19.4022C22.8544 19.2428 22.7967 19.0902 22.7111 18.9531C22.6256 18.816 22.5139 18.6971 22.3824 18.6032C22.2509 18.5092 22.1022 18.4421 21.9447 18.4057C21.7873 18.3692 21.6242 18.3642 21.4648 18.3907L20.6992 18.5187V17.1854L21.8695 16.9902C22.0289 16.9636 22.1815 16.9059 22.3186 16.8204C22.4557 16.7348 22.5746 16.6231 22.6685 16.4916C22.7625 16.3601 22.8296 16.2114 22.866 16.0539C22.9025 15.8965 22.9075 15.7334 22.881 15.574C22.8544 15.4146 22.7967 15.262 22.7111 15.125C22.6256 14.9879 22.5139 14.869 22.3824 14.775C22.2509 14.6811 22.1022 14.614 21.9447 14.5776C21.7873 14.5411 21.6242 14.536 21.4648 14.5626L20.6992 14.6906V13.3994H22.75ZM16.8711 3.14549C16.8711 2.6858 17.0074 2.23644 17.2628 1.85422C17.5182 1.47201 17.8812 1.17411 18.3059 0.998194C18.7306 0.822279 19.1979 0.776252 19.6487 0.865932C20.0996 0.955613 20.5137 1.17697 20.8388 1.50202C21.1638 1.82707 21.3852 2.2412 21.4749 2.69206C21.5646 3.14291 21.5185 3.61024 21.3426 4.03493C21.1667 4.45963 20.8688 4.82262 20.4866 5.07801C20.1044 5.3334 19.655 5.46971 19.1953 5.46971C18.5791 5.46899 17.9884 5.22388 17.5526 4.78816C17.1169 4.35244 16.8718 3.76169 16.8711 3.14549ZM19.1953 6.29002C19.6182 6.2904 20.0368 6.20501 20.4258 6.03901V7.65721H17.9648V6.03901C18.3538 6.20501 18.7724 6.2904 19.1953 6.29002ZM16.8711 8.88768C16.8711 8.7789 16.9143 8.67457 16.9912 8.59766C17.0681 8.52074 17.1725 8.47752 17.2812 8.47752H21.1094C21.2182 8.47752 21.3225 8.52074 21.3994 8.59766C21.4763 8.67457 21.5195 8.7789 21.5195 8.88768V10.9385H16.8711V8.88768ZM15.2305 12.1689C15.2305 12.0601 15.2737 11.9558 15.3506 11.8789C15.4275 11.802 15.5318 11.7588 15.6406 11.7588H22.75C22.8588 11.7588 22.9631 11.802 23.04 11.8789C23.1169 11.9558 23.1602 12.0601 23.1602 12.1689C23.1602 12.2777 23.1169 12.382 23.04 12.459C22.9631 12.5359 22.8588 12.5791 22.75 12.5791H15.6406C15.5318 12.5791 15.4275 12.5359 15.3506 12.459C15.2737 12.382 15.2305 12.2777 15.2305 12.1689ZM19.1953 27.1806C18.8438 27.1806 18.5002 27.0764 18.2079 26.8811C17.9156 26.6858 17.6878 26.4082 17.5533 26.0835C17.4187 25.7587 17.3835 25.4013 17.4521 25.0566C17.5207 24.7118 17.69 24.3951 17.9385 24.1465C18.1871 23.898 18.5038 23.7287 18.8486 23.6601C19.1933 23.5915 19.5507 23.6267 19.8755 23.7613C20.2002 23.8958 20.4778 24.1236 20.6731 24.4159C20.8684 24.7081 20.9727 25.0518 20.9727 25.4033C20.9721 25.8745 20.7846 26.3262 20.4514 26.6594C20.1183 26.9926 19.6665 27.1801 19.1953 27.1806ZM19.8789 22.8975C19.4314 22.775 18.9592 22.775 18.5117 22.8975V21.3778L19.8789 21.1503V22.8975ZM21.6016 19.2001C21.6553 19.1897 21.7106 19.1901 21.7642 19.2014C21.8178 19.2127 21.8686 19.2346 21.9136 19.2658C21.9586 19.297 21.9969 19.337 22.0262 19.3832C22.0555 19.4295 22.0753 19.4812 22.0843 19.5352C22.0933 19.5892 22.0914 19.6445 22.0787 19.6978C22.066 19.751 22.0428 19.8012 22.0104 19.8454C21.978 19.8895 21.9371 19.9268 21.8901 19.9549C21.843 19.9829 21.7909 20.0013 21.7366 20.0089L16.7891 20.8331C16.7353 20.8435 16.68 20.8431 16.6264 20.8318C16.5728 20.8205 16.522 20.7986 16.477 20.7674C16.432 20.7361 16.3937 20.6962 16.3644 20.6499C16.3351 20.6037 16.3154 20.552 16.3064 20.498C16.2973 20.444 16.2992 20.3887 16.3119 20.3354C16.3246 20.2821 16.3478 20.2319 16.3802 20.1878C16.4126 20.1436 16.4535 20.1064 16.5006 20.0783C16.5476 20.0502 16.5997 20.0318 16.654 20.0242L21.6016 19.2001ZM19.8805 18.6532L18.5134 18.8807V17.5496L19.8805 17.3221V18.6532ZM21.6016 15.372C21.6553 15.3615 21.7106 15.362 21.7642 15.3733C21.8178 15.3845 21.8686 15.4065 21.9136 15.4377C21.9586 15.4689 21.9969 15.5088 22.0262 15.5551C22.0555 15.6014 22.0753 15.653 22.0843 15.7071C22.0933 15.7611 22.0914 15.8164 22.0787 15.8696C22.066 15.9229 22.0428 15.9731 22.0104 16.0173C21.978 16.0614 21.9371 16.0986 21.8901 16.1267C21.843 16.1548 21.7909 16.1732 21.7366 16.1808L16.7891 17.0049C16.7353 17.0154 16.68 17.0149 16.6264 17.0037C16.5728 16.9924 16.522 16.9705 16.477 16.9392C16.432 16.908 16.3937 16.8681 16.3644 16.8218C16.3351 16.7756 16.3154 16.7239 16.3064 16.6699C16.2973 16.6158 16.2992 16.5606 16.3119 16.5073C16.3246 16.454 16.3478 16.4038 16.3802 16.3597C16.4126 16.3155 16.4535 16.2783 16.5006 16.2502C16.5476 16.2221 16.5997 16.2037 16.654 16.1961L21.6016 15.372ZM19.8805 14.8251L18.5134 15.0526V13.3994H19.8805V14.8251Z" fill="#FD4D00"/>
</g>
<defs>
<clipPath id="clip0_2916_102841">
<rect width="28" height="28" fill="white"/>
</clipPath>
</defs>
</svg>
