<svg width="28" height="28" viewBox="0 0 28 28" fill="none" xmlns="http://www.w3.org/2000/svg">
<g clip-path="url(#clip0_2916_102997)">
<path d="M23.7743 28C23.0294 28.0027 22.2941 27.8312 21.6273 27.499C20.9606 27.1669 20.3807 26.6834 19.9341 26.0872C19.7712 25.8669 19.559 25.6877 19.3145 25.5641C19.07 25.4404 18.7999 25.3757 18.5259 25.375H9.47405C9.20005 25.3757 8.93001 25.4405 8.6855 25.5641C8.44098 25.6878 8.22878 25.8669 8.06585 26.0872C7.61929 26.6834 7.03946 27.1669 6.37269 27.499C5.70592 27.8312 4.97071 28.0027 4.2258 28C3.38148 27.9982 2.5524 27.775 1.82122 27.3528C1.09005 26.9306 0.482311 26.3241 0.0586139 25.5938C0.0202157 25.5273 4.87756e-07 25.4518 0 25.375C-4.87739e-07 25.2982 0.0202138 25.2228 0.0586111 25.1563C0.0970084 25.0898 0.152236 25.0345 0.218743 24.9961C0.28525 24.9577 0.360693 24.9375 0.437489 24.9375H2.4758C2.71103 24.9375 2.94384 24.8901 3.16032 24.7981C3.3768 24.7061 3.57251 24.5714 3.73576 24.402C3.899 24.2327 4.02643 24.0321 4.11042 23.8124C4.19441 23.5927 4.23324 23.3583 4.2246 23.1232C4.19179 22.1935 3.3835 21.4375 2.4233 21.4375H0.437489C0.360711 21.4375 0.285296 21.4172 0.218819 21.3788C0.152343 21.3404 0.0971466 21.2852 0.0587751 21.2187C0.0204037 21.1522 0.000208627 21.0768 0.000218719 21C0.000228812 20.9232 0.0204437 20.8478 0.0588326 20.7813C0.482522 20.051 1.09025 19.4445 1.82143 19.0223C2.55262 18.6001 3.3817 18.3769 4.22602 18.375C4.97094 18.3723 5.70617 18.5439 6.37296 18.876C7.03974 19.2082 7.6196 19.6917 8.06618 20.2879C8.22907 20.5082 8.44121 20.6873 8.68567 20.8109C8.93012 20.9346 9.20011 20.9993 9.47405 21H18.5259C18.7999 20.9994 19.07 20.9346 19.3145 20.811C19.559 20.6873 19.7712 20.5082 19.9341 20.2879C20.3807 19.6916 20.9605 19.2081 21.6273 18.876C22.2941 18.5439 23.0294 18.3723 23.7743 18.375C24.6186 18.3769 25.4477 18.6 26.1789 19.0222C26.9101 19.4444 27.5178 20.0509 27.9415 20.7813C27.9799 20.8478 28.0001 20.9233 28.0001 21.0001C28.0001 21.0769 27.9799 21.1523 27.9414 21.2188C27.903 21.2853 27.8478 21.3406 27.7813 21.379C27.7148 21.4173 27.6393 21.4375 27.5625 21.4375H25.5243C25.2891 21.4375 25.0563 21.485 24.8398 21.577C24.6234 21.669 24.4277 21.8036 24.2644 21.973C24.1012 22.1423 23.9737 22.3428 23.8897 22.5625C23.8057 22.7822 23.7669 23.0166 23.7755 23.2516C23.8083 24.1813 24.6165 24.9375 25.5767 24.9375H27.5625C27.6393 24.9376 27.7147 24.9578 27.7812 24.9962C27.8476 25.0346 27.9028 25.0899 27.9412 25.1564C27.9796 25.2229 27.9998 25.2983 27.9998 25.3751C27.9997 25.4519 27.9795 25.5273 27.9411 25.5938C27.5175 26.3241 26.9098 26.9305 26.1787 27.3527C25.4476 27.7749 24.6186 27.9981 23.7743 28ZM9.47405 24.5H18.5259C18.9348 24.5028 19.3376 24.5999 19.7029 24.7836C20.0682 24.9674 20.3862 25.2329 20.6322 25.5595C20.9975 26.0475 21.472 26.4431 22.0175 26.715C22.5631 26.9868 23.1647 27.1272 23.7743 27.125C24.3278 27.1238 24.8748 27.0064 25.38 26.7803C25.8852 26.5542 26.3372 26.2245 26.7068 25.8125H25.5767C24.1509 25.8125 22.9506 24.6777 22.9009 23.2828C22.8881 22.9303 22.9465 22.5788 23.0726 22.2494C23.1986 21.9199 23.3898 21.6192 23.6347 21.3653C23.8796 21.1114 24.1731 20.9095 24.4977 20.7715C24.8224 20.6336 25.1715 20.5625 25.5243 20.5625H26.7068C26.3372 20.1506 25.8852 19.8209 25.38 19.5948C24.8748 19.3687 24.3278 19.2512 23.7743 19.25C23.1647 19.2478 22.5631 19.3883 22.0175 19.6601C21.472 19.9319 20.9975 20.3276 20.6322 20.8155C20.3862 21.1421 20.0682 21.4077 19.7029 21.5914C19.3376 21.7752 18.9348 21.8722 18.5259 21.875H9.47405C9.06516 21.8722 8.66242 21.7751 8.29714 21.5914C7.93185 21.4076 7.61384 21.1421 7.36782 20.8155C7.00248 20.3276 6.52806 19.9319 5.9825 19.6601C5.43693 19.3883 4.83533 19.2478 4.2258 19.25C3.67231 19.2512 3.12524 19.3686 2.62004 19.5947C2.11484 19.8208 1.66277 20.1506 1.29313 20.5625H2.4233C3.84911 20.5625 5.0494 21.6973 5.09905 23.0922C5.11187 23.4447 5.0535 23.7962 4.92745 24.1256C4.80139 24.4551 4.61022 24.7557 4.36537 25.0096C4.12051 25.2636 3.82699 25.4655 3.50233 25.6035C3.17768 25.7414 2.82855 25.8125 2.4758 25.8125H1.29313C1.66277 26.2245 2.11484 26.5542 2.62004 26.7803C3.12525 27.0064 3.67231 27.1239 4.2258 27.125C4.83533 27.1272 5.43691 26.9868 5.98248 26.7149C6.52804 26.4431 7.00246 26.0474 7.36782 25.5595C7.61382 25.2329 7.93183 24.9674 8.29712 24.7837C8.66241 24.5999 9.06515 24.5028 9.47405 24.5Z" fill="#FD4D00"/>
<path d="M23.8526 17.9378C23.7759 17.9377 23.7005 17.9174 23.6341 17.8789C23.5676 17.8405 23.5125 17.7853 23.4741 17.7188C23.4358 17.6523 23.4156 17.5769 23.4157 17.5001C23.4157 17.4234 23.4359 17.348 23.4743 17.2815C24.4333 15.6187 24.9379 13.7328 24.9373 11.8133C24.9367 9.89377 24.4309 8.0082 23.4708 6.34604C22.5106 4.68388 21.13 3.30367 19.4675 2.34408C17.805 1.3845 15.9193 0.879324 13.9998 0.879324C12.0802 0.879324 10.1945 1.3845 8.53205 2.34408C6.86958 3.30367 5.48893 4.68388 4.5288 6.34604C3.56868 8.0082 3.0629 9.89377 3.06228 11.8133C3.06166 13.7328 3.56623 15.6187 4.52528 17.2815C4.57918 17.3817 4.59196 17.4989 4.56089 17.6083C4.52983 17.7177 4.45737 17.8108 4.35887 17.8677C4.26038 17.9246 4.1436 17.9409 4.03329 17.9131C3.92298 17.8854 3.82781 17.8157 3.76797 17.719C2.73202 15.9232 2.18695 13.8864 2.1875 11.8132C2.18806 9.74008 2.73422 7.70356 3.77113 5.90833C4.80803 4.1131 6.29915 2.62238 8.09466 1.58595C9.89017 0.54953 11.9268 0.00390625 14 0.00390625C16.0732 0.00390625 18.1098 0.54953 19.9053 1.58595C21.7008 2.62238 23.192 4.1131 24.2289 5.90833C25.2658 7.70356 25.8119 9.74008 25.8125 11.8132C25.8131 13.8864 25.268 15.9232 24.232 17.719C24.1936 17.7856 24.1383 17.8409 24.0717 17.8793C24.0051 17.9177 23.9295 17.9378 23.8526 17.9378Z" fill="#FD4D00"/>
<path d="M14 18.8125C12.6155 18.8125 11.2622 18.402 10.111 17.6328C8.95987 16.8636 8.06266 15.7704 7.53285 14.4913C7.00303 13.2122 6.86441 11.8047 7.13451 10.4469C7.4046 9.089 8.07129 7.84172 9.05026 6.86276C10.0292 5.88379 11.2765 5.2171 12.6344 4.94701C13.9922 4.67691 15.3997 4.81553 16.6788 5.34535C17.9579 5.87516 19.0511 6.77237 19.8203 7.92351C20.5895 9.07466 21 10.428 21 11.8125C20.9979 13.6684 20.2598 15.4476 18.9474 16.7599C17.6351 18.0723 15.8559 18.8104 14 18.8125ZM14 5.6875C12.7886 5.6875 11.6044 6.04673 10.5971 6.71975C9.58988 7.39278 8.80483 8.34937 8.34124 9.46857C7.87765 10.5878 7.75636 11.8193 7.99269 13.0074C8.22903 14.1956 8.81238 15.2869 9.66897 16.1435C10.5256 17.0001 11.6169 17.5835 12.8051 17.8198C13.9932 18.0561 15.2247 17.9349 16.3439 17.4713C17.4631 17.0077 18.4197 16.2226 19.0928 15.2154C19.7658 14.2081 20.125 13.0239 20.125 11.8125C20.1232 10.1886 19.4773 8.63175 18.329 7.48349C17.1808 6.33522 15.6239 5.68933 14 5.6875Z" fill="#FD4D00"/>
<path d="M14 2.1875C13.884 2.1875 13.7727 2.14141 13.6906 2.05936C13.6086 1.97731 13.5625 1.86603 13.5625 1.75V0.4375C13.5625 0.321468 13.6086 0.210188 13.6906 0.128141C13.7727 0.0460936 13.884 0 14 0C14.116 0 14.2273 0.0460936 14.3094 0.128141C14.3914 0.210188 14.4375 0.321468 14.4375 0.4375V1.75C14.4375 1.86603 14.3914 1.97731 14.3094 2.05936C14.2273 2.14141 14.116 2.1875 14 2.1875Z" fill="#FD4D00"/>
<path d="M24.0625 12.25C23.9465 12.25 23.8352 12.2039 23.7531 12.1219C23.6711 12.0398 23.625 11.9285 23.625 11.8125C23.625 11.6965 23.6711 11.5852 23.7531 11.5031C23.8352 11.4211 23.9465 11.375 24.0625 11.375H25.375C25.491 11.375 25.6023 11.4211 25.6844 11.5031C25.7664 11.5852 25.8125 11.6965 25.8125 11.8125C25.8125 11.9285 25.7664 12.0398 25.6844 12.1219C25.6023 12.2039 25.491 12.25 25.375 12.25H24.0625Z" fill="#FD4D00"/>
<path d="M2.625 12.25C2.50897 12.25 2.39769 12.2039 2.31564 12.1219C2.23359 12.0398 2.1875 11.9285 2.1875 11.8125C2.1875 11.6965 2.23359 11.5852 2.31564 11.5031C2.39769 11.4211 2.50897 11.375 2.625 11.375H3.9375C4.05353 11.375 4.16481 11.4211 4.24686 11.5031C4.32891 11.5852 4.375 11.6965 4.375 11.8125C4.375 11.9285 4.32891 12.0398 4.24686 12.1219C4.16481 12.2039 4.05353 12.25 3.9375 12.25H2.625Z" fill="#FD4D00"/>
<path d="M6.8852 5.13498C6.82774 5.13507 6.77084 5.1238 6.71776 5.10182C6.66467 5.07984 6.61646 5.04758 6.57589 5.0069L5.64773 4.07896C5.6071 4.03834 5.57486 3.99012 5.55286 3.93704C5.53087 3.88396 5.51954 3.82707 5.51953 3.76962C5.51952 3.71217 5.53083 3.65527 5.55281 3.60219C5.57478 3.5491 5.607 3.50086 5.64762 3.46023C5.68824 3.4196 5.73647 3.38736 5.78954 3.36536C5.84262 3.34337 5.89951 3.33204 5.95697 3.33203C6.01442 3.33202 6.07131 3.34333 6.1244 3.36531C6.17748 3.38728 6.22572 3.4195 6.26636 3.46012L7.19451 4.38806C7.25572 4.44924 7.2974 4.52719 7.3143 4.61207C7.33119 4.69694 7.32254 4.78492 7.28943 4.86487C7.25632 4.94482 7.20024 5.01316 7.12829 5.06124C7.05633 5.10932 6.97174 5.13498 6.8852 5.13498Z" fill="#FD4D00"/>
<path d="M21.1171 5.13474C21.0306 5.13472 20.946 5.10906 20.8741 5.06098C20.8022 5.01291 20.7461 4.94459 20.713 4.86466C20.6799 4.78472 20.6712 4.69677 20.6881 4.61192C20.705 4.52706 20.7466 4.44912 20.8078 4.38793L21.7358 3.45977C21.7763 3.4184 21.8245 3.38546 21.8778 3.36286C21.9311 3.34027 21.9883 3.32846 22.0462 3.32813C22.104 3.3278 22.1614 3.33896 22.2149 3.36095C22.2684 3.38294 22.3171 3.41533 22.358 3.45624C22.3989 3.49715 22.4313 3.54578 22.4533 3.5993C22.4753 3.65282 22.4865 3.71017 22.4862 3.76803C22.4858 3.8259 22.474 3.88313 22.4515 3.9364C22.4289 3.98967 22.3959 4.03794 22.3546 4.0784L21.4265 5.00656C21.3859 5.04727 21.3377 5.07956 21.2846 5.10156C21.2315 5.12356 21.1746 5.13484 21.1171 5.13474Z" fill="#FD4D00"/>
<path d="M10.1492 2.95286C10.0625 2.95295 9.97783 2.92732 9.90579 2.87923C9.83375 2.83114 9.7776 2.76274 9.74447 2.6827L9.242 1.4705C9.19944 1.36367 9.20066 1.24438 9.24538 1.13844C9.2901 1.03251 9.37473 0.948432 9.48097 0.904415C9.5872 0.860398 9.7065 0.859975 9.81304 0.903239C9.91958 0.946502 10.0048 1.02997 10.0503 1.13559L10.5526 2.34823C10.5801 2.41463 10.5908 2.48677 10.5837 2.55827C10.5767 2.62978 10.5521 2.69844 10.5122 2.75821C10.4723 2.81797 10.4184 2.86699 10.355 2.90094C10.2917 2.93489 10.221 2.95272 10.1492 2.95286Z" fill="#FD4D00"/>
<path d="M23.2982 8.39739C23.1968 8.3977 23.0984 8.36275 23.0199 8.29851C22.9413 8.23428 22.8876 8.14476 22.8678 8.04527C22.848 7.94577 22.8634 7.84249 22.9113 7.7531C22.9593 7.6637 23.0368 7.59375 23.1306 7.55521L24.3432 7.05285C24.3963 7.03086 24.4531 7.01953 24.5106 7.01953C24.5681 7.01953 24.625 7.03084 24.678 7.05282C24.7311 7.07481 24.7793 7.10703 24.82 7.14766C24.8606 7.18828 24.8928 7.23651 24.9148 7.28959C24.9368 7.34267 24.9481 7.39956 24.9481 7.45701C24.9481 7.51447 24.9368 7.57136 24.9148 7.62444C24.8929 7.67753 24.8606 7.72576 24.82 7.76639C24.7794 7.80702 24.7312 7.83925 24.6781 7.86124L23.4654 8.36349C23.4125 8.38568 23.3556 8.3972 23.2982 8.39739Z" fill="#FD4D00"/>
<path d="M3.48961 16.6034C3.38817 16.6037 3.28977 16.5687 3.21126 16.5045C3.13274 16.4403 3.07899 16.3508 3.05919 16.2513C3.0394 16.1518 3.05479 16.0485 3.10274 15.9591C3.15069 15.8697 3.22822 15.7997 3.32205 15.7612L4.53469 15.2588C4.58796 15.2357 4.64531 15.2234 4.70337 15.2227C4.76144 15.222 4.81908 15.2328 4.87292 15.2546C4.92675 15.2763 4.97572 15.3086 5.01696 15.3495C5.05819 15.3904 5.09088 15.4391 5.1131 15.4927C5.13532 15.5464 5.14664 15.6039 5.1464 15.662C5.14615 15.7201 5.13435 15.7775 5.11167 15.831C5.089 15.8844 5.05591 15.9329 5.01433 15.9734C4.97274 16.0139 4.92351 16.0458 4.86949 16.0671L3.65696 16.5695C3.60394 16.5917 3.54708 16.6032 3.48961 16.6034Z" fill="#FD4D00"/>
<path d="M24.5071 16.6025C24.4497 16.6025 24.3928 16.5912 24.3398 16.5691L23.1272 16.0666C23.0733 16.0451 23.0243 16.0132 22.9829 15.9726C22.9415 15.9321 22.9085 15.8837 22.886 15.8303C22.8635 15.7769 22.8518 15.7196 22.8516 15.6616C22.8514 15.6037 22.8627 15.5462 22.8849 15.4927C22.9071 15.4391 22.9397 15.3905 22.9808 15.3497C23.0219 15.3089 23.0708 15.2766 23.1245 15.2548C23.1782 15.233 23.2357 15.2221 23.2936 15.2227C23.3516 15.2233 23.4088 15.2354 23.4621 15.2583L24.6747 15.7606C24.7685 15.7991 24.8461 15.8691 24.894 15.9585C24.942 16.0479 24.9574 16.1511 24.9376 16.2506C24.9178 16.3501 24.864 16.4396 24.7855 16.5039C24.707 16.5681 24.6086 16.6031 24.5071 16.6028V16.6025Z" fill="#FD4D00"/>
<path d="M4.70445 8.39961C4.64705 8.39959 4.59021 8.38822 4.53722 8.36614L3.32491 7.86443C3.27074 7.84323 3.22134 7.81144 3.17961 7.77092C3.13787 7.73039 3.10464 7.68195 3.08185 7.62843C3.05906 7.57491 3.04717 7.51739 3.04688 7.45922C3.04659 7.40105 3.0579 7.3434 3.08016 7.28966C3.10241 7.23591 3.13516 7.18714 3.17649 7.14621C3.21782 7.10527 3.26689 7.07298 3.32085 7.05124C3.3748 7.0295 3.43255 7.01873 3.49072 7.01958C3.54888 7.02042 3.60629 7.03286 3.65959 7.05615L4.87224 7.55818C4.9656 7.59704 5.04263 7.66704 5.09021 7.75628C5.13778 7.84552 5.15298 7.94848 5.1332 8.04766C5.11343 8.14684 5.0599 8.2361 4.98173 8.30027C4.90357 8.36443 4.80558 8.39953 4.70445 8.39961Z" fill="#FD4D00"/>
<path d="M17.8514 2.95162C17.7795 2.95159 17.7087 2.93383 17.6452 2.8999C17.5818 2.86597 17.5277 2.81692 17.4877 2.7571C17.4478 2.69728 17.4232 2.62853 17.4162 2.55694C17.4091 2.48535 17.4198 2.41312 17.4474 2.34666L17.9492 1.13446C17.9707 1.0807 18.0026 1.03173 18.0432 0.990411C18.0838 0.949088 18.1321 0.916228 18.1855 0.893735C18.2388 0.871242 18.2961 0.859564 18.354 0.859377C18.4119 0.859191 18.4693 0.8705 18.5228 0.89265C18.5763 0.914799 18.6249 0.947347 18.6657 0.988408C18.7065 1.02947 18.7388 1.07823 18.7606 1.13185C18.7825 1.18548 18.7934 1.2429 18.7929 1.3008C18.7924 1.3587 18.7804 1.41592 18.7576 1.46915L18.2554 2.68179C18.2223 2.76166 18.1662 2.82992 18.0943 2.87794C18.0224 2.92597 17.9379 2.9516 17.8514 2.95162Z" fill="#FD4D00"/>
<path d="M16.4946 18.3204C16.4178 18.3205 16.3423 18.3003 16.2758 18.2619C16.2092 18.2235 16.1539 18.1682 16.1155 18.1017L14.5687 15.422C14.5111 15.3222 14.4283 15.2394 14.3285 15.1818C14.2288 15.1242 14.1156 15.0939 14.0004 15.0939C13.8852 15.0939 13.7721 15.1242 13.6723 15.1818C13.5726 15.2394 13.4897 15.3222 13.4321 15.422L11.885 18.1017C11.832 18.1935 11.7476 18.2629 11.6473 18.2971C11.547 18.3313 11.4377 18.3279 11.3397 18.2876C10.7615 18.0496 10.2179 17.735 9.72344 17.3525C9.63971 17.2877 9.58229 17.1948 9.56184 17.0909C9.54139 16.9871 9.55928 16.8793 9.6122 16.7876L11.1584 14.1095C11.2161 14.0097 11.2464 13.8965 11.2464 13.7813C11.2463 13.666 11.216 13.5528 11.1583 13.4531C11.1007 13.3533 11.0178 13.2704 10.918 13.2129C10.8181 13.1553 10.7049 13.125 10.5897 13.1251H7.49733C7.3913 13.1251 7.28888 13.0866 7.20911 13.0168C7.12934 12.9469 7.07765 12.8505 7.06366 12.7454C6.97878 12.1264 6.97878 11.4988 7.06366 10.8799C7.07765 10.7748 7.12934 10.6783 7.20911 10.6085C7.28888 10.5386 7.3913 10.5001 7.49733 10.5001H10.59C10.7052 10.5002 10.8185 10.4699 10.9183 10.4123C11.0181 10.3548 11.101 10.2719 11.1587 10.1722C11.2163 10.0724 11.2467 9.9592 11.2467 9.84397C11.2467 9.72873 11.2164 9.61553 11.1588 9.51574L9.61209 6.83747C9.55915 6.74578 9.54126 6.63799 9.56173 6.53411C9.58221 6.43023 9.63966 6.3373 9.72344 6.27255C10.2178 5.89017 10.7612 5.57573 11.3391 5.33761C11.4371 5.29727 11.5465 5.29389 11.6468 5.32809C11.7471 5.36229 11.8316 5.43174 11.8846 5.52355L13.4313 8.20324C13.4888 8.3032 13.5717 8.38622 13.6715 8.44396C13.7714 8.50169 13.8847 8.53209 14 8.53209C14.1153 8.53209 14.2286 8.50169 14.3285 8.44396C14.4283 8.38622 14.5112 8.3032 14.5687 8.20324L16.116 5.52355C16.1689 5.43177 16.2534 5.36233 16.3537 5.32813C16.454 5.29393 16.5633 5.2973 16.6613 5.33761C17.239 5.57578 17.7823 5.89022 18.2766 6.27255C18.3603 6.33731 18.4178 6.43025 18.4382 6.53413C18.4587 6.63801 18.4408 6.74579 18.3878 6.83747L16.8416 9.51574C16.7839 9.61553 16.7536 9.72873 16.7536 9.84397C16.7537 9.9592 16.784 10.0724 16.8417 10.1722C16.8993 10.2719 16.9822 10.3548 17.082 10.4123C17.1819 10.4699 17.2951 10.5002 17.4103 10.5001H20.503C20.609 10.5001 20.7114 10.5386 20.7912 10.6084C20.871 10.6783 20.9227 10.7747 20.9367 10.8798C21.0215 11.4988 21.0215 12.1265 20.9367 12.7455C20.9226 12.8506 20.8709 12.9471 20.7911 13.0169C20.7112 13.0867 20.6087 13.1252 20.5027 13.1251H17.41C17.2948 13.125 17.1815 13.1553 17.0817 13.2129C16.9819 13.2704 16.899 13.3533 16.8413 13.4531C16.7837 13.5528 16.7533 13.666 16.7533 13.7813C16.7533 13.8965 16.7836 14.0097 16.8412 14.1095L18.3875 16.7876C18.4404 16.8793 18.4583 16.9871 18.4379 17.091C18.4174 17.1949 18.36 17.2878 18.2762 17.3526C17.7818 17.735 17.2384 18.0495 16.6604 18.2876C16.6078 18.3092 16.5515 18.3204 16.4946 18.3204ZM10.5665 16.8836C10.8081 17.0477 11.0612 17.1942 11.3237 17.3222L12.6738 14.9845C12.8082 14.7517 13.0015 14.5583 13.2343 14.4239C13.4671 14.2895 13.7312 14.2187 14 14.2187C14.2688 14.2187 14.5329 14.2895 14.7657 14.4239C14.9985 14.5583 15.1918 14.7517 15.3262 14.9845L16.6759 17.3224C16.9384 17.1945 17.1915 17.0479 17.4331 16.8838L16.0839 14.547C15.9495 14.3142 15.8788 14.0502 15.8788 13.7814C15.8788 13.5126 15.9495 13.2485 16.0839 13.0158C16.2183 12.783 16.4116 12.5897 16.6444 12.4553C16.8771 12.3209 17.1412 12.2501 17.41 12.2501H20.1085C20.1194 12.1019 20.125 11.9557 20.125 11.8126C20.125 11.6695 20.1195 11.5233 20.1085 11.3751H17.41C17.1412 11.3751 16.8771 11.3043 16.6444 11.1699C16.4116 11.0355 16.2183 10.8422 16.0839 10.6095C15.9495 10.3767 15.8788 10.1126 15.8788 9.84385C15.8788 9.57506 15.9495 9.31101 16.0839 9.07824L17.4331 6.74133C17.1914 6.57732 16.9384 6.43078 16.6759 6.30284L15.3262 8.64074C15.1918 8.87355 14.9985 9.06688 14.7657 9.2013C14.5329 9.33572 14.2688 9.40648 14 9.40648C13.7312 9.40648 13.4671 9.33572 13.2343 9.2013C13.0015 9.06688 12.8082 8.87355 12.6738 8.64074L11.3243 6.30284C11.0617 6.43078 10.8086 6.57732 10.5669 6.74133L11.9162 9.07824C12.0506 9.31102 12.1213 9.57508 12.1213 9.84388C12.1213 10.1127 12.0506 10.3767 11.9162 10.6095C11.7818 10.8423 11.5885 11.0356 11.3557 11.17C11.1229 11.3044 10.8588 11.3751 10.59 11.3751H7.89152C7.88058 11.5234 7.875 11.6697 7.875 11.8126C7.875 11.9556 7.88058 12.1018 7.89152 12.2501H10.59C10.8588 12.2501 11.1229 12.3208 11.3557 12.4552C11.5885 12.5896 11.7818 12.7829 11.9162 13.0157C12.0506 13.2485 12.1213 13.5125 12.1213 13.7813C12.1213 14.0501 12.0506 14.3142 11.9162 14.547L10.5665 16.8836Z" fill="#FD4D00"/>
</g>
<defs>
<clipPath id="clip0_2916_102997">
<rect width="28" height="28" fill="white"/>
</clipPath>
</defs>
</svg>
