<svg width="28" height="28" viewBox="0 0 28 28" fill="none" xmlns="http://www.w3.org/2000/svg">
<g clip-path="url(#clip0_2916_102734)">
<path fill-rule="evenodd" clip-rule="evenodd" d="M14.0316 16.3789C12.643 16.3789 11.5156 17.5063 11.5156 18.8948C11.5156 20.2834 12.643 21.4108 14.0316 21.4108C15.4201 21.4108 16.5475 20.2834 16.5475 18.8948C16.5475 17.5063 15.4201 16.3789 14.0316 16.3789ZM14.0316 17.3633C14.8773 17.3633 15.5631 18.0499 15.5631 18.8948C15.5631 19.7398 14.8773 20.4264 14.0316 20.4264C13.1866 20.4264 12.5 19.7398 12.5 18.8948C12.5 18.0499 13.1866 17.3633 14.0316 17.3633Z" fill="#FD4D00"/>
<path fill-rule="evenodd" clip-rule="evenodd" d="M12.0427 19.2539C5.61828 19.4508 3.39606 20.5859 3.39606 20.5859C3.11939 20.7335 2.78858 20.7396 2.50588 20.6034C2.22373 20.4673 2.02304 20.2042 1.96618 19.8958L0.00479633 9.28785C-0.0859858 8.79685 0.20548 8.31567 0.68284 8.16856C0.68284 8.16856 5.58272 6.64844 13.9866 6.64844C22.3904 6.64844 27.2903 8.16856 27.2903 8.16856C27.7677 8.31567 28.0591 8.79685 27.9683 9.28785L26.0075 19.8958C25.9501 20.2042 25.7499 20.4673 25.4672 20.6034C25.1845 20.7396 24.8543 20.7335 24.5771 20.5859C24.5771 20.5859 22.3784 19.4628 16.0344 19.2572V18.2724C22.7283 18.4878 25.0397 19.7171 25.0397 19.7171L27.0005 9.10909C27.0005 9.10909 22.2073 7.63273 13.9866 7.63273C5.76653 7.63273 0.972719 9.10909 0.972719 9.10909L2.93355 19.7171C2.93355 19.7171 5.26896 18.4753 12.0427 18.2691L12.0427 19.2539Z" fill="#FD4D00"/>
<path fill-rule="evenodd" clip-rule="evenodd" d="M13.707 16.5481L18.0453 10.6344C18.5276 9.97714 19.4523 9.83496 20.109 10.3173C20.7662 10.799 20.9084 11.7236 20.4261 12.3809L16.0943 18.2858C15.9976 17.9255 15.8171 17.599 15.5754 17.3289L19.6326 11.7985C19.7934 11.5798 19.7458 11.2714 19.5271 11.1106C19.3079 10.9499 19 10.9974 18.8393 11.2162L14.7809 16.7487C14.4883 16.618 14.1641 16.5453 13.8235 16.5453C13.7847 16.5454 13.7458 16.5464 13.707 16.5481Z" fill="#FD4D00"/>
<path fill-rule="evenodd" clip-rule="evenodd" d="M1.57031 15.1584V13.4481L5.60065 7.69922H6.79939L1.57031 15.1584Z" fill="#FD4D00"/>
<path fill-rule="evenodd" clip-rule="evenodd" d="M2.31641 18.8971V17.1868L9.19798 7.37109H10.3967L2.31641 18.8971Z" fill="#FD4D00"/>
</g>
<defs>
<clipPath id="clip0_2916_102734">
<rect width="28" height="28" fill="white"/>
</clipPath>
</defs>
</svg>
