<svg width="20" height="20" viewBox="0 0 20 20" fill="none" xmlns="http://www.w3.org/2000/svg">
<path d="M17.5 5.83464V14.168C17.5 16.668 16.25 18.3346 13.3333 18.3346H6.66667C3.75 18.3346 2.5 16.668 2.5 14.168V5.83464C2.5 3.33464 3.75 1.66797 6.66667 1.66797H13.3333C16.25 1.66797 17.5 3.33464 17.5 5.83464Z" stroke="#0A1E56" stroke-width="1.5" stroke-miterlimit="10" stroke-linecap="round" stroke-linejoin="round"/>
<path d="M12.9163 1.66797V8.21796C12.9163 8.58462 12.483 8.76795 12.2163 8.52629L10.283 6.74299C10.1247 6.59299 9.87465 6.59299 9.71632 6.74299L7.78303 8.52629C7.51636 8.76795 7.08301 8.58462 7.08301 8.21796V1.66797H12.9163Z" stroke="#0A1E56" stroke-width="1.5" stroke-miterlimit="10" stroke-linecap="round" stroke-linejoin="round"/>
<path d="M11.042 11.668H14.5837" stroke="#0A1E56" stroke-width="1.5" stroke-miterlimit="10" stroke-linecap="round" stroke-linejoin="round"/>
<path d="M7.5 15H14.5833" stroke="#0A1E56" stroke-width="1.5" stroke-miterlimit="10" stroke-linecap="round" stroke-linejoin="round"/>
</svg>
