<svg width="20" height="20" viewBox="0 0 20 20" fill="none" xmlns="http://www.w3.org/2000/svg">
<path d="M10.3087 1.79219L17.8087 4.79217C18.1003 4.90883 18.3337 5.25883 18.3337 5.56716V8.33383C18.3337 8.79217 17.9587 9.16717 17.5003 9.16717H2.50033C2.04199 9.16717 1.66699 8.79217 1.66699 8.33383V5.56716C1.66699 5.25883 1.90033 4.90883 2.192 4.79217L9.692 1.79219C9.85866 1.72552 10.142 1.72552 10.3087 1.79219Z" stroke="#0A1E56" stroke-width="1.5" stroke-miterlimit="10" stroke-linecap="round" stroke-linejoin="round"/>
<path d="M18.3337 18.3333H1.66699V15.8333C1.66699 15.375 2.04199 15 2.50033 15H17.5003C17.9587 15 18.3337 15.375 18.3337 15.8333V18.3333Z" stroke="#0A1E56" stroke-width="1.5" stroke-miterlimit="10" stroke-linecap="round" stroke-linejoin="round"/>
<path d="M3.33301 15.0013V9.16797" stroke="#0A1E56" stroke-width="1.5" stroke-miterlimit="10" stroke-linecap="round" stroke-linejoin="round"/>
<path d="M6.66699 15.0013V9.16797" stroke="#0A1E56" stroke-width="1.5" stroke-miterlimit="10" stroke-linecap="round" stroke-linejoin="round"/>
<path d="M10 15.0013V9.16797" stroke="#0A1E56" stroke-width="1.5" stroke-miterlimit="10" stroke-linecap="round" stroke-linejoin="round"/>
<path d="M13.333 15.0013V9.16797" stroke="#0A1E56" stroke-width="1.5" stroke-miterlimit="10" stroke-linecap="round" stroke-linejoin="round"/>
<path d="M16.667 15.0013V9.16797" stroke="#0A1E56" stroke-width="1.5" stroke-miterlimit="10" stroke-linecap="round" stroke-linejoin="round"/>
<path d="M0.833008 18.332H19.1663" stroke="#0A1E56" stroke-width="1.5" stroke-miterlimit="10" stroke-linecap="round" stroke-linejoin="round"/>
<path d="M10 7.08203C10.6904 7.08203 11.25 6.52239 11.25 5.83203C11.25 5.14168 10.6904 4.58203 10 4.58203C9.30964 4.58203 8.75 5.14168 8.75 5.83203C8.75 6.52239 9.30964 7.08203 10 7.08203Z" stroke="#0A1E56" stroke-width="1.5" stroke-miterlimit="10" stroke-linecap="round" stroke-linejoin="round"/>
</svg>
