<svg width="20" height="20" viewBox="0 0 20 20" fill="none" xmlns="http://www.w3.org/2000/svg">
<path d="M15.8334 18.9582C14.6667 18.9582 13.575 18.4499 12.825 17.5582C12.8167 17.5416 12.7667 17.4999 12.725 17.4332C12.6334 17.3415 12.525 17.1749 12.4334 17.0165C12.0667 16.4249 11.8667 15.7249 11.8667 14.9915C11.8667 13.7749 12.4084 12.6499 13.35 11.8999C14.05 11.3416 14.9334 11.0332 15.825 11.0332C16.7917 11.0332 17.6834 11.3666 18.4 11.9916C18.5 12.0582 18.6167 12.1832 18.725 12.2999C19.4 13.0416 19.775 13.9915 19.775 14.9832C19.775 15.7082 19.575 16.4165 19.2 17.0249C19 17.3749 18.725 17.6915 18.4084 17.9582C17.7334 18.6082 16.8084 18.9582 15.8334 18.9582ZM15.8334 12.2915C15.2167 12.2915 14.6334 12.4999 14.1417 12.8915C13.5 13.3999 13.125 14.1749 13.125 14.9999C13.125 15.4915 13.2584 15.9749 13.5167 16.3915C13.5834 16.5082 13.65 16.5999 13.725 16.6916C13.7417 16.7082 13.7917 16.7582 13.8334 16.8249C14.2917 17.3665 15.0417 17.7166 15.8334 17.7166C16.4917 17.7166 17.125 17.4749 17.6084 17.0416C17.825 16.8582 18.0084 16.6415 18.1417 16.4082C18.4084 15.9832 18.5417 15.4999 18.5417 15.0082C18.5417 14.3332 18.2834 13.6749 17.8167 13.1665C17.7584 13.0999 17.6917 13.0332 17.625 12.9832C17.1 12.5166 16.4917 12.2915 15.8334 12.2915Z" fill="#292D32"/>
<path d="M17.0752 15.6084H14.5835C14.2418 15.6084 13.9585 15.3251 13.9585 14.9834C13.9585 14.6417 14.2418 14.3584 14.5835 14.3584H17.0752C17.4168 14.3584 17.7002 14.6417 17.7002 14.9834C17.7002 15.3251 17.4252 15.6084 17.0752 15.6084Z" fill="#292D32"/>
<path d="M15.8335 16.8833C15.4918 16.8833 15.2085 16.5999 15.2085 16.2583V13.7666C15.2085 13.4249 15.4918 13.1416 15.8335 13.1416C16.1752 13.1416 16.4585 13.4249 16.4585 13.7666V16.2583C16.4585 16.6083 16.1752 16.8833 15.8335 16.8833Z" fill="#292D32"/>
<path d="M9.99978 11.0834C9.89145 11.0834 9.78311 11.0584 9.68311 11.0001L2.32478 6.74175C2.02478 6.56675 1.92479 6.18339 2.09979 5.88339C2.27479 5.58339 2.65811 5.48337 2.94978 5.65837L9.99145 9.73338L16.9914 5.6834C17.2914 5.5084 17.6748 5.61675 17.8415 5.90841C18.0165 6.20841 17.9081 6.59172 17.6164 6.76672L10.3081 11.0001C10.2164 11.0501 10.1081 11.0834 9.99978 11.0834Z" fill="#292D32"/>
<path d="M10 18.633C9.65833 18.633 9.375 18.3497 9.375 18.008V10.4497C9.375 10.108 9.65833 9.82471 10 9.82471C10.3417 9.82471 10.625 10.108 10.625 10.4497V18.008C10.625 18.3497 10.3417 18.633 10 18.633Z" fill="#292D32"/>
<path d="M10.0001 18.9581C9.26673 18.9581 8.53339 18.7998 7.96673 18.4748L3.51673 16.0081C2.3084 15.3415 1.3584 13.7331 1.3584 12.3498V7.63308C1.3584 6.24975 2.3084 4.64979 3.51673 3.97479L7.96673 1.50811C9.10006 0.866439 10.8834 0.866439 12.0251 1.50811L16.4751 3.97479C17.6834 4.64146 18.6334 6.24975 18.6334 7.63308V12.3498C18.6334 12.4331 18.6334 12.4998 18.6167 12.5831C18.5751 12.7998 18.4167 12.9831 18.2084 13.0498C18.0001 13.1248 17.7667 13.0748 17.5917 12.9331C16.6334 12.0998 15.1501 12.0665 14.1417 12.8748C13.5001 13.3831 13.1251 14.1581 13.1251 14.9831C13.1251 15.4748 13.2584 15.9581 13.5167 16.3748C13.5834 16.4915 13.6501 16.5831 13.7251 16.6748C13.8501 16.8164 13.9001 17.0081 13.8667 17.1914C13.8334 17.3748 13.7167 17.5331 13.5501 17.6248L12.0251 18.4664C11.4584 18.7998 10.7334 18.9581 10.0001 18.9581ZM10.0001 2.29144C9.48339 2.29144 8.9584 2.39978 8.5834 2.60811L4.1334 5.0748C3.32507 5.51646 2.62506 6.71642 2.62506 7.63308V12.3498C2.62506 13.2664 3.3334 14.4665 4.1334 14.9081L8.5834 17.3748C9.34173 17.7998 10.6667 17.7998 11.4251 17.3748L12.3584 16.8581C12.0501 16.2998 11.8834 15.6498 11.8834 14.9831C11.8834 13.7664 12.4251 12.6415 13.3667 11.8915C14.5001 10.9831 16.1251 10.7914 17.3917 11.3331V7.61645C17.3917 6.69979 16.6834 5.49978 15.8834 5.05811L11.4334 2.59143C11.0417 2.39976 10.5167 2.29144 10.0001 2.29144Z" fill="#292D32"/>
</svg>
