<svg width="20" height="20" viewBox="0 0 20 20" fill="none" xmlns="http://www.w3.org/2000/svg">
<path d="M9.99979 11.0834C9.89146 11.0834 9.78312 11.0584 9.68312 11.0001L2.3248 6.74175C2.0248 6.56675 1.92478 6.18339 2.09978 5.88339C2.27478 5.58339 2.64978 5.48337 2.95811 5.65837L9.99979 9.73338L16.9998 5.6834C17.2998 5.5084 17.6831 5.61675 17.8581 5.90841C18.0331 6.20841 17.9248 6.59172 17.6331 6.76672L10.3248 11.0001C10.2165 11.0501 10.1081 11.0834 9.99979 11.0834Z" fill="#292D32"/>
<path d="M10 18.6333C9.65833 18.6333 9.375 18.35 9.375 18.0083V10.45C9.375 10.1083 9.65833 9.82495 10 9.82495C10.3417 9.82495 10.625 10.1083 10.625 10.45V18.0083C10.625 18.35 10.3417 18.6333 10 18.6333Z" fill="#292D32"/>
<path d="M10.0001 18.9582C9.26673 18.9582 8.53339 18.7999 7.96673 18.4749L3.51673 16.0082C2.3084 15.3416 1.3584 13.7332 1.3584 12.3499V7.63318C1.3584 6.24985 2.3084 4.64989 3.51673 3.97489L7.96673 1.5082C9.10006 0.87487 10.8834 0.87487 12.0251 1.5082L16.4751 3.97489C17.6834 4.64155 18.6334 6.24985 18.6334 7.63318V12.3499C18.6334 12.4082 18.6334 12.4915 18.6084 12.5999C18.5584 12.8165 18.4001 12.9915 18.1917 13.0582C17.9834 13.1249 17.7501 13.0832 17.5834 12.9332C16.6334 12.0999 15.1501 12.0665 14.1334 12.8749C13.4917 13.3832 13.1167 14.1582 13.1167 14.9832C13.1167 15.4749 13.2501 15.9582 13.5084 16.3749C13.5751 16.4916 13.6417 16.5832 13.7167 16.6665C13.8417 16.8082 13.8917 16.9999 13.8584 17.1832C13.8251 17.3665 13.7084 17.5332 13.5417 17.6166L12.0167 18.4582C11.4584 18.7999 10.7334 18.9582 10.0001 18.9582ZM10.0001 2.29154C9.48339 2.29154 8.95838 2.39988 8.58338 2.60821L4.13339 5.07489C3.32505 5.52489 2.62506 6.71652 2.62506 7.63318V12.3499C2.62506 13.2665 3.33339 14.4666 4.13339 14.9082L8.58338 17.3749C9.34172 17.7999 10.6667 17.7999 11.4251 17.3749L12.3584 16.8582C12.0501 16.2999 11.8834 15.6499 11.8834 14.9832C11.8834 13.7665 12.4251 12.6416 13.3667 11.8916C14.5084 10.9832 16.1251 10.7915 17.3917 11.3415V7.62489C17.3917 6.70823 16.6834 5.50822 15.8834 5.06655L11.4334 2.59987C11.0417 2.39987 10.5167 2.29154 10.0001 2.29154Z" fill="#292D32"/>
<path d="M15.8333 18.9584C13.65 18.9584 11.875 17.1834 11.875 15.0001C11.875 13.7834 12.4167 12.6584 13.3583 11.9084C14.0583 11.3501 14.9417 11.0417 15.8333 11.0417C18.0167 11.0417 19.7917 12.8167 19.7917 15.0001C19.7917 16.1334 19.3 17.2167 18.4417 17.9667C17.7167 18.6084 16.7917 18.9584 15.8333 18.9584ZM15.8333 12.2917C15.2167 12.2917 14.6333 12.5001 14.1417 12.8917C13.5 13.4001 13.125 14.1751 13.125 15.0001C13.125 16.4917 14.3417 17.7084 15.8333 17.7084C16.4833 17.7084 17.1167 17.4667 17.625 17.0334C18.2083 16.5167 18.5417 15.7834 18.5417 15.0001C18.5417 13.5084 17.325 12.2917 15.8333 12.2917Z" fill="#292D32"/>
<path d="M15.0001 16.4583C14.7917 16.4583 14.5834 16.3499 14.4667 16.1583C14.2917 15.8583 14.3834 15.4749 14.6834 15.2999L15.4251 14.8583V13.9583C15.4251 13.6166 15.7084 13.3333 16.0501 13.3333C16.3917 13.3333 16.6751 13.6166 16.6751 13.9583V15.2083C16.6751 15.4249 16.5584 15.6333 16.3751 15.7416L15.3334 16.3666C15.2167 16.4333 15.1084 16.4583 15.0001 16.4583Z" fill="#292D32"/>
</svg>
