<svg width="20" height="20" viewBox="0 0 20 20" fill="none" xmlns="http://www.w3.org/2000/svg">
<path d="M9.99979 11.0834C9.89146 11.0834 9.78312 11.0584 9.68312 11.0001L2.3248 6.74175C2.0248 6.56675 1.92478 6.18339 2.09978 5.88339C2.27478 5.58339 2.64978 5.48337 2.95811 5.65837L9.99979 9.73338L16.9998 5.6834C17.2998 5.5084 17.6831 5.61675 17.8581 5.90841C18.0331 6.20841 17.9248 6.59172 17.6331 6.76672L10.3248 11.0001C10.2165 11.0501 10.1081 11.0834 9.99979 11.0834Z" fill="#292D32"/>
<path d="M10 18.6333C9.65833 18.6333 9.375 18.35 9.375 18.0083V10.45C9.375 10.1083 9.65833 9.82495 10 9.82495C10.3417 9.82495 10.625 10.1083 10.625 10.45V18.0083C10.625 18.35 10.3417 18.6333 10 18.6333Z" fill="#292D32"/>
<path d="M10.0001 18.9582C9.24173 18.9582 8.51673 18.7832 7.96673 18.4749L3.51673 16.0082C2.3084 15.3416 1.3584 13.7332 1.3584 12.3499V7.63318C1.3584 6.24985 2.3084 4.64989 3.51673 3.97489L7.96673 1.5082C9.10006 0.87487 10.8834 0.87487 12.0251 1.5082L16.4751 3.97489C17.6834 4.64155 18.6334 6.24985 18.6334 7.63318V10.6832C18.6334 11.0249 18.35 11.3082 18.0084 11.3082C17.6667 11.3082 17.3834 11.0249 17.3834 10.6832V7.63318C17.3834 6.71652 16.6751 5.51656 15.8751 5.07489L11.4251 2.60821C10.6667 2.18321 9.34172 2.18321 8.58338 2.60821L4.13339 5.07489C3.32505 5.52489 2.62506 6.71652 2.62506 7.63318V12.3499C2.62506 13.2665 3.33339 14.4666 4.13339 14.9082L8.58338 17.3749C9.31672 17.7832 10.7001 17.7832 11.4251 17.3749C11.7251 17.2082 12.1084 17.3166 12.2751 17.6166C12.4417 17.9166 12.3334 18.2998 12.0334 18.4665C11.4834 18.7832 10.7584 18.9582 10.0001 18.9582Z" fill="#292D32"/>
<path d="M16.0002 18.4584C14.1835 18.4584 12.7085 16.9833 12.7085 15.1667C12.7085 13.35 14.1835 11.875 16.0002 11.875C17.8168 11.875 19.2918 13.35 19.2918 15.1667C19.2918 16.9833 17.8168 18.4584 16.0002 18.4584ZM16.0002 13.125C14.8752 13.125 13.9585 14.0417 13.9585 15.1667C13.9585 16.2917 14.8752 17.2084 16.0002 17.2084C17.1252 17.2084 18.0418 16.2917 18.0418 15.1667C18.0418 14.0417 17.1252 13.125 16.0002 13.125Z" fill="#292D32"/>
<path d="M19.1667 18.9582C19.0084 18.9582 18.85 18.8999 18.725 18.7749L17.8917 17.9416C17.65 17.6999 17.65 17.2999 17.8917 17.0582C18.1334 16.8165 18.5334 16.8165 18.775 17.0582L19.6084 17.8915C19.85 18.1332 19.85 18.5333 19.6084 18.7749C19.4834 18.8999 19.325 18.9582 19.1667 18.9582Z" fill="#292D32"/>
</svg>
