<svg width="32" height="32" viewBox="0 0 32 32" fill="none" xmlns="http://www.w3.org/2000/svg">
<path d="M10.6658 29.3294H21.3325C26.6925 29.3294 27.6525 27.1828 27.9325 24.5694L28.9325 13.9028C29.2925 10.6494 28.3591 7.99609 22.6658 7.99609H9.33245C3.63912 7.99609 2.70578 10.6494 3.06578 13.9028L4.06578 24.5694C4.34578 27.1828 5.30578 29.3294 10.6658 29.3294Z" stroke="#FD4D00" stroke-width="2" stroke-miterlimit="10" stroke-linecap="round" stroke-linejoin="round"/>
<path d="M10.666 7.9974V6.93073C10.666 4.57073 10.666 2.66406 14.9327 2.66406H17.066C21.3327 2.66406 21.3327 4.57073 21.3327 6.93073V7.9974" stroke="#FD4D00" stroke-width="2" stroke-miterlimit="10" stroke-linecap="round" stroke-linejoin="round"/>
<path d="M18.6663 17.3333V18.6667C18.6663 18.68 18.6663 18.68 18.6663 18.6933C18.6663 20.1467 18.653 21.3333 15.9997 21.3333C13.3597 21.3333 13.333 20.16 13.333 18.7067V17.3333C13.333 16 13.333 16 14.6663 16H17.333C18.6663 16 18.6663 16 18.6663 17.3333Z" stroke="#FD4D00" stroke-width="2" stroke-miterlimit="10" stroke-linecap="round" stroke-linejoin="round"/>
<path d="M28.866 14.6641C25.786 16.9041 22.266 18.2374 18.666 18.6907" stroke="#FD4D00" stroke-width="2" stroke-miterlimit="10" stroke-linecap="round" stroke-linejoin="round"/>
<path d="M3.49316 15.0234C6.49316 17.0768 9.87983 18.3168 13.3332 18.7034" stroke="#FD4D00" stroke-width="2" stroke-miterlimit="10" stroke-linecap="round" stroke-linejoin="round"/>
</svg>
