<svg width="16" height="16" viewBox="0 0 16 16" fill="none" xmlns="http://www.w3.org/2000/svg">
<path d="M5.33301 3.83203C5.05967 3.83203 4.83301 3.60536 4.83301 3.33203V1.33203C4.83301 1.0587 5.05967 0.832031 5.33301 0.832031C5.60634 0.832031 5.83301 1.0587 5.83301 1.33203V3.33203C5.83301 3.60536 5.60634 3.83203 5.33301 3.83203Z" fill="#B7B7B7"/>
<path d="M10.667 3.83203C10.3937 3.83203 10.167 3.60536 10.167 3.33203V1.33203C10.167 1.0587 10.3937 0.832031 10.667 0.832031C10.9403 0.832031 11.167 1.0587 11.167 1.33203V3.33203C11.167 3.60536 10.9403 3.83203 10.667 3.83203Z" fill="#B7B7B7"/>
<path d="M5.66667 9.66557C5.58 9.66557 5.49333 9.64558 5.41333 9.61225C5.32667 9.57891 5.26 9.53223 5.19333 9.47223C5.07333 9.34557 5 9.17891 5 8.99891C5 8.91224 5.02 8.82557 5.05333 8.74557C5.08667 8.66557 5.13333 8.59224 5.19333 8.52558C5.26 8.46558 5.32667 8.4189 5.41333 8.38556C5.65333 8.28556 5.95333 8.33891 6.14 8.52558C6.26 8.65224 6.33333 8.82557 6.33333 8.99891C6.33333 9.03891 6.32667 9.08558 6.32 9.13225C6.31333 9.17225 6.3 9.21224 6.28 9.25224C6.26667 9.29224 6.24667 9.33224 6.22 9.37224C6.2 9.40557 6.16667 9.4389 6.14 9.47223C6.01333 9.59223 5.84 9.66557 5.66667 9.66557Z" fill="#B7B7B7"/>
<path d="M7.99967 9.66854C7.91301 9.66854 7.82634 9.64854 7.74634 9.61521C7.65967 9.58188 7.59301 9.5352 7.52634 9.4752C7.40634 9.34853 7.33301 9.18187 7.33301 9.00187C7.33301 8.9152 7.35301 8.82853 7.38634 8.74853C7.41968 8.66853 7.46634 8.59521 7.52634 8.52854C7.59301 8.46854 7.65967 8.42186 7.74634 8.38853C7.98634 8.28186 8.28634 8.34187 8.47301 8.52854C8.59301 8.65521 8.66634 8.82854 8.66634 9.00187C8.66634 9.04187 8.65967 9.08854 8.65301 9.13521C8.64634 9.17521 8.63301 9.21521 8.61301 9.25521C8.59967 9.29521 8.57968 9.3352 8.55301 9.3752C8.53301 9.40853 8.49967 9.44186 8.47301 9.4752C8.34634 9.5952 8.17301 9.66854 7.99967 9.66854Z" fill="#B7B7B7"/>
<path d="M10.3337 9.66854C10.247 9.66854 10.1603 9.64854 10.0803 9.61521C9.99366 9.58188 9.92699 9.5352 9.86033 9.4752C9.83366 9.44186 9.80699 9.40853 9.78032 9.3752C9.75366 9.3352 9.73366 9.29521 9.72033 9.25521C9.70033 9.21521 9.68699 9.17521 9.68033 9.13521C9.67366 9.08854 9.66699 9.04187 9.66699 9.00187C9.66699 8.82854 9.74033 8.65521 9.86033 8.52854C9.92699 8.46854 9.99366 8.42186 10.0803 8.38853C10.327 8.28186 10.6203 8.34187 10.807 8.52854C10.927 8.65521 11.0003 8.82854 11.0003 9.00187C11.0003 9.04187 10.9937 9.08854 10.987 9.13521C10.9803 9.17521 10.967 9.21521 10.947 9.25521C10.9337 9.29521 10.9137 9.3352 10.887 9.3752C10.867 9.40853 10.8337 9.44186 10.807 9.4752C10.6803 9.5952 10.507 9.66854 10.3337 9.66854Z" fill="#B7B7B7"/>
<path d="M5.66667 12.0008C5.58 12.0008 5.49333 11.9808 5.41333 11.9475C5.33333 11.9141 5.26 11.8674 5.19333 11.8074C5.07333 11.6808 5 11.5074 5 11.3341C5 11.2474 5.02 11.1608 5.05333 11.0808C5.08667 10.9941 5.13333 10.9208 5.19333 10.8608C5.44 10.6141 5.89333 10.6141 6.14 10.8608C6.26 10.9874 6.33333 11.1608 6.33333 11.3341C6.33333 11.5074 6.26 11.6808 6.14 11.8074C6.01333 11.9274 5.84 12.0008 5.66667 12.0008Z" fill="#B7B7B7"/>
<path d="M7.99967 12.0008C7.82634 12.0008 7.65301 11.9274 7.52634 11.8074C7.40634 11.6808 7.33301 11.5074 7.33301 11.3341C7.33301 11.2474 7.35301 11.1608 7.38634 11.0808C7.41968 10.9941 7.46634 10.9208 7.52634 10.8608C7.77301 10.6141 8.22634 10.6141 8.47301 10.8608C8.53301 10.9208 8.57967 10.9941 8.61301 11.0808C8.64634 11.1608 8.66634 11.2474 8.66634 11.3341C8.66634 11.5074 8.59301 11.6808 8.47301 11.8074C8.34634 11.9274 8.17301 12.0008 7.99967 12.0008Z" fill="#B7B7B7"/>
<path d="M10.3337 12.0019C10.1603 12.0019 9.98699 11.9286 9.86033 11.8086C9.80033 11.7486 9.75366 11.6752 9.72033 11.5886C9.68699 11.5086 9.66699 11.4219 9.66699 11.3352C9.66699 11.2486 9.68699 11.1619 9.72033 11.0819C9.75366 10.9952 9.80033 10.9219 9.86033 10.8619C10.0137 10.7086 10.247 10.6352 10.4603 10.6819C10.507 10.6886 10.547 10.7019 10.587 10.7219C10.627 10.7352 10.667 10.7552 10.707 10.7819C10.7403 10.8019 10.7737 10.8352 10.807 10.8619C10.927 10.9886 11.0003 11.1619 11.0003 11.3352C11.0003 11.5086 10.927 11.6819 10.807 11.8086C10.6803 11.9286 10.507 12.0019 10.3337 12.0019Z" fill="#B7B7B7"/>
<path d="M13.6663 6.55859H2.33301C2.05967 6.55859 1.83301 6.33193 1.83301 6.05859C1.83301 5.78526 2.05967 5.55859 2.33301 5.55859H13.6663C13.9397 5.55859 14.1663 5.78526 14.1663 6.05859C14.1663 6.33193 13.9397 6.55859 13.6663 6.55859Z" fill="#B7B7B7"/>
<path d="M10.6667 15.1654H5.33333C2.9 15.1654 1.5 13.7654 1.5 11.332V5.66536C1.5 3.23203 2.9 1.83203 5.33333 1.83203H10.6667C13.1 1.83203 14.5 3.23203 14.5 5.66536V11.332C14.5 13.7654 13.1 15.1654 10.6667 15.1654ZM5.33333 2.83203C3.42667 2.83203 2.5 3.7587 2.5 5.66536V11.332C2.5 13.2387 3.42667 14.1654 5.33333 14.1654H10.6667C12.5733 14.1654 13.5 13.2387 13.5 11.332V5.66536C13.5 3.7587 12.5733 2.83203 10.6667 2.83203H5.33333Z" fill="#B7B7B7"/>
</svg>
