<svg width="16" height="16" viewBox="0 0 16 16" fill="none" xmlns="http://www.w3.org/2000/svg">
<path d="M11.633 15.1654C10.8797 15.1654 10.0863 14.9854 9.26634 14.6387C8.46634 14.2987 7.65968 13.832 6.87301 13.2654C6.09301 12.692 5.33967 12.052 4.62634 11.352C3.91967 10.6387 3.27967 9.88536 2.71301 9.11203C2.13967 8.31203 1.67967 7.51203 1.35301 6.7387C1.00634 5.91203 0.833008 5.11203 0.833008 4.3587C0.833008 3.8387 0.926341 3.34536 1.10634 2.88536C1.29301 2.41203 1.59301 1.97203 1.99967 1.59203C2.51301 1.08536 3.09967 0.832031 3.72634 0.832031C3.98634 0.832031 4.25301 0.892031 4.47967 0.998698C4.73967 1.1187 4.95967 1.2987 5.11967 1.5387L6.66634 3.7187C6.80634 3.91203 6.91301 4.0987 6.98634 4.28536C7.07301 4.48536 7.11967 4.68536 7.11967 4.8787C7.11967 5.13203 7.04634 5.3787 6.90634 5.61203C6.80634 5.79203 6.65301 5.98536 6.45967 6.1787L6.00634 6.65203C6.01301 6.67203 6.01967 6.68536 6.02634 6.6987C6.10634 6.8387 6.26634 7.0787 6.57301 7.4387C6.89967 7.81203 7.20634 8.15203 7.51301 8.46536C7.90634 8.85203 8.23301 9.1587 8.53967 9.41203C8.91967 9.73203 9.16634 9.89203 9.31301 9.96536L9.29967 9.9987L9.78634 9.5187C9.99301 9.31203 10.193 9.1587 10.3863 9.0587C10.753 8.83203 11.2197 8.79203 11.6863 8.98536C11.8597 9.0587 12.0463 9.1587 12.2463 9.2987L14.4597 10.872C14.7063 11.0387 14.8863 11.252 14.993 11.5054C15.093 11.7587 15.1397 11.992 15.1397 12.2254C15.1397 12.5454 15.0663 12.8654 14.9263 13.1654C14.7863 13.4654 14.613 13.7254 14.393 13.9654C14.013 14.3854 13.5997 14.6854 13.1197 14.8787C12.6597 15.0654 12.1597 15.1654 11.633 15.1654ZM3.72634 1.83203C3.35967 1.83203 3.01967 1.99203 2.69301 2.31203C2.38634 2.5987 2.17301 2.91203 2.03967 3.25203C1.89967 3.5987 1.83301 3.96536 1.83301 4.3587C1.83301 4.9787 1.97967 5.65203 2.27301 6.34537C2.57301 7.05203 2.99301 7.78536 3.52634 8.5187C4.05967 9.25203 4.66634 9.96536 5.33301 10.6387C5.99967 11.2987 6.71967 11.912 7.45967 12.452C8.17967 12.9787 8.91967 13.4054 9.65301 13.712C10.793 14.1987 11.8597 14.312 12.7397 13.9454C13.0797 13.8054 13.3797 13.592 13.653 13.2854C13.8063 13.1187 13.9263 12.9387 14.0263 12.7254C14.1063 12.5587 14.1463 12.3854 14.1463 12.212C14.1463 12.1054 14.1263 11.9987 14.073 11.8787C14.053 11.8387 14.013 11.7654 13.8863 11.6787L11.673 10.1054C11.5397 10.012 11.4197 9.94536 11.3063 9.8987C11.1597 9.8387 11.0997 9.7787 10.873 9.9187C10.7397 9.98536 10.6197 10.0854 10.4863 10.2187L9.97968 10.7187C9.71968 10.972 9.31968 11.032 9.01301 10.9187L8.83301 10.8387C8.55967 10.692 8.23967 10.4654 7.88634 10.1654C7.56634 9.89203 7.21967 9.57203 6.79967 9.1587C6.47301 8.82536 6.14634 8.47203 5.80634 8.0787C5.49301 7.71203 5.26634 7.3987 5.12634 7.1387L5.04634 6.9387C5.00634 6.78536 4.99301 6.6987 4.99301 6.60536C4.99301 6.36536 5.07967 6.15203 5.24634 5.98536L5.74634 5.46536C5.87967 5.33203 5.97967 5.20536 6.04634 5.09203C6.09967 5.00536 6.11967 4.93203 6.11967 4.86537C6.11967 4.81203 6.09967 4.73203 6.06634 4.65203C6.01967 4.54536 5.94634 4.42536 5.85301 4.2987L4.30634 2.11203C4.23967 2.0187 4.15967 1.95203 4.05967 1.90536C3.95301 1.8587 3.83967 1.83203 3.72634 1.83203ZM9.29967 10.0054L9.19301 10.4587L9.37301 9.99203C9.33967 9.98536 9.31301 9.99203 9.29967 10.0054Z" fill="white"/>
<path d="M12.3333 6.5013C12.06 6.5013 11.8333 6.27464 11.8333 6.0013C11.8333 5.7613 11.5933 5.2613 11.1933 4.83464C10.8 4.41464 10.3667 4.16797 10 4.16797C9.72667 4.16797 9.5 3.9413 9.5 3.66797C9.5 3.39464 9.72667 3.16797 10 3.16797C10.6467 3.16797 11.3267 3.51464 11.92 4.14797C12.4733 4.7413 12.8333 5.46797 12.8333 6.0013C12.8333 6.27464 12.6067 6.5013 12.3333 6.5013Z" fill="white"/>
<path d="M14.6667 6.4987C14.3933 6.4987 14.1667 6.27203 14.1667 5.9987C14.1667 3.6987 12.3 1.83203 10 1.83203C9.72667 1.83203 9.5 1.60536 9.5 1.33203C9.5 1.0587 9.72667 0.832031 10 0.832031C12.8467 0.832031 15.1667 3.15203 15.1667 5.9987C15.1667 6.27203 14.94 6.4987 14.6667 6.4987Z" fill="white"/>
</svg>
