<svg width="26" height="27" viewBox="0 0 26 27" fill="none" xmlns="http://www.w3.org/2000/svg">
<path d="M13 17.5625C14.7949 17.5625 16.25 16.1074 16.25 14.3125C16.25 12.5176 14.7949 11.0625 13 11.0625C11.2051 11.0625 9.75 12.5176 9.75 14.3125C9.75 16.1074 11.2051 17.5625 13 17.5625Z" fill="white"/>
<path d="M21.9375 7.8125H18.9414C18.7891 7.8125 18.6002 7.71398 18.4529 7.55859L17.1356 5.47961C17.1148 5.44662 17.0915 5.41521 17.0661 5.38566C16.6111 4.855 15.9961 4.5625 15.3359 4.5625H10.6641C10.0039 4.5625 9.38895 4.855 8.93394 5.38566C8.90846 5.41521 8.88521 5.44662 8.86437 5.47961L7.54711 7.56164C7.43437 7.68453 7.27594 7.81555 7.10938 7.81555V7.4093C7.10938 7.19381 7.02377 6.98715 6.8714 6.83477C6.71903 6.6824 6.51236 6.5968 6.29688 6.5968H5.07812C4.86264 6.5968 4.65597 6.6824 4.5036 6.83477C4.35123 6.98715 4.26562 7.19381 4.26562 7.4093V7.81555H4.0625C3.41624 7.81622 2.79664 8.07324 2.33967 8.53022C1.8827 8.98719 1.62567 9.60679 1.625 10.253V20C1.62567 20.6463 1.8827 21.2659 2.33967 21.7228C2.79664 22.1798 3.41624 22.4368 4.0625 22.4375H21.9375C22.5838 22.4368 23.2034 22.1798 23.6603 21.7228C24.1173 21.2659 24.3743 20.6463 24.375 20V10.25C24.3743 9.60374 24.1173 8.98414 23.6603 8.52717C23.2034 8.07019 22.5838 7.81317 21.9375 7.8125ZM13 19.1875C12.0358 19.1875 11.0933 18.9016 10.2916 18.3659C9.4899 17.8302 8.86506 17.0689 8.49609 16.1781C8.12711 15.2873 8.03057 14.3071 8.21867 13.3614C8.40677 12.4158 8.87107 11.5471 9.55285 10.8654C10.2346 10.1836 11.1033 9.71927 12.0489 9.53117C12.9946 9.34307 13.9748 9.43961 14.8656 9.80859C15.7564 10.1776 16.5177 10.8024 17.0534 11.6041C17.5891 12.4058 17.875 13.3483 17.875 14.3125C17.8735 15.605 17.3594 16.8441 16.4455 17.758C15.5316 18.6719 14.2925 19.186 13 19.1875Z" fill="white"/>
</svg>
