<svg width="28" height="28" viewBox="0 0 28 28" fill="none" xmlns="http://www.w3.org/2000/svg">
<path d="M11.7927 13.0078H8.70108C7.96608 13.0078 7.37109 13.6028 7.37109 14.3378V20.3111H11.7927V13.0078V13.0078Z" stroke="#FD4D00" stroke-width="2" stroke-miterlimit="10" stroke-linecap="round" stroke-linejoin="round"/>
<path d="M14.8846 7.69922H13.1112C12.3762 7.69922 11.7812 8.29424 11.7812 9.02924V20.2993H16.2029V9.02924C16.2029 8.29424 15.6196 7.69922 14.8846 7.69922Z" stroke="#FD4D00" stroke-width="2" stroke-miterlimit="10" stroke-linecap="round" stroke-linejoin="round"/>
<path d="M19.3026 14.9922H16.2109V20.3006H20.6326V16.3222C20.6209 15.5872 20.0259 14.9922 19.3026 14.9922Z" stroke="#FD4D00" stroke-width="1.75" stroke-miterlimit="10" stroke-linecap="round" stroke-linejoin="round"/>
<path d="M10.4987 25.6654H17.4987C23.332 25.6654 25.6654 23.332 25.6654 17.4987V10.4987C25.6654 4.66536 23.332 2.33203 17.4987 2.33203H10.4987C4.66536 2.33203 2.33203 4.66536 2.33203 10.4987V17.4987C2.33203 23.332 4.66536 25.6654 10.4987 25.6654Z" stroke="#FD4D00" stroke-width="1.75" stroke-linecap="round" stroke-linejoin="round"/>
</svg>
