<svg width="42" height="42" viewBox="0 0 42 42" fill="none" xmlns="http://www.w3.org/2000/svg">
<g opacity="0.8">
<path d="M38.8549 17.2265C37.7065 16.375 36.2955 15.7499 34.8059 15.4127C34.5613 15.3577 34.3374 15.2343 34.1603 15.0568C33.9832 14.8793 33.8603 14.6551 33.8059 14.4103C33.1661 11.5597 31.7887 9.11521 29.7642 7.26294C27.4107 5.10634 24.2985 3.92017 21 3.92017C18.1002 3.92017 15.4219 4.82907 13.2587 6.54927C11.7927 7.71695 10.6126 9.20396 9.80848 10.8969C9.72129 11.0822 9.59199 11.2444 9.43089 11.3708C9.2698 11.4971 9.08138 11.584 8.8807 11.6245C6.68637 12.0675 4.70531 13.0084 3.19266 14.3414C1.10414 16.1871 0 18.6407 0 21.442C0 24.2738 1.18863 26.8561 3.34605 28.7231C5.40668 30.5024 8.18098 31.4827 11.1562 31.4827H19.6875V18.9015L16.6778 21.9113C16.5521 22.0369 16.4023 22.1357 16.2373 22.2017C16.0723 22.2677 15.8957 22.2996 15.718 22.2953C15.5404 22.291 15.3655 22.2506 15.2039 22.1767C15.0423 22.1028 14.8974 21.9969 14.7779 21.8653C14.3021 21.3428 14.3481 20.5282 14.8477 20.0286L20.0722 14.8049C20.3183 14.5589 20.6521 14.4208 21 14.4208C21.3479 14.4208 21.6817 14.5589 21.9278 14.8049L27.1523 20.027C27.6675 20.543 27.697 21.3887 27.1843 21.9063C27.0627 22.0292 26.918 22.1268 26.7585 22.1936C26.5991 22.2603 26.428 22.2949 26.2551 22.2954C26.0823 22.2958 25.911 22.2621 25.7512 22.1962C25.5914 22.1303 25.4461 22.0335 25.3239 21.9113L22.3125 18.9015V31.4827H32.4844C35.0552 31.4827 37.3989 30.7608 39.0838 29.4508C40.9918 27.966 42 25.8414 42 23.3124C42 20.8563 40.9123 18.7506 38.8549 17.2265Z" fill="white"/>
<path d="M19.6875 36.7671C19.6875 37.1152 19.8258 37.4491 20.0719 37.6952C20.3181 37.9413 20.6519 38.0796 21 38.0796C21.3481 38.0796 21.6819 37.9413 21.9281 37.6952C22.1742 37.4491 22.3125 37.1152 22.3125 36.7671V31.4827H19.6875V36.7671Z" fill="white"/>
</g>
</svg>
