<svg width="16" height="17" viewBox="0 0 16 17" fill="none" xmlns="http://www.w3.org/2000/svg">
<path d="M7.22634 9.35948H6.22634C5.45967 9.35948 4.83967 8.71948 4.83967 7.92615C4.83967 7.65281 5.06634 7.42615 5.33967 7.42615C5.61301 7.42615 5.83967 7.65281 5.83967 7.92615C5.83967 8.16615 6.01301 8.35948 6.22634 8.35948H7.22634C7.37967 8.35948 7.49967 8.21948 7.49967 8.04615C7.49967 7.81281 7.45967 7.79948 7.30634 7.74615L5.69967 7.18615C5.11967 6.98615 4.83301 6.57948 4.83301 5.94615C4.83301 5.22615 5.40634 4.63281 6.10634 4.63281H7.10634C7.87301 4.63281 8.49301 5.27281 8.49301 6.06615C8.49301 6.33948 8.26634 6.56615 7.99301 6.56615C7.71967 6.56615 7.49301 6.33948 7.49301 6.06615C7.49301 5.82615 7.31967 5.63281 7.10634 5.63281H6.10634C5.95301 5.63281 5.83301 5.77281 5.83301 5.94615C5.83301 6.17948 5.87301 6.19281 6.02634 6.24615L7.63301 6.80615C8.21301 7.01281 8.49301 7.41948 8.49301 8.04615C8.49967 8.77281 7.92634 9.35948 7.22634 9.35948Z" fill="#FD4D00"/>
<path d="M6.66699 9.89177C6.39366 9.89177 6.16699 9.6651 6.16699 9.39177V8.89844C6.16699 8.6251 6.39366 8.39844 6.66699 8.39844C6.94033 8.39844 7.16699 8.6251 7.16699 8.89844V9.39177C7.16699 9.67177 6.94033 9.89177 6.66699 9.89177Z" fill="#FD4D00"/>
<path d="M6.66699 5.62547C6.39366 5.62547 6.16699 5.3988 6.16699 5.12547V4.60547C6.16699 4.33214 6.39366 4.10547 6.66699 4.10547C6.94033 4.10547 7.16699 4.33214 7.16699 4.60547V5.12547C7.16699 5.3988 6.94033 5.62547 6.66699 5.62547Z" fill="#FD4D00"/>
<path d="M6.65967 12.8135C3.44634 12.8135 0.833008 10.2002 0.833008 6.98682C0.833008 3.77349 3.44634 1.16016 6.65967 1.16016C9.87301 1.16016 12.4863 3.77349 12.4863 6.98682C12.4863 10.2002 9.86634 12.8135 6.65967 12.8135ZM6.65967 2.16682C3.99967 2.16682 1.83301 4.33349 1.83301 6.99349C1.83301 9.65349 3.99967 11.8135 6.65967 11.8135C9.31967 11.8135 11.4863 9.64682 11.4863 6.98682C11.4863 4.32682 9.31967 2.16682 6.65967 2.16682Z" fill="#FD4D00"/>
<path d="M11.3464 15.4789C10.113 15.4789 8.95302 14.8789 8.23969 13.8656C8.07969 13.6389 8.13302 13.3256 8.35969 13.1656C8.58636 13.0056 8.89969 13.0589 9.05969 13.2856C9.58636 14.0322 10.4397 14.4722 11.3464 14.4722C12.893 14.4722 14.1464 13.2189 14.1464 11.6722C14.1464 10.7722 13.7064 9.91889 12.973 9.39222C12.7464 9.23222 12.6997 8.91889 12.8597 8.69222C13.0197 8.46555 13.333 8.41889 13.5597 8.57889C14.553 9.29222 15.1464 10.4456 15.1464 11.6722C15.1464 13.7789 13.4464 15.4789 11.3464 15.4789Z" fill="#FD4D00"/>
</svg>
