<svg width="16" height="16" viewBox="0 0 16 16" fill="none" xmlns="http://www.w3.org/2000/svg">
<mask id="path-1-inside-1_2916_101667" fill="white">
<path d="M2.61943 11.0861C2.49276 11.0861 2.36609 11.0394 2.26609 10.9394C2.07276 10.7461 2.07276 10.4261 2.26609 10.2328L10.2328 2.26609C10.4261 2.07276 10.7461 2.07276 10.9394 2.26609C11.1328 2.45943 11.1328 2.77943 10.9394 2.97276L2.97276 10.9461C2.87943 11.0394 2.74609 11.0861 2.61943 11.0861Z"/>
</mask>
<path d="M2.61943 11.0861C2.49276 11.0861 2.36609 11.0394 2.26609 10.9394C2.07276 10.7461 2.07276 10.4261 2.26609 10.2328L10.2328 2.26609C10.4261 2.07276 10.7461 2.07276 10.9394 2.26609C11.1328 2.45943 11.1328 2.77943 10.9394 2.97276L2.97276 10.9461C2.87943 11.0394 2.74609 11.0861 2.61943 11.0861Z" fill="white"/>
<path d="M10.9394 2.97276L9.87877 1.9121L9.87832 1.91254L10.9394 2.97276ZM2.97276 10.9461L4.03342 12.0068L4.03386 12.0063L2.97276 10.9461ZM2.61943 9.58609C2.86912 9.58609 3.13062 9.68264 3.32675 9.87877L1.20543 12.0001C1.60156 12.3962 2.11641 12.5861 2.61943 12.5861V9.58609ZM3.32675 9.87877C3.71921 10.2712 3.71921 10.901 3.32675 11.2934L1.20543 9.1721C0.426314 9.95122 0.426314 11.221 1.20543 12.0001L3.32675 9.87877ZM3.32675 11.2934L11.2934 3.32675L9.1721 1.20543L1.20543 9.1721L3.32675 11.2934ZM11.2934 3.32675C10.901 3.71921 10.2712 3.71921 9.87877 3.32675L12.0001 1.20543C11.221 0.426314 9.95122 0.426314 9.1721 1.20543L11.2934 3.32675ZM9.87877 3.32675C9.48631 2.9343 9.48631 2.30455 9.87877 1.9121L12.0001 4.03342C12.7792 3.2543 12.7792 1.98455 12.0001 1.20543L9.87877 3.32675ZM9.87832 1.91254L1.91166 9.88588L4.03386 12.0063L12.0005 4.03298L9.87832 1.91254ZM1.9121 9.88543C2.13926 9.65828 2.40734 9.58609 2.61943 9.58609V12.5861C3.08485 12.5861 3.6196 12.4206 4.03342 12.0068L1.9121 9.88543Z" fill="white" mask="url(#path-1-inside-1_2916_101667)"/>
<mask id="path-3-inside-2_2916_101667" fill="white">
<path d="M7.40068 12.6851C7.27401 12.6851 7.14734 12.6384 7.04734 12.5384C6.85401 12.3451 6.85401 12.0251 7.04734 11.8317L7.84734 11.0317C8.04068 10.8384 8.36068 10.8384 8.55401 11.0317C8.74734 11.2251 8.74734 11.5451 8.55401 11.7384L7.75401 12.5384C7.66068 12.6317 7.53401 12.6851 7.40068 12.6851Z"/>
</mask>
<path d="M7.40068 12.6851C7.27401 12.6851 7.14734 12.6384 7.04734 12.5384C6.85401 12.3451 6.85401 12.0251 7.04734 11.8317L7.84734 11.0317C8.04068 10.8384 8.36068 10.8384 8.55401 11.0317C8.74734 11.2251 8.74734 11.5451 8.55401 11.7384L7.75401 12.5384C7.66068 12.6317 7.53401 12.6851 7.40068 12.6851Z" fill="white"/>
<path d="M8.55401 11.7384L9.61467 12.799L9.61467 12.799L8.55401 11.7384ZM7.75401 12.5384L6.69335 11.4777L6.69335 11.4777L7.75401 12.5384ZM7.40068 11.1851C7.65037 11.1851 7.91188 11.2816 8.108 11.4777L5.98668 13.599C6.38281 13.9952 6.89765 14.1851 7.40068 14.1851V11.1851ZM8.108 11.4777C8.50046 11.8702 8.50046 12.4999 8.108 12.8924L5.98668 10.7711C5.20756 11.5502 5.20756 12.8199 5.98668 13.599L8.108 11.4777ZM8.108 12.8924L8.908 12.0924L6.78668 9.97106L5.98668 10.7711L8.108 12.8924ZM8.908 12.0924C8.51555 12.4848 7.8858 12.4848 7.49335 12.0924L9.61467 9.97106C8.83555 9.19194 7.5658 9.19194 6.78668 9.97106L8.908 12.0924ZM7.49335 12.0924C7.1009 11.6999 7.1009 11.0702 7.49335 10.6777L9.61467 12.799C10.3938 12.0199 10.3938 10.7502 9.61467 9.97106L7.49335 12.0924ZM7.49335 10.6777L6.69335 11.4777L8.81467 13.599L9.61467 12.799L7.49335 10.6777ZM6.69335 11.4777C6.87811 11.293 7.13166 11.1851 7.40068 11.1851V14.1851C7.93636 14.1851 8.44325 13.9705 8.81467 13.599L6.69335 11.4777Z" fill="white" mask="url(#path-3-inside-2_2916_101667)"/>
<mask id="path-5-inside-3_2916_101667" fill="white">
<path d="M9.19365 10.8924C9.06698 10.8924 8.94031 10.8458 8.84031 10.7458C8.64698 10.5524 8.64698 10.2324 8.84031 10.0391L10.4336 8.44578C10.627 8.25245 10.947 8.25245 11.1403 8.44578C11.3336 8.63911 11.3336 8.95911 11.1403 9.15245L9.54698 10.7458C9.45365 10.8391 9.32031 10.8924 9.19365 10.8924Z"/>
</mask>
<path d="M9.19365 10.8924C9.06698 10.8924 8.94031 10.8458 8.84031 10.7458C8.64698 10.5524 8.64698 10.2324 8.84031 10.0391L10.4336 8.44578C10.627 8.25245 10.947 8.25245 11.1403 8.44578C11.3336 8.63911 11.3336 8.95911 11.1403 9.15245L9.54698 10.7458C9.45365 10.8391 9.32031 10.8924 9.19365 10.8924Z" fill="white"/>
<path d="M8.84031 10.0391L9.90097 11.0998L9.90097 11.0998L8.84031 10.0391ZM10.4336 8.44578L9.37299 7.38512L9.37299 7.38512L10.4336 8.44578ZM11.1403 9.15245L10.0797 8.09179L10.0797 8.09179L11.1403 9.15245ZM9.54698 10.7458L10.6076 11.8064L10.6076 11.8064L9.54698 10.7458ZM9.19365 9.39245C9.44333 9.39245 9.70484 9.48899 9.90097 9.68512L7.77965 11.8064C8.17578 12.2026 8.69062 12.3924 9.19365 12.3924V9.39245ZM9.90097 9.68512C10.2934 10.0776 10.2934 10.7073 9.90097 11.0998L7.77965 8.97845C7.00053 9.75757 7.00053 11.0273 7.77965 11.8064L9.90097 9.68512ZM9.90097 11.0998L11.4943 9.50644L9.37299 7.38512L7.77965 8.97845L9.90097 11.0998ZM11.4943 9.50644C11.1019 9.89889 10.4721 9.89889 10.0797 9.50644L12.201 7.38512C11.4219 6.606 10.1521 6.606 9.37299 7.38512L11.4943 9.50644ZM10.0797 9.50644C9.6872 9.11399 9.6872 8.48424 10.0797 8.09179L12.201 10.2131C12.9801 9.43399 12.9801 8.16424 12.201 7.38512L10.0797 9.50644ZM10.0797 8.09179L8.48632 9.68512L10.6076 11.8064L12.201 10.2131L10.0797 8.09179ZM8.48632 9.68512C8.67854 9.4929 8.92853 9.39245 9.19365 9.39245V12.3924C9.71209 12.3924 10.2288 12.1853 10.6076 11.8064L8.48632 9.68512Z" fill="white" mask="url(#path-5-inside-3_2916_101667)"/>
<mask id="path-7-inside-4_2916_101667" fill="white">
<path d="M7.39929 15.166C6.74596 15.166 6.09262 14.766 5.29929 13.9726L2.02596 10.6993C0.432625 9.10596 0.439292 8.07929 2.04596 6.47263L6.47262 2.04596C8.07929 0.439292 9.10596 0.432625 10.6993 2.02596L13.9726 5.29929C15.566 6.89263 15.5593 7.91929 13.9526 9.52596L9.52596 13.9526C8.71929 14.7593 8.05929 15.166 7.39929 15.166ZM8.59929 1.83263C8.25262 1.83263 7.81262 2.11929 7.17929 2.75263L2.75262 7.17929C2.11929 7.81263 1.83263 8.25263 1.83263 8.59263C1.83263 8.93929 2.09929 9.35929 2.73262 9.99263L6.00596 13.266C6.63929 13.8993 7.05263 14.166 7.39929 14.166C7.39929 14.166 7.39929 14.166 7.40596 14.166C7.75262 14.166 8.18596 13.8793 8.81929 13.246L13.246 8.81929C13.8793 8.18596 14.166 7.74596 14.166 7.40596C14.166 7.05929 13.8993 6.63929 13.266 6.00596L9.99262 2.73263C9.36596 2.09929 8.94596 1.83263 8.59929 1.83263Z"/>
</mask>
<path d="M7.39929 15.166C6.74596 15.166 6.09262 14.766 5.29929 13.9726L2.02596 10.6993C0.432625 9.10596 0.439292 8.07929 2.04596 6.47263L6.47262 2.04596C8.07929 0.439292 9.10596 0.432625 10.6993 2.02596L13.9726 5.29929C15.566 6.89263 15.5593 7.91929 13.9526 9.52596L9.52596 13.9526C8.71929 14.7593 8.05929 15.166 7.39929 15.166ZM8.59929 1.83263C8.25262 1.83263 7.81262 2.11929 7.17929 2.75263L2.75262 7.17929C2.11929 7.81263 1.83263 8.25263 1.83263 8.59263C1.83263 8.93929 2.09929 9.35929 2.73262 9.99263L6.00596 13.266C6.63929 13.8993 7.05263 14.166 7.39929 14.166C7.39929 14.166 7.39929 14.166 7.40596 14.166C7.75262 14.166 8.18596 13.8793 8.81929 13.246L13.246 8.81929C13.8793 8.18596 14.166 7.74596 14.166 7.40596C14.166 7.05929 13.8993 6.63929 13.266 6.00596L9.99262 2.73263C9.36596 2.09929 8.94596 1.83263 8.59929 1.83263Z" fill="white"/>
<path d="M2.04596 6.47263L0.985298 5.41197L2.04596 6.47263ZM2.73262 9.99263L1.67196 11.0533H1.67196L2.73262 9.99263ZM6.00596 13.266L7.06662 12.2053L6.00596 13.266ZM13.266 6.00596L12.2053 7.06662L13.266 6.00596ZM9.99262 2.73263L8.92635 3.78767L8.93196 3.79329L9.99262 2.73263ZM7.39929 13.666C7.3831 13.666 7.10541 13.6574 6.35995 12.912L4.23863 15.0333C5.07984 15.8745 6.10881 16.666 7.39929 16.666V13.666ZM6.35995 12.912L3.08662 9.63863L0.965298 11.76L4.23863 15.0333L6.35995 12.912ZM3.08662 9.63863C2.34136 8.89338 2.33585 8.61613 2.33594 8.59857C2.33606 8.57468 2.35088 8.28902 3.10662 7.53329L0.985298 5.41197C0.134367 6.2629 -0.657477 7.2939 -0.664022 8.58334C-0.6706 9.87912 0.117219 10.9119 0.965298 11.76L3.08662 9.63863ZM3.10662 7.53329L7.53329 3.10662L5.41196 0.985298L0.985298 5.41197L3.10662 7.53329ZM7.53329 3.10662C8.28902 2.35088 8.57468 2.33606 8.59857 2.33594C8.61613 2.33585 8.89338 2.34136 9.63863 3.08662L11.76 0.965298C10.9119 0.117219 9.87912 -0.6706 8.58334 -0.664022C7.2939 -0.657477 6.2629 0.134367 5.41196 0.985298L7.53329 3.10662ZM9.63863 3.08662L12.912 6.35995L15.0333 4.23863L11.76 0.965298L9.63863 3.08662ZM12.912 6.35995C13.6572 7.10521 13.6627 7.38246 13.6626 7.40001C13.6625 7.4239 13.6477 7.70956 12.892 8.4653L15.0133 10.5866C15.8642 9.73569 16.6561 8.70468 16.6626 7.41524C16.6692 6.11946 15.8814 5.08671 15.0333 4.23863L12.912 6.35995ZM12.892 8.4653L8.4653 12.892L10.5866 15.0133L15.0133 10.5866L12.892 8.4653ZM8.4653 12.892C7.70253 13.6547 7.41927 13.666 7.39929 13.666V16.666C8.69932 16.666 9.73605 15.8639 10.5866 15.0133L8.4653 12.892ZM8.59929 0.332625C8.01569 0.332625 7.52995 0.569981 7.18042 0.796739C6.82075 1.03008 6.46721 1.34339 6.11863 1.69197L8.23995 3.81329C8.52471 3.52853 8.70784 3.38184 8.81316 3.31351C8.92863 3.2386 8.83623 3.33263 8.59929 3.33263V0.332625ZM6.11863 1.69197L1.69196 6.11863L3.81329 8.23995L8.23995 3.81329L6.11863 1.69197ZM1.69196 6.11863C1.34322 6.46738 1.03078 6.82011 0.79808 7.17752C0.57379 7.52201 0.332625 8.00781 0.332625 8.59263H3.33262C3.33262 8.72019 3.30558 8.80704 3.29338 8.83988C3.28202 8.87045 3.28017 8.86354 3.31217 8.81439C3.38113 8.70847 3.5287 8.52454 3.81329 8.23995L1.69196 6.11863ZM0.332625 8.59263C0.332625 9.16009 0.551906 9.6352 0.782306 9.99463C1.01278 10.3542 1.32409 10.7054 1.67196 11.0533L3.79329 8.93196C3.50782 8.6465 3.36914 8.47109 3.30794 8.37563C3.24668 8.28005 3.33262 8.37183 3.33262 8.59263H0.332625ZM1.67196 11.0533L4.9453 14.3266L7.06662 12.2053L3.79329 8.93196L1.67196 11.0533ZM4.9453 14.3266C5.29076 14.6721 5.63955 14.9831 5.99641 15.2136C6.35458 15.4449 6.8294 15.666 7.39929 15.666V12.666C7.62251 12.666 7.71734 12.7537 7.62385 12.6934C7.52904 12.6321 7.35449 12.4932 7.06662 12.2053L4.9453 14.3266ZM7.39929 14.166C7.39929 12.666 7.39929 14.166 7.39929 15.666H7.39929H7.39929C7.39929 15.666 7.39929 15.666 7.39929 15.666C7.39929 15.666 7.39929 15.666 7.39929 15.666H7.39929C7.39929 15.666 7.39929 15.666 7.39929 15.666C7.39929 15.666 7.39929 15.666 7.39929 15.666C7.3993 15.666 7.3993 15.666 7.3993 15.666C7.3993 15.666 7.3993 15.666 7.3993 15.666C7.3993 15.666 7.3993 15.666 7.3993 15.666C7.3993 15.666 7.3993 15.666 7.3993 15.666C7.3993 15.666 7.3993 15.666 7.3993 15.666C7.3993 15.666 7.3993 15.666 7.3993 15.666H7.3993H7.3993C7.3993 15.666 7.3993 15.666 7.3993 15.666C7.3993 15.666 7.3993 15.666 7.3993 15.666C7.3993 15.666 7.3993 15.666 7.3993 15.666C7.3993 15.666 7.3993 15.666 7.3993 15.666C7.3993 15.666 7.3993 15.666 7.3993 15.666C7.3993 15.666 7.3993 15.666 7.3993 15.666C7.3993 15.666 7.3993 15.666 7.3993 15.666C7.3993 15.666 7.3993 15.666 7.3993 15.666H7.3993H7.3993C7.3993 15.666 7.3993 15.666 7.3993 15.666C7.3993 15.666 7.3993 15.666 7.39931 15.666H7.39931C7.39931 15.666 7.39931 15.666 7.39931 15.666C7.39931 15.666 7.39931 15.666 7.39931 15.666H7.39931C7.39931 15.666 7.39931 15.666 7.39931 15.666H7.39931C7.39931 15.666 7.39931 15.666 7.39931 15.666C7.39931 15.666 7.39931 15.666 7.39931 15.666H7.39931C7.39931 15.666 7.39931 15.666 7.39931 15.666C7.39931 15.666 7.39931 15.666 7.39931 15.666C7.39931 15.666 7.39931 15.666 7.39931 15.666C7.39931 15.666 7.39931 15.666 7.39932 15.666H7.39932C7.39932 15.666 7.39932 15.666 7.39932 15.666C7.39932 15.666 7.39932 15.666 7.39932 15.666C7.39932 15.666 7.39932 15.666 7.39932 15.666C7.39932 15.666 7.39932 15.666 7.39932 15.666C7.39932 15.666 7.39932 15.666 7.39932 15.666C7.39932 15.666 7.39932 15.666 7.39932 15.666C7.39932 15.666 7.39932 15.666 7.39932 15.666C7.39932 15.666 7.39932 15.666 7.39932 15.666C7.39932 15.666 7.39932 15.666 7.39933 15.666C7.39933 15.666 7.39933 15.666 7.39933 15.666C7.39933 15.666 7.39933 15.666 7.39933 15.666C7.39933 15.666 7.39933 15.666 7.39933 15.666C7.39933 15.666 7.39933 15.666 7.39933 15.666C7.39933 15.666 7.39933 15.666 7.39933 15.666C7.39933 15.666 7.39933 15.666 7.39933 15.666C7.39933 15.666 7.39933 15.666 7.39933 15.666C7.39933 15.666 7.39933 15.666 7.39934 15.666C7.39934 15.666 7.39934 15.666 7.39934 15.666C7.39934 15.666 7.39934 15.666 7.39934 15.666C7.39934 15.666 7.39934 15.666 7.39934 15.666C7.39934 15.666 7.39934 15.666 7.39934 15.666C7.39934 15.666 7.39934 15.666 7.39934 15.666C7.39934 15.666 7.39934 15.666 7.39934 15.666C7.39934 15.666 7.39935 15.666 7.39935 15.666C7.39935 15.666 7.39935 15.666 7.39935 15.666C7.39935 15.666 7.39935 15.666 7.39935 15.666C7.39935 15.666 7.39935 15.666 7.39935 15.666C7.39935 15.666 7.39935 15.666 7.39935 15.666C7.39935 15.666 7.39935 15.666 7.39935 15.666C7.39935 15.666 7.39936 15.666 7.39936 15.666C7.39936 15.666 7.39936 15.666 7.39936 15.666C7.39936 15.666 7.39936 15.666 7.39936 15.666C7.39936 15.666 7.39936 15.666 7.39936 15.666C7.39936 15.666 7.39936 15.666 7.39936 15.666C7.39936 15.666 7.39936 15.666 7.39936 15.666C7.39937 15.666 7.39937 15.666 7.39937 15.666C7.39937 15.666 7.39937 15.666 7.39937 15.666C7.39937 15.666 7.39937 15.666 7.39937 15.666C7.39937 15.666 7.39937 15.666 7.39937 15.666C7.39937 15.666 7.39937 15.666 7.39938 15.666C7.39938 15.666 7.39938 15.666 7.39938 15.666C7.39938 15.666 7.39938 15.666 7.39938 15.666C7.39938 15.666 7.39938 15.666 7.39938 15.666C7.39938 15.666 7.39938 15.666 7.39938 15.666C7.39938 15.666 7.39939 15.666 7.39939 15.666C7.39939 15.666 7.39939 15.666 7.39939 15.666C7.39939 15.666 7.39939 15.666 7.39939 15.666C7.39939 15.666 7.39939 15.666 7.39939 15.666C7.39939 15.666 7.39939 15.666 7.3994 15.666C7.3994 15.666 7.3994 15.666 7.3994 15.666C7.3994 15.666 7.3994 15.666 7.3994 15.666C7.3994 15.666 7.3994 15.666 7.3994 15.666C7.3994 15.666 7.39941 15.666 7.39941 15.666C7.39941 15.666 7.39941 15.666 7.39941 15.666C7.39941 15.666 7.39941 15.666 7.39941 15.666C7.39941 15.666 7.39941 15.666 7.39941 15.666C7.39941 15.666 7.39942 15.666 7.39942 15.666C7.39942 15.666 7.39942 15.666 7.39942 15.666C7.39942 15.666 7.39942 15.666 7.39942 15.666C7.39942 15.666 7.39942 15.666 7.39943 15.666C7.39943 15.666 7.39943 15.666 7.39943 15.666C7.39943 15.666 7.39943 15.666 7.39943 15.666C7.39943 15.666 7.39943 15.666 7.39943 15.666C7.39943 15.666 7.39944 15.666 7.39944 15.666C7.39944 15.666 7.39944 15.666 7.39944 15.666C7.39944 15.666 7.39944 15.666 7.39944 15.666C7.39944 15.666 7.39945 15.666 7.39945 15.666C7.39945 15.666 7.39945 15.666 7.39945 15.666C7.39945 15.666 7.39945 15.666 7.39945 15.666C7.39945 15.666 7.39945 15.666 7.39946 15.666C7.39946 15.666 7.39946 15.666 7.39946 15.666C7.39946 15.666 7.39946 15.666 7.39946 15.666C7.39946 15.666 7.39946 15.666 7.39947 15.666C7.39947 15.666 7.39947 15.666 7.39947 15.666C7.39947 15.666 7.39947 15.666 7.39947 15.666C7.39947 15.666 7.39948 15.666 7.39948 15.666C7.39948 15.666 7.39948 15.666 7.39948 15.666C7.39948 15.666 7.39948 15.666 7.39948 15.666C7.39949 15.666 7.39949 15.666 7.39949 15.666C7.39949 15.666 7.39949 15.666 7.39949 15.666C7.39949 15.666 7.39949 15.666 7.3995 15.666C7.3995 15.666 7.3995 15.666 7.3995 15.666C7.3995 15.666 7.3995 15.666 7.3995 15.666C7.3995 15.666 7.39951 15.666 7.39951 15.666C7.39951 15.666 7.39951 15.666 7.39951 15.666C7.39951 15.666 7.39951 15.666 7.39951 15.666C7.39952 15.666 7.39952 15.666 7.39952 15.666C7.39952 15.666 7.39952 15.666 7.39952 15.666C7.39952 15.666 7.39953 15.666 7.39953 15.666C7.39953 15.666 7.39953 15.666 7.39953 15.666C7.39953 15.666 7.39953 15.666 7.39954 15.666C7.39954 15.666 7.39954 15.666 7.39954 15.666C7.39954 15.666 7.39954 15.666 7.39954 15.666C7.39955 15.666 7.39955 15.666 7.39955 15.666C7.39955 15.666 7.39955 15.666 7.39955 15.666C7.39955 15.666 7.39956 15.666 7.39956 15.666C7.39956 15.666 7.39956 15.666 7.39956 15.666C7.39956 15.666 7.39957 15.666 7.39957 15.666C7.39957 15.666 7.39957 15.666 7.39957 15.666C7.39957 15.666 7.39957 15.666 7.39958 15.666C7.39958 15.666 7.39958 15.666 7.39958 15.666C7.39958 15.666 7.39958 15.666 7.39959 15.666C7.39959 15.666 7.39959 15.666 7.39959 15.666C7.39959 15.666 7.39959 15.666 7.3996 15.666C7.3996 15.666 7.3996 15.666 7.3996 15.666C7.3996 15.666 7.3996 15.666 7.39961 15.666C7.39961 15.666 7.39961 15.666 7.39961 15.666C7.39961 15.666 7.39961 15.666 7.39962 15.666C7.39962 15.666 7.39962 15.666 7.39962 15.666C7.39962 15.666 7.39962 15.666 7.39963 15.666C7.39963 15.666 7.39963 15.666 7.39963 15.666C7.39963 15.666 7.39964 15.666 7.39964 15.666C7.39964 15.666 7.39964 15.666 7.39964 15.666C7.39964 15.666 7.39965 15.666 7.39965 15.666C7.39965 15.666 7.39965 15.666 7.39965 15.666C7.39966 15.666 7.39966 15.666 7.39966 15.666C7.39966 15.666 7.39966 15.666 7.39967 15.666C7.39967 15.666 7.39967 15.666 7.39967 15.666C7.39967 15.666 7.39967 15.666 7.39968 15.666C7.39968 15.666 7.39968 15.666 7.39968 15.666C7.39968 15.666 7.39969 15.666 7.39969 15.666C7.39969 15.666 7.39969 15.666 7.39969 15.666C7.3997 15.666 7.3997 15.666 7.3997 15.666C7.3997 15.666 7.3997 15.666 7.39971 15.666C7.39971 15.666 7.39971 15.666 7.39971 15.666C7.39971 15.666 7.39972 15.666 7.39972 15.666C7.39972 15.666 7.39972 15.666 7.39973 15.666C7.39973 15.666 7.39973 15.666 7.39973 15.666C7.39973 15.666 7.39974 15.666 7.39974 15.666C7.39974 15.666 7.39974 15.666 7.39974 15.666C7.39975 15.666 7.39975 15.666 7.39975 15.666C7.39975 15.666 7.39976 15.666 7.39976 15.666C7.39976 15.666 7.39976 15.666 7.39976 15.666C7.39977 15.666 7.39977 15.666 7.39977 15.666C7.39977 15.666 7.39978 15.666 7.39978 15.666C7.39978 15.666 7.39978 15.666 7.39979 15.666C7.39979 15.666 7.39979 15.666 7.39979 15.666C7.39979 15.666 7.3998 15.666 7.3998 15.666C7.3998 15.666 7.3998 15.666 7.39981 15.666C7.39981 15.666 7.39981 15.666 7.39981 15.666C7.39982 15.666 7.39982 15.666 7.39982 15.666C7.39982 15.666 7.39983 15.666 7.39983 15.666C7.39983 15.666 7.39983 15.666 7.39983 15.666C7.39984 15.666 7.39984 15.666 7.39984 15.666C7.39984 15.666 7.39985 15.666 7.39985 15.666C7.39985 15.666 7.39985 15.666 7.39986 15.666C7.39986 15.666 7.39986 15.666 7.39986 15.666C7.39987 15.666 7.39987 15.666 7.39987 15.666C7.39988 15.666 7.39988 15.666 7.39988 15.666C7.39988 15.666 7.39989 15.666 7.39989 15.666C7.39989 15.666 7.39989 15.666 7.3999 15.666C7.3999 15.666 7.3999 15.666 7.3999 15.666C7.39991 15.666 7.39991 15.666 7.39991 15.666C7.39991 15.666 7.39992 15.666 7.39992 15.666C7.39992 15.666 7.39993 15.666 7.39993 15.666C7.39993 15.666 7.39993 15.666 7.39994 15.666C7.39994 15.666 7.39994 15.666 7.39994 15.666C7.39995 15.666 7.39995 15.666 7.39995 15.666C7.39996 15.666 7.39996 15.666 7.39996 15.666C7.39996 15.666 7.39997 15.666 7.39997 15.666C7.39997 15.666 7.39998 15.666 7.39998 15.666C7.39998 15.666 7.39998 15.666 7.39999 15.666C7.39999 15.666 7.39999 15.666 7.4 15.666C7.4 15.666 7.4 15.666 7.4 15.666C7.40001 15.666 7.40001 15.666 7.40001 15.666C7.40002 15.666 7.40002 15.666 7.40002 15.666C7.40002 15.666 7.40003 15.666 7.40003 15.666C7.40003 15.666 7.40004 15.666 7.40004 15.666C7.40004 15.666 7.40005 15.666 7.40005 15.666C7.40005 15.666 7.40005 15.666 7.40006 15.666C7.40006 15.666 7.40006 15.666 7.40007 15.666C7.40007 15.666 7.40007 15.666 7.40008 15.666C7.40008 15.666 7.40008 15.666 7.40009 15.666C7.40009 15.666 7.40009 15.666 7.4001 15.666C7.4001 15.666 7.4001 15.666 7.40011 15.666C7.40011 15.666 7.40011 15.666 7.40012 15.666C7.40012 15.666 7.40012 15.666 7.40012 15.666C7.40013 15.666 7.40013 15.666 7.40013 15.666C7.40014 15.666 7.40014 15.666 7.40014 15.666C7.40015 15.666 7.40015 15.666 7.40015 15.666C7.40016 15.666 7.40016 15.666 7.40016 15.666C7.40017 15.666 7.40017 15.666 7.40017 15.666C7.40018 15.666 7.40018 15.666 7.40018 15.666C7.40019 15.666 7.40019 15.666 7.4002 15.666C7.4002 15.666 7.4002 15.666 7.40021 15.666C7.40021 15.666 7.40021 15.666 7.40022 15.666C7.40022 15.666 7.40022 15.666 7.40023 15.666C7.40023 15.666 7.40023 15.666 7.40024 15.666C7.40024 15.666 7.40024 15.666 7.40025 15.666C7.40025 15.666 7.40025 15.666 7.40026 15.666C7.40026 15.666 7.40027 15.666 7.40027 15.666C7.40027 15.666 7.40028 15.666 7.40028 15.666C7.40028 15.666 7.40029 15.666 7.40029 15.666C7.40029 15.666 7.4003 15.666 7.4003 15.666C7.40031 15.666 7.40031 15.666 7.40031 15.666C7.40032 15.666 7.40032 15.666 7.40032 15.666C7.40033 15.666 7.40033 15.666 7.40034 15.666C7.40034 15.666 7.40034 15.666 7.40035 15.666C7.40035 15.666 7.40035 15.666 7.40036 15.666C7.40036 15.666 7.40037 15.666 7.40037 15.666C7.40037 15.666 7.40038 15.666 7.40038 15.666C7.40039 15.666 7.40039 15.666 7.40039 15.666C7.4004 15.666 7.4004 15.666 7.40041 15.666C7.40041 15.666 7.40041 15.666 7.40042 15.666C7.40042 15.666 7.40042 15.666 7.40043 15.666C7.40043 15.666 7.40044 15.666 7.40044 15.666C7.40044 15.666 7.40045 15.666 7.40045 15.666C7.40046 15.666 7.40046 15.666 7.40047 15.666C7.40047 15.666 7.40047 15.666 7.40048 15.666C7.40048 15.666 7.40049 15.666 7.40049 15.666C7.40049 15.666 7.4005 15.666 7.4005 15.666C7.40051 15.666 7.40051 15.666 7.40052 15.666C7.40052 15.666 7.40052 15.666 7.40053 15.666C7.40053 15.666 7.40054 15.666 7.40054 15.666C7.40055 15.666 7.40055 15.666 7.40055 15.666C7.40056 15.666 7.40056 15.666 7.40057 15.666C7.40057 15.666 7.40058 15.666 7.40058 15.666C7.40058 15.666 7.40059 15.666 7.40059 15.666C7.4006 15.666 7.4006 15.666 7.40061 15.666C7.40061 15.666 7.40061 15.666 7.40062 15.666C7.40062 15.666 7.40063 15.666 7.40063 15.666C7.40064 15.666 7.40064 15.666 7.40065 15.666C7.40065 15.666 7.40065 15.666 7.40066 15.666C7.40066 15.666 7.40067 15.666 7.40067 15.666C7.40068 15.666 7.40068 15.666 7.40069 15.666C7.40069 15.666 7.4007 15.666 7.4007 15.666C7.40071 15.666 7.40071 15.666 7.40071 15.666C7.40072 15.666 7.40072 15.666 7.40073 15.666C7.40073 15.666 7.40074 15.666 7.40074 15.666C7.40075 15.666 7.40075 15.666 7.40076 15.666C7.40076 15.666 7.40077 15.666 7.40077 15.666C7.40078 15.666 7.40078 15.666 7.40079 15.666C7.40079 15.666 7.40079 15.666 7.4008 15.666C7.4008 15.666 7.40081 15.666 7.40081 15.666C7.40082 15.666 7.40082 15.666 7.40083 15.666C7.40083 15.666 7.40084 15.666 7.40084 15.666C7.40085 15.666 7.40085 15.666 7.40086 15.666C7.40086 15.666 7.40087 15.666 7.40087 15.666C7.40088 15.666 7.40088 15.666 7.40089 15.666C7.40089 15.666 7.4009 15.666 7.4009 15.666C7.40091 15.666 7.40091 15.666 7.40092 15.666C7.40092 15.666 7.40093 15.666 7.40093 15.666C7.40094 15.666 7.40094 15.666 7.40095 15.666C7.40095 15.666 7.40096 15.666 7.40097 15.666C7.40097 15.666 7.40098 15.666 7.40098 15.666C7.40099 15.666 7.40099 15.666 7.401 15.666C7.401 15.666 7.40101 15.666 7.40101 15.666C7.40102 15.666 7.40102 15.666 7.40103 15.666C7.40103 15.666 7.40104 15.666 7.40104 15.666C7.40105 15.666 7.40105 15.666 7.40106 15.666C7.40107 15.666 7.40107 15.666 7.40108 15.666C7.40108 15.666 7.40109 15.666 7.40109 15.666C7.4011 15.666 7.4011 15.666 7.40111 15.666C7.40111 15.666 7.40112 15.666 7.40113 15.666C7.40113 15.666 7.40114 15.666 7.40114 15.666C7.40115 15.666 7.40115 15.666 7.40116 15.666C7.40116 15.666 7.40117 15.666 7.40118 15.666C7.40118 15.666 7.40119 15.666 7.40119 15.666C7.4012 15.666 7.4012 15.666 7.40121 15.666C7.40122 15.666 7.40122 15.666 7.40123 15.666C7.40123 15.666 7.40124 15.666 7.40124 15.666C7.40125 15.666 7.40126 15.666 7.40126 15.666C7.40127 15.666 7.40127 15.666 7.40128 15.666C7.40128 15.666 7.40129 15.666 7.4013 15.666C7.4013 15.666 7.40131 15.666 7.40131 15.666C7.40132 15.666 7.40132 15.666 7.40133 15.666C7.40134 15.666 7.40134 15.666 7.40135 15.666C7.40135 15.666 7.40136 15.666 7.40137 15.666C7.40137 15.666 7.40138 15.666 7.40138 15.666C7.40139 15.666 7.4014 15.666 7.4014 15.666C7.40141 15.666 7.40141 15.666 7.40142 15.666C7.40143 15.666 7.40143 15.666 7.40144 15.666C7.40145 15.666 7.40145 15.666 7.40146 15.666C7.40146 15.666 7.40147 15.666 7.40148 15.666C7.40148 15.666 7.40149 15.666 7.40149 15.666C7.4015 15.666 7.40151 15.666 7.40151 15.666C7.40152 15.666 7.40153 15.666 7.40153 15.666C7.40154 15.666 7.40155 15.666 7.40155 15.666C7.40156 15.666 7.40156 15.666 7.40157 15.666C7.40158 15.666 7.40158 15.666 7.40159 15.666C7.4016 15.666 7.4016 15.666 7.40161 15.666C7.40162 15.666 7.40162 15.666 7.40163 15.666C7.40163 15.666 7.40164 15.666 7.40165 15.666C7.40165 15.666 7.40166 15.666 7.40167 15.666C7.40167 15.666 7.40168 15.666 7.40169 15.666C7.40169 15.666 7.4017 15.666 7.40171 15.666C7.40171 15.666 7.40172 15.666 7.40173 15.666C7.40173 15.666 7.40174 15.666 7.40175 15.666C7.40175 15.666 7.40176 15.666 7.40177 15.666C7.40177 15.666 7.40178 15.666 7.40179 15.666C7.40179 15.666 7.4018 15.666 7.40181 15.666C7.40181 15.666 7.40182 15.666 7.40183 15.666C7.40183 15.666 7.40184 15.666 7.40185 15.666C7.40185 15.666 7.40186 15.666 7.40187 15.666C7.40188 15.666 7.40188 15.666 7.40189 15.666C7.4019 15.666 7.4019 15.666 7.40191 15.666C7.40192 15.666 7.40192 15.666 7.40193 15.666C7.40194 15.666 7.40195 15.666 7.40195 15.666C7.40196 15.666 7.40197 15.666 7.40197 15.666C7.40198 15.666 7.40199 15.666 7.402 15.666C7.402 15.666 7.40201 15.666 7.40202 15.666C7.40202 15.666 7.40203 15.666 7.40204 15.666C7.40205 15.666 7.40205 15.666 7.40206 15.666C7.40207 15.666 7.40207 15.666 7.40208 15.666C7.40209 15.666 7.4021 15.666 7.4021 15.666C7.40211 15.666 7.40212 15.666 7.40213 15.666C7.40213 15.666 7.40214 15.666 7.40215 15.666C7.40216 15.666 7.40216 15.666 7.40217 15.666C7.40218 15.666 7.40218 15.666 7.40219 15.666C7.4022 15.666 7.40221 15.666 7.40222 15.666C7.40222 15.666 7.40223 15.666 7.40224 15.666C7.40225 15.666 7.40225 15.666 7.40226 15.666C7.40227 15.666 7.40228 15.666 7.40228 15.666C7.40229 15.666 7.4023 15.666 7.40231 15.666C7.40231 15.666 7.40232 15.666 7.40233 15.666C7.40234 15.666 7.40234 15.666 7.40235 15.666C7.40236 15.666 7.40237 15.666 7.40238 15.666C7.40238 15.666 7.40239 15.666 7.4024 15.666C7.40241 15.666 7.40241 15.666 7.40242 15.666C7.40243 15.666 7.40244 15.666 7.40245 15.666C7.40245 15.666 7.40246 15.666 7.40247 15.666C7.40248 15.666 7.40249 15.666 7.40249 15.666C7.4025 15.666 7.40251 15.666 7.40252 15.666C7.40253 15.666 7.40253 15.666 7.40254 15.666C7.40255 15.666 7.40256 15.666 7.40257 15.666C7.40257 15.666 7.40258 15.666 7.40259 15.666C7.4026 15.666 7.40261 15.666 7.40262 15.666C7.40262 15.666 7.40263 15.666 7.40264 15.666C7.40265 15.666 7.40266 15.666 7.40266 15.666C7.40267 15.666 7.40268 15.666 7.40269 15.666C7.4027 15.666 7.40271 15.666 7.40271 15.666C7.40272 15.666 7.40273 15.666 7.40274 15.666C7.40275 15.666 7.40276 15.666 7.40276 15.666C7.40277 15.666 7.40278 15.666 7.40279 15.666C7.4028 15.666 7.40281 15.666 7.40282 15.666C7.40282 15.666 7.40283 15.666 7.40284 15.666C7.40285 15.666 7.40286 15.666 7.40287 15.666C7.40288 15.666 7.40288 15.666 7.40289 15.666C7.4029 15.666 7.40291 15.666 7.40292 15.666C7.40293 15.666 7.40294 15.666 7.40295 15.666C7.40295 15.666 7.40296 15.666 7.40297 15.666C7.40298 15.666 7.40299 15.666 7.403 15.666C7.40301 15.666 7.40302 15.666 7.40302 15.666C7.40303 15.666 7.40304 15.666 7.40305 15.666C7.40306 15.666 7.40307 15.666 7.40308 15.666C7.40309 15.666 7.4031 15.666 7.4031 15.666C7.40311 15.666 7.40312 15.666 7.40313 15.666C7.40314 15.666 7.40315 15.666 7.40316 15.666C7.40317 15.666 7.40318 15.666 7.40319 15.666C7.40319 15.666 7.4032 15.666 7.40321 15.666C7.40322 15.666 7.40323 15.666 7.40324 15.666C7.40325 15.666 7.40326 15.666 7.40327 15.666C7.40328 15.666 7.40329 15.666 7.4033 15.666C7.40331 15.666 7.40331 15.666 7.40332 15.666C7.40333 15.666 7.40334 15.666 7.40335 15.666C7.40336 15.666 7.40337 15.666 7.40338 15.666C7.40339 15.666 7.4034 15.666 7.40341 15.666C7.40342 15.666 7.40343 15.666 7.40344 15.666C7.40345 15.666 7.40346 15.666 7.40346 15.666C7.40347 15.666 7.40348 15.666 7.40349 15.666C7.4035 15.666 7.40351 15.666 7.40352 15.666C7.40353 15.666 7.40354 15.666 7.40355 15.666C7.40356 15.666 7.40357 15.666 7.40358 15.666C7.40359 15.666 7.4036 15.666 7.40361 15.666C7.40362 15.666 7.40363 15.666 7.40364 15.666C7.40365 15.666 7.40366 15.666 7.40367 15.666C7.40368 15.666 7.40369 15.666 7.4037 15.666C7.40371 15.666 7.40372 15.666 7.40373 15.666C7.40374 15.666 7.40375 15.666 7.40376 15.666C7.40377 15.666 7.40378 15.666 7.40379 15.666C7.4038 15.666 7.40381 15.666 7.40382 15.666C7.40383 15.666 7.40384 15.666 7.40385 15.666C7.40386 15.666 7.40387 15.666 7.40388 15.666C7.40389 15.666 7.4039 15.666 7.40391 15.666C7.40392 15.666 7.40393 15.666 7.40394 15.666C7.40395 15.666 7.40396 15.666 7.40397 15.666C7.40398 15.666 7.40399 15.666 7.404 15.666C7.40401 15.666 7.40402 15.666 7.40403 15.666C7.40404 15.666 7.40405 15.666 7.40406 15.666C7.40407 15.666 7.40408 15.666 7.40409 15.666C7.4041 15.666 7.40412 15.666 7.40413 15.666C7.40414 15.666 7.40415 15.666 7.40416 15.666C7.40417 15.666 7.40418 15.666 7.40419 15.666C7.4042 15.666 7.40421 15.666 7.40422 15.666C7.40423 15.666 7.40424 15.666 7.40425 15.666C7.40426 15.666 7.40427 15.666 7.40429 15.666C7.4043 15.666 7.40431 15.666 7.40432 15.666C7.40433 15.666 7.40434 15.666 7.40435 15.666C7.40436 15.666 7.40437 15.666 7.40438 15.666C7.40439 15.666 7.4044 15.666 7.40442 15.666C7.40443 15.666 7.40444 15.666 7.40445 15.666C7.40446 15.666 7.40447 15.666 7.40448 15.666C7.40449 15.666 7.4045 15.666 7.40451 15.666C7.40453 15.666 7.40454 15.666 7.40455 15.666C7.40456 15.666 7.40457 15.666 7.40458 15.666C7.40459 15.666 7.4046 15.666 7.40461 15.666C7.40463 15.666 7.40464 15.666 7.40465 15.666C7.40466 15.666 7.40467 15.666 7.40468 15.666C7.40469 15.666 7.4047 15.666 7.40472 15.666C7.40473 15.666 7.40474 15.666 7.40475 15.666C7.40476 15.666 7.40477 15.666 7.40478 15.666C7.4048 15.666 7.40481 15.666 7.40482 15.666C7.40483 15.666 7.40484 15.666 7.40485 15.666C7.40486 15.666 7.40488 15.666 7.40489 15.666C7.4049 15.666 7.40491 15.666 7.40492 15.666C7.40493 15.666 7.40495 15.666 7.40496 15.666C7.40497 15.666 7.40498 15.666 7.40499 15.666C7.405 15.666 7.40502 15.666 7.40503 15.666C7.40504 15.666 7.40505 15.666 7.40506 15.666C7.40508 15.666 7.40509 15.666 7.4051 15.666C7.40511 15.666 7.40512 15.666 7.40513 15.666C7.40515 15.666 7.40516 15.666 7.40517 15.666C7.40518 15.666 7.40519 15.666 7.40521 15.666C7.40522 15.666 7.40523 15.666 7.40524 15.666C7.40525 15.666 7.40527 15.666 7.40528 15.666C7.40529 15.666 7.4053 15.666 7.40532 15.666C7.40533 15.666 7.40534 15.666 7.40535 15.666C7.40536 15.666 7.40538 15.666 7.40539 15.666C7.4054 15.666 7.40541 15.666 7.40543 15.666C7.40544 15.666 7.40545 15.666 7.40546 15.666C7.40548 15.666 7.40549 15.666 7.4055 15.666C7.40551 15.666 7.40552 15.666 7.40554 15.666C7.40555 15.666 7.40556 15.666 7.40557 15.666C7.40559 15.666 7.4056 15.666 7.40561 15.666C7.40562 15.666 7.40564 15.666 7.40565 15.666C7.40566 15.666 7.40568 15.666 7.40569 15.666C7.4057 15.666 7.40571 15.666 7.40573 15.666C7.40574 15.666 7.40575 15.666 7.40576 15.666C7.40578 15.666 7.40579 15.666 7.4058 15.666C7.40582 15.666 7.40583 15.666 7.40584 15.666C7.40585 15.666 7.40587 15.666 7.40588 15.666C7.40589 15.666 7.40591 15.666 7.40592 15.666C7.40593 15.666 7.40594 15.666 7.40596 15.666V12.666C7.40594 12.666 7.40593 12.666 7.40592 12.666C7.40591 12.666 7.40589 12.666 7.40588 12.666C7.40587 12.666 7.40585 12.666 7.40584 12.666C7.40583 12.666 7.40582 12.666 7.4058 12.666C7.40579 12.666 7.40578 12.666 7.40576 12.666C7.40575 12.666 7.40574 12.666 7.40573 12.666C7.40571 12.666 7.4057 12.666 7.40569 12.666C7.40568 12.666 7.40566 12.666 7.40565 12.666C7.40564 12.666 7.40562 12.666 7.40561 12.666C7.4056 12.666 7.40559 12.666 7.40557 12.666C7.40556 12.666 7.40555 12.666 7.40554 12.666C7.40552 12.666 7.40551 12.666 7.4055 12.666C7.40549 12.666 7.40548 12.666 7.40546 12.666C7.40545 12.666 7.40544 12.666 7.40543 12.666C7.40541 12.666 7.4054 12.666 7.40539 12.666C7.40538 12.666 7.40536 12.666 7.40535 12.666C7.40534 12.666 7.40533 12.666 7.40532 12.666C7.4053 12.666 7.40529 12.666 7.40528 12.666C7.40527 12.666 7.40525 12.666 7.40524 12.666C7.40523 12.666 7.40522 12.666 7.40521 12.666C7.40519 12.666 7.40518 12.666 7.40517 12.666C7.40516 12.666 7.40515 12.666 7.40513 12.666C7.40512 12.666 7.40511 12.666 7.4051 12.666C7.40509 12.666 7.40508 12.666 7.40506 12.666C7.40505 12.666 7.40504 12.666 7.40503 12.666C7.40502 12.666 7.405 12.666 7.40499 12.666C7.40498 12.666 7.40497 12.666 7.40496 12.666C7.40495 12.666 7.40493 12.666 7.40492 12.666C7.40491 12.666 7.4049 12.666 7.40489 12.666C7.40488 12.666 7.40486 12.666 7.40485 12.666C7.40484 12.666 7.40483 12.666 7.40482 12.666C7.40481 12.666 7.4048 12.666 7.40478 12.666C7.40477 12.666 7.40476 12.666 7.40475 12.666C7.40474 12.666 7.40473 12.666 7.40472 12.666C7.4047 12.666 7.40469 12.666 7.40468 12.666C7.40467 12.666 7.40466 12.666 7.40465 12.666C7.40464 12.666 7.40463 12.666 7.40461 12.666C7.4046 12.666 7.40459 12.666 7.40458 12.666C7.40457 12.666 7.40456 12.666 7.40455 12.666C7.40454 12.666 7.40453 12.666 7.40451 12.666C7.4045 12.666 7.40449 12.666 7.40448 12.666C7.40447 12.666 7.40446 12.666 7.40445 12.666C7.40444 12.666 7.40443 12.666 7.40442 12.666C7.4044 12.666 7.40439 12.666 7.40438 12.666C7.40437 12.666 7.40436 12.666 7.40435 12.666C7.40434 12.666 7.40433 12.666 7.40432 12.666C7.40431 12.666 7.4043 12.666 7.40429 12.666C7.40427 12.666 7.40426 12.666 7.40425 12.666C7.40424 12.666 7.40423 12.666 7.40422 12.666C7.40421 12.666 7.4042 12.666 7.40419 12.666C7.40418 12.666 7.40417 12.666 7.40416 12.666C7.40415 12.666 7.40414 12.666 7.40413 12.666C7.40412 12.666 7.4041 12.666 7.40409 12.666C7.40408 12.666 7.40407 12.666 7.40406 12.666C7.40405 12.666 7.40404 12.666 7.40403 12.666C7.40402 12.666 7.40401 12.666 7.404 12.666C7.40399 12.666 7.40398 12.666 7.40397 12.666C7.40396 12.666 7.40395 12.666 7.40394 12.666C7.40393 12.666 7.40392 12.666 7.40391 12.666C7.4039 12.666 7.40389 12.666 7.40388 12.666C7.40387 12.666 7.40386 12.666 7.40385 12.666C7.40384 12.666 7.40383 12.666 7.40382 12.666C7.40381 12.666 7.4038 12.666 7.40379 12.666C7.40378 12.666 7.40377 12.666 7.40376 12.666C7.40375 12.666 7.40374 12.666 7.40373 12.666C7.40372 12.666 7.40371 12.666 7.4037 12.666C7.40369 12.666 7.40368 12.666 7.40367 12.666C7.40366 12.666 7.40365 12.666 7.40364 12.666C7.40363 12.666 7.40362 12.666 7.40361 12.666C7.4036 12.666 7.40359 12.666 7.40358 12.666C7.40357 12.666 7.40356 12.666 7.40355 12.666C7.40354 12.666 7.40353 12.666 7.40352 12.666C7.40351 12.666 7.4035 12.666 7.40349 12.666C7.40348 12.666 7.40347 12.666 7.40346 12.666C7.40346 12.666 7.40345 12.666 7.40344 12.666C7.40343 12.666 7.40342 12.666 7.40341 12.666C7.4034 12.666 7.40339 12.666 7.40338 12.666C7.40337 12.666 7.40336 12.666 7.40335 12.666C7.40334 12.666 7.40333 12.666 7.40332 12.666C7.40331 12.666 7.40331 12.666 7.4033 12.666C7.40329 12.666 7.40328 12.666 7.40327 12.666C7.40326 12.666 7.40325 12.666 7.40324 12.666C7.40323 12.666 7.40322 12.666 7.40321 12.666C7.4032 12.666 7.40319 12.666 7.40319 12.666C7.40318 12.666 7.40317 12.666 7.40316 12.666C7.40315 12.666 7.40314 12.666 7.40313 12.666C7.40312 12.666 7.40311 12.666 7.4031 12.666C7.4031 12.666 7.40309 12.666 7.40308 12.666C7.40307 12.666 7.40306 12.666 7.40305 12.666C7.40304 12.666 7.40303 12.666 7.40302 12.666C7.40302 12.666 7.40301 12.666 7.403 12.666C7.40299 12.666 7.40298 12.666 7.40297 12.666C7.40296 12.666 7.40295 12.666 7.40295 12.666C7.40294 12.666 7.40293 12.666 7.40292 12.666C7.40291 12.666 7.4029 12.666 7.40289 12.666C7.40288 12.666 7.40288 12.666 7.40287 12.666C7.40286 12.666 7.40285 12.666 7.40284 12.666C7.40283 12.666 7.40282 12.666 7.40282 12.666C7.40281 12.666 7.4028 12.666 7.40279 12.666C7.40278 12.666 7.40277 12.666 7.40276 12.666C7.40276 12.666 7.40275 12.666 7.40274 12.666C7.40273 12.666 7.40272 12.666 7.40271 12.666C7.40271 12.666 7.4027 12.666 7.40269 12.666C7.40268 12.666 7.40267 12.666 7.40266 12.666C7.40266 12.666 7.40265 12.666 7.40264 12.666C7.40263 12.666 7.40262 12.666 7.40262 12.666C7.40261 12.666 7.4026 12.666 7.40259 12.666C7.40258 12.666 7.40257 12.666 7.40257 12.666C7.40256 12.666 7.40255 12.666 7.40254 12.666C7.40253 12.666 7.40253 12.666 7.40252 12.666C7.40251 12.666 7.4025 12.666 7.40249 12.666C7.40249 12.666 7.40248 12.666 7.40247 12.666C7.40246 12.666 7.40245 12.666 7.40245 12.666C7.40244 12.666 7.40243 12.666 7.40242 12.666C7.40241 12.666 7.40241 12.666 7.4024 12.666C7.40239 12.666 7.40238 12.666 7.40238 12.666C7.40237 12.666 7.40236 12.666 7.40235 12.666C7.40234 12.666 7.40234 12.666 7.40233 12.666C7.40232 12.666 7.40231 12.666 7.40231 12.666C7.4023 12.666 7.40229 12.666 7.40228 12.666C7.40228 12.666 7.40227 12.666 7.40226 12.666C7.40225 12.666 7.40225 12.666 7.40224 12.666C7.40223 12.666 7.40222 12.666 7.40222 12.666C7.40221 12.666 7.4022 12.666 7.40219 12.666C7.40218 12.666 7.40218 12.666 7.40217 12.666C7.40216 12.666 7.40216 12.666 7.40215 12.666C7.40214 12.666 7.40213 12.666 7.40213 12.666C7.40212 12.666 7.40211 12.666 7.4021 12.666C7.4021 12.666 7.40209 12.666 7.40208 12.666C7.40207 12.666 7.40207 12.666 7.40206 12.666C7.40205 12.666 7.40205 12.666 7.40204 12.666C7.40203 12.666 7.40202 12.666 7.40202 12.666C7.40201 12.666 7.402 12.666 7.402 12.666C7.40199 12.666 7.40198 12.666 7.40197 12.666C7.40197 12.666 7.40196 12.666 7.40195 12.666C7.40195 12.666 7.40194 12.666 7.40193 12.666C7.40192 12.666 7.40192 12.666 7.40191 12.666C7.4019 12.666 7.4019 12.666 7.40189 12.666C7.40188 12.666 7.40188 12.666 7.40187 12.666C7.40186 12.666 7.40185 12.666 7.40185 12.666C7.40184 12.666 7.40183 12.666 7.40183 12.666C7.40182 12.666 7.40181 12.666 7.40181 12.666C7.4018 12.666 7.40179 12.666 7.40179 12.666C7.40178 12.666 7.40177 12.666 7.40177 12.666C7.40176 12.666 7.40175 12.666 7.40175 12.666C7.40174 12.666 7.40173 12.666 7.40173 12.666C7.40172 12.666 7.40171 12.666 7.40171 12.666C7.4017 12.666 7.40169 12.666 7.40169 12.666C7.40168 12.666 7.40167 12.666 7.40167 12.666C7.40166 12.666 7.40165 12.666 7.40165 12.666C7.40164 12.666 7.40163 12.666 7.40163 12.666C7.40162 12.666 7.40162 12.666 7.40161 12.666C7.4016 12.666 7.4016 12.666 7.40159 12.666C7.40158 12.666 7.40158 12.666 7.40157 12.666C7.40156 12.666 7.40156 12.666 7.40155 12.666C7.40155 12.666 7.40154 12.666 7.40153 12.666C7.40153 12.666 7.40152 12.666 7.40151 12.666C7.40151 12.666 7.4015 12.666 7.40149 12.666C7.40149 12.666 7.40148 12.666 7.40148 12.666C7.40147 12.666 7.40146 12.666 7.40146 12.666C7.40145 12.666 7.40145 12.666 7.40144 12.666C7.40143 12.666 7.40143 12.666 7.40142 12.666C7.40141 12.666 7.40141 12.666 7.4014 12.666C7.4014 12.666 7.40139 12.666 7.40138 12.666C7.40138 12.666 7.40137 12.666 7.40137 12.666C7.40136 12.666 7.40135 12.666 7.40135 12.666C7.40134 12.666 7.40134 12.666 7.40133 12.666C7.40132 12.666 7.40132 12.666 7.40131 12.666C7.40131 12.666 7.4013 12.666 7.4013 12.666C7.40129 12.666 7.40128 12.666 7.40128 12.666C7.40127 12.666 7.40127 12.666 7.40126 12.666C7.40126 12.666 7.40125 12.666 7.40124 12.666C7.40124 12.666 7.40123 12.666 7.40123 12.666C7.40122 12.666 7.40122 12.666 7.40121 12.666C7.4012 12.666 7.4012 12.666 7.40119 12.666C7.40119 12.666 7.40118 12.666 7.40118 12.666C7.40117 12.666 7.40116 12.666 7.40116 12.666C7.40115 12.666 7.40115 12.666 7.40114 12.666C7.40114 12.666 7.40113 12.666 7.40113 12.666C7.40112 12.666 7.40111 12.666 7.40111 12.666C7.4011 12.666 7.4011 12.666 7.40109 12.666C7.40109 12.666 7.40108 12.666 7.40108 12.666C7.40107 12.666 7.40107 12.666 7.40106 12.666C7.40105 12.666 7.40105 12.666 7.40104 12.666C7.40104 12.666 7.40103 12.666 7.40103 12.666C7.40102 12.666 7.40102 12.666 7.40101 12.666C7.40101 12.666 7.401 12.666 7.401 12.666C7.40099 12.666 7.40099 12.666 7.40098 12.666C7.40098 12.666 7.40097 12.666 7.40097 12.666C7.40096 12.666 7.40095 12.666 7.40095 12.666C7.40094 12.666 7.40094 12.666 7.40093 12.666C7.40093 12.666 7.40092 12.666 7.40092 12.666C7.40091 12.666 7.40091 12.666 7.4009 12.666C7.4009 12.666 7.40089 12.666 7.40089 12.666C7.40088 12.666 7.40088 12.666 7.40087 12.666C7.40087 12.666 7.40086 12.666 7.40086 12.666C7.40085 12.666 7.40085 12.666 7.40084 12.666C7.40084 12.666 7.40083 12.666 7.40083 12.666C7.40082 12.666 7.40082 12.666 7.40081 12.666C7.40081 12.666 7.4008 12.666 7.4008 12.666C7.40079 12.666 7.40079 12.666 7.40079 12.666C7.40078 12.666 7.40078 12.666 7.40077 12.666C7.40077 12.666 7.40076 12.666 7.40076 12.666C7.40075 12.666 7.40075 12.666 7.40074 12.666C7.40074 12.666 7.40073 12.666 7.40073 12.666C7.40072 12.666 7.40072 12.666 7.40071 12.666C7.40071 12.666 7.40071 12.666 7.4007 12.666C7.4007 12.666 7.40069 12.666 7.40069 12.666C7.40068 12.666 7.40068 12.666 7.40067 12.666C7.40067 12.666 7.40066 12.666 7.40066 12.666C7.40065 12.666 7.40065 12.666 7.40065 12.666C7.40064 12.666 7.40064 12.666 7.40063 12.666C7.40063 12.666 7.40062 12.666 7.40062 12.666C7.40061 12.666 7.40061 12.666 7.40061 12.666C7.4006 12.666 7.4006 12.666 7.40059 12.666C7.40059 12.666 7.40058 12.666 7.40058 12.666C7.40058 12.666 7.40057 12.666 7.40057 12.666C7.40056 12.666 7.40056 12.666 7.40055 12.666C7.40055 12.666 7.40055 12.666 7.40054 12.666C7.40054 12.666 7.40053 12.666 7.40053 12.666C7.40052 12.666 7.40052 12.666 7.40052 12.666C7.40051 12.666 7.40051 12.666 7.4005 12.666C7.4005 12.666 7.40049 12.666 7.40049 12.666C7.40049 12.666 7.40048 12.666 7.40048 12.666C7.40047 12.666 7.40047 12.666 7.40047 12.666C7.40046 12.666 7.40046 12.666 7.40045 12.666C7.40045 12.666 7.40044 12.666 7.40044 12.666C7.40044 12.666 7.40043 12.666 7.40043 12.666C7.40042 12.666 7.40042 12.666 7.40042 12.666C7.40041 12.666 7.40041 12.666 7.40041 12.666C7.4004 12.666 7.4004 12.666 7.40039 12.666C7.40039 12.666 7.40039 12.666 7.40038 12.666C7.40038 12.666 7.40037 12.666 7.40037 12.666C7.40037 12.666 7.40036 12.666 7.40036 12.666C7.40035 12.666 7.40035 12.666 7.40035 12.666C7.40034 12.666 7.40034 12.666 7.40034 12.666C7.40033 12.666 7.40033 12.666 7.40032 12.666C7.40032 12.666 7.40032 12.666 7.40031 12.666C7.40031 12.666 7.40031 12.666 7.4003 12.666C7.4003 12.666 7.40029 12.666 7.40029 12.666C7.40029 12.666 7.40028 12.666 7.40028 12.666C7.40028 12.666 7.40027 12.666 7.40027 12.666C7.40027 12.666 7.40026 12.666 7.40026 12.666C7.40025 12.666 7.40025 12.666 7.40025 12.666C7.40024 12.666 7.40024 12.666 7.40024 12.666C7.40023 12.666 7.40023 12.666 7.40023 12.666C7.40022 12.666 7.40022 12.666 7.40022 12.666C7.40021 12.666 7.40021 12.666 7.40021 12.666C7.4002 12.666 7.4002 12.666 7.4002 12.666C7.40019 12.666 7.40019 12.666 7.40018 12.666C7.40018 12.666 7.40018 12.666 7.40017 12.666C7.40017 12.666 7.40017 12.666 7.40016 12.666C7.40016 12.666 7.40016 12.666 7.40015 12.666C7.40015 12.666 7.40015 12.666 7.40014 12.666C7.40014 12.666 7.40014 12.666 7.40013 12.666C7.40013 12.666 7.40013 12.666 7.40012 12.666C7.40012 12.666 7.40012 12.666 7.40012 12.666C7.40011 12.666 7.40011 12.666 7.40011 12.666C7.4001 12.666 7.4001 12.666 7.4001 12.666C7.40009 12.666 7.40009 12.666 7.40009 12.666C7.40008 12.666 7.40008 12.666 7.40008 12.666C7.40007 12.666 7.40007 12.666 7.40007 12.666C7.40006 12.666 7.40006 12.666 7.40006 12.666C7.40005 12.666 7.40005 12.666 7.40005 12.666C7.40005 12.666 7.40004 12.666 7.40004 12.666C7.40004 12.666 7.40003 12.666 7.40003 12.666C7.40003 12.666 7.40002 12.666 7.40002 12.666C7.40002 12.666 7.40002 12.666 7.40001 12.666C7.40001 12.666 7.40001 12.666 7.4 12.666C7.4 12.666 7.4 12.666 7.4 12.666C7.39999 12.666 7.39999 12.666 7.39999 12.666C7.39998 12.666 7.39998 12.666 7.39998 12.666C7.39998 12.666 7.39997 12.666 7.39997 12.666C7.39997 12.666 7.39996 12.666 7.39996 12.666C7.39996 12.666 7.39996 12.666 7.39995 12.666C7.39995 12.666 7.39995 12.666 7.39994 12.666C7.39994 12.666 7.39994 12.666 7.39994 12.666C7.39993 12.666 7.39993 12.666 7.39993 12.666C7.39993 12.666 7.39992 12.666 7.39992 12.666C7.39992 12.666 7.39991 12.666 7.39991 12.666C7.39991 12.666 7.39991 12.666 7.3999 12.666C7.3999 12.666 7.3999 12.666 7.3999 12.666C7.39989 12.666 7.39989 12.666 7.39989 12.666C7.39989 12.666 7.39988 12.666 7.39988 12.666C7.39988 12.666 7.39988 12.666 7.39987 12.666C7.39987 12.666 7.39987 12.666 7.39986 12.666C7.39986 12.666 7.39986 12.666 7.39986 12.666C7.39985 12.666 7.39985 12.666 7.39985 12.666C7.39985 12.666 7.39984 12.666 7.39984 12.666C7.39984 12.666 7.39984 12.666 7.39983 12.666C7.39983 12.666 7.39983 12.666 7.39983 12.666C7.39983 12.666 7.39982 12.666 7.39982 12.666C7.39982 12.666 7.39982 12.666 7.39981 12.666C7.39981 12.666 7.39981 12.666 7.39981 12.666C7.3998 12.666 7.3998 12.666 7.3998 12.666C7.3998 12.666 7.39979 12.666 7.39979 12.666C7.39979 12.666 7.39979 12.666 7.39979 12.666C7.39978 12.666 7.39978 12.666 7.39978 12.666C7.39978 12.666 7.39977 12.666 7.39977 12.666C7.39977 12.666 7.39977 12.666 7.39976 12.666C7.39976 12.666 7.39976 12.666 7.39976 12.666C7.39976 12.666 7.39975 12.666 7.39975 12.666C7.39975 12.666 7.39975 12.666 7.39974 12.666C7.39974 12.666 7.39974 12.666 7.39974 12.666C7.39974 12.666 7.39973 12.666 7.39973 12.666C7.39973 12.666 7.39973 12.666 7.39973 12.666C7.39972 12.666 7.39972 12.666 7.39972 12.666C7.39972 12.666 7.39971 12.666 7.39971 12.666C7.39971 12.666 7.39971 12.666 7.39971 12.666C7.3997 12.666 7.3997 12.666 7.3997 12.666C7.3997 12.666 7.3997 12.666 7.39969 12.666C7.39969 12.666 7.39969 12.666 7.39969 12.666C7.39969 12.666 7.39968 12.666 7.39968 12.666C7.39968 12.666 7.39968 12.666 7.39968 12.666C7.39967 12.666 7.39967 12.666 7.39967 12.666C7.39967 12.666 7.39967 12.666 7.39967 12.666C7.39966 12.666 7.39966 12.666 7.39966 12.666C7.39966 12.666 7.39966 12.666 7.39965 12.666C7.39965 12.666 7.39965 12.666 7.39965 12.666C7.39965 12.666 7.39964 12.666 7.39964 12.666C7.39964 12.666 7.39964 12.666 7.39964 12.666C7.39964 12.666 7.39963 12.666 7.39963 12.666C7.39963 12.666 7.39963 12.666 7.39963 12.666C7.39962 12.666 7.39962 12.666 7.39962 12.666C7.39962 12.666 7.39962 12.666 7.39962 12.666C7.39961 12.666 7.39961 12.666 7.39961 12.666C7.39961 12.666 7.39961 12.666 7.39961 12.666C7.3996 12.666 7.3996 12.666 7.3996 12.666C7.3996 12.666 7.3996 12.666 7.3996 12.666C7.39959 12.666 7.39959 12.666 7.39959 12.666C7.39959 12.666 7.39959 12.666 7.39959 12.666C7.39958 12.666 7.39958 12.666 7.39958 12.666C7.39958 12.666 7.39958 12.666 7.39958 12.666C7.39957 12.666 7.39957 12.666 7.39957 12.666C7.39957 12.666 7.39957 12.666 7.39957 12.666C7.39957 12.666 7.39956 12.666 7.39956 12.666C7.39956 12.666 7.39956 12.666 7.39956 12.666C7.39956 12.666 7.39955 12.666 7.39955 12.666C7.39955 12.666 7.39955 12.666 7.39955 12.666C7.39955 12.666 7.39955 12.666 7.39954 12.666C7.39954 12.666 7.39954 12.666 7.39954 12.666C7.39954 12.666 7.39954 12.666 7.39954 12.666C7.39953 12.666 7.39953 12.666 7.39953 12.666C7.39953 12.666 7.39953 12.666 7.39953 12.666C7.39953 12.666 7.39952 12.666 7.39952 12.666C7.39952 12.666 7.39952 12.666 7.39952 12.666C7.39952 12.666 7.39952 12.666 7.39951 12.666C7.39951 12.666 7.39951 12.666 7.39951 12.666C7.39951 12.666 7.39951 12.666 7.39951 12.666C7.39951 12.666 7.3995 12.666 7.3995 12.666C7.3995 12.666 7.3995 12.666 7.3995 12.666C7.3995 12.666 7.3995 12.666 7.3995 12.666C7.39949 12.666 7.39949 12.666 7.39949 12.666C7.39949 12.666 7.39949 12.666 7.39949 12.666C7.39949 12.666 7.39949 12.666 7.39948 12.666C7.39948 12.666 7.39948 12.666 7.39948 12.666C7.39948 12.666 7.39948 12.666 7.39948 12.666C7.39948 12.666 7.39947 12.666 7.39947 12.666C7.39947 12.666 7.39947 12.666 7.39947 12.666C7.39947 12.666 7.39947 12.666 7.39947 12.666C7.39946 12.666 7.39946 12.666 7.39946 12.666C7.39946 12.666 7.39946 12.666 7.39946 12.666C7.39946 12.666 7.39946 12.666 7.39946 12.666C7.39945 12.666 7.39945 12.666 7.39945 12.666C7.39945 12.666 7.39945 12.666 7.39945 12.666C7.39945 12.666 7.39945 12.666 7.39945 12.666C7.39945 12.666 7.39944 12.666 7.39944 12.666C7.39944 12.666 7.39944 12.666 7.39944 12.666C7.39944 12.666 7.39944 12.666 7.39944 12.666C7.39944 12.666 7.39943 12.666 7.39943 12.666C7.39943 12.666 7.39943 12.666 7.39943 12.666C7.39943 12.666 7.39943 12.666 7.39943 12.666C7.39943 12.666 7.39943 12.666 7.39943 12.666C7.39942 12.666 7.39942 12.666 7.39942 12.666C7.39942 12.666 7.39942 12.666 7.39942 12.666C7.39942 12.666 7.39942 12.666 7.39942 12.666C7.39942 12.666 7.39941 12.666 7.39941 12.666C7.39941 12.666 7.39941 12.666 7.39941 12.666C7.39941 12.666 7.39941 12.666 7.39941 12.666C7.39941 12.666 7.39941 12.666 7.39941 12.666C7.39941 12.666 7.3994 12.666 7.3994 12.666C7.3994 12.666 7.3994 12.666 7.3994 12.666C7.3994 12.666 7.3994 12.666 7.3994 12.666C7.3994 12.666 7.3994 12.666 7.3994 12.666C7.39939 12.666 7.39939 12.666 7.39939 12.666C7.39939 12.666 7.39939 12.666 7.39939 12.666C7.39939 12.666 7.39939 12.666 7.39939 12.666C7.39939 12.666 7.39939 12.666 7.39939 12.666C7.39939 12.666 7.39938 12.666 7.39938 12.666C7.39938 12.666 7.39938 12.666 7.39938 12.666C7.39938 12.666 7.39938 12.666 7.39938 12.666C7.39938 12.666 7.39938 12.666 7.39938 12.666C7.39938 12.666 7.39938 12.666 7.39938 12.666C7.39937 12.666 7.39937 12.666 7.39937 12.666C7.39937 12.666 7.39937 12.666 7.39937 12.666C7.39937 12.666 7.39937 12.666 7.39937 12.666C7.39937 12.666 7.39937 12.666 7.39937 12.666C7.39937 12.666 7.39937 12.666 7.39936 12.666C7.39936 12.666 7.39936 12.666 7.39936 12.666C7.39936 12.666 7.39936 12.666 7.39936 12.666C7.39936 12.666 7.39936 12.666 7.39936 12.666C7.39936 12.666 7.39936 12.666 7.39936 12.666C7.39936 12.666 7.39936 12.666 7.39936 12.666C7.39936 12.666 7.39935 12.666 7.39935 12.666C7.39935 12.666 7.39935 12.666 7.39935 12.666C7.39935 12.666 7.39935 12.666 7.39935 12.666C7.39935 12.666 7.39935 12.666 7.39935 12.666C7.39935 12.666 7.39935 12.666 7.39935 12.666C7.39935 12.666 7.39935 12.666 7.39935 12.666C7.39935 12.666 7.39934 12.666 7.39934 12.666C7.39934 12.666 7.39934 12.666 7.39934 12.666C7.39934 12.666 7.39934 12.666 7.39934 12.666C7.39934 12.666 7.39934 12.666 7.39934 12.666C7.39934 12.666 7.39934 12.666 7.39934 12.666C7.39934 12.666 7.39934 12.666 7.39934 12.666C7.39934 12.666 7.39934 12.666 7.39934 12.666C7.39933 12.666 7.39933 12.666 7.39933 12.666C7.39933 12.666 7.39933 12.666 7.39933 12.666C7.39933 12.666 7.39933 12.666 7.39933 12.666C7.39933 12.666 7.39933 12.666 7.39933 12.666C7.39933 12.666 7.39933 12.666 7.39933 12.666C7.39933 12.666 7.39933 12.666 7.39933 12.666C7.39933 12.666 7.39933 12.666 7.39933 12.666C7.39933 12.666 7.39933 12.666 7.39933 12.666C7.39932 12.666 7.39932 12.666 7.39932 12.666C7.39932 12.666 7.39932 12.666 7.39932 12.666C7.39932 12.666 7.39932 12.666 7.39932 12.666C7.39932 12.666 7.39932 12.666 7.39932 12.666C7.39932 12.666 7.39932 12.666 7.39932 12.666C7.39932 12.666 7.39932 12.666 7.39932 12.666C7.39932 12.666 7.39932 12.666 7.39932 12.666C7.39932 12.666 7.39932 12.666 7.39932 12.666C7.39932 12.666 7.39932 12.666 7.39932 12.666H7.39932C7.39931 12.666 7.39931 12.666 7.39931 12.666C7.39931 12.666 7.39931 12.666 7.39931 12.666C7.39931 12.666 7.39931 12.666 7.39931 12.666C7.39931 12.666 7.39931 12.666 7.39931 12.666H7.39931C7.39931 12.666 7.39931 12.666 7.39931 12.666C7.39931 12.666 7.39931 12.666 7.39931 12.666H7.39931C7.39931 12.666 7.39931 12.666 7.39931 12.666H7.39931C7.39931 12.666 7.39931 12.666 7.39931 12.666C7.39931 12.666 7.39931 12.666 7.39931 12.666H7.39931C7.3993 12.666 7.3993 12.666 7.3993 12.666C7.3993 12.666 7.3993 12.666 7.3993 12.666H7.3993H7.3993C7.3993 12.666 7.3993 12.666 7.3993 12.666C7.3993 12.666 7.3993 12.666 7.3993 12.666C7.3993 12.666 7.3993 12.666 7.3993 12.666C7.3993 12.666 7.3993 12.666 7.3993 12.666C7.3993 12.666 7.3993 12.666 7.3993 12.666C7.3993 12.666 7.3993 12.666 7.3993 12.666C7.3993 12.666 7.3993 12.666 7.3993 12.666C7.3993 12.666 7.3993 12.666 7.3993 12.666H7.3993H7.3993C7.3993 12.666 7.3993 12.666 7.3993 12.666C7.3993 12.666 7.3993 12.666 7.3993 12.666C7.3993 12.666 7.3993 12.666 7.3993 12.666C7.3993 12.666 7.3993 12.666 7.3993 12.666C7.3993 12.666 7.3993 12.666 7.3993 12.666C7.3993 12.666 7.3993 12.666 7.39929 12.666C7.39929 12.666 7.39929 12.666 7.39929 12.666C7.39929 12.666 7.39929 12.666 7.39929 12.666H7.39929C7.39929 12.666 7.39929 12.666 7.39929 12.666C7.39929 12.666 7.39929 12.666 7.39929 12.666H7.39929H7.39929C7.39929 14.166 7.39929 15.666 7.39929 14.166ZM7.40596 15.666C7.99203 15.666 8.47743 15.4267 8.82563 15.1992C9.18268 14.9658 9.53374 14.6528 9.87995 14.3066L7.75863 12.1853C7.4715 12.4724 7.28923 12.6194 7.18462 12.6878C7.07115 12.7619 7.16655 12.666 7.40596 12.666V15.666ZM9.87995 14.3066L14.3066 9.87995L12.1853 7.75863L7.75863 12.1853L9.87995 14.3066ZM14.3066 9.87995C14.6554 9.5312 14.9678 9.17847 15.2005 8.82106C15.4248 8.47657 15.666 7.99077 15.666 7.40596H12.666C12.666 7.2784 12.693 7.19154 12.7052 7.1587C12.7166 7.12814 12.7184 7.13504 12.6864 7.18419C12.6174 7.29011 12.4699 7.47405 12.1853 7.75863L14.3066 9.87995ZM15.666 7.40596C15.666 6.83849 15.4467 6.36338 15.2163 6.00396C14.9858 5.64443 14.6745 5.29317 14.3266 4.9453L12.2053 7.06662C12.4908 7.35208 12.6294 7.52749 12.6906 7.62296C12.7519 7.71853 12.666 7.62676 12.666 7.40596H15.666ZM14.3266 4.9453L11.0533 1.67197L8.93196 3.79329L12.2053 7.06662L14.3266 4.9453ZM11.0589 1.67759C10.7131 1.32817 10.3627 1.0154 10.0026 0.783659C9.64235 0.551907 9.16683 0.332625 8.59929 0.332625V3.33263C8.37842 3.33263 8.28623 3.24668 8.37935 3.30659C8.4725 3.36652 8.64544 3.50374 8.92637 3.78766L11.0589 1.67759Z" fill="white" mask="url(#path-7-inside-4_2916_101667)"/>
<mask id="path-9-inside-5_2916_101667" fill="white">
<path d="M14.6654 15.168H1.33203C1.0587 15.168 0.832031 14.9413 0.832031 14.668C0.832031 14.3946 1.0587 14.168 1.33203 14.168H14.6654C14.9387 14.168 15.1654 14.3946 15.1654 14.668C15.1654 14.9413 14.9387 15.168 14.6654 15.168Z"/>
</mask>
<path d="M14.6654 15.168H1.33203C1.0587 15.168 0.832031 14.9413 0.832031 14.668C0.832031 14.3946 1.0587 14.168 1.33203 14.168H14.6654C14.9387 14.168 15.1654 14.3946 15.1654 14.668C15.1654 14.9413 14.9387 15.168 14.6654 15.168Z" fill="white"/>
<path d="M14.6654 13.668H1.33203V16.668H14.6654V13.668ZM1.33203 13.668C1.88713 13.668 2.33203 14.1129 2.33203 14.668H-0.667969C-0.667969 15.7697 0.230271 16.668 1.33203 16.668V13.668ZM2.33203 14.668C2.33203 15.2231 1.88713 15.668 1.33203 15.668V12.668C0.230271 12.668 -0.667969 13.5662 -0.667969 14.668H2.33203ZM1.33203 15.668H14.6654V12.668H1.33203V15.668ZM14.6654 15.668C14.1103 15.668 13.6654 15.2231 13.6654 14.668H16.6654C16.6654 13.5662 15.7671 12.668 14.6654 12.668V15.668ZM13.6654 14.668C13.6654 14.1129 14.1103 13.668 14.6654 13.668V16.668C15.7671 16.668 16.6654 15.7697 16.6654 14.668H13.6654Z" fill="white" mask="url(#path-9-inside-5_2916_101667)"/>
</svg>
