<svg width="201" height="88" viewBox="0 0 201 88" fill="none" xmlns="http://www.w3.org/2000/svg">
<path d="M198.763 1C195.839 7.38313 192.074 11.1427 188.427 14.6017C183.179 19.5737 176.098 23.2059 172.191 25.0705C163.342 29.2885 145.37 35.962 119.211 37.689C110.143 38.285 101.213 38.3614 92.1549 39.258C80.9017 40.3737 77.3815 40.6538 73.0208 42.824C71.5939 43.6479 70.2208 44.5616 68.9098 45.5596C65.7768 48.0507 62.6693 50.7813 59.302 53.2622C57.6109 54.5247 55.8469 55.6865 54.0192 56.7416C52.1506 57.8229 50.1689 58.6958 48.1098 59.3447C47.5691 59.516 47.0129 59.6337 46.4491 59.6962C45.8836 59.7778 45.3182 59.8083 44.768 59.8389C43.6788 59.8717 42.5885 59.8428 41.5026 59.7523C40.4328 59.6657 39.3732 59.5281 38.3288 59.3498C37.8194 59.2581 37.31 59.1562 36.7649 59.0391C36.2198 58.9219 35.746 58.7996 35.1908 58.6366L33.6625 58.1883L34.4266 56.7518C35.0893 55.5505 35.5473 54.2472 35.7817 52.8954C36.1181 51.564 36.2707 50.1928 36.2351 48.82C36.2239 48.4892 36.195 48.1593 36.1485 47.8317C36.1485 47.6687 36.1026 47.5056 36.0772 47.3222C36.0429 47.1845 36.0021 47.0485 35.9549 46.9147C35.8032 46.315 35.5773 45.7366 35.2825 45.1928L35.1347 44.9279C35.0125 45.3609 34.8749 45.7838 34.7323 46.2117C34.4405 47.0459 34.1003 47.8624 33.7134 48.6569C33.3213 49.4551 32.8789 50.2276 32.3889 50.9697C32.2565 51.1582 32.1495 51.3314 32.0018 51.5301C31.854 51.7288 31.6859 51.9428 31.528 52.1211C31.2121 52.4929 30.8912 52.819 30.5652 53.1399C29.9221 53.7554 29.2416 54.3304 28.5275 54.8618C27.8075 55.4044 27.0518 55.898 26.2656 56.3391C25.8541 56.575 25.4288 56.7859 24.992 56.9708C24.773 57.0676 24.5335 57.1542 24.289 57.2408L24.1107 57.307L23.9579 57.3529L23.6471 57.4497C22.017 57.9591 20.3919 58.3463 18.833 58.7232C17.3769 59.0184 15.9474 59.4324 14.559 59.9611C14.286 60.0788 14.0206 60.2132 13.7642 60.3636C13.5585 60.4969 13.3627 60.645 13.1784 60.8068C12.7561 61.181 12.3658 61.59 12.0118 62.0294C11.5747 62.5597 11.2098 63.1455 10.9267 63.7717C10.7761 64.1004 10.6534 64.4412 10.5599 64.7905C10.5141 64.9637 10.4733 65.142 10.4428 65.2999C10.4122 65.4579 10.3816 65.6769 10.3715 65.8094L10.3001 66.6499L9.67864 66.9454C9.03166 67.246 8.40507 67.5312 7.74281 67.8063L7.23338 68.0152L6.7749 68.1935C6.49471 68.3107 6.21962 68.4329 5.95472 68.5756C5.43783 68.8531 4.95849 69.1955 4.52832 69.5944C4.11893 69.9814 3.77486 70.4322 3.50947 70.9291C3.25237 71.4305 3.08022 71.971 3.00004 72.5287C2.89808 73.1471 2.83851 73.7718 2.82174 74.3983C2.79627 75.0402 2.82174 75.6872 2.82174 76.3443C2.82174 76.5175 2.82174 76.6907 2.82174 76.8538L3.52475 76.5787C4.21248 76.3036 4.97662 76.0081 5.72038 75.7789C6.46415 75.5496 7.24867 75.351 7.97205 75.1879L10.1728 74.6785L11.2782 74.4187C11.6603 74.3321 12.0475 74.2506 12.4346 74.1895C13.2095 74.0529 13.9922 73.9644 14.778 73.9246C16.3466 73.8384 17.92 73.9393 19.4647 74.2251C21.0068 74.5092 22.5064 74.9885 23.9273 75.6515C24.6299 75.983 25.3105 76.359 25.965 76.7773C26.3013 76.9862 26.612 77.2053 26.9228 77.4243L27.8499 78.0764C30.1539 79.7734 32.6056 81.2601 35.1755 82.5186C35.2675 82.5618 35.3388 82.6394 35.374 82.7347C35.4093 82.83 35.4057 82.9354 35.364 83.028C35.3445 83.0754 35.3158 83.1183 35.2795 83.1544C35.2431 83.1904 35.1999 83.2187 35.1524 83.2377C35.1049 83.2567 35.054 83.266 35.0029 83.265C34.9517 83.264 34.9013 83.2527 34.8545 83.2318C32.1872 82.0695 29.6298 80.6697 27.2131 79.0494L26.2656 78.4432C25.9498 78.2394 25.639 78.0407 25.3282 77.8573C23.4426 76.7714 21.3683 76.0524 19.2151 75.7381C17.0693 75.4338 14.8868 75.5063 12.7658 75.9521C12.4143 76.0285 12.0679 76.11 11.7214 76.2017L10.6364 76.5023L8.4611 77.1136C7.72243 77.3122 7.04999 77.5007 6.37245 77.7453C5.69491 77.9898 5.05303 78.2547 4.33474 78.5756L2.33269 79.4875L1.03875 80.053L0.804409 78.6266C0.686386 77.918 0.60477 77.2039 0.559884 76.487C0.504552 75.7701 0.487547 75.0508 0.508941 74.3321C0.529121 73.594 0.604042 72.8584 0.733089 72.1314C0.869243 71.3394 1.13062 70.5742 1.50742 69.8644C2.28377 68.4722 3.43434 67.3252 4.82889 66.5531C5.16001 66.3596 5.49624 66.1813 5.84774 66.0437L6.35717 65.8247L6.77999 65.6209C7.1264 65.4426 7.47791 65.249 7.82941 65.0554C7.82941 64.8415 7.82941 64.6326 7.82941 64.4186C7.82941 63.9703 7.88036 63.522 7.91602 63.0636C7.98125 62.1019 8.15906 61.1513 8.44582 60.2311C8.78613 59.2225 9.35644 58.3069 10.1116 57.5566C10.5149 57.1657 10.9629 56.8237 11.4463 56.5378C11.8856 56.2783 12.3417 56.0486 12.8116 55.8501C14.4453 55.2261 16.1291 54.7421 17.8448 54.4033C19.4342 54.0569 20.9625 53.7461 22.4296 53.3233L22.7098 53.2316L22.8473 53.1959L22.9543 53.1603C23.1 53.1183 23.2429 53.0672 23.3822 53.0075C23.5366 52.9507 23.6879 52.8861 23.8356 52.8139C23.9834 52.7527 24.1413 52.6712 24.2941 52.5999C24.9326 52.2745 25.5486 51.9069 26.1382 51.4996C26.7335 51.0932 27.3034 50.6508 27.8448 50.175C28.1046 49.9356 28.3542 49.7013 28.5886 49.472L28.8942 49.1307C28.991 49.0084 29.1031 48.8505 29.2101 48.713C29.6477 48.1359 30.0459 47.53 30.4021 46.8994C30.7611 46.2625 31.0843 45.606 31.3701 44.933C31.6495 44.2518 31.8877 43.5543 32.0833 42.8444C32.18 42.4929 32.2667 42.1363 32.338 41.7797C32.3736 41.6014 32.4093 41.4282 32.4399 41.2702L32.4755 41.0104L32.5061 40.7965L33.0155 37.1286L35.4047 39.7165C35.5779 39.9101 35.6951 40.0476 35.8326 40.2259C35.9702 40.4042 36.0874 40.5469 36.2147 40.7048C36.4643 41.0308 36.7241 41.3569 36.9228 41.7236C37.3816 42.4098 37.787 43.1302 38.1353 43.8785C38.5031 44.6619 38.7767 45.4861 38.9503 46.334C38.9962 46.5479 39.0318 46.7924 39.0573 46.986C39.0828 47.1796 39.1032 47.3936 39.1184 47.5973C39.1541 48.0049 39.1745 48.4175 39.1694 48.8302C39.1443 50.4283 38.9166 52.0168 38.4919 53.5576L38.3645 54.0976C38.3136 54.2963 38.2626 54.5001 38.2066 54.6937C38.0945 55.091 37.9671 55.4833 37.8194 55.8653C37.7277 56.0997 37.6309 56.334 37.529 56.5633C37.9519 56.6651 38.3849 56.7568 38.8128 56.8333C39.7645 57.0167 40.7281 57.1324 41.6962 57.1797C42.6427 57.2298 43.5919 57.182 44.5286 57.037C44.9786 56.9632 45.4241 56.8645 45.8633 56.7416C46.2963 56.6091 46.6834 56.441 47.1419 56.2933C48.939 55.6414 50.6552 54.7851 52.2566 53.741C53.9093 52.6866 55.4918 51.526 56.9943 50.2667C60.0508 47.7196 62.8832 44.8923 65.8838 42.0395C66.6377 41.3263 67.4121 40.6182 68.2169 39.9152C68.6245 39.5688 69.032 39.2122 69.46 38.8658C69.8879 38.5193 70.3005 38.1984 70.7284 37.8469L71.3499 37.3884H71.3805C73.1336 35.894 75.0533 34.6069 77.1014 33.5524C93.5049 25.3608 113.739 25.6257 132.12 22.0037C150.5 18.3817 187.148 11.3312 198.763 1Z" fill="#EA5B0C" stroke="#EA5B0C" stroke-width="0.382071" stroke-miterlimit="10"/>
<path d="M176.623 28.4426C171.697 32.8186 158.706 40.9236 149.919 43.3994C144.136 45.0347 136.536 46.8126 124.957 47.322C117.906 47.6379 114.284 47.4901 102.073 46.9247C99.5259 46.8075 80.6364 46.9247 69.3525 53.7255C80.2696 41.9119 107.397 43.0581 120.494 42.5181C131.003 42.0698 139.674 40.7911 149.99 38.6516C160.306 36.512 170.443 32.3448 176.623 28.4426Z" fill="#EA5B0C"/>
<path d="M149.964 38.631C139.649 40.7706 130.978 42.0493 120.469 42.4976C107.371 43.058 80.2238 41.9118 69.3271 53.705C80.611 46.8889 99.4955 46.787 102.048 46.9042C114.274 47.4696 117.881 47.6173 124.931 47.3015C136.536 46.7921 144.137 45.0142 149.893 43.3789C158.681 40.9031 171.671 32.7981 176.597 28.4221C170.443 32.3447 160.255 36.4965 149.964 38.631ZM149.878 43.2566C141.749 45.5767 133.365 46.8907 124.916 47.1691C117.871 47.4798 114.361 47.3474 102.043 46.7717C97.9672 46.5832 80.9421 47.1232 70.2034 53.0377C80.0048 43.5929 100.769 43.1293 114.636 42.8185C116.75 42.7676 118.742 42.7268 120.469 42.6555C130.183 42.2378 138.732 41.1272 149.985 38.7839C158.783 36.9601 168.324 33.4349 174.972 29.6142C169.246 34.1634 157.886 41.005 149.878 43.2566Z" fill="#EA5B0C"/>
<path d="M82.7861 55.4323C87.5391 54.3421 91.0694 54.2759 97.1112 54.7904C103.79 55.3559 106.5 56.3187 114.488 57.1643C121.861 58.0218 129.331 57.3895 136.454 55.3049C143.856 53.1348 149.806 49.7012 152.629 46.1811C148.803 48.8199 142.511 50.7048 136.149 51.7848C129.858 52.8686 123.467 53.2581 117.091 52.9463C108.696 52.5387 93.8967 49.5841 82.7861 55.4323Z" fill="#EA5B0C" stroke="#EA5B0C" stroke-width="0.208865" stroke-miterlimit="10"/>
<path d="M46.6828 65.0452L44.8794 67.628L38.8631 75.7788C38.7968 76.2169 39.128 76.4462 39.8819 76.4614L48.0888 76.4869L54.3497 76.4614L52.8214 78.2139H39.4234C36.5503 78.2139 34.9592 77.7265 34.6501 76.7518C34.5834 76.5701 34.5575 76.376 34.5743 76.1832C34.591 75.9904 34.6499 75.8036 34.7469 75.6362L40.5391 67.5312L42.3425 65.0452H46.6777H46.6828Z" fill="#1D1D1B"/>
<path d="M69.3584 78.1932H61.4673C58.5942 78.1932 57.0031 77.7059 56.694 76.7312C56.6287 76.5492 56.6035 76.3553 56.6202 76.1627C56.637 75.9702 56.6951 75.7835 56.7908 75.6155L62.5881 67.5258C63.8414 66.3367 65.416 65.5414 67.1169 65.2385C67.6569 65.1722 68.1969 65.1213 68.7369 65.0907C69.2769 65.0602 69.8321 65.0398 70.3823 65.0398H78.1307C78.6401 65.0398 79.0732 65.0856 79.496 65.1264C79.9188 65.1672 80.306 65.2181 80.6626 65.2843C81.0575 65.3741 81.4168 65.5796 81.6944 65.8745C81.9721 66.1694 82.1556 66.5403 82.2214 66.94V67.6735L76.6432 75.7582C75.767 77.3815 73.3387 78.1932 69.3584 78.1932ZM75.5224 66.7973H70.041C68.9381 66.7091 67.8381 67.0003 66.9233 67.6226L60.907 75.7734C60.7949 76.1504 61.177 76.3746 62.0532 76.4561L70.1174 76.4815C71.1057 76.4815 71.7985 76.2472 72.1857 75.8244L77.983 67.6735C77.6926 67.1641 77.1068 66.8941 76.2305 66.7973H75.5224Z" fill="#1D1D1B"/>
<path d="M89.2616 72.3047H84.7328L82.1856 75.7637L82.1347 75.8401C82.1067 75.9172 82.0895 75.9978 82.0838 76.0796L80.5555 78.1988H76.3018L78.0542 75.6211L85.6548 65.0453H99.4094C99.9188 65.0453 100.352 65.0912 100.775 65.132C101.197 65.1727 101.585 65.2236 101.946 65.2899C102.341 65.3797 102.701 65.5851 102.978 65.88C103.256 66.1749 103.439 66.5459 103.505 66.9455V67.6791L101.31 71.0872C100.693 71.9022 99.6386 72.32 98.146 72.3556H96.4853V78.1937H92.2978V72.3047H89.2769H89.2616ZM96.7909 66.8029H88.8235L88.1918 67.6281L85.9503 70.5013H95.7925C96.2248 70.5235 96.6559 70.4372 97.0465 70.2504C97.437 70.0635 97.7747 69.7821 98.0288 69.4315L99.2515 67.6791C98.956 67.1697 98.3702 66.8997 97.4939 66.8029H96.7909Z" fill="#1D1D1B"/>
<path d="M110.525 72.3047H105.996L103.449 75.7637L103.398 75.8401C103.371 75.9173 103.356 75.9979 103.352 76.0796L101.824 78.1988H97.5957L99.3481 75.6211L106.949 65.0453H120.703C121.187 65.0453 121.641 65.0912 122.064 65.132C122.486 65.1727 122.879 65.2236 123.235 65.2899C123.63 65.3797 123.989 65.5851 124.267 65.88C124.545 66.1749 124.728 66.5459 124.794 66.9455V67.6791L122.603 71.0872C121.982 71.9022 120.927 72.32 119.435 72.3556H117.779V78.1937H113.587V72.3047H110.566H110.525ZM118.054 66.8029H110.087L109.455 67.6281L107.214 70.5013H117.056C117.489 70.5234 117.921 70.4371 118.312 70.2503C118.703 70.0636 119.042 69.7821 119.297 69.4315L120.515 67.6791C120.219 67.1697 119.639 66.8997 118.762 66.8029H118.054Z" fill="#1D1D1B"/>
<path d="M146.363 65.1417H147.52L145.671 67.6888L143.429 70.3684C142.944 70.9865 142.325 71.487 141.62 71.8328C140.914 72.1786 140.14 72.3606 139.354 72.3654H134.677L131.728 76.3491L130.337 78.1932H126.537L130.775 72.2991H125.905C123.694 72.2991 123.149 71.642 124.27 70.3277L128.05 65.0398H132.431L130.485 67.5869L128.391 70.4601H139.058L143.348 65.1468L146.363 65.1417Z" fill="#1D1D1B"/>
<path d="M151.188 76.0281L149.496 78.6313H145.518L147.209 76.0281H151.188Z" fill="#1D1D1B"/>
<path d="M158.161 76.9196H166.877C167.147 76.9233 167.416 76.873 167.667 76.7719C167.872 76.6934 168.05 76.555 168.176 76.3745L175.308 65.2639H179.282L171.788 76.8941C171.349 77.5156 170.717 77.9741 169.99 78.1983C168.859 78.5307 167.682 78.6769 166.505 78.6313H156.306C155.449 78.6689 154.591 78.5814 153.759 78.3715C153.25 78.1983 152.97 77.9436 152.97 77.6175C152.992 77.3554 153.087 77.1047 153.245 76.8941L160.764 65.2639H164.743L157.585 76.3745C157.544 76.4424 157.521 76.5195 157.519 76.5987C157.519 76.8126 157.733 76.9196 158.161 76.9196Z" fill="#1D1D1B"/>
<path d="M179.786 76.9199H192.95L191.839 78.6316H173.337L174.391 76.9963L194.05 66.9861H180.861L181.956 65.2744H200.5L199.45 66.9097L179.786 76.9199Z" fill="#1D1D1B"/>
<path d="M45.165 85.0193V84.678H48.1299V85.0193H46.8665V87.9027H46.4233V85.0193H45.165Z" fill="#1D1D1B"/>
<path d="M49.3633 87.9027V84.678H49.8014V86.0687H52.0836V84.678H52.5166V87.9027H52.0836V86.41H49.8014V87.9027H49.3633Z" fill="#1D1D1B"/>
<path d="M54.2939 87.9027V84.678H57.0703V85.0193H54.7321V86.0738H57.0041V86.4049H54.7321V87.5664H57.0703V87.9027H54.2939Z" fill="#1D1D1B"/>
<path d="M61.207 84.678H61.6451V86.7972C61.6395 86.9427 61.6532 87.0883 61.6859 87.2302C61.7133 87.3088 61.7628 87.3777 61.8285 87.4289C61.9048 87.4833 61.9915 87.5215 62.0832 87.541C62.2518 87.566 62.4223 87.5762 62.5926 87.5715H63.0104C63.1807 87.5764 63.3512 87.5662 63.5198 87.541C63.6118 87.5225 63.6987 87.4843 63.7745 87.4289C63.8409 87.3806 63.8907 87.313 63.9171 87.2353C63.9473 87.0913 63.9593 86.9442 63.9528 86.7972V84.678H64.396V86.8532C64.4132 87.0101 64.3951 87.1687 64.3431 87.3177C64.2911 87.4666 64.2065 87.6021 64.0954 87.7142C63.7799 87.9083 63.4097 87.9942 63.0409 87.9587H62.5621C62.1918 87.9931 61.8203 87.9073 61.5025 87.7142C61.3923 87.6016 61.3087 87.466 61.2576 87.317C61.2065 87.1681 61.1892 87.0097 61.207 86.8532V84.678Z" fill="#1D1D1B"/>
<path d="M65.9092 87.9027V87.5206L68.4563 84.9989H66.0111V84.678H68.9046V85.055L66.3575 87.5664H68.9046V87.9027H65.9092Z" fill="#1D1D1B"/>
<path d="M70.499 87.903V84.6783H72.3381C72.6309 84.6479 72.9264 84.7028 73.1888 84.8363C73.2696 84.9217 73.3303 85.0242 73.3664 85.1361C73.4026 85.2481 73.4132 85.3666 73.3977 85.4832C73.4083 85.659 73.3732 85.8345 73.2958 85.9927C73.2056 86.1051 73.0765 86.1796 72.9341 86.2015C73.1033 86.2215 73.2593 86.3031 73.3722 86.4308C73.4679 86.5993 73.5105 86.7929 73.4945 86.986C73.5118 87.1178 73.4973 87.2519 73.452 87.3768C73.4068 87.5018 73.3323 87.6141 73.2346 87.7043C72.9177 87.8561 72.5657 87.9195 72.2158 87.8877L70.499 87.903ZM70.9269 86.0691H72.3584C72.52 86.0882 72.6833 86.0523 72.822 85.9672C72.9035 85.901 72.9443 85.7532 72.9443 85.5189C72.9443 85.2846 72.9035 85.1623 72.8169 85.1063C72.6088 85.0289 72.386 84.9993 72.1649 85.0197H70.9269V86.0691ZM70.9269 87.5668H72.3737C72.5491 87.5804 72.725 87.547 72.8831 87.47C72.9698 87.4038 73.0156 87.2306 73.0156 86.9606C73.0156 86.6906 72.9647 86.5785 72.8628 86.5072C72.6121 86.4151 72.3441 86.3803 72.0783 86.4053H70.9066L70.9269 87.5668Z" fill="#1D1D1B"/>
<path d="M75.1191 87.9027V84.678H77.8955V85.0193H75.5572V86.0738H77.8293V86.4049H75.5572V87.5664H77.8955V87.9027H75.1191Z" fill="#1D1D1B"/>
<path d="M79.4189 87.9027V84.678H79.852V86.0432H80.1933L81.798 84.678H82.3736L80.5499 86.2063L82.5876 87.8925H81.9915L80.1729 86.3642H79.8316V87.8925L79.4189 87.9027Z" fill="#1D1D1B"/>
<path d="M86.5303 87.9027V84.678H86.9735V87.9027H86.5303Z" fill="#1D1D1B"/>
<path d="M88.7471 87.9027V84.678H89.445L91.5897 87.5562V84.678H91.9921V87.9027H91.3299L89.1852 85.0193V87.9027H88.7471Z" fill="#1D1D1B"/>
<path d="M93.2451 85.0193V84.678H96.21V85.0193H94.9415V87.9027H94.5034V85.0193H93.2451Z" fill="#1D1D1B"/>
<path d="M97.4424 87.9027V84.678H100.219V85.0193H97.8754V86.0738H100.142V86.4049H97.8652V87.5664H100.209V87.9027H97.4424Z" fill="#1D1D1B"/>
<path d="M101.737 87.9028V84.6781H103.525C103.84 84.6517 104.155 84.7061 104.442 84.836C104.531 84.9017 104.601 84.9893 104.646 85.0902C104.69 85.1911 104.708 85.3019 104.697 85.4117V85.9211C104.703 86.0645 104.658 86.2055 104.57 86.3185C104.467 86.4239 104.329 86.489 104.183 86.5019C104.335 86.5182 104.476 86.5888 104.58 86.7005C104.669 86.8324 104.71 86.9905 104.697 87.1488V87.9232H104.218V87.2609C104.229 87.1775 104.222 87.0929 104.198 87.0122C104.175 86.9316 104.135 86.8567 104.081 86.7922C103.93 86.6951 103.75 86.652 103.571 86.67H102.181V87.9232L101.737 87.9028ZM103.439 85.0194H102.181V86.3134H103.444C103.665 86.3324 103.887 86.2975 104.091 86.2115C104.145 86.1704 104.188 86.1159 104.214 86.0534C104.241 85.9909 104.251 85.9225 104.244 85.8549V85.4779C104.251 85.4101 104.241 85.3416 104.215 85.2785C104.19 85.2154 104.149 85.1596 104.096 85.1162C103.888 85.0304 103.662 84.9971 103.439 85.0194Z" fill="#1D1D1B"/>
<path d="M106.362 87.9027V84.678H107.035L109.179 87.5562V84.678H109.618V87.9027H108.945L106.795 85.0193V87.9027H106.362Z" fill="#1D1D1B"/>
<path d="M110.979 87.9027L112.441 84.678H113.164L114.631 87.9027H114.183L113.806 87.0774H111.804L111.432 87.9027H110.979ZM111.946 86.7615H113.663L112.879 85.0193H112.736L111.946 86.7615Z" fill="#1D1D1B"/>
<path d="M114.997 85.0193V84.678H117.972V85.0193H116.704V87.9027H116.266V85.0193H114.997Z" fill="#1D1D1B"/>
<path d="M119.195 87.9027V84.678H119.639V87.9027H119.195Z" fill="#1D1D1B"/>
<path d="M121.284 85.7433C121.266 85.5851 121.285 85.4248 121.34 85.2753C121.395 85.1257 121.484 84.9912 121.6 84.8823C121.937 84.6871 122.327 84.6016 122.716 84.6378H123.225C123.613 84.6021 124.002 84.6856 124.341 84.8772C124.457 84.9871 124.545 85.1227 124.599 85.2732C124.653 85.4236 124.671 85.5847 124.651 85.7433V86.8538C124.67 87.012 124.651 87.1723 124.596 87.3218C124.541 87.4713 124.452 87.6059 124.336 87.7148C124 87.9096 123.612 87.9951 123.225 87.9593H122.716C122.327 87.9955 121.937 87.91 121.6 87.7148C121.484 87.6059 121.395 87.4713 121.34 87.3218C121.285 87.1723 121.266 87.012 121.284 86.8538V85.7433ZM123.082 84.974H122.838C122.64 84.9702 122.443 84.9821 122.247 85.0097C122.141 85.0311 122.04 85.0745 121.951 85.1371C121.874 85.1897 121.817 85.2669 121.788 85.3561C121.746 85.512 121.729 85.6737 121.737 85.835V86.7519C121.729 86.9116 121.746 87.0716 121.788 87.2257C121.817 87.3163 121.874 87.395 121.951 87.4498C122.041 87.5087 122.142 87.5502 122.247 87.5721C122.442 87.6023 122.64 87.6143 122.838 87.6078H123.067C123.266 87.6142 123.466 87.6023 123.663 87.5721C123.768 87.5502 123.869 87.5087 123.959 87.4498C124.034 87.3969 124.09 87.3222 124.122 87.2359C124.159 87.0775 124.175 86.9146 124.167 86.7519V85.835C124.174 85.6723 124.159 85.5095 124.122 85.351C124.091 85.2614 124.032 85.1844 123.953 85.132C123.865 85.073 123.767 85.0315 123.663 85.0097C123.466 84.9795 123.266 84.9676 123.067 84.974H123.082Z" fill="#1D1D1B"/>
<path d="M126.286 87.9027V84.678H126.959L129.103 87.5562V84.678H129.541V87.9027H128.864L126.719 85.0193V87.9027H126.286Z" fill="#1D1D1B"/>
<path d="M130.902 87.9027L132.364 84.678H133.083L134.555 87.9027H134.102L133.725 87.0774H131.728L131.361 87.9027H130.902ZM131.87 86.7615H133.587L132.797 85.0193H132.655L131.87 86.7615Z" fill="#1D1D1B"/>
<path d="M135.904 87.9027V84.678H136.312V87.5664H138.558V87.9027H135.904Z" fill="#1D1D1B"/>
<path d="M142.629 87.9027V84.678H143.057V87.5664H145.303V87.9027H142.629Z" fill="#1D1D1B"/>
<path d="M146.572 85.7433C146.553 85.5855 146.571 85.4254 146.625 85.2759C146.679 85.1265 146.767 84.9917 146.882 84.8823C147.22 84.6871 147.61 84.6016 147.998 84.6378H148.508C148.897 84.6023 149.288 84.6858 149.628 84.8772C149.742 84.989 149.828 85.125 149.881 85.275C149.934 85.4251 149.952 85.5852 149.934 85.7433V86.8538C149.952 87.012 149.933 87.1723 149.878 87.3218C149.823 87.4713 149.734 87.6059 149.618 87.7148C149.282 87.9096 148.894 87.9951 148.508 87.9593H147.998C147.61 87.9955 147.22 87.91 146.882 87.7148C146.767 87.6054 146.679 87.4706 146.625 87.3211C146.571 87.1717 146.553 87.0116 146.572 86.8538V85.7433ZM148.365 84.974H148.12C147.924 84.9701 147.729 84.9821 147.535 85.0097C147.427 85.031 147.324 85.0744 147.234 85.1371C147.157 85.1897 147.099 85.2669 147.071 85.3561C147.031 85.5125 147.014 85.6737 147.02 85.835V86.7519C147.014 86.9115 147.031 87.0711 147.071 87.2257C147.099 87.3163 147.157 87.395 147.234 87.4498C147.326 87.5088 147.428 87.5502 147.535 87.5721C147.728 87.6024 147.924 87.6143 148.12 87.6078H148.365C148.564 87.6142 148.764 87.6023 148.961 87.5721C149.068 87.5502 149.17 87.5088 149.261 87.4498C149.335 87.3966 149.39 87.3219 149.419 87.2359C149.457 87.0775 149.473 86.9146 149.465 86.7519V85.835C149.472 85.6723 149.457 85.5095 149.419 85.351C149.391 85.2618 149.334 85.1846 149.256 85.132C149.166 85.0731 149.066 85.0316 148.961 85.0097C148.764 84.9795 148.564 84.9676 148.365 84.974Z" fill="#1D1D1B"/>
<path d="M151.417 85.7434C151.398 85.5852 151.418 85.4249 151.472 85.2754C151.527 85.1259 151.616 84.9913 151.733 84.8824C152.068 84.687 152.457 84.6015 152.843 84.6379H153.353C153.724 84.6125 154.096 84.6827 154.433 84.8417C154.543 84.9042 154.635 84.9965 154.696 85.1081C154.757 85.2197 154.786 85.3463 154.779 85.4734V85.6109H154.326V85.5702C154.335 85.4818 154.321 85.3926 154.285 85.3113C154.25 85.23 154.193 85.1594 154.122 85.1066C153.872 84.9973 153.599 84.9518 153.327 84.9741H152.981C152.785 84.9707 152.589 84.9826 152.395 85.0098C152.287 85.0303 152.184 85.0737 152.094 85.1372C152.017 85.188 151.96 85.2634 151.931 85.3511C151.893 85.5094 151.877 85.6724 151.885 85.8351V86.752C151.878 86.9147 151.894 87.0776 151.931 87.236C151.962 87.3223 152.019 87.397 152.094 87.45C152.184 87.5097 152.284 87.5512 152.39 87.5722C152.585 87.6024 152.783 87.6144 152.981 87.6079H153.327C153.506 87.6129 153.685 87.6027 153.862 87.5773C153.959 87.5589 154.051 87.5207 154.132 87.4652C154.203 87.4151 154.257 87.3438 154.285 87.2615C154.32 87.12 154.334 86.974 154.326 86.8285V86.6247H153.23V86.2987H154.759V86.8539C154.778 87.0117 154.759 87.1718 154.705 87.3213C154.651 87.4707 154.563 87.6055 154.448 87.7149C154.11 87.9095 153.72 87.9949 153.332 87.9594H152.823C152.436 87.9959 152.048 87.9103 151.712 87.7149C151.596 87.606 151.507 87.4715 151.452 87.3219C151.397 87.1724 151.378 87.0121 151.396 86.8539L151.417 85.7434Z" fill="#1D1D1B"/>
<path d="M156.384 87.9027V84.678H156.822V87.9027H156.384Z" fill="#1D1D1B"/>
<path d="M158.487 86.8537H158.931V86.9149C158.923 87.0577 158.94 87.2008 158.982 87.3377C158.996 87.3801 159.018 87.4192 159.048 87.4525C159.078 87.4858 159.114 87.5126 159.155 87.5313C159.249 87.5682 159.349 87.5889 159.45 87.5924C159.583 87.5924 159.858 87.5924 160.276 87.5924C160.446 87.5964 160.617 87.5845 160.785 87.5567C160.887 87.5435 160.984 87.503 161.065 87.4396C161.104 87.3991 161.129 87.3474 161.137 87.2918C161.155 87.1996 161.164 87.1057 161.162 87.0117C161.182 86.8546 161.15 86.6952 161.07 86.5583C160.971 86.4801 160.845 86.442 160.719 86.4513L159.501 86.3698C159.232 86.378 158.966 86.3014 158.742 86.1507C158.666 86.0646 158.608 85.9636 158.572 85.854C158.536 85.7445 158.523 85.6287 158.533 85.5139C158.527 85.36 158.549 85.2062 158.6 85.0605C158.647 84.947 158.725 84.8484 158.824 84.7753C158.926 84.7114 159.041 84.6698 159.16 84.653C159.412 84.6224 159.665 84.6105 159.919 84.6173H160.062C160.348 84.6098 160.634 84.6251 160.917 84.6632C161.066 84.6913 161.208 84.7484 161.335 84.8313C161.413 84.8851 161.471 84.9616 161.503 85.0504C161.543 85.1668 161.562 85.2892 161.559 85.4121C161.562 85.4442 161.562 85.4767 161.559 85.5088V85.5649H161.116V85.4885C161.118 85.3961 161.109 85.3039 161.091 85.2134C161.08 85.1594 161.052 85.1107 161.009 85.0758C160.92 85.0191 160.819 84.9858 160.714 84.979C160.576 84.979 160.306 84.9536 159.914 84.9536C159.652 84.9267 159.388 84.9652 159.145 85.0656C159.055 85.1846 159.003 85.3272 158.994 85.4757C158.985 85.6243 159.019 85.7722 159.094 85.9011C159.205 85.9883 159.345 86.0318 159.486 86.0234L160.729 86.11C160.976 86.1048 161.218 86.1818 161.417 86.329C161.491 86.4135 161.546 86.5123 161.581 86.6192C161.615 86.7261 161.627 86.8389 161.615 86.9505C161.619 87.11 161.602 87.2693 161.564 87.4243C161.532 87.5255 161.474 87.6167 161.396 87.6892C161.287 87.7851 161.153 87.8486 161.009 87.8726C160.716 87.9213 160.419 87.9401 160.123 87.9286H159.924C159.665 87.9356 159.406 87.9203 159.15 87.8828C159.014 87.8595 158.885 87.8055 158.773 87.7249C158.673 87.6559 158.597 87.5582 158.554 87.4447C158.5 87.2997 158.476 87.1456 158.482 86.9913L158.487 86.8537Z" fill="#1D1D1B"/>
<path d="M162.757 85.0193V84.678H165.717V85.0193H164.453V87.9027H164.015V85.0193H162.757Z" fill="#1D1D1B"/>
<path d="M166.954 87.9027V84.678H167.387V87.9027H166.954Z" fill="#1D1D1B"/>
<path d="M169.165 87.9027V84.678H169.603V86.0432H169.934L171.539 84.678H172.12L170.296 86.2063L172.334 87.8925H171.733L169.914 86.3642H169.578V87.8925L169.165 87.9027Z" fill="#1D1D1B"/>
<path d="M176.16 85.7433C176.143 85.5873 176.16 85.4293 176.21 85.2806C176.26 85.1319 176.342 84.9959 176.45 84.8823C176.753 84.6902 177.112 84.6042 177.469 84.6378H177.933C178.285 84.6105 178.638 84.6829 178.952 84.8467C179.055 84.9324 179.136 85.0423 179.188 85.1666C179.239 85.2909 179.26 85.4259 179.247 85.5599V85.6974H178.794V85.6108C178.806 85.5174 178.795 85.4226 178.763 85.3341C178.731 85.2455 178.679 85.1658 178.61 85.1014C178.388 84.9921 178.139 84.9462 177.892 84.9689H177.586C177.416 84.9643 177.245 84.9762 177.077 85.0046C176.979 85.0254 176.887 85.0671 176.807 85.1268C176.735 85.1808 176.682 85.2555 176.654 85.3408C176.613 85.5074 176.598 85.6791 176.608 85.8502V86.7672C176.6 86.9299 176.616 87.0929 176.654 87.2512C176.681 87.3371 176.734 87.4121 176.807 87.4651C176.884 87.5268 176.975 87.5688 177.072 87.5874C177.24 87.6163 177.411 87.6282 177.581 87.623H177.887C178.138 87.6483 178.391 87.6006 178.615 87.4855C178.684 87.4146 178.735 87.3292 178.766 87.2358C178.797 87.1423 178.806 87.0431 178.794 86.9455V86.8538C178.796 86.8335 178.796 86.813 178.794 86.7927H179.247V87.0066C179.262 87.1456 179.244 87.2862 179.193 87.4165C179.143 87.5469 179.062 87.6631 178.957 87.7555C178.644 87.9209 178.29 87.9934 177.938 87.9644H177.474C177.117 87.998 176.759 87.912 176.455 87.7198C176.347 87.6064 176.264 87.4705 176.214 87.3217C176.164 87.1729 176.147 87.0149 176.165 86.8589L176.16 85.7433Z" fill="#1D1D1B"/>
<path d="M180.693 85.7434C180.675 85.5852 180.694 85.4249 180.749 85.2754C180.804 85.1259 180.893 84.9913 181.009 84.8824C181.345 84.687 181.733 84.6015 182.12 84.6379H182.629C183.018 84.6025 183.409 84.6859 183.75 84.8773C183.863 84.9891 183.949 85.1251 184.002 85.2752C184.055 85.4252 184.074 85.5853 184.055 85.7434V86.8539C184.074 87.0117 184.056 87.1718 184.002 87.3213C183.948 87.4707 183.86 87.6055 183.745 87.7149C183.407 87.9095 183.017 87.9949 182.629 87.9594H182.12C181.733 87.9959 181.345 87.9103 181.009 87.7149C180.893 87.606 180.804 87.4715 180.749 87.3219C180.694 87.1724 180.675 87.0121 180.693 86.8539V85.7434ZM182.492 84.9741H182.247C182.049 84.9703 181.852 84.9822 181.656 85.0098C181.548 85.0311 181.446 85.0745 181.356 85.1372C181.278 85.1899 181.221 85.267 181.193 85.3562C181.155 85.513 181.14 85.6741 181.147 85.8351V86.752C181.139 86.9113 181.155 87.0708 181.193 87.2258C181.221 87.3164 181.278 87.3951 181.356 87.45C181.447 87.5089 181.549 87.5503 181.656 87.5722C181.852 87.6024 182.049 87.6144 182.247 87.6079H182.492C182.689 87.6142 182.887 87.6022 183.082 87.5722C183.19 87.5513 183.292 87.5097 183.383 87.45C183.458 87.397 183.515 87.3223 183.546 87.236C183.584 87.0776 183.599 86.9147 183.592 86.752V85.8351C183.601 85.6721 183.584 85.5087 183.541 85.3511C183.513 85.2619 183.455 85.1848 183.378 85.1321C183.288 85.0723 183.188 85.0308 183.082 85.0098C182.887 84.9796 182.689 84.9676 182.492 84.9741Z" fill="#1D1D1B"/>
<path d="M8.47624 64.6478L7.77832 65.7838C7.77832 65.5037 7.77832 65.305 7.77832 65.0706V65.035C8.02285 64.9076 8.25209 64.7803 8.47624 64.6478Z" fill="#EA5B0C"/>
</svg>
