<svg width="24" height="24" viewBox="0 0 24 24" fill="none" xmlns="http://www.w3.org/2000/svg">
<path d="M2.99611 5.97657L5.03285 5.77689L5.03285 5.77689L5.03541 5.77663C10.2861 5.24366 15.6207 5.4494 20.9928 5.97652C20.993 5.97689 20.9931 5.9772 20.9932 5.97741C20.9932 5.97748 20.9932 5.97756 20.9932 5.97764L20.9929 5.98046H20.9929H20.9928H20.9926H20.9925H20.9924H20.9922H20.9921H20.992H20.9919H20.9917H20.9916H20.9915H20.9913H20.9912H20.9911H20.9909H20.9908H20.9907H20.9905H20.9904H20.9903H20.9901H20.99H20.9899H20.9897H20.9896H20.9895H20.9893H20.9892H20.9891H20.9889H20.9888H20.9887H20.9885H20.9884H20.9883H20.9881H20.988H20.9878H20.9877H20.9876H20.9874H20.9873H20.9872H20.987H20.9869H20.9867H20.9866H20.9865H20.9863H20.9862H20.9861H20.9859H20.9858H20.9856H20.9855H20.9854H20.9852H20.9851H20.9849H20.9848H20.9847H20.9845H20.9844H20.9842H20.9841H20.9839H20.9838H20.9837H20.9835H20.9834H20.9832H20.9831H20.983H20.9828H20.9827H20.9825H20.9824H20.9822H20.9821H20.9819H20.9818H20.9817H20.9815H20.9814H20.9812H20.9811H20.9809H20.9808H20.9806H20.9805H20.9804H20.9802H20.9801H20.9799H20.9798H20.9796H20.9795H20.9793H20.9792H20.979H20.9789H20.9787H20.9786H20.9784H20.9783H20.9781H20.978H20.9779H20.9777H20.9776H20.9774H20.9773H20.9771H20.977H20.9768H20.9767H20.9765H20.9764H20.9762H20.9761H20.9759H20.9758H20.9756H20.9755H20.9753H20.9752H20.975H20.9749H20.9747H20.9745H20.9744H20.9742H20.9741H20.9739H20.9738H20.9736H20.9735H20.9733H20.9732H20.973H20.9729H20.9727H20.9726H20.9724H20.9723H20.9721H20.9719H20.9718H20.9716H20.9715H20.9713H20.9712H20.971H20.9709H20.9707H20.9706H20.9704H20.9702H20.9701H20.9699H20.9698H20.9696H20.9695H20.9693H20.9691H20.969H20.9688H20.9687H20.9685H20.9684H20.9682H20.968H20.9679H20.9677H20.9676H20.9674H20.9673H20.9671H20.9669H20.9668H20.9666H20.9665H20.9663H20.9661H20.966H20.9658H20.9657H20.9655H20.9653H20.9652H20.965H20.9649H20.9647H20.9645H20.9644H20.9642H20.9641H20.9639H20.9637H20.9636H20.9634H20.9633H20.9631H20.9629H20.9628H20.9626H20.9625H20.9623H20.9621H20.962H20.9618H20.9616H20.9615H20.9613H20.9612H20.961H20.9608H20.9607H20.9605H20.9603H20.9602H20.96H20.9599H20.9597H20.9595H20.9594H20.9592H20.959H20.9589H20.9587H20.9585H20.9584H20.9582H20.958H20.9579H20.9577H20.9576H20.9574H20.9572H20.9571C15.6513 5.45043 10.3301 5.24872 5.04528 5.78416L3.00856 5.98384C3.00842 5.98386 3.00828 5.98387 3.00815 5.98388C3.00259 5.98436 2.99997 5.98362 2.99915 5.98337C2.998 5.98301 2.9972 5.98255 2.99671 5.98217C2.99659 5.98164 2.99642 5.98073 2.99629 5.97936C2.99619 5.9783 2.99614 5.97737 2.99611 5.97657Z" fill="#FD4D00" stroke="#FD4D00" stroke-width="1.5"/>
<path d="M8.50074 5.72C8.46074 5.72 8.42074 5.72 8.37074 5.71C7.97074 5.64 7.69074 5.25 7.76074 4.85L7.98074 3.54C8.14074 2.58 8.36074 1.25 10.6907 1.25H13.3107C15.6507 1.25 15.8707 2.63 16.0207 3.55L16.2407 4.85C16.3107 5.26 16.0307 5.65 15.6307 5.71C15.2207 5.78 14.8307 5.5 14.7707 5.1L14.5507 3.8C14.4107 2.93 14.3807 2.76 13.3207 2.76H10.7007C9.64074 2.76 9.62074 2.9 9.47074 3.79L9.24074 5.09C9.18074 5.46 8.86074 5.72 8.50074 5.72Z" fill="#FD4D00"/>
<path d="M15.2104 22.7515H8.79039C5.30039 22.7515 5.16039 20.8215 5.05039 19.2615L4.40039 9.19154C4.37039 8.78154 4.69039 8.42154 5.10039 8.39154C5.52039 8.37154 5.87039 8.68154 5.90039 9.09154L6.55039 19.1615C6.66039 20.6815 6.70039 21.2515 8.79039 21.2515H15.2104C17.3104 21.2515 17.3504 20.6815 17.4504 19.1615L18.1004 9.09154C18.1304 8.68154 18.4904 8.37154 18.9004 8.39154C19.3104 8.42154 19.6304 8.77154 19.6004 9.19154L18.9504 19.2615C18.8404 20.8215 18.7004 22.7515 15.2104 22.7515Z" fill="#FD4D00"/>
<path d="M13.6601 17.25H10.3301C9.92008 17.25 9.58008 16.91 9.58008 16.5C9.58008 16.09 9.92008 15.75 10.3301 15.75H13.6601C14.0701 15.75 14.4101 16.09 14.4101 16.5C14.4101 16.91 14.0701 17.25 13.6601 17.25Z" fill="#FD4D00"/>
<path d="M14.5 13.25H9.5C9.09 13.25 8.75 12.91 8.75 12.5C8.75 12.09 9.09 11.75 9.5 11.75H14.5C14.91 11.75 15.25 12.09 15.25 12.5C15.25 12.91 14.91 13.25 14.5 13.25Z" fill="#FD4D00"/>
</svg>
