<svg width="20" height="20" viewBox="0 0 20 20" fill="none" xmlns="http://www.w3.org/2000/svg">
<path d="M12.4998 18.9583H7.49984C2.97484 18.9583 1.0415 17.025 1.0415 12.5V7.49999C1.0415 2.97499 2.97484 1.04166 7.49984 1.04166H11.6665C12.0082 1.04166 12.2915 1.32499 12.2915 1.66666C12.2915 2.00832 12.0082 2.29166 11.6665 2.29166H7.49984C3.65817 2.29166 2.2915 3.65832 2.2915 7.49999V12.5C2.2915 16.3417 3.65817 17.7083 7.49984 17.7083H12.4998C16.3415 17.7083 17.7082 16.3417 17.7082 12.5V8.33332C17.7082 7.99166 17.9915 7.70832 18.3332 7.70832C18.6748 7.70832 18.9582 7.99166 18.9582 8.33332V12.5C18.9582 17.025 17.0248 18.9583 12.4998 18.9583Z" fill="#292D32"/>
<path d="M18.3332 8.95834H14.9998C12.1498 8.95834 11.0415 7.85001 11.0415 5.00001V1.66668C11.0415 1.41668 11.1915 1.18334 11.4248 1.09168C11.6582 0.991678 11.9248 1.05001 12.1082 1.22501L18.7748 7.89168C18.9498 8.06668 19.0082 8.34168 18.9082 8.57501C18.8082 8.80834 18.5832 8.95834 18.3332 8.95834ZM12.2915 3.17501V5.00001C12.2915 7.15001 12.8498 7.70834 14.9998 7.70834H16.8248L12.2915 3.17501Z" fill="#292D32"/>
<path d="M10.8335 11.4583H5.8335C5.49183 11.4583 5.2085 11.175 5.2085 10.8333C5.2085 10.4917 5.49183 10.2083 5.8335 10.2083H10.8335C11.1752 10.2083 11.4585 10.4917 11.4585 10.8333C11.4585 11.175 11.1752 11.4583 10.8335 11.4583Z" fill="#292D32"/>
<path d="M9.16683 14.7917H5.8335C5.49183 14.7917 5.2085 14.5083 5.2085 14.1667C5.2085 13.825 5.49183 13.5417 5.8335 13.5417H9.16683C9.5085 13.5417 9.79183 13.825 9.79183 14.1667C9.79183 14.5083 9.5085 14.7917 9.16683 14.7917Z" fill="#292D32"/>
</svg>
