<svg width="17" height="16" viewBox="0 0 17 16" fill="none" xmlns="http://www.w3.org/2000/svg">
<path d="M10.9167 15.1654H5.58333C3.15 15.1654 1.75 13.7654 1.75 11.332V4.66536C1.75 2.23203 3.15 0.832031 5.58333 0.832031H10.9167C13.35 0.832031 14.75 2.23203 14.75 4.66536V11.332C14.75 13.7654 13.35 15.1654 10.9167 15.1654ZM5.58333 1.83203C3.67667 1.83203 2.75 2.7587 2.75 4.66536V11.332C2.75 13.2387 3.67667 14.1654 5.58333 14.1654H10.9167C12.8233 14.1654 13.75 13.2387 13.75 11.332V4.66536C13.75 2.7587 12.8233 1.83203 10.9167 1.83203H5.58333Z" fill="#FF680A"/>
<path d="M12.5846 6.16667H11.2513C10.238 6.16667 9.41797 5.34667 9.41797 4.33333V3C9.41797 2.72667 9.64464 2.5 9.91797 2.5C10.1913 2.5 10.418 2.72667 10.418 3V4.33333C10.418 4.79333 10.7913 5.16667 11.2513 5.16667H12.5846C12.858 5.16667 13.0846 5.39333 13.0846 5.66667C13.0846 5.94 12.858 6.16667 12.5846 6.16667Z" fill="#FF680A"/>
<path d="M8.2487 9.16797H5.58203C5.3087 9.16797 5.08203 8.9413 5.08203 8.66797C5.08203 8.39464 5.3087 8.16797 5.58203 8.16797H8.2487C8.52203 8.16797 8.7487 8.39464 8.7487 8.66797C8.7487 8.9413 8.52203 9.16797 8.2487 9.16797Z" fill="#FF680A"/>
<path d="M10.9154 11.832H5.58203C5.3087 11.832 5.08203 11.6054 5.08203 11.332C5.08203 11.0587 5.3087 10.832 5.58203 10.832H10.9154C11.1887 10.832 11.4154 11.0587 11.4154 11.332C11.4154 11.6054 11.1887 11.832 10.9154 11.832Z" fill="#FF680A"/>
</svg>
