<svg width="20" height="20" viewBox="0 0 20 20" fill="none" xmlns="http://www.w3.org/2000/svg">
<path fill-rule="evenodd" clip-rule="evenodd" d="M1.25 10C1.25 5.16914 5.16914 1.25 10 1.25C14.8309 1.25 18.75 5.16914 18.75 10C18.75 14.8309 14.8309 18.75 10 18.75C5.16914 18.75 1.25 14.8309 1.25 10ZM10 2.59615C5.9126 2.59615 2.59615 5.9126 2.59615 10C2.59615 14.0874 5.9126 17.4038 10 17.4038C14.0874 17.4038 17.4038 14.0874 17.4038 10C17.4038 5.9126 14.0874 2.59615 10 2.59615Z" fill="#292D32"/>
<path fill-rule="evenodd" clip-rule="evenodd" d="M15.1545 6.80089C15.4344 7.04552 15.463 7.47073 15.2183 7.75062L10.5123 13.1352C10.3896 13.2756 10.2142 13.3588 10.0279 13.365C9.84157 13.3712 9.66103 13.2999 9.52928 13.168L7.51216 11.1488C7.24944 10.8858 7.24966 10.4596 7.51265 10.1969C7.77564 9.93418 8.20181 9.9344 8.46453 10.1974L9.97264 11.7071L14.2047 6.86476C14.4494 6.58486 14.8746 6.55627 15.1545 6.80089Z" fill="#292D32"/>
<path fill-rule="evenodd" clip-rule="evenodd" d="M4.81277 10.1969C5.07576 9.93418 5.50193 9.9344 5.76465 10.1974L7.78177 12.2166C8.04449 12.4796 8.04427 12.9058 7.78128 13.1685C7.51829 13.4312 7.09212 13.431 6.8294 13.168L4.81228 11.1488C4.54956 10.8858 4.54978 10.4596 4.81277 10.1969Z" fill="#292D32"/>
<path fill-rule="evenodd" clip-rule="evenodd" d="M12.534 6.80083C12.814 7.04542 12.8426 7.47062 12.598 7.75055L10.4295 10.2325C10.1849 10.5125 9.75967 10.5411 9.47974 10.2965C9.19981 10.0519 9.17115 9.62674 9.41574 9.3468L11.5843 6.86483C11.8289 6.5849 12.2541 6.55625 12.534 6.80083Z" fill="#292D32"/>
</svg>
