<svg width="16" height="17" viewBox="0 0 16 17" fill="none" xmlns="http://www.w3.org/2000/svg">
<mask id="path-1-inside-1_871_73116" fill="white">
<path d="M9.99967 15.6654H5.99967C2.37967 15.6654 0.833008 14.1187 0.833008 10.4987V6.4987C0.833008 2.8787 2.37967 1.33203 5.99967 1.33203H7.33301C7.60634 1.33203 7.83301 1.5587 7.83301 1.83203C7.83301 2.10536 7.60634 2.33203 7.33301 2.33203H5.99967C2.92634 2.33203 1.83301 3.42536 1.83301 6.4987V10.4987C1.83301 13.572 2.92634 14.6654 5.99967 14.6654H9.99967C13.073 14.6654 14.1663 13.572 14.1663 10.4987V9.16536C14.1663 8.89203 14.393 8.66536 14.6663 8.66536C14.9397 8.66536 15.1663 8.89203 15.1663 9.16536V10.4987C15.1663 14.1187 13.6197 15.6654 9.99967 15.6654Z"/>
</mask>
<path d="M9.99967 15.6654H5.99967C2.37967 15.6654 0.833008 14.1187 0.833008 10.4987V6.4987C0.833008 2.8787 2.37967 1.33203 5.99967 1.33203H7.33301C7.60634 1.33203 7.83301 1.5587 7.83301 1.83203C7.83301 2.10536 7.60634 2.33203 7.33301 2.33203H5.99967C2.92634 2.33203 1.83301 3.42536 1.83301 6.4987V10.4987C1.83301 13.572 2.92634 14.6654 5.99967 14.6654H9.99967C13.073 14.6654 14.1663 13.572 14.1663 10.4987V9.16536C14.1663 8.89203 14.393 8.66536 14.6663 8.66536C14.9397 8.66536 15.1663 8.89203 15.1663 9.16536V10.4987C15.1663 14.1187 13.6197 15.6654 9.99967 15.6654Z" fill="#0A1E56"/>
<path d="M9.99967 14.1654H5.99967V17.1654H9.99967V14.1654ZM5.99967 14.1654C4.36186 14.1654 3.55028 13.8096 3.1195 13.3789C2.68872 12.9481 2.33301 12.1365 2.33301 10.4987H-0.666992C-0.666992 12.4809 -0.249374 14.2526 0.998181 15.5002C2.24574 16.7477 4.01749 17.1654 5.99967 17.1654V14.1654ZM2.33301 10.4987V6.4987H-0.666992V10.4987H2.33301ZM2.33301 6.4987C2.33301 4.86088 2.68872 4.0493 3.1195 3.61852C3.55028 3.18775 4.36186 2.83203 5.99967 2.83203V-0.167969C4.01749 -0.167969 2.24574 0.249649 0.998181 1.4972C-0.249374 2.74476 -0.666992 4.51651 -0.666992 6.4987H2.33301ZM5.99967 2.83203H7.33301V-0.167969H5.99967V2.83203ZM7.33301 2.83203C6.77791 2.83203 6.33301 2.38713 6.33301 1.83203H9.33301C9.33301 0.730271 8.43477 -0.167969 7.33301 -0.167969V2.83203ZM6.33301 1.83203C6.33301 1.27694 6.77791 0.832031 7.33301 0.832031V3.83203C8.43477 3.83203 9.33301 2.93379 9.33301 1.83203H6.33301ZM7.33301 0.832031H5.99967V3.83203H7.33301V0.832031ZM5.99967 0.832031C4.35718 0.832031 2.79681 1.10858 1.70318 2.2022C0.609554 3.29583 0.333008 4.8562 0.333008 6.4987H3.33301C3.33301 5.06786 3.60313 4.5449 3.8245 4.32352C4.04587 4.10215 4.56884 3.83203 5.99967 3.83203V0.832031ZM0.333008 6.4987V10.4987H3.33301V6.4987H0.333008ZM0.333008 10.4987C0.333008 12.1412 0.609554 13.7016 1.70318 14.7952C2.79681 15.8888 4.35718 16.1654 5.99967 16.1654V13.1654C4.56884 13.1654 4.04587 12.8952 3.8245 12.6739C3.60313 12.4525 3.33301 11.9295 3.33301 10.4987H0.333008ZM5.99967 16.1654H9.99967V13.1654H5.99967V16.1654ZM9.99967 16.1654C11.6422 16.1654 13.2025 15.8888 14.2962 14.7952C15.3898 13.7016 15.6663 12.1412 15.6663 10.4987H12.6663C12.6663 11.9295 12.3962 12.4525 12.1748 12.6739C11.9535 12.8952 11.4305 13.1654 9.99967 13.1654V16.1654ZM15.6663 10.4987V9.16536H12.6663V10.4987H15.6663ZM15.6663 9.16536C15.6663 9.72046 15.2214 10.1654 14.6663 10.1654V7.16536C13.5646 7.16536 12.6663 8.0636 12.6663 9.16536H15.6663ZM14.6663 10.1654C14.1112 10.1654 13.6663 9.72046 13.6663 9.16536H16.6663C16.6663 8.0636 15.7681 7.16536 14.6663 7.16536V10.1654ZM13.6663 9.16536V10.4987H16.6663V9.16536H13.6663ZM13.6663 10.4987C13.6663 12.1365 13.3106 12.9481 12.8798 13.3789C12.4491 13.8096 11.6375 14.1654 9.99967 14.1654V17.1654C11.9819 17.1654 13.7536 16.7477 15.0012 15.5002C16.2487 14.2526 16.6663 12.4809 16.6663 10.4987H13.6663Z" fill="#0A1E56" mask="url(#path-1-inside-1_871_73116)"/>
<mask id="path-3-inside-2_871_73116" fill="white">
<path d="M5.66688 12.2924C5.26022 12.2924 4.88688 12.1457 4.61355 11.8791C4.28688 11.5524 4.14688 11.0791 4.22022 10.5791L4.50688 8.5724C4.56022 8.18573 4.81355 7.68573 5.08688 7.4124L10.3402 2.15906C11.6669 0.832396 13.0135 0.832396 14.3402 2.15906C15.0669 2.88573 15.3935 3.62573 15.3269 4.36573C15.2669 4.96573 14.9469 5.5524 14.3402 6.1524L9.08688 11.4057C8.81355 11.6791 8.31355 11.9324 7.92688 11.9857L5.92022 12.2724C5.83355 12.2924 5.74688 12.2924 5.66688 12.2924ZM11.0469 2.86573L5.79355 8.11906C5.66688 8.24573 5.52022 8.53906 5.49355 8.7124L5.20688 10.7191C5.18022 10.9124 5.22022 11.0724 5.32022 11.1724C5.42022 11.2724 5.58022 11.3124 5.77355 11.2857L7.78022 10.9991C7.95355 10.9724 8.25355 10.8257 8.37355 10.6991L13.6269 5.44573C14.0602 5.0124 14.2869 4.62573 14.3202 4.26573C14.3602 3.8324 14.1335 3.3724 13.6269 2.85906C12.5602 1.7924 11.8269 2.0924 11.0469 2.86573Z"/>
</mask>
<path d="M5.66688 12.2924C5.26022 12.2924 4.88688 12.1457 4.61355 11.8791C4.28688 11.5524 4.14688 11.0791 4.22022 10.5791L4.50688 8.5724C4.56022 8.18573 4.81355 7.68573 5.08688 7.4124L10.3402 2.15906C11.6669 0.832396 13.0135 0.832396 14.3402 2.15906C15.0669 2.88573 15.3935 3.62573 15.3269 4.36573C15.2669 4.96573 14.9469 5.5524 14.3402 6.1524L9.08688 11.4057C8.81355 11.6791 8.31355 11.9324 7.92688 11.9857L5.92022 12.2724C5.83355 12.2924 5.74688 12.2924 5.66688 12.2924ZM11.0469 2.86573L5.79355 8.11906C5.66688 8.24573 5.52022 8.53906 5.49355 8.7124L5.20688 10.7191C5.18022 10.9124 5.22022 11.0724 5.32022 11.1724C5.42022 11.2724 5.58022 11.3124 5.77355 11.2857L7.78022 10.9991C7.95355 10.9724 8.25355 10.8257 8.37355 10.6991L13.6269 5.44573C14.0602 5.0124 14.2869 4.62573 14.3202 4.26573C14.3602 3.8324 14.1335 3.3724 13.6269 2.85906C12.5602 1.7924 11.8269 2.0924 11.0469 2.86573Z" fill="#0A1E56"/>
<path d="M4.61355 11.8791L3.55289 12.9397L3.55944 12.9463L3.56606 12.9527L4.61355 11.8791ZM4.22022 10.5791L5.70435 10.7967L5.70514 10.7912L4.22022 10.5791ZM4.50688 8.5724L5.99182 8.78453L5.99281 8.77735L4.50688 8.5724ZM5.08688 7.4124L4.02622 6.35174H4.02622L5.08688 7.4124ZM10.3402 2.15906L11.4009 3.21972L10.3402 2.15906ZM15.3269 4.36573L16.8194 4.51499L16.8202 4.50766L16.8208 4.50032L15.3269 4.36573ZM14.3402 6.1524L13.2854 5.08588L13.2796 5.09174L14.3402 6.1524ZM9.08688 11.4057L10.1475 12.4664L9.08688 11.4057ZM7.92688 11.9857L7.72192 10.4998L7.71475 10.5008L7.92688 11.9857ZM5.92022 12.2724L5.70808 10.7875L5.64501 10.7965L5.58293 10.8108L5.92022 12.2724ZM11.0469 2.86573L9.99077 1.80052L9.98622 1.80507L11.0469 2.86573ZM5.79355 8.11906L6.85421 9.17972L5.79355 8.11906ZM5.49355 8.7124L4.01099 8.48431L4.00977 8.49228L4.00862 8.50026L5.49355 8.7124ZM5.20688 10.7191L3.72194 10.5069L3.72095 10.5141L5.20688 10.7191ZM5.77355 11.2857L5.97851 12.7717L5.98568 12.7707L5.77355 11.2857ZM7.78022 10.9991L7.99235 12.484L8.00033 12.4828L8.0083 12.4816L7.78022 10.9991ZM8.37355 10.6991L7.31289 9.6384L7.29856 9.65273L7.28462 9.66745L8.37355 10.6991ZM14.3202 4.26573L15.8138 4.40403L15.8139 4.4036L14.3202 4.26573ZM13.6269 2.85906L14.6945 1.80533L14.6875 1.7984L13.6269 2.85906ZM5.66688 10.7924C5.6442 10.7924 5.6357 10.7884 5.63829 10.7894C5.6394 10.7899 5.6425 10.7912 5.64689 10.7941C5.65133 10.7969 5.65624 10.8007 5.66104 10.8054L3.56606 12.9527C4.13856 13.5113 4.89617 13.7924 5.66688 13.7924V10.7924ZM5.67421 10.8184C5.68316 10.8274 5.69044 10.837 5.69574 10.846C5.70094 10.8548 5.70293 10.8607 5.70332 10.8621C5.70417 10.8649 5.69737 10.8443 5.70434 10.7967L2.73609 10.3614C2.60322 11.2674 2.8483 12.2351 3.55289 12.9397L5.67421 10.8184ZM5.70514 10.7912L5.99181 8.78453L3.02196 8.36026L2.73529 10.3669L5.70514 10.7912ZM5.99281 8.77735C5.99079 8.79204 5.99107 8.781 6.00319 8.74501C6.01461 8.71106 6.03197 8.66863 6.05494 8.62287C6.0779 8.57715 6.10193 8.53711 6.12315 8.50635C6.14557 8.47385 6.15578 8.46482 6.14754 8.47306L4.02622 6.35174C3.52767 6.85028 3.12012 7.64845 3.02095 8.36744L5.99281 8.77735ZM6.14754 8.47306L11.4009 3.21972L9.27956 1.0984L4.02622 6.35174L6.14754 8.47306ZM11.4009 3.21972C11.8967 2.7239 12.206 2.66406 12.3402 2.66406C12.4745 2.66406 12.7837 2.7239 13.2796 3.21972L15.4009 1.0984C14.57 0.267556 13.5426 -0.335938 12.3402 -0.335938C11.1378 -0.335938 10.1104 0.267556 9.27956 1.0984L11.4009 3.21972ZM13.2796 3.21972C13.8118 3.75197 13.8466 4.07918 13.8329 4.23114L16.8208 4.50032C16.9405 3.17228 16.322 2.01949 15.4009 1.0984L13.2796 3.21972ZM13.8343 4.21647C13.8203 4.3564 13.7385 4.63779 13.2854 5.08589L15.395 7.2189C16.1553 6.467 16.7134 5.57506 16.8194 4.51499L13.8343 4.21647ZM13.2796 5.09174L8.02622 10.3451L10.1475 12.4664L15.4009 7.21306L13.2796 5.09174ZM8.02622 10.3451C8.03446 10.3368 8.02542 10.347 7.99293 10.3695C7.96217 10.3907 7.92213 10.4147 7.87641 10.4377C7.83065 10.4606 7.78822 10.478 7.75427 10.4894C7.71827 10.5015 7.70724 10.5018 7.72193 10.4998L8.13184 13.4717C8.85083 13.3725 9.64899 12.9649 10.1475 12.4664L8.02622 10.3451ZM7.71475 10.5008L5.70808 10.7875L6.13235 13.7573L8.13901 13.4707L7.71475 10.5008ZM5.58293 10.8108C5.64509 10.7965 5.68977 10.7933 5.70296 10.7925C5.7099 10.7921 5.7118 10.7922 5.70541 10.7923C5.69781 10.7924 5.68858 10.7924 5.66688 10.7924V13.7924C5.72409 13.7924 5.97881 13.7983 6.25751 13.734L5.58293 10.8108ZM9.98622 1.80507L4.73289 7.0584L6.85421 9.17972L12.1075 3.92639L9.98622 1.80507ZM4.73289 7.0584C4.50807 7.28322 4.35481 7.54794 4.26643 7.72338C4.17792 7.89909 4.0584 8.17614 4.01099 8.48431L6.97611 8.94048C6.96893 8.98712 6.9605 9.02076 6.95559 9.03867C6.95039 9.05766 6.94617 9.06974 6.94443 9.07458C6.94136 9.08306 6.94158 9.08119 6.94567 9.07308C6.94977 9.06493 6.95092 9.06408 6.94548 9.07226C6.94239 9.07689 6.93487 9.08789 6.92229 9.10382C6.91036 9.11891 6.8879 9.14603 6.85421 9.17972L4.73289 7.0584ZM4.00862 8.50026L3.72196 10.5069L6.69181 10.9312L6.97847 8.92453L4.00862 8.50026ZM3.72095 10.5141C3.65618 10.9837 3.71254 11.686 4.25956 12.2331L6.38088 10.1117C6.72789 10.4588 6.70425 10.8411 6.69281 10.924L3.72095 10.5141ZM4.25956 12.2331C4.80657 12.7801 5.50895 12.8364 5.97851 12.7717L5.56859 9.7998C5.65148 9.78837 6.03386 9.76472 6.38088 10.1117L4.25956 12.2331ZM5.98568 12.7707L7.99235 12.484L7.56808 9.51414L5.56142 9.80081L5.98568 12.7707ZM8.0083 12.4816C8.31248 12.4348 8.58898 12.3176 8.7677 12.2282C8.93783 12.1431 9.22485 11.9815 9.46248 11.7307L7.28462 9.66745C7.32517 9.62464 7.35881 9.59599 7.37785 9.5806C7.39797 9.56434 7.41253 9.55425 7.4194 9.54965C7.43196 9.54123 7.4339 9.541 7.42606 9.54492C7.41862 9.54864 7.41618 9.54918 7.4233 9.54663C7.42746 9.54514 7.43868 9.54124 7.45671 9.53634C7.47358 9.53175 7.50632 9.52355 7.55213 9.51651L8.0083 12.4816ZM9.43421 11.7597L14.6875 6.50639L12.5662 4.38507L7.31289 9.6384L9.43421 11.7597ZM14.6875 6.50639C15.2124 5.9815 15.7325 5.28249 15.8138 4.40403L12.8266 4.12743C12.8346 4.04115 12.8602 4.0173 12.8301 4.06866C12.7978 4.12368 12.7223 4.22894 12.5662 4.38507L14.6875 6.50639ZM15.8139 4.4036C15.9148 3.30962 15.3131 2.43212 14.6945 1.80536L12.5593 3.91277C12.7409 4.09673 12.8112 4.21102 12.8331 4.25552C12.8488 4.28745 12.8167 4.23446 12.8266 4.12785L15.8139 4.4036ZM14.6875 1.7984C14.0062 1.11707 13.1409 0.581621 12.0911 0.67878C11.1261 0.7681 10.4259 1.36912 9.99078 1.80053L12.103 3.93093C12.256 3.77917 12.3564 3.70217 12.4159 3.6655C12.4685 3.6331 12.4464 3.65872 12.3676 3.66601C12.2776 3.67434 12.2247 3.64907 12.2394 3.65605C12.2701 3.67067 12.3789 3.73241 12.5662 3.91972L14.6875 1.7984Z" fill="#0A1E56" mask="url(#path-3-inside-2_871_73116)"/>
<mask id="path-5-inside-3_871_73116" fill="white">
<path d="M13.233 7.05221C13.1864 7.05221 13.1397 7.04555 13.0997 7.03221C11.3464 6.53888 9.95305 5.14555 9.45971 3.39221C9.38638 3.12555 9.53971 2.85221 9.80638 2.77221C10.073 2.69888 10.3464 2.85221 10.4197 3.11888C10.8197 4.53888 11.9464 5.66555 13.3664 6.06555C13.633 6.13888 13.7864 6.41888 13.713 6.68554C13.653 6.91221 13.453 7.05221 13.233 7.05221Z"/>
</mask>
<path d="M13.233 7.05221C13.1864 7.05221 13.1397 7.04555 13.0997 7.03221C11.3464 6.53888 9.95305 5.14555 9.45971 3.39221C9.38638 3.12555 9.53971 2.85221 9.80638 2.77221C10.073 2.69888 10.3464 2.85221 10.4197 3.11888C10.8197 4.53888 11.9464 5.66555 13.3664 6.06555C13.633 6.13888 13.7864 6.41888 13.713 6.68554C13.653 6.91221 13.453 7.05221 13.233 7.05221Z" fill="#0A1E56"/>
<path d="M13.0997 7.03221L13.5741 5.60919L13.5403 5.59793L13.506 5.58828L13.0997 7.03221ZM9.45971 3.39221L8.01338 3.78995L8.01578 3.79849L9.45971 3.39221ZM9.80638 2.77221L9.40864 1.3259L9.39195 1.3305L9.37536 1.33547L9.80638 2.77221ZM10.4197 3.11888L8.97338 3.51662L8.9759 3.52559L10.4197 3.11888ZM13.3664 6.06555L12.9597 7.50938L12.9686 7.51185L13.3664 6.06555ZM13.713 6.68554L12.2667 6.28781L12.2648 6.29475L12.263 6.30171L13.713 6.68554ZM13.233 5.55221C13.3185 5.55221 13.4357 5.56307 13.5741 5.60919L12.6254 8.45524C12.8437 8.52802 13.0543 8.55221 13.233 8.55221V5.55221ZM13.506 5.58828C12.2557 5.23648 11.2554 4.23625 10.9036 2.98593L8.01578 3.79849C8.65065 6.05484 10.4371 7.84128 12.6934 8.47614L13.506 5.58828ZM10.906 2.99448C11.0523 3.52642 10.7385 4.05863 10.2374 4.20895L9.37536 1.33547C8.34095 1.6458 7.72045 2.72467 8.0134 3.78995L10.906 2.99448ZM10.2041 4.21852C9.68177 4.36217 9.12241 4.05845 8.9734 3.51661L11.866 2.72114C11.5703 1.64598 10.4643 1.03559 9.40864 1.3259L10.2041 4.21852ZM8.9759 3.52559C9.5175 5.44825 11.037 6.96776 12.9597 7.50936L13.7731 4.62173C12.8558 4.36333 12.1219 3.62951 11.8635 2.71217L8.9759 3.52559ZM12.9686 7.51185C12.4096 7.35811 12.1279 6.7927 12.2667 6.28781L15.1594 7.08328C15.4449 6.04506 14.8565 4.91965 13.7641 4.61924L12.9686 7.51185ZM12.263 6.30171C12.3872 5.83263 12.8124 5.55221 13.233 5.55221V8.55221C14.0937 8.55221 14.9189 7.99179 15.1631 7.06938L12.263 6.30171Z" fill="#0A1E56" mask="url(#path-5-inside-3_871_73116)"/>
</svg>
