<svg width="20" height="20" viewBox="0 0 20 20" fill="none" xmlns="http://www.w3.org/2000/svg">
<path d="M15.033 11.2904C14.683 11.632 14.483 12.1237 14.533 12.6487C14.608 13.5487 15.433 14.207 16.333 14.207H17.9163V15.1987C17.9163 16.9237 16.508 18.332 14.783 18.332H5.21634C3.49134 18.332 2.08301 16.9237 2.08301 15.1987V9.59037C2.08301 7.86537 3.49134 6.45703 5.21634 6.45703H14.783C16.508 6.45703 17.9163 7.86537 17.9163 9.59037V10.7904H16.233C15.7663 10.7904 15.3413 10.9737 15.033 11.2904Z" stroke="#0A1E56" stroke-width="1.5" stroke-linecap="round" stroke-linejoin="round"/>
<path d="M2.08301 10.3401V6.53183C2.08301 5.54017 2.69134 4.6568 3.61634 4.3068L10.233 1.8068C11.2663 1.41513 12.3747 2.18182 12.3747 3.29015V6.45681" stroke="#0A1E56" stroke-width="1.5" stroke-linecap="round" stroke-linejoin="round"/>
<path d="M18.7987 11.6429V13.3597C18.7987 13.818 18.432 14.1929 17.9654 14.2096H16.332C15.432 14.2096 14.607 13.5513 14.532 12.6513C14.482 12.1263 14.682 11.6346 15.032 11.2929C15.3404 10.9763 15.7654 10.793 16.232 10.793H17.9654C18.432 10.8096 18.7987 11.1846 18.7987 11.6429Z" stroke="#0A1E56" stroke-width="1.5" stroke-linecap="round" stroke-linejoin="round"/>
<path d="M5.83301 10H11.6663" stroke="#0A1E56" stroke-width="1.5" stroke-linecap="round" stroke-linejoin="round"/>
</svg>
