<svg width="24" height="25" viewBox="0 0 24 25" fill="none" xmlns="http://www.w3.org/2000/svg">
<path d="M15.75 18.125V13.25H8.95312C8.75421 13.25 8.56345 13.171 8.4228 13.0303C8.28214 12.8897 8.20312 12.6989 8.20312 12.5C8.20312 12.3011 8.28214 12.1103 8.4228 11.9697C8.56345 11.829 8.75421 11.75 8.95312 11.75H15.75V6.875C15.7493 6.17904 15.4725 5.51179 14.9803 5.01967C14.4882 4.52755 13.821 4.25074 13.125 4.25H4.125C3.42904 4.25074 2.76179 4.52755 2.26967 5.01967C1.77755 5.51179 1.50074 6.17904 1.5 6.875V18.125C1.50074 18.821 1.77755 19.4882 2.26967 19.9803C2.76179 20.4725 3.42904 20.7493 4.125 20.75H13.125C13.821 20.7493 14.4882 20.4725 14.9803 19.9803C15.4725 19.4882 15.7493 18.821 15.75 18.125Z" fill="#FF4433"/>
<path d="M19.9392 13.25L17.4698 15.7198C17.3351 15.8616 17.2611 16.0505 17.2636 16.246C17.2661 16.4416 17.3449 16.6285 17.4832 16.7668C17.6215 16.9051 17.8084 16.9839 18.004 16.9864C18.1995 16.9889 18.3884 16.9149 18.5302 16.7802L22.2802 13.0302C22.4207 12.8895 22.4997 12.6988 22.4997 12.5C22.4997 12.3012 22.4207 12.1105 22.2802 11.9698L18.5302 8.21984C18.3884 8.08513 18.1995 8.01114 18.004 8.01364C17.8084 8.01614 17.6215 8.09495 17.4832 8.23325C17.3449 8.37155 17.2661 8.5584 17.2636 8.75398C17.2611 8.94955 17.3351 9.13836 17.4698 9.28016L19.9392 11.75H15.75V13.25H19.9392Z" fill="#FF4433"/>
</svg>
