<svg width="16" height="16" viewBox="0 0 16 16" fill="none" xmlns="http://www.w3.org/2000/svg">
<path d="M3.43359 15.1667C3.16026 15.1667 2.93359 14.94 2.93359 14.6667V1.33337C2.93359 1.06004 3.16026 0.833374 3.43359 0.833374C3.70693 0.833374 3.93359 1.06004 3.93359 1.33337V14.6667C3.93359 14.94 3.70693 15.1667 3.43359 15.1667Z" fill="white"/>
<path d="M10.9003 11.1666H3.43359C3.16026 11.1666 2.93359 10.94 2.93359 10.6666C2.93359 10.3933 3.16026 10.1666 3.43359 10.1666H10.9003C11.6269 10.1666 11.9669 9.97329 12.0336 9.80663C12.1003 9.63996 12.0003 9.26663 11.4803 8.75329L10.6803 7.95329C10.3536 7.66663 10.1536 7.23329 10.1336 6.75329C10.1136 6.24663 10.3136 5.74663 10.6803 5.37996L11.4803 4.57996C11.9736 4.08663 12.1269 3.68663 12.0536 3.51329C11.9803 3.33996 11.6003 3.16663 10.9003 3.16663H3.43359C3.15359 3.16663 2.93359 2.93996 2.93359 2.66663C2.93359 2.39329 3.16026 2.16663 3.43359 2.16663H10.9003C12.3603 2.16663 12.8269 2.77329 12.9803 3.13329C13.1269 3.49329 13.2269 4.25329 12.1869 5.29329L11.3869 6.09329C11.2203 6.25996 11.1269 6.49329 11.1336 6.72663C11.1403 6.92663 11.2203 7.10663 11.3603 7.23329L12.1869 8.05329C13.2069 9.07329 13.1069 9.83329 12.9603 10.2C12.8069 10.5533 12.3336 11.1666 10.9003 11.1666Z" fill="white"/>
</svg>
