<svg width="28" height="28" viewBox="0 0 28 28" fill="none" xmlns="http://www.w3.org/2000/svg">
<path d="M4.08203 25.6654V5.83203C4.08203 3.4987 5.64536 2.33203 7.58203 2.33203H16.9154C18.852 2.33203 20.4154 3.4987 20.4154 5.83203V25.6654H4.08203Z" stroke="#FD4D00" stroke-width="2" stroke-linecap="round" stroke-linejoin="round"/>
<path d="M2.33203 25.668H22.1654" stroke="#FD4D00" stroke-width="2" stroke-linecap="round" stroke-linejoin="round"/>
<path d="M9.78703 11.6653H14.722C15.9354 11.6653 16.927 11.082 16.927 9.46031V8.02531C16.927 6.40365 15.9354 5.82031 14.722 5.82031H9.78703C8.5737 5.82031 7.58203 6.40365 7.58203 8.02531V9.46031C7.58203 11.082 8.5737 11.6653 9.78703 11.6653Z" stroke="#FD4D00" stroke-width="1.75" stroke-linecap="round" stroke-linejoin="round"/>
<path d="M7.58203 15.168H11.082" stroke="#FD4D00" stroke-width="1.75" stroke-linecap="round" stroke-linejoin="round"/>
<path d="M20.418 18.6783L25.668 18.6667V11.6667L23.3346 10.5" stroke="#FD4D00" stroke-width="1.75" stroke-linecap="round" stroke-linejoin="round"/>
</svg>
