<svg width="24" height="24" viewBox="0 0 24 24" fill="none" xmlns="http://www.w3.org/2000/svg">
<path d="M12.6581 3.81262L12.1581 3.8126V4.31262V14.1087H2.86074C2.52937 14.1087 2.26074 14.3773 2.26074 14.7087V17.185C2.26074 17.5164 2.52937 17.785 2.86074 17.785H4.61032H4.62628H4.64218H4.65801H4.67377H4.68946H4.70509H4.72064H4.73612H4.75154H4.76689H4.78217H4.79738H4.81253H4.82761H4.84263H4.85757H4.87246H4.88727H4.90202H4.91671H4.93133H4.94589H4.96038H4.97481H4.98918H5.00348H5.01772H5.0319H5.04601H5.06006H5.07405H5.08798H5.10185H5.11565H5.1294H5.14308H5.15671H5.17027H5.18378H5.19723H5.21061H5.22394H5.23721H5.25042H5.26358H5.27667H5.28971H5.30269H5.31562H5.32848H5.3413H5.35405H5.36675H5.3794H5.39199H5.40452H5.417H5.42943H5.4418H5.45412H5.46639H5.4786H5.49076H5.50286H5.51492H5.52692H5.53887H5.55077H5.56262H5.57441H5.58616H5.59786H5.6095H5.6211H5.63265H5.64414H5.65559H5.66699H5.67835H5.68965H5.70091H5.71211H5.72328H5.73439H5.74546H5.75648H5.76745H5.77838H5.78927H5.80011H5.8109H5.82165H5.83236H5.84302H5.85363H5.86421H5.87474H5.88522H5.89567H5.90607H5.91643H5.92675H5.93702H5.94726H5.95745H5.96761H5.97772H5.98779H5.99783H6.00782H6.01777H6.02769H6.03757H6.0474H6.0572H6.06697H6.07669H6.08638H6.09603H6.10564H6.11522H6.12476H6.13426H6.14373H6.15316H6.16256H6.17192H6.18125H6.19055H6.19981H6.20904H6.21823H6.22739H6.23652H6.24561H6.25468H6.26371H6.27271H6.28168H6.29061H6.29952H6.30839H6.31724H6.32606H6.33484H6.3436H6.35232H6.36102H6.36969H6.37833H6.38695H6.39553H6.40409H6.41262H6.42112H6.4296H6.43805H6.44648H6.45488H6.46325H6.4716H6.47992H6.48822H6.49649H6.50475H6.51297H6.52117H6.52935H6.53751H6.54565H6.55376H6.56185H6.56992H6.57796H6.58599H6.59399H6.60197H6.60994H6.61788H6.6258H6.63371H6.64159H6.64946H6.6573H6.66513H6.67294H6.68073H6.68851H6.69627H6.70401H6.71173H6.71944H6.72713H6.7348H6.74246H6.75011H6.75773H6.76535H6.77295H6.78053H6.78811H6.79566H6.80321H6.81074H6.81826H6.82576H6.83326H6.84074H6.84821H6.85567H6.86312H6.87055H6.87798H6.8854H6.8928H6.9002H6.90759H6.91497H6.92233H6.9297H6.93705H6.94439H6.95173H6.95906H6.96638H6.9737H6.981H6.98831H6.9956H7.00289H7.01018H7.01746H7.02473H7.032H7.03927H7.04653H7.05379H7.06105H7.0683H7.07555H7.08279H7.09004H7.09728H7.10452H7.11176H7.11899H7.12623H7.13346H7.1407H7.14793H7.15517H7.16241H7.16964H7.17688H7.18412H7.19136H7.1986H7.20584H7.21309H7.22034H7.22759H7.23485H7.24211H7.24937H7.25664H7.26391H7.27119H7.27847H7.28576H7.29305H7.30035H7.30765H7.31496H7.32228H7.3296H7.33694H7.34427H7.35162H7.35898H7.36634H7.37371H7.38109H7.38848H7.39588H7.40329H7.41071H7.41814H7.42558H7.43303H7.44049H7.44797H7.45545H7.46295H7.47046H7.47798H7.48552H7.49307H7.50063H7.50821H7.5158H7.5234H7.53102H7.53865H7.5463H7.55396H7.56164H7.56934H7.57705H7.58478H7.59253H7.60029H7.60807H7.61587H7.62368H7.63152H7.63937H7.64724H7.65513H7.66304H7.67097H7.67892H7.68689H7.69488H7.70289H7.71092H7.71897H7.72705H7.73514H7.74326H7.7514H7.75957H7.76775H7.77596H7.7842H7.79246H7.80074H7.80904H7.81737H7.82573H7.83411H7.84252H7.85095H7.85941H7.8679H7.87641H7.88495H7.89351H7.90211H7.91073H7.91938H7.92806H7.93676H7.9455H7.95427H7.96306H7.97188H7.98074H7.98962H7.99854H8.00749H8.01646H8.02547H8.03451H8.04359H8.05269H8.06183H8.071H8.0802H8.08944H8.09871H8.10802H8.11736H8.12673H8.13614H8.14559H8.15507H8.16458H8.17413H8.18372H8.19334H8.20301H8.2127H8.22244H8.23221H8.24202H8.25187H8.26176H8.27169H8.28166H8.29166H8.30171H8.31179H8.32192H8.33208H8.34229H8.35254H8.36283H8.37316H8.38353H8.39395H8.4044H8.4149H8.42545H8.43603H8.44666H8.45734H8.46806H8.47882H8.48963H8.50048H8.51138H8.52232H8.53331H8.54435H8.55543H8.56656H8.57773H8.58896H8.60023H8.61155H8.62291H8.63433H8.64579H8.6573H8.66887H8.68048H8.69214H8.70385H8.71561H8.72743H8.73929H8.7512H8.76317H8.77519H8.78726H8.79938H8.81156H8.82379H8.83607H8.8484H8.86079H8.87323H8.88573H8.89828H8.91089H8.92355H8.93627H8.94904H8.96187H8.97476H8.9877H9.0007H9.01375H9.02687H9.04004H9.05327H9.06656H9.0799H9.09331H9.10677H9.1203H9.13388H9.14752H9.16123H9.17499H9.18881H9.2027H9.21665H9.23066H9.24473H9.25886H9.27306H9.28732H9.30164H9.31602H9.33047H9.34498H9.35956H9.3742H9.38891H9.40368H9.41852H9.43342H9.44839H9.46342H9.47852H9.49369H9.50893H9.52423H9.5396H9.55503H9.57054H9.58611H9.60176H9.61747H9.63325H9.6491H9.66502H9.68101H9.69707H9.71321H9.72941H9.74568H9.76203H9.77845H9.79493H9.8115H9.82813H9.84484H9.86162H9.87847H9.8954H13.7391H13.7587H13.7782H13.7977H13.817H13.8363H13.8554H13.8745H13.8935H13.9124H13.9312H13.9499H13.9685H13.987H14.0055H14.0238H14.0421H14.0603H14.0784H14.0964H14.1143H14.1321H14.1499H14.1675H14.1851H14.2026H14.22H14.2373H14.2546H14.2717H14.2888H14.3058H14.3227H14.3395H14.3563H14.3729H14.3895H14.406H14.4224H14.4388H14.455H14.4712H14.4873H14.5034H14.5193H14.5352H14.551H14.5667H14.5823H14.5979H14.6133H14.6287H14.6441H14.6593H14.6745H14.6896H14.7046H14.7196H14.7345H14.7493H14.764H14.7787H14.7933H14.8078H14.8223H14.8366H14.8509H14.8652H14.8793H14.8934H14.9075H14.9214H14.9353H14.9491H14.9629H14.9765H14.9902H15.0037H15.0172H15.0306H15.0439H15.0572H15.0704H15.0836H15.0967H15.1097H15.1226H15.1355H15.1484H15.1611H15.1738H15.1865H15.199H15.2116H15.224H15.2364H15.2487H15.261H15.2732H15.2854H15.2974H15.3095H15.3214H15.3334H15.3452H15.357H15.3688H15.3804H15.3921H15.4036H15.4151H15.4266H15.438H15.4493H15.4606H15.4719H15.483H15.4942H15.5052H15.5163H15.5272H15.5382H15.549H15.5598H15.5706H15.5813H15.592H15.6026H15.6131H15.6236H15.6341H15.6445H15.6548H15.6652H15.6754H15.6856H15.6958H15.7059H15.716H15.726H15.736H15.7459H15.7558H15.7657H15.7755H15.7852H15.7949H15.8046H15.8142H15.8238H15.8333H15.8428H15.8523H15.8617H15.8711H15.8804H15.8897H15.8989H15.9081H15.9173H15.9264H15.9355H15.9446H15.9536H15.9625H15.9715H15.9804H15.9892H15.998H16.0068H16.0156H16.0243H16.033H16.0416H16.0502H16.0588H16.0673H16.0759H16.0843H16.0928H16.1012H16.1095H16.1179H16.1262H16.1345H16.1427H16.1509H16.1591H16.1673H16.1754H16.1835H16.1916H16.1996H16.2076H16.2156H16.2236H16.2315H16.2394H16.2473H16.2551H16.2629H16.2707H16.2785H16.2863H16.294H16.3017H16.3093H16.317H16.3246H16.3322H16.3398H16.3474H16.3549H16.3624H16.3699H16.3774H16.3848H16.3923H16.3997H16.4071H16.4144H16.4218H16.4291H16.4364H16.4437H16.451H16.4583H16.4655H16.4727H16.4799H16.4871H16.4943H16.5015H16.5086H16.5158H16.5229H16.53H16.5371H16.5442H16.5512H16.5583H16.5653H16.5724H16.5794H16.5864H16.5934H16.6004H16.6073H16.6143H16.6213H16.6282H16.6351H16.6421H16.649H16.6559H16.6628H16.6697H16.6766H16.6835H16.6903H16.6972H16.7041H16.7109H16.7178H16.7246H16.7315H16.7383H16.7452H16.752H16.7588H16.7657H16.7725H16.7793H16.7862H16.793H16.7998H16.8066H16.8134H16.8203H16.8271H16.8339H16.8407H16.8476H16.8544H16.8612H16.868H16.8749H16.8817H16.8885H16.8954H16.9022H16.9091H16.916H16.9228H16.9297H16.9366H16.9434H16.9503H16.9572H16.9641H16.971H16.9779H16.9849H16.9918H16.9987H17.0057H17.0127H17.0196H17.0266H17.0336H17.0406H17.0476H17.0546H17.0617H17.0687H17.0758H17.0828H17.0899H17.097H17.1041H17.1113H17.1184H17.1256H17.1327H17.1399H17.1471H17.1544H17.1616H17.1688H17.1761H17.1834H17.1907H17.198H17.2054H17.2127H17.2201H17.2275H17.2349H17.2424H17.2498H17.2573H17.2648H17.2723H17.2799H17.2875H17.2951H17.3027H17.3103H17.318H17.3256H17.3334H17.3411H17.3488H17.3566H17.3644H17.3723H17.3801H17.388H17.3959H17.4039H17.4119H17.4199H17.4279H17.4359H17.444H17.4521H17.4603H17.4684H17.4766H17.4849H17.4931H17.5014H17.5098H17.5181H17.5265H17.5349H17.5434H17.5519H17.5604H17.569H17.5776H17.5862H17.5948H17.6035H17.6123H17.621H17.6299H17.6387H17.6476H17.6565H17.6654H17.6744H17.6835H17.6925H17.7016H17.7108H17.72H17.7292H17.7385H17.7478H17.7571H17.7665H17.7759H17.7854H17.7949H17.8045H17.8141H17.8237H17.8334H17.8432H17.8529H17.8628H17.8726H17.8825H17.8925H17.9025H17.9125H17.9226H17.9328H17.943H17.9532H17.9635H17.9738H17.9842H17.9947H18.0051H18.0157H18.0263H18.0369H18.0476H18.0583H18.0691H18.0799H18.0908H18.1018H18.1128H18.1238H18.1349H18.1461H18.1573H18.1685H18.1799H18.1912H18.2027H18.2141H18.2257H18.2373H18.2489H18.2606H18.2724H18.2842H18.2961H18.3081H18.3201H18.3321H18.3443H18.3564H18.3687H18.381H18.3933H18.4058H18.4182H18.4308H18.4434H18.4561H18.4688H18.4816H18.4945H18.5074H18.5204H18.5334H18.5465H18.5597H18.573H18.5863H18.5997H18.6131H18.6266H18.6402H18.6539H18.6676H18.6814H18.6952H18.7091H18.7231H18.7372H18.7513H18.7655H18.7798H18.7941H18.8085H18.823H18.8376H18.8522H18.8669H18.8817H18.8965H18.9114H18.9264H18.9415H18.9566H18.9719H18.9872H19.0025H19.018H19.0335H19.0491H19.0648H19.0805H19.0963H19.1123H19.1282H19.1443H21.7055C22.0266 17.785 22.2868 17.5248 22.2868 17.2037V15.3632C22.2868 14.9354 22.0428 14.5646 21.6863 14.3825V9.88188C21.6863 9.51112 21.6578 9.09891 21.5249 8.6945C21.0415 7.22352 19.9903 6.20414 18.9047 5.5492C17.8794 4.93069 16.7841 4.61267 16.0114 4.54604C15.8328 4.28128 15.5383 4.14207 15.2985 4.06095C15.0315 3.97062 14.721 3.91625 14.4157 3.88159C13.8084 3.81266 13.1308 3.81264 12.6693 3.81262L12.6581 3.81262Z" stroke="#292D32"/>
<mask id="path-2-inside-1_1071_4107" fill="white">
<rect x="14.0981" y="6.57727" width="1.6" height="3.36324" rx="0.1"/>
</mask>
<rect x="14.0981" y="6.57727" width="1.6" height="3.36324" rx="0.1" stroke="#292D32" mask="url(#path-2-inside-1_1071_4107)"/>
<path d="M16.5107 9.69051V6.82727H17.5742C17.7698 6.82727 17.9617 6.88042 18.1294 6.98104C18.2813 7.07217 18.4084 7.19928 18.4995 7.35115C18.6001 7.51886 18.6533 7.71075 18.6533 7.90632V9.69051H16.5107Z" stroke="#292D32" stroke-width="0.5"/>
<rect x="14.1001" y="11.478" width="1.2" height="0.5" rx="0.25" fill="#292D32"/>
<circle cx="16.6211" cy="17.542" r="1.54197" fill="white" stroke="#292D32"/>
<circle cx="7.49167" cy="17.542" r="1.54197" fill="white" stroke="#292D32"/>
</svg>
