<svg width="16" height="16" viewBox="0 0 16 16" fill="none" xmlns="http://www.w3.org/2000/svg">
<path d="M5.3329 14.4997C5.3129 14.4997 5.2929 14.4997 5.27957 14.4997C5.00624 14.4664 4.80624 14.2197 4.83957 13.9464L6.1729 1.94636C6.20624 1.67303 6.4529 1.4797 6.72624 1.50636C6.99957 1.5397 7.19957 1.78636 7.16624 2.0597L5.8329 14.0597C5.79957 14.313 5.58624 14.4997 5.3329 14.4997Z" fill="#B7B7B7"/>
<path d="M9.3329 14.4997C9.3129 14.4997 9.2929 14.4997 9.27957 14.4997C9.00624 14.4664 8.80624 14.2197 8.83957 13.9464L10.1729 1.94636C10.2062 1.67303 10.4462 1.4797 10.7262 1.50636C10.9996 1.5397 11.1996 1.78636 11.1662 2.0597L9.8329 14.0597C9.79957 14.313 9.58624 14.4997 9.3329 14.4997Z" fill="#B7B7B7"/>
<path d="M14.333 6.5H2.33301C2.05967 6.5 1.83301 6.27333 1.83301 6C1.83301 5.72667 2.05967 5.5 2.33301 5.5H14.333C14.6063 5.5 14.833 5.72667 14.833 6C14.833 6.27333 14.6063 6.5 14.333 6.5Z" fill="#B7B7B7"/>
<path d="M13.667 10.5H1.66699C1.39366 10.5 1.16699 10.2733 1.16699 10C1.16699 9.72667 1.39366 9.5 1.66699 9.5H13.667C13.9403 9.5 14.167 9.72667 14.167 10C14.167 10.2733 13.9403 10.5 13.667 10.5Z" fill="#B7B7B7"/>
</svg>
