<svg width="20" height="20" viewBox="0 0 20 20" fill="none" xmlns="http://www.w3.org/2000/svg">
<path d="M2.29152 15.5413C1.94985 15.5413 1.66652 15.258 1.66652 14.9163V10.1663C1.62485 7.90801 2.46652 5.77467 4.03318 4.17467C5.59985 2.58301 7.69985 1.70801 9.95818 1.70801C14.5748 1.70801 18.3332 5.46634 18.3332 10.083V14.833C18.3332 15.1747 18.0499 15.458 17.7082 15.458C17.3665 15.458 17.0832 15.1747 17.0832 14.833V10.083C17.0832 6.15801 13.8915 2.95801 9.95818 2.95801C8.03318 2.95801 6.24985 3.69967 4.92485 5.04967C3.59152 6.40801 2.88318 8.21634 2.91652 10.1497V14.908C2.91652 15.258 2.64152 15.5413 2.29152 15.5413Z" fill="#292D32"/>
<path d="M4.8415 11.125H4.94984C6.28562 11.125 7.37484 12.2142 7.37484 13.55V15.1167C7.37484 16.4525 6.28562 17.5417 4.94984 17.5417H4.8415C3.50572 17.5417 2.4165 16.4525 2.4165 15.1167V13.55C2.4165 12.2142 3.50572 11.125 4.8415 11.125Z" stroke="#292D32" stroke-width="1.5"/>
<path d="M15.05 11.125H15.1583C16.4941 11.125 17.5833 12.2142 17.5833 13.55V15.1167C17.5833 16.4525 16.4941 17.5417 15.1583 17.5417H15.05C13.7142 17.5417 12.625 16.4525 12.625 15.1167V13.55C12.625 12.2142 13.7142 11.125 15.05 11.125Z" stroke="#292D32" stroke-width="1.5"/>
</svg>
