<svg width="24" height="25" viewBox="0 0 24 25" fill="none" xmlns="http://www.w3.org/2000/svg">
<path d="M19.2731 5.06844C17.2702 3.11844 14.6194 2 12 2C9.38062 2 6.72984 3.11844 4.72687 5.06844C2.64609 7.09391 1.5 9.73438 1.5 12.5C1.5 13.7502 1.91016 15.3636 3.04125 18.3852C4.17234 21.4067 6.42188 22.6719 7.37203 22.8786C7.64438 22.9381 7.96359 23 8.25 23C8.74352 23.0004 9.22847 22.8711 9.65625 22.625L10.3125 22.25C11.0189 21.8366 11.2252 20.9314 10.8188 20.218L6.74438 13.0662C6.64729 12.8951 6.51721 12.7449 6.36168 12.6244C6.20615 12.5039 6.02825 12.4155 5.8383 12.3642C5.64834 12.3129 5.4501 12.2999 5.25505 12.3258C5.06001 12.3516 4.87204 12.416 4.70203 12.515L4.06031 12.89C3.81367 13.0345 3.59206 13.218 3.40406 13.4333C3.38073 13.4607 3.35001 13.4808 3.31557 13.4912C3.28114 13.5016 3.24443 13.5018 3.20984 13.4919C3.17526 13.4821 3.14424 13.4624 3.1205 13.4354C3.09675 13.4084 3.08128 13.3751 3.07594 13.3395C3.02869 13.0621 3.0033 12.7814 3 12.5C3 10.1417 3.98438 7.88375 5.77313 6.14328C7.5 4.46328 9.76828 3.5 12 3.5C14.2317 3.5 16.5 4.46328 18.2269 6.14328C20.0156 7.88375 21 10.1417 21 12.5C20.9958 12.7815 20.9694 13.0622 20.9212 13.3395C20.9159 13.3751 20.9004 13.4084 20.8767 13.4354C20.8529 13.4624 20.8219 13.4821 20.7873 13.4919C20.7528 13.5018 20.7161 13.5016 20.6816 13.4912C20.6472 13.4808 20.6165 13.4607 20.5931 13.4333C20.4051 13.218 20.1835 13.0345 19.9369 12.89L19.2952 12.515C19.1251 12.416 18.9372 12.3516 18.7421 12.3258C18.5471 12.2999 18.3488 12.3129 18.1589 12.3642C17.9689 12.4155 17.791 12.5039 17.6355 12.6244C17.48 12.7449 17.3499 12.8951 17.2528 13.0662L13.1813 20.218C12.7748 20.9314 12.9811 21.8366 13.6875 22.25L14.3438 22.625C14.7715 22.8711 15.2565 23.0004 15.75 23C16.0364 23 16.3556 22.9381 16.628 22.8786C17.5781 22.6719 19.8281 21.4062 20.9587 18.3852C22.0894 15.3641 22.5 13.7502 22.5 12.5C22.5 9.73438 21.3539 7.09391 19.2731 5.06844Z" fill="white"/>
</svg>
