<svg width="16" height="18" viewBox="0 0 16 18" fill="none" xmlns="http://www.w3.org/2000/svg">
<path d="M6.5 12.5V7.5L5.5 8.4375" stroke="white" stroke-opacity="0.7" stroke-linecap="round" stroke-linejoin="round"/>
<path d="M8.5 12.1876C8.76114 12.3838 9.08575 12.5 9.4375 12.5C10.3004 12.5 11 11.8004 11 10.9375C11 10.0746 10.3004 9.375 9.4375 9.375C9.08575 9.375 8.76114 9.49123 8.5 9.68739L8.8125 7.5H11" stroke="white" stroke-opacity="0.7" stroke-linecap="round" stroke-linejoin="round"/>
<path d="M12.774 4.71014C15.6014 7.32941 15.756 11.7297 13.1195 14.5386C10.4829 17.3474 6.05343 17.5011 3.22603 14.8818C0.398632 12.2625 0.243953 7.86218 2.88054 5.05336C4.38024 3.45569 6.45999 2.71707 8.49503 2.85916M7.5 1.25L9.28288 2.93886L7.5 4.75" stroke="white" stroke-opacity="0.7" stroke-linecap="round" stroke-linejoin="round"/>
</svg>
