<svg width="16" height="18" viewBox="0 0 16 18" fill="none" xmlns="http://www.w3.org/2000/svg">
<path d="M6.5 12.5V7.5L5.5 8.4375" stroke="white" stroke-opacity="0.7" stroke-linecap="round" stroke-linejoin="round"/>
<path d="M8.5 12.1876C8.76114 12.3838 9.08575 12.5 9.4375 12.5C10.3004 12.5 11 11.8004 11 10.9375C11 10.0746 10.3004 9.375 9.4375 9.375C9.08575 9.375 8.76114 9.49123 8.5 9.68739L8.8125 7.5H11" stroke="white" stroke-opacity="0.7" stroke-linecap="round" stroke-linejoin="round"/>
<path d="M3.22603 4.71014C0.398632 7.32941 0.243952 11.7297 2.88054 14.5386C5.51713 17.3474 9.94657 17.5011 12.774 14.8818C15.6014 12.2625 15.756 7.86218 13.1195 5.05336C11.6198 3.45569 9.54001 2.71707 7.50497 2.85916M8.5 1.25L6.71712 2.93886L8.5 4.75" stroke="white" stroke-opacity="0.7" stroke-linecap="round" stroke-linejoin="round"/>
</svg>
