<svg width="17" height="16" viewBox="0 0 17 16" fill="none" xmlns="http://www.w3.org/2000/svg">
<path d="M8.75012 15.172C7.76345 15.172 6.77012 14.7987 5.99678 14.0587C4.03012 12.1654 1.85678 9.14536 2.67678 5.55203C3.41678 2.29203 6.26345 0.832031 8.75012 0.832031C8.75012 0.832031 8.75012 0.832031 8.75678 0.832031C11.2435 0.832031 14.0901 2.29203 14.8301 5.5587C15.6434 9.15203 13.4701 12.1654 11.5034 14.0587C10.7301 14.7987 9.73678 15.172 8.75012 15.172ZM8.75012 1.83203C6.81012 1.83203 4.31678 2.86536 3.65678 5.77203C2.93678 8.91203 4.91012 11.6187 6.69678 13.332C7.85012 14.4454 9.65678 14.4454 10.8101 13.332C12.5901 11.6187 14.5634 8.91203 13.8568 5.77203C13.1901 2.86536 10.6901 1.83203 8.75012 1.83203Z" fill="white"/>
<path d="M7.9163 9.165C7.78964 9.165 7.66297 9.11833 7.56297 9.01833L6.56297 8.01833C6.36964 7.825 6.36964 7.505 6.56297 7.31167C6.7563 7.11833 7.0763 7.11833 7.26964 7.31167L7.9163 7.95833L10.2296 5.645C10.423 5.45167 10.743 5.45167 10.9363 5.645C11.1296 5.83833 11.1296 6.15833 10.9363 6.35167L8.26964 9.01833C8.16964 9.11833 8.04297 9.165 7.9163 9.165Z" fill="white"/>
</svg>
