<svg width="72" height="72" viewBox="0 0 72 72" fill="none" xmlns="http://www.w3.org/2000/svg">
<path d="M45 24H45.03" stroke="#D1D5DB" stroke-width="3" stroke-linecap="round" stroke-linejoin="round"/>
<path d="M9 18C9 15.6131 9.94821 13.3239 11.636 11.636C13.3239 9.94821 15.6131 9 18 9H54C56.3869 9 58.6761 9.94821 60.364 11.636C62.0518 13.3239 63 15.6131 63 18V54C63 56.3869 62.0518 58.6761 60.364 60.364C58.6761 62.0518 56.3869 63 54 63H18C15.6131 63 13.3239 62.0518 11.636 60.364C9.94821 58.6761 9 56.3869 9 54V18Z" stroke="#D1D5DB" stroke-width="3" stroke-linecap="round" stroke-linejoin="round"/>
<path d="M9 48L24 33C26.784 30.321 30.216 30.321 33 33L48 48" stroke="#D1D5DB" stroke-width="3" stroke-linecap="round" stroke-linejoin="round"/>
<path d="M42 42L45 39C47.784 36.321 51.216 36.321 54 39L63 48" stroke="#D1D5DB" stroke-width="3" stroke-linecap="round" stroke-linejoin="round"/>
</svg>
