<svg width="24" height="24" viewBox="0 0 24 24" fill="none" xmlns="http://www.w3.org/2000/svg">
<path d="M14.2857 3.14286C14.2857 2.51168 14.7974 2 15.4286 2H18.8571C19.4883 2 20 2.51167 20 3.14286V21.4286C20 22.0598 19.4883 22.5714 18.8571 22.5714H15.4286C14.7974 22.5714 14.2857 22.0598 14.2857 21.4286V3.14286Z" fill="white"/>
<path d="M4 3.14286C4 2.51168 4.51167 2 5.14286 2H8.57143C9.20261 2 9.71429 2.51167 9.71429 3.14286V21.4286C9.71429 22.0598 9.20261 22.5714 8.57143 22.5714H5.14286C4.51167 22.5714 4 22.0598 4 21.4286V3.14286Z" fill="white"/>
</svg>
