<svg width="24" height="24" viewBox="0 0 24 24" fill="none" xmlns="http://www.w3.org/2000/svg">
<g clip-path="url(#clip0_1637_4995)">
<path d="M6 3.99979V19.9998C5.99995 20.1777 6.04737 20.3524 6.13738 20.5059C6.22739 20.6594 6.35672 20.7861 6.51202 20.8729C6.66733 20.9598 6.84299 21.0036 7.02088 20.9999C7.19878 20.9961 7.37245 20.945 7.524 20.8518L20.524 12.8518C20.6696 12.7623 20.7898 12.637 20.8733 12.4879C20.9567 12.3387 21.0005 12.1707 21.0005 11.9998C21.0005 11.8289 20.9567 11.6609 20.8733 11.5117C20.7898 11.3626 20.6696 11.2373 20.524 11.1478L7.524 3.14779C7.37245 3.05456 7.19878 3.00345 7.02088 2.99973C6.84299 2.99601 6.66733 3.03983 6.51202 3.12665C6.35672 3.21348 6.22739 3.34017 6.13738 3.49366C6.04737 3.64714 5.99995 3.82186 6 3.99979Z" fill="white"/>
</g>
<defs>
<clipPath id="clip0_1637_4995">
<rect width="24" height="24" fill="white"/>
</clipPath>
</defs>
</svg>
