<svg width="16" height="16" viewBox="0 0 16 16" fill="none" xmlns="http://www.w3.org/2000/svg">
<path d="M12.2402 15.165H3.7269C2.71357 15.165 1.7869 14.6517 1.25357 13.785C0.720236 12.9183 0.67357 11.865 1.1269 10.9517L2.27357 8.65166C2.6469 7.90499 3.2469 7.43832 3.92024 7.36499C4.59357 7.29166 5.28024 7.62499 5.80024 8.27166L5.9469 8.45832C6.24024 8.81832 6.58024 9.01166 6.91357 8.97832C7.2469 8.95166 7.55357 8.71166 7.78024 8.30499L9.04024 6.03166C9.56024 5.09166 10.2536 4.60499 11.0069 4.63832C11.7536 4.67832 12.3936 5.23832 12.8202 6.22499L14.9069 11.0983C15.2936 11.9983 15.2002 13.025 14.6602 13.845C14.1269 14.6783 13.2202 15.165 12.2402 15.165ZM4.1069 8.36499C4.08024 8.36499 4.05357 8.36499 4.0269 8.37166C3.69357 8.40499 3.3869 8.67166 3.1669 9.10499L2.02024 11.405C1.72024 11.9983 1.75357 12.6983 2.10024 13.265C2.4469 13.8317 3.06024 14.1717 3.7269 14.1717H12.2336C12.8869 14.1717 13.4669 13.8583 13.8269 13.3117C14.1869 12.765 14.2469 12.1117 13.9869 11.5117L11.9002 6.63832C11.6469 6.03832 11.2936 5.67166 10.9536 5.65832C10.6402 5.63832 10.2336 5.97166 9.91357 6.53832L8.65357 8.81166C8.2669 9.50499 7.66024 9.93832 7.00024 9.99832C6.34024 10.0517 5.6669 9.73166 5.1669 9.10499L5.02024 8.91832C4.74024 8.55166 4.42024 8.36499 4.1069 8.36499Z" fill="#2AD43B"/>
<path d="M4.64648 5.83203C3.27315 5.83203 2.14648 4.71203 2.14648 3.33203C2.14648 1.95203 3.26648 0.832031 4.64648 0.832031C6.02648 0.832031 7.14648 1.95203 7.14648 3.33203C7.14648 4.71203 6.02648 5.83203 4.64648 5.83203ZM4.64648 1.83203C3.81982 1.83203 3.14648 2.50536 3.14648 3.33203C3.14648 4.1587 3.81982 4.83203 4.64648 4.83203C5.47315 4.83203 6.14648 4.1587 6.14648 3.33203C6.14648 2.50536 5.47315 1.83203 4.64648 1.83203Z" fill="#2AD43B"/>
</svg>
