<svg width="16" height="16" viewBox="0 0 16 16" fill="none" xmlns="http://www.w3.org/2000/svg">
<path d="M9.99967 15.1667H5.99967C2.37967 15.1667 0.833008 13.62 0.833008 10V6.00004C0.833008 2.38004 2.37967 0.833374 5.99967 0.833374H9.99967C13.6197 0.833374 15.1663 2.38004 15.1663 6.00004V10C15.1663 13.62 13.6197 15.1667 9.99967 15.1667ZM5.99967 1.83337C2.92634 1.83337 1.83301 2.92671 1.83301 6.00004V10C1.83301 13.0734 2.92634 14.1667 5.99967 14.1667H9.99967C13.073 14.1667 14.1663 13.0734 14.1663 10V6.00004C14.1663 2.92671 13.073 1.83337 9.99967 1.83337H5.99967Z" fill="white"/>
<path d="M8.00033 10.8333C6.44033 10.8333 5.16699 9.55996 5.16699 7.99996C5.16699 6.43996 6.44033 5.16663 8.00033 5.16663C9.56033 5.16663 10.8337 6.43996 10.8337 7.99996C10.8337 9.55996 9.56033 10.8333 8.00033 10.8333ZM8.00033 6.16663C6.98699 6.16663 6.16699 6.98663 6.16699 7.99996C6.16699 9.01329 6.98699 9.83329 8.00033 9.83329C9.01366 9.83329 9.83366 9.01329 9.83366 7.99996C9.83366 6.98663 9.01366 6.16663 8.00033 6.16663Z" fill="white"/>
<path d="M11.3337 5.00006C11.247 5.00006 11.1603 4.98006 11.0803 4.94672C11.0003 4.91339 10.927 4.86672 10.8603 4.80672C10.8003 4.74006 10.747 4.66672 10.7137 4.58672C10.6803 4.50672 10.667 4.42006 10.667 4.33339C10.667 4.24672 10.6803 4.16006 10.7137 4.08006C10.7537 3.99339 10.8003 3.92672 10.8603 3.86006C10.8937 3.83339 10.927 3.80006 10.9603 3.78006C11.0003 3.75339 11.0403 3.73339 11.0803 3.72006C11.1203 3.70006 11.1603 3.68672 11.207 3.68006C11.4203 3.63339 11.647 3.70672 11.807 3.86006C11.867 3.92672 11.9137 3.99339 11.947 4.08006C11.9803 4.16006 12.0003 4.24672 12.0003 4.33339C12.0003 4.42006 11.9803 4.50672 11.947 4.58672C11.9137 4.66672 11.867 4.74006 11.807 4.80672C11.7403 4.86672 11.667 4.91339 11.587 4.94672C11.507 4.98006 11.4203 5.00006 11.3337 5.00006Z" fill="white"/>
</svg>
