<svg width="28" height="28" viewBox="0 0 28 28" fill="none" xmlns="http://www.w3.org/2000/svg">
<path d="M19.3936 4.52664C18.5816 5.33864 17.6874 6.99939 17.3426 8.58664C17.1186 9.62264 16.7091 10.8039 15.7991 11.6754L15.4019 12.0534L16.8876 13.4061L17.2114 13.0666C18.0776 12.1601 19.2554 11.7506 20.2879 11.5266C21.8751 11.1801 23.5324 10.2876 24.3444 9.47564C24.6693 9.15057 24.9271 8.76468 25.1029 8.33999C25.2787 7.91531 25.3692 7.46016 25.3691 7.00052C25.369 6.54088 25.2784 6.08576 25.1024 5.66114C24.9265 5.23652 24.6686 4.85072 24.3435 4.52576C24.0184 4.20081 23.6325 3.94306 23.2079 3.76724C22.7832 3.59142 22.328 3.50097 21.8684 3.50105C20.9401 3.50121 20.0499 3.87013 19.3936 4.52664ZM18.4766 14.2759L18.1826 14.5839L23.4606 19.3876L23.4746 19.4016C23.8089 19.7245 24.0756 20.1107 24.259 20.5377C24.4424 20.9647 24.539 21.424 24.543 21.8887C24.547 22.3535 24.4585 22.8143 24.2825 23.2445C24.1065 23.6746 23.8466 24.0654 23.518 24.394C23.1894 24.7226 22.7986 24.9825 22.3685 25.1585C21.9383 25.3345 21.4774 25.4231 21.0127 25.419C20.548 25.415 20.0887 25.3184 19.6617 25.135C19.2347 24.9516 18.8485 24.6849 18.5256 24.3506L18.5116 24.3366L13.8041 19.1654L8.72913 24.4801C8.15477 25.0545 7.37577 25.3772 6.5635 25.3772C5.75124 25.3772 4.97224 25.0545 4.39788 24.4801C3.82352 23.9058 3.50085 23.1268 3.50085 22.3145C3.50085 21.5022 3.82352 20.7232 4.39788 20.1489L4.41188 20.1349L8.99688 15.7546H8.08688C7.1587 15.7544 6.2686 15.3856 5.61238 14.7291L1.90063 11.0174C1.57547 10.6924 1.31754 10.3065 1.14156 9.88173C0.965577 9.457 0.875 9.00176 0.875 8.54201C0.875 8.08227 0.965577 7.62703 1.14156 7.20229C1.31754 6.77756 1.57547 6.39166 1.90063 6.06664L5.18713 2.78014C5.51215 2.45498 5.89805 2.19705 6.32278 2.02107C6.74752 1.84509 7.20276 1.75451 7.6625 1.75451C8.12225 1.75451 8.57749 1.84509 9.00222 2.02107C9.42695 2.19705 9.81285 2.45498 10.1379 2.78014L13.8496 6.49014C14.1751 6.81549 14.4332 7.20182 14.6091 7.62702C14.7851 8.05223 14.8755 8.50796 14.8751 8.96814V10.0881C15.2391 9.59989 15.4719 8.95764 15.6329 8.21914C16.0354 6.36064 17.0679 4.37964 18.1564 3.29114C18.6424 2.79706 19.2214 2.40408 19.86 2.13489C20.4986 1.86569 21.1842 1.72561 21.8772 1.7227C22.5703 1.7198 23.257 1.85414 23.8979 2.11797C24.5387 2.38181 25.121 2.76991 25.6111 3.25991C26.1012 3.7499 26.4895 4.33208 26.7534 4.97287C27.0174 5.61366 27.1519 6.30038 27.1492 6.99341C27.1464 7.68644 27.0065 8.37208 26.7375 9.01076C26.4684 9.64944 26.0756 10.2285 25.5816 10.7146C24.4931 11.8031 22.5156 12.8339 20.6606 13.2381C19.7506 13.4359 18.9841 13.7456 18.4766 14.2776M11.0864 16.1781L5.62813 21.3931C5.39629 21.6419 5.27007 21.971 5.27607 22.3111C5.28207 22.6511 5.41982 22.9755 5.66029 23.216C5.90076 23.4565 6.22519 23.5942 6.56521 23.6002C6.90524 23.6062 7.23432 23.48 7.48313 23.2481L12.6246 17.8686L11.0864 16.1781ZM8.89888 4.01564C8.57078 3.6881 8.12611 3.50414 7.6625 3.50414C7.19889 3.50414 6.75423 3.6881 6.42613 4.01564L3.13613 7.30564C2.80805 7.63381 2.62375 8.07885 2.62375 8.54289C2.62375 9.00693 2.80805 9.45196 3.13613 9.78014L6.84963 13.4901C7.01195 13.653 7.20477 13.7822 7.41706 13.8705C7.62935 13.9588 7.85696 14.0044 8.08688 14.0046H10.3146C10.6803 14.0044 11.0419 14.0805 11.3765 14.2282C11.711 14.3759 12.0109 14.5918 12.2571 14.8621L19.7751 23.1274C20.1035 23.4558 20.5489 23.6402 21.0133 23.6402C21.4776 23.6402 21.923 23.4558 22.2514 23.1274C22.5797 22.799 22.7642 22.3537 22.7642 21.8893C22.7642 21.4249 22.5797 20.9795 22.2514 20.6511L13.9826 13.1279C13.7125 12.8819 13.4967 12.5822 13.3491 12.248C13.2014 11.9138 13.1251 11.5525 13.1251 11.1871V8.96639C13.125 8.5023 12.9406 8.05725 12.6124 7.72914L8.89888 4.01564ZM5.87138 8.13339C5.79002 8.05203 5.69344 7.9875 5.58715 7.94347C5.48085 7.89945 5.36693 7.87678 5.25188 7.87678C5.13683 7.87678 5.0229 7.89944 4.91661 7.94347C4.81031 7.9875 4.71373 8.05203 4.63238 8.13339C4.55102 8.21474 4.48649 8.31132 4.44246 8.41762C4.39843 8.52391 4.37577 8.63784 4.37577 8.75289C4.37577 8.86794 4.39843 8.98187 4.44246 9.08816C4.48649 9.19445 4.55102 9.29103 4.63238 9.37239L7.25738 11.9974C7.42168 12.1617 7.64452 12.254 7.87688 12.254C8.10924 12.254 8.33208 12.1617 8.49638 11.9974C8.66068 11.8331 8.75298 11.6102 8.75298 11.3779C8.75298 11.1455 8.66068 10.9227 8.49638 10.7584L5.87138 8.13339ZM7.25738 5.50839C7.33866 5.4269 7.43521 5.36225 7.54152 5.31814C7.64782 5.27403 7.76178 5.25132 7.87688 5.25132C7.99197 5.25132 8.10593 5.27403 8.21224 5.31814C8.31854 5.36225 8.4151 5.4269 8.49638 5.50839L11.1214 8.13339C11.2027 8.21474 11.2673 8.31132 11.3113 8.41762C11.3553 8.52391 11.378 8.63784 11.378 8.75289C11.378 8.86794 11.3553 8.98187 11.3113 9.08816C11.2673 9.19445 11.2027 9.29103 11.1214 9.37239C11.04 9.45374 10.9434 9.51828 10.8371 9.5623C10.7309 9.60633 10.6169 9.62899 10.5019 9.62899C10.3868 9.62899 10.2729 9.60633 10.1666 9.5623C10.0603 9.51828 9.96373 9.45374 9.88238 9.37239L7.25738 6.74739C7.17589 6.66611 7.11124 6.56955 7.06713 6.46325C7.02302 6.35694 7.00031 6.24298 7.00031 6.12789C7.00031 6.0128 7.02302 5.89883 7.06713 5.79253C7.11124 5.68623 7.17589 5.58967 7.25738 5.50839ZM20.5626 7.00114C20.5626 6.76907 20.4704 6.54651 20.3063 6.38242C20.1423 6.21833 19.9197 6.12614 19.6876 6.12614C19.4556 6.12614 19.233 6.21833 19.0689 6.38242C18.9048 6.54651 18.8126 6.76907 18.8126 7.00114C18.8126 8.69164 20.1846 10.0636 21.8751 10.0636C22.1072 10.0636 22.3298 9.97145 22.4938 9.80736C22.6579 9.64326 22.7501 9.4207 22.7501 9.18864C22.7501 8.95657 22.6579 8.73401 22.4938 8.56992C22.3298 8.40583 22.1072 8.31364 21.8751 8.31364C21.527 8.31364 21.1932 8.17536 20.9471 7.92922C20.7009 7.68308 20.5626 7.34924 20.5626 7.00114Z" fill="#FD4D00"/>
</svg>
