<svg width="30" height="29" viewBox="0 0 30 29" fill="none" xmlns="http://www.w3.org/2000/svg">
<path d="M9.55025 19.5927C9.43829 19.4807 9.36758 19.3275 9.36758 19.1507L9.36758 11.9971C9.36758 11.6554 9.65042 11.3725 9.99219 11.3725C10.334 11.3725 10.6168 11.6554 10.6168 11.9971L10.6168 18.5261L17.1458 18.5261C17.4875 18.5261 17.7704 18.8089 17.7704 19.1507C17.7704 19.4925 17.4875 19.7753 17.1458 19.7753L9.99219 19.7753C9.81541 19.7753 9.6622 19.7046 9.55025 19.5927Z" fill="#2AD43B"/>
<mask id="path-2-inside-1_156_14558" fill="white">
<path d="M9.6487 19.4925C9.4071 19.2509 9.4071 18.8502 9.6487 18.6086L19.5659 8.69145C19.8075 8.44986 20.2082 8.44986 20.4498 8.69145C20.6913 8.93305 20.6913 9.33374 20.4498 9.57534L10.5326 19.4925C10.291 19.7341 9.89029 19.7341 9.6487 19.4925Z"/>
</mask>
<path d="M9.6487 19.4925C9.4071 19.2509 9.4071 18.8502 9.6487 18.6086L19.5659 8.69145C19.8075 8.44986 20.2082 8.44986 20.4498 8.69145C20.6913 8.93305 20.6913 9.33374 20.4498 9.57534L10.5326 19.4925C10.291 19.7341 9.89029 19.7341 9.6487 19.4925Z" fill="#2AD43B"/>
<path d="M9.6487 19.4925L11.0629 18.0783C11.6024 18.6177 11.6024 19.4834 11.0629 20.0228L9.6487 18.6086L8.23449 17.1944C7.21184 18.2171 7.21184 19.8841 8.23449 20.9067L9.6487 19.4925ZM9.6487 18.6086L11.0629 20.0228L20.9801 10.1057L19.5659 8.69145L18.1517 7.27724L8.23449 17.1944L9.6487 18.6086ZM19.5659 8.69145L20.9801 10.1057C20.4406 10.6451 19.575 10.6451 19.0355 10.1057L20.4498 8.69145L21.864 7.27724C20.8413 6.2546 19.1743 6.2546 18.1517 7.27724L19.5659 8.69145ZM20.4498 8.69145L19.0355 10.1057C18.4961 9.56621 18.4961 8.70058 19.0355 8.16112L20.4498 9.57534L21.864 10.9896C22.8866 9.96691 22.8866 8.29988 21.864 7.27724L20.4498 8.69145ZM20.4498 9.57534L19.0355 8.16112L9.11837 18.0783L10.5326 19.4925L11.9468 20.9067L21.864 10.9896L20.4498 9.57534ZM10.5326 19.4925L9.11837 18.0783C9.65782 17.5388 10.5235 17.5388 11.0629 18.0783L9.6487 19.4925L8.23449 20.9067C9.25713 21.9294 10.9242 21.9294 11.9468 20.9067L10.5326 19.4925Z" fill="#2AD43B" mask="url(#path-2-inside-1_156_14558)"/>
</svg>
