<svg width="201" height="88" viewBox="0 0 201 88" fill="none" xmlns="http://www.w3.org/2000/svg">
<path d="M199.263 1C196.339 7.38313 192.574 11.1427 188.927 14.6017C183.679 19.5737 176.598 23.2059 172.691 25.0705C163.842 29.2885 145.87 35.962 119.711 37.689C110.643 38.285 101.713 38.3614 92.6549 39.258C81.4017 40.3737 77.8815 40.6538 73.5208 42.824C72.0939 43.6479 70.7208 44.5616 69.4098 45.5596C66.2768 48.0507 63.1693 50.7813 59.802 53.2622C58.1109 54.5247 56.3469 55.6865 54.5192 56.7416C52.6506 57.8229 50.6689 58.6958 48.6098 59.3447C48.0691 59.516 47.5129 59.6337 46.9491 59.6962C46.3836 59.7778 45.8182 59.8083 45.268 59.8389C44.1788 59.8717 43.0885 59.8428 42.0026 59.7523C40.9328 59.6657 39.8732 59.5281 38.8288 59.3498C38.3194 59.2581 37.81 59.1562 37.2649 59.0391C36.7198 58.9219 36.246 58.7996 35.6908 58.6366L34.1625 58.1883L34.9266 56.7518C35.5893 55.5505 36.0473 54.2472 36.2817 52.8954C36.6181 51.564 36.7707 50.1928 36.7351 48.82C36.7239 48.4892 36.695 48.1593 36.6485 47.8317C36.6485 47.6687 36.6026 47.5056 36.5772 47.3222C36.5429 47.1845 36.5021 47.0485 36.4549 46.9147C36.3032 46.315 36.0773 45.7366 35.7825 45.1928L35.6347 44.9279C35.5125 45.3609 35.3749 45.7838 35.2323 46.2117C34.9405 47.0459 34.6003 47.8624 34.2134 48.6569C33.8213 49.4551 33.3789 50.2276 32.8889 50.9697C32.7565 51.1582 32.6495 51.3314 32.5018 51.5301C32.354 51.7288 32.1859 51.9428 32.028 52.1211C31.7121 52.4929 31.3912 52.819 31.0652 53.1399C30.4221 53.7554 29.7416 54.3304 29.0275 54.8618C28.3075 55.4044 27.5518 55.898 26.7656 56.3391C26.3541 56.575 25.9288 56.7859 25.492 56.9708C25.273 57.0676 25.0335 57.1542 24.789 57.2408L24.6107 57.307L24.4579 57.3529L24.1471 57.4497C22.517 57.9591 20.8919 58.3463 19.333 58.7232C17.8769 59.0184 16.4474 59.4324 15.059 59.9611C14.786 60.0788 14.5206 60.2132 14.2642 60.3636C14.0585 60.4969 13.8627 60.645 13.6784 60.8068C13.2561 61.181 12.8658 61.59 12.5118 62.0294C12.0747 62.5597 11.7098 63.1455 11.4267 63.7717C11.2761 64.1004 11.1534 64.4412 11.0599 64.7905C11.0141 64.9637 10.9733 65.142 10.9428 65.2999C10.9122 65.4579 10.8816 65.6769 10.8715 65.8094L10.8001 66.6499L10.1786 66.9454C9.53166 67.246 8.90507 67.5312 8.24281 67.8063L7.73338 68.0152L7.2749 68.1935C6.99471 68.3107 6.71962 68.4329 6.45472 68.5756C5.93783 68.8531 5.45849 69.1955 5.02832 69.5944C4.61893 69.9814 4.27486 70.4322 4.00947 70.9291C3.75237 71.4305 3.58022 71.971 3.50004 72.5287C3.39808 73.1471 3.33851 73.7718 3.32174 74.3983C3.29627 75.0402 3.32174 75.6872 3.32174 76.3443C3.32174 76.5175 3.32174 76.6907 3.32174 76.8538L4.02475 76.5787C4.71248 76.3036 5.47662 76.0081 6.22038 75.7789C6.96415 75.5496 7.74867 75.351 8.47205 75.1879L10.6728 74.6785L11.7782 74.4187C12.1603 74.3321 12.5475 74.2506 12.9346 74.1895C13.7095 74.0529 14.4922 73.9644 15.278 73.9246C16.8466 73.8384 18.42 73.9393 19.9647 74.2251C21.5068 74.5092 23.0064 74.9885 24.4273 75.6515C25.1299 75.983 25.8105 76.359 26.465 76.7773C26.8013 76.9862 27.112 77.2053 27.4228 77.4243L28.3499 78.0764C30.6539 79.7734 33.1056 81.2601 35.6755 82.5186C35.7675 82.5618 35.8388 82.6394 35.874 82.7347C35.9093 82.83 35.9057 82.9354 35.864 83.028C35.8445 83.0754 35.8158 83.1183 35.7795 83.1544C35.7431 83.1904 35.6999 83.2187 35.6524 83.2377C35.6049 83.2567 35.554 83.266 35.5029 83.265C35.4517 83.264 35.4013 83.2527 35.3545 83.2318C32.6872 82.0695 30.1298 80.6697 27.7131 79.0494L26.7656 78.4432C26.4498 78.2394 26.139 78.0407 25.8282 77.8573C23.9426 76.7714 21.8683 76.0524 19.7151 75.7381C17.5693 75.4338 15.3868 75.5063 13.2658 75.9521C12.9143 76.0285 12.5679 76.11 12.2214 76.2017L11.1364 76.5023L8.9611 77.1136C8.22243 77.3122 7.54999 77.5007 6.87245 77.7453C6.19491 77.9898 5.55303 78.2547 4.83474 78.5756L2.83269 79.4875L1.53875 80.053L1.30441 78.6266C1.18639 77.918 1.10477 77.2039 1.05988 76.487C1.00455 75.7701 0.987547 75.0508 1.00894 74.3321C1.02912 73.594 1.10404 72.8584 1.23309 72.1314C1.36924 71.3394 1.63062 70.5742 2.00742 69.8644C2.78377 68.4722 3.93434 67.3252 5.32889 66.5531C5.66001 66.3596 5.99624 66.1813 6.34774 66.0437L6.85717 65.8247L7.27999 65.6209C7.6264 65.4426 7.97791 65.249 8.32941 65.0554C8.32941 64.8415 8.32941 64.6326 8.32941 64.4186C8.32941 63.9703 8.38036 63.522 8.41602 63.0636C8.48125 62.1019 8.65906 61.1513 8.94582 60.2311C9.28613 59.2225 9.85644 58.3069 10.6116 57.5566C11.0149 57.1657 11.4629 56.8237 11.9463 56.5378C12.3856 56.2783 12.8417 56.0486 13.3116 55.8501C14.9453 55.2261 16.6291 54.7421 18.3448 54.4033C19.9342 54.0569 21.4625 53.7461 22.9296 53.3233L23.2098 53.2316L23.3473 53.1959L23.4543 53.1603C23.6 53.1183 23.7429 53.0672 23.8822 53.0075C24.0366 52.9507 24.1879 52.8861 24.3356 52.8139C24.4834 52.7527 24.6413 52.6712 24.7941 52.5999C25.4326 52.2745 26.0486 51.9069 26.6382 51.4996C27.2335 51.0932 27.8034 50.6508 28.3448 50.175C28.6046 49.9356 28.8542 49.7013 29.0886 49.472L29.3942 49.1307C29.491 49.0084 29.6031 48.8505 29.7101 48.713C30.1477 48.1359 30.5459 47.53 30.9021 46.8994C31.2611 46.2625 31.5843 45.606 31.8701 44.933C32.1495 44.2518 32.3877 43.5543 32.5833 42.8444C32.68 42.4929 32.7667 42.1363 32.838 41.7797C32.8736 41.6014 32.9093 41.4282 32.9399 41.2702L32.9755 41.0104L33.0061 40.7965L33.5155 37.1286L35.9047 39.7165C36.0779 39.9101 36.1951 40.0476 36.3326 40.2259C36.4702 40.4042 36.5874 40.5469 36.7147 40.7048C36.9643 41.0308 37.2241 41.3569 37.4228 41.7236C37.8816 42.4098 38.287 43.1302 38.6353 43.8785C39.0031 44.6619 39.2767 45.4861 39.4503 46.334C39.4962 46.5479 39.5318 46.7924 39.5573 46.986C39.5828 47.1796 39.6032 47.3936 39.6184 47.5973C39.6541 48.0049 39.6745 48.4175 39.6694 48.8302C39.6443 50.4283 39.4166 52.0168 38.9919 53.5576L38.8645 54.0976C38.8136 54.2963 38.7626 54.5001 38.7066 54.6937C38.5945 55.091 38.4671 55.4833 38.3194 55.8653C38.2277 56.0997 38.1309 56.334 38.029 56.5633C38.4519 56.6651 38.8849 56.7568 39.3128 56.8333C40.2645 57.0167 41.2281 57.1324 42.1962 57.1797C43.1427 57.2298 44.0919 57.182 45.0286 57.037C45.4786 56.9632 45.9241 56.8645 46.3633 56.7416C46.7963 56.6091 47.1834 56.441 47.6419 56.2933C49.439 55.6414 51.1552 54.7851 52.7566 53.741C54.4093 52.6866 55.9918 51.526 57.4943 50.2667C60.5508 47.7196 63.3832 44.8923 66.3838 42.0395C67.1377 41.3263 67.9121 40.6182 68.7169 39.9152C69.1245 39.5688 69.532 39.2122 69.96 38.8658C70.3879 38.5193 70.8005 38.1984 71.2284 37.8469L71.8499 37.3884H71.8805C73.6336 35.894 75.5533 34.6069 77.6014 33.5524C94.0049 25.3608 114.239 25.6257 132.62 22.0037C151 18.3817 187.648 11.3312 199.263 1Z" fill="#EA5B0C" stroke="#EA5B0C" stroke-width="0.382071" stroke-miterlimit="10"/>
<path d="M177.123 28.4414C172.197 32.8174 159.207 40.9224 150.419 43.3982C144.637 45.0335 137.036 46.8114 125.457 47.3208C118.407 47.6366 114.785 47.4889 102.574 46.9234C100.026 46.8063 81.1368 46.9234 69.853 53.7243C80.7701 41.9107 107.897 43.0569 120.994 42.5169C131.504 42.0686 140.174 40.7899 150.49 38.6503C160.806 36.5107 170.944 32.3436 177.123 28.4414Z" fill="#EA5B0C"/>
<path d="M150.465 38.6308C140.149 40.7704 131.479 42.0491 120.969 42.4974C107.872 43.0577 80.7243 41.9115 69.8276 53.7048C81.1115 46.8886 99.9959 46.7867 102.548 46.9039C114.774 47.4694 118.381 47.6171 125.432 47.3013C137.036 46.7918 144.637 45.0139 150.394 43.3787C159.181 40.9029 172.172 32.7979 177.098 28.4219C170.944 32.3445 160.755 36.4963 150.465 38.6308ZM150.378 43.2564C142.249 45.5765 133.866 46.8904 125.416 47.1688C118.371 47.4796 114.861 47.3471 102.543 46.7715C98.4677 46.583 81.4426 47.123 70.7039 53.0374C80.5052 43.5926 101.27 43.129 115.136 42.8183C117.25 42.7674 119.242 42.7266 120.969 42.6553C130.684 42.2375 139.232 41.127 150.485 38.7836C159.283 36.9599 168.825 33.4346 175.473 29.6139C169.747 34.1631 158.387 41.0047 150.378 43.2564Z" fill="#EA5B0C"/>
<path d="M83.2866 55.4309C88.0396 54.3407 91.5699 54.2745 97.6117 54.789C104.29 55.3545 107 56.3173 114.988 57.1629C122.361 58.0204 129.831 57.3881 136.955 55.3035C144.357 53.1334 150.307 49.6998 153.129 46.1797C149.303 48.8185 143.012 50.7034 136.649 51.7834C130.358 52.8672 123.967 53.2567 117.591 52.9449C109.196 52.5373 94.3972 49.5827 83.2866 55.4309Z" fill="#EA5B0C" stroke="#EA5B0C" stroke-width="0.208865" stroke-miterlimit="10"/>
<path d="M47.1833 65.0469L45.3799 67.6297L39.3636 75.7805C39.2973 76.2186 39.6285 76.4479 40.3824 76.4631L48.5893 76.4886L54.8502 76.4631L53.3219 78.2156H39.9239C37.0508 78.2156 35.4597 77.7282 35.1506 76.7535C35.0839 76.5718 35.058 76.3777 35.0748 76.1849C35.0915 75.9921 35.1504 75.8054 35.2474 75.6379L41.0396 67.5329L42.843 65.0469H47.1782H47.1833Z" fill="white"/>
<path d="M69.8584 78.1925H61.9673C59.0942 78.1925 57.5031 77.7051 57.194 76.7304C57.1287 76.5485 57.1035 76.3546 57.1202 76.162C57.137 75.9694 57.1951 75.7827 57.2908 75.6148L63.0881 67.5251C64.3414 66.3359 65.916 65.5406 67.6169 65.2377C68.1569 65.1715 68.6969 65.1206 69.2369 65.09C69.7769 65.0594 70.3321 65.0391 70.8823 65.0391H78.6307C79.1401 65.0391 79.5732 65.0849 79.996 65.1257C80.4188 65.1664 80.806 65.2174 81.1626 65.2836C81.5575 65.3734 81.9168 65.5788 82.1944 65.8737C82.4721 66.1686 82.6556 66.5396 82.7214 66.9392V67.6728L77.1432 75.7574C76.267 77.3808 73.8387 78.1925 69.8584 78.1925ZM76.0224 66.7966H70.541C69.4381 66.7084 68.3381 66.9995 67.4233 67.6219L61.407 75.7727C61.2949 76.1497 61.677 76.3738 62.5532 76.4553L70.6174 76.4808C71.6057 76.4808 72.2985 76.2465 72.6857 75.8236L78.483 67.6728C78.1926 67.1634 77.6068 66.8934 76.7305 66.7966H76.0224Z" fill="white"/>
<path d="M89.7616 72.3062H85.2328L82.6856 75.7652L82.6347 75.8416C82.6067 75.9187 82.5895 75.9993 82.5838 76.0811L81.0555 78.2003H76.8018L78.5542 75.6226L86.1548 65.0469H99.9094C100.419 65.0469 100.852 65.0927 101.275 65.1335C101.697 65.1742 102.085 65.2252 102.446 65.2914C102.841 65.3812 103.201 65.5866 103.478 65.8815C103.756 66.1764 103.939 66.5474 104.005 66.947V67.6806L101.81 71.0887C101.193 71.9038 100.139 72.3215 98.646 72.3572H96.9853V78.1952H92.7978V72.3062H89.7769H89.7616ZM97.2909 66.8044H89.3235L88.6918 67.6297L86.4503 70.5028H96.2925C96.7248 70.525 97.1559 70.4387 97.5465 70.2519C97.937 70.0651 98.2747 69.7836 98.5288 69.433L99.7515 67.6806C99.456 67.1712 98.8702 66.9012 97.9939 66.8044H97.2909Z" fill="white"/>
<path d="M111.025 72.3062H106.496L103.949 75.7652L103.898 75.8416C103.871 75.9188 103.856 75.9995 103.852 76.0811L102.324 78.2003H98.0957L99.8481 75.6226L107.449 65.0469H121.203C121.687 65.0469 122.141 65.0927 122.564 65.1335C122.986 65.1742 123.379 65.2252 123.735 65.2914C124.13 65.3812 124.489 65.5866 124.767 65.8815C125.045 66.1764 125.228 66.5474 125.294 66.947V67.6806L123.103 71.0887C122.482 71.9038 121.427 72.3215 119.935 72.3572H118.279V78.1952H114.087V72.3062H111.066H111.025ZM118.554 66.8044H110.587L109.955 67.6297L107.714 70.5028H117.556C117.989 70.5249 118.421 70.4387 118.812 70.2519C119.203 70.0651 119.542 69.7836 119.797 69.433L121.015 67.6806C120.719 67.1712 120.139 66.9012 119.262 66.8044H118.554Z" fill="white"/>
<path d="M146.863 65.1409H148.02L146.171 67.6881L143.929 70.3677C143.444 70.9857 142.825 71.4863 142.12 71.8321C141.414 72.1778 140.64 72.3599 139.854 72.3646H135.177L132.228 76.3484L130.837 78.1925H127.037L131.275 72.2984H126.405C124.194 72.2984 123.649 71.6412 124.77 70.3269L128.55 65.0391H132.931L130.985 67.5862L128.891 70.4594H139.558L143.848 65.146L146.863 65.1409Z" fill="white"/>
<path d="M151.688 76.0273L149.996 78.6305H146.018L147.709 76.0273H151.688Z" fill="white"/>
<path d="M158.661 76.9213H167.378C167.648 76.925 167.916 76.8747 168.167 76.7736C168.373 76.6951 168.55 76.5567 168.677 76.3762L175.809 65.2656H179.782L172.288 76.8959C171.85 77.5173 171.217 77.9758 170.49 78.2C169.36 78.5324 168.183 78.6786 167.006 78.633H156.807C155.95 78.6706 155.092 78.5831 154.26 78.3732C153.75 78.2 153.47 77.9453 153.47 77.6192C153.492 77.3571 153.587 77.1064 153.745 76.8959L161.264 65.2656H165.243L158.086 76.3762C158.045 76.4441 158.022 76.5212 158.019 76.6004C158.019 76.8143 158.233 76.9213 158.661 76.9213Z" fill="white"/>
<path d="M180.287 76.919H193.45L192.34 78.6306H173.837L174.892 76.9954L194.551 66.9851H181.362L182.457 65.2734H201L199.951 66.9087L180.287 76.919Z" fill="white"/>
<path d="M45.6655 85.021V84.6797H48.6304V85.021H47.367V87.9044H46.9238V85.021H45.6655Z" fill="white"/>
<path d="M49.8633 87.9044V84.6797H50.3014V86.0704H52.5836V84.6797H53.0166V87.9044H52.5836V86.4117H50.3014V87.9044H49.8633Z" fill="white"/>
<path d="M54.7944 87.9044V84.6797H57.5708V85.021H55.2325V86.0755H57.5046V86.4066H55.2325V87.5681H57.5708V87.9044H54.7944Z" fill="white"/>
<path d="M61.7075 84.6797H62.1456V86.7989C62.14 86.9444 62.1537 87.09 62.1863 87.2319C62.2138 87.3105 62.2633 87.3795 62.329 87.4306C62.4053 87.4851 62.492 87.5232 62.5837 87.5427C62.7523 87.5677 62.9228 87.5779 63.0931 87.5732H63.5109C63.6812 87.5781 63.8517 87.5679 64.0203 87.5427C64.1123 87.5242 64.1992 87.486 64.275 87.4306C64.3414 87.3824 64.3912 87.3147 64.4176 87.237C64.4478 87.093 64.4598 86.9459 64.4533 86.7989V84.6797H64.8965V86.8549C64.9137 87.0118 64.8956 87.1704 64.8436 87.3194C64.7916 87.4683 64.707 87.6038 64.5959 87.7159C64.2804 87.91 63.9102 87.9959 63.5414 87.9604H63.0626C62.6923 87.9948 62.3207 87.909 62.003 87.7159C61.8928 87.6033 61.8092 87.4677 61.7581 87.3188C61.707 87.1698 61.6897 87.0114 61.7075 86.8549V84.6797Z" fill="white"/>
<path d="M66.4092 87.9044V87.5223L68.9563 85.0006H66.5111V84.6797H69.4046V85.0567L66.8575 87.5681H69.4046V87.9044H66.4092Z" fill="white"/>
<path d="M70.9995 87.9047V84.6801H72.8385C73.1314 84.6496 73.4268 84.7045 73.6893 84.838C73.7701 84.9234 73.8308 85.0259 73.8669 85.1378C73.9031 85.2498 73.9137 85.3684 73.8982 85.4849C73.9088 85.6607 73.8737 85.8362 73.7963 85.9944C73.7061 86.1068 73.577 86.1814 73.4346 86.2032C73.6038 86.2232 73.7598 86.3048 73.8727 86.4325C73.9684 86.601 74.011 86.7946 73.9949 86.9878C74.0123 87.1195 73.9977 87.2536 73.9525 87.3786C73.9073 87.5035 73.8328 87.6159 73.7351 87.7061C73.4182 87.8578 73.0662 87.9212 72.7163 87.8894L70.9995 87.9047ZM71.4274 86.0708H72.8589C73.0205 86.0899 73.1838 86.054 73.3225 85.9689C73.404 85.9027 73.4448 85.7549 73.4448 85.5206C73.4448 85.2863 73.404 85.164 73.3174 85.108C73.1093 85.0306 72.8864 85.001 72.6653 85.0214H71.4274V86.0708ZM71.4274 87.5685H72.8742C73.0496 87.5822 73.2255 87.5487 73.3836 87.4717C73.4702 87.4055 73.5161 87.2323 73.5161 86.9623C73.5161 86.6923 73.4651 86.5802 73.3633 86.5089C73.1126 86.4168 72.8446 86.382 72.5787 86.407H71.4071L71.4274 87.5685Z" fill="white"/>
<path d="M75.6196 87.9044V84.6797H78.396V85.021H76.0577V86.0755H78.3298V86.4066H76.0577V87.5681H78.396V87.9044H75.6196Z" fill="white"/>
<path d="M79.9194 87.9044V84.6797H80.3524V86.045H80.6938L82.2985 84.6797H82.8741L81.0504 86.208L83.0881 87.8942H82.492L80.6734 86.3659H80.3321V87.8942L79.9194 87.9044Z" fill="white"/>
<path d="M87.0308 87.9044V84.6797H87.474V87.9044H87.0308Z" fill="white"/>
<path d="M89.2471 87.9044V84.6797H89.945L92.0897 87.558V84.6797H92.4921V87.9044H91.8299L89.6852 85.021V87.9044H89.2471Z" fill="white"/>
<path d="M93.7451 85.021V84.6797H96.71V85.021H95.4415V87.9044H95.0034V85.021H93.7451Z" fill="white"/>
<path d="M97.9429 87.9044V84.6797H100.719V85.021H98.3759V86.0755H100.643V86.4066H98.3657V87.5681H100.709V87.9044H97.9429Z" fill="white"/>
<path d="M102.237 87.903V84.6784H104.025C104.34 84.652 104.655 84.7063 104.942 84.8363C105.031 84.9019 105.101 84.9895 105.146 85.0904C105.19 85.1914 105.208 85.3021 105.197 85.4119V85.9214C105.203 86.0648 105.158 86.2057 105.07 86.3187C104.967 86.4242 104.829 86.4892 104.683 86.5021C104.835 86.5185 104.976 86.589 105.08 86.7008C105.169 86.8327 105.21 86.9907 105.197 87.1491V87.9234H104.718V87.2612C104.729 87.1778 104.722 87.0931 104.698 87.0125C104.675 86.9318 104.635 86.857 104.581 86.7925C104.43 86.6953 104.25 86.6522 104.071 86.6702H102.681V87.9234L102.237 87.903ZM103.939 85.0197H102.681V86.3136H103.944C104.165 86.3327 104.387 86.2977 104.591 86.2117C104.645 86.1707 104.688 86.1162 104.714 86.0537C104.741 85.9911 104.751 85.9227 104.744 85.8551V85.4782C104.751 85.4104 104.741 85.3418 104.715 85.2787C104.69 85.2156 104.649 85.1599 104.596 85.1165C104.388 85.0306 104.162 84.9973 103.939 85.0197Z" fill="white"/>
<path d="M106.863 87.9044V84.6797H107.535L109.68 87.558V84.6797H110.118V87.9044H109.446L107.296 85.021V87.9044H106.863Z" fill="white"/>
<path d="M111.479 87.9044L112.941 84.6797H113.664L115.131 87.9044H114.683L114.306 87.0791H112.304L111.932 87.9044H111.479ZM112.446 86.7633H114.163L113.379 85.021H113.236L112.446 86.7633Z" fill="white"/>
<path d="M115.498 85.021V84.6797H118.473V85.021H117.204V87.9044H116.766V85.021H115.498Z" fill="white"/>
<path d="M119.695 87.9044V84.6797H120.139V87.9044H119.695Z" fill="white"/>
<path d="M121.784 85.7425C121.766 85.5843 121.785 85.424 121.84 85.2745C121.895 85.125 121.984 84.9904 122.1 84.8815C122.437 84.6863 122.827 84.6008 123.216 84.637H123.725C124.113 84.6013 124.502 84.6848 124.841 84.8764C124.957 84.9863 125.045 85.1219 125.099 85.2724C125.153 85.4228 125.171 85.5839 125.151 85.7425V86.853C125.17 87.0112 125.151 87.1715 125.096 87.321C125.041 87.4706 124.952 87.6051 124.836 87.714C124.5 87.9088 124.112 87.9943 123.725 87.9585H123.216C122.827 87.9947 122.437 87.9092 122.1 87.714C121.984 87.6051 121.895 87.4706 121.84 87.321C121.785 87.1715 121.766 87.0112 121.784 86.853V85.7425ZM123.582 84.9732H123.338C123.14 84.9694 122.943 84.9813 122.747 85.0089C122.641 85.0303 122.54 85.0737 122.451 85.1363C122.374 85.189 122.317 85.2661 122.288 85.3553C122.246 85.5112 122.229 85.6729 122.237 85.8342V86.7511C122.229 86.9108 122.246 87.0708 122.288 87.2249C122.317 87.3155 122.374 87.3942 122.451 87.4491C122.541 87.5079 122.642 87.5494 122.747 87.5713C122.942 87.6015 123.14 87.6135 123.338 87.607H123.567C123.766 87.6134 123.966 87.6015 124.163 87.5713C124.268 87.5494 124.369 87.5079 124.459 87.4491C124.534 87.3961 124.59 87.3214 124.622 87.2351C124.659 87.0767 124.675 86.9138 124.667 86.7511V85.8342C124.674 85.6715 124.659 85.5087 124.622 85.3502C124.591 85.2606 124.532 85.1836 124.453 85.1312C124.365 85.0722 124.267 85.0308 124.163 85.0089C123.966 84.9788 123.766 84.9668 123.567 84.9732H123.582Z" fill="white"/>
<path d="M126.787 87.9044V84.6797H127.459L129.604 87.558V84.6797H130.042V87.9044H129.364L127.22 85.021V87.9044H126.787Z" fill="white"/>
<path d="M131.402 87.9044L132.864 84.6797H133.583L135.055 87.9044H134.602L134.225 87.0791H132.228L131.861 87.9044H131.402ZM132.37 86.7633H134.087L133.297 85.021H133.155L132.37 86.7633Z" fill="white"/>
<path d="M136.405 87.9044V84.6797H136.812V87.5681H139.059V87.9044H136.405Z" fill="white"/>
<path d="M143.129 87.9044V84.6797H143.557V87.5681H145.803V87.9044H143.129Z" fill="white"/>
<path d="M147.072 85.7425C147.053 85.5847 147.071 85.4246 147.125 85.2752C147.179 85.1257 147.268 84.9909 147.383 84.8815C147.72 84.6863 148.11 84.6008 148.499 84.637H149.008C149.397 84.6016 149.788 84.685 150.129 84.8764C150.242 84.9882 150.328 85.1242 150.381 85.2742C150.434 85.4243 150.452 85.5844 150.434 85.7425V86.853C150.453 87.0112 150.434 87.1715 150.379 87.321C150.324 87.4706 150.235 87.6051 150.119 87.714C149.783 87.9088 149.395 87.9943 149.008 87.9585H148.499C148.11 87.9947 147.72 87.9092 147.383 87.714C147.268 87.6046 147.179 87.4698 147.125 87.3204C147.071 87.1709 147.053 87.0108 147.072 86.853V85.7425ZM148.865 84.9732H148.621C148.425 84.9693 148.229 84.9813 148.035 85.0089C147.927 85.0302 147.825 85.0736 147.734 85.1363C147.657 85.189 147.6 85.2661 147.571 85.3553C147.532 85.5117 147.515 85.6729 147.52 85.8342V86.7511C147.514 86.9107 147.531 87.0703 147.571 87.2249C147.6 87.3155 147.657 87.3942 147.734 87.4491C147.826 87.508 147.928 87.5494 148.035 87.5713C148.229 87.6016 148.425 87.6135 148.621 87.607H148.865C149.065 87.6134 149.264 87.6015 149.461 87.5713C149.568 87.5494 149.67 87.508 149.762 87.4491C149.836 87.3958 149.891 87.3211 149.92 87.2351C149.958 87.0767 149.973 86.9138 149.966 86.7511V85.8342C149.973 85.6715 149.957 85.5087 149.92 85.3502C149.892 85.261 149.834 85.1839 149.757 85.1312C149.667 85.0723 149.567 85.0308 149.461 85.0089C149.264 84.9788 149.065 84.9668 148.865 84.9732Z" fill="white"/>
<path d="M151.917 85.7426C151.898 85.5844 151.918 85.4241 151.972 85.2746C152.027 85.1251 152.116 84.9905 152.233 84.8817C152.568 84.6862 152.957 84.6007 153.343 84.6371H153.853C154.224 84.6117 154.596 84.6819 154.933 84.8409C155.043 84.9034 155.135 84.9957 155.196 85.1073C155.257 85.2189 155.286 85.3455 155.279 85.4726V85.6101H154.826V85.5694C154.835 85.481 154.821 85.3918 154.785 85.3105C154.75 85.2292 154.693 85.1586 154.622 85.1058C154.372 84.9965 154.099 84.951 153.827 84.9733H153.481C153.285 84.9699 153.089 84.9818 152.895 85.009C152.787 85.0295 152.684 85.0729 152.594 85.1364C152.517 85.1872 152.46 85.2626 152.431 85.3503C152.393 85.5086 152.377 85.6716 152.385 85.8343V86.7513C152.378 86.9139 152.394 87.0768 152.431 87.2352C152.462 87.3215 152.519 87.3962 152.594 87.4492C152.684 87.5089 152.784 87.5505 152.89 87.5714C153.085 87.6016 153.283 87.6136 153.481 87.6071H153.827C154.006 87.6121 154.185 87.6019 154.362 87.5765C154.459 87.5581 154.551 87.5199 154.632 87.4644C154.703 87.4143 154.757 87.343 154.785 87.2607C154.82 87.1192 154.834 86.9732 154.826 86.8277V86.6239H153.73V86.2979H155.259V86.8531C155.278 87.0109 155.259 87.171 155.205 87.3205C155.151 87.47 155.063 87.6047 154.948 87.7141C154.61 87.9087 154.22 87.9941 153.832 87.9586H153.323C152.936 87.9951 152.548 87.9096 152.212 87.7141C152.096 87.6052 152.007 87.4707 151.952 87.3211C151.897 87.1716 151.878 87.0113 151.896 86.8531L151.917 85.7426Z" fill="white"/>
<path d="M156.884 87.9044V84.6797H157.322V87.9044H156.884Z" fill="white"/>
<path d="M158.987 86.8554H159.431V86.9166C159.423 87.0594 159.44 87.2025 159.482 87.3394C159.496 87.3818 159.518 87.4209 159.548 87.4542C159.578 87.4875 159.614 87.5143 159.655 87.533C159.749 87.5699 159.849 87.5906 159.95 87.5941C160.083 87.5941 160.358 87.5941 160.776 87.5941C160.946 87.5981 161.117 87.5862 161.285 87.5585C161.387 87.5452 161.484 87.5047 161.565 87.4413C161.604 87.4008 161.629 87.3491 161.637 87.2936C161.655 87.2013 161.664 87.1074 161.662 87.0134C161.682 86.8563 161.65 86.6969 161.57 86.56C161.471 86.4818 161.345 86.4437 161.219 86.453L160.001 86.3715C159.732 86.3797 159.466 86.3031 159.242 86.1524C159.166 86.0663 159.108 85.9653 159.072 85.8558C159.036 85.7462 159.023 85.6304 159.033 85.5156C159.027 85.3617 159.049 85.208 159.1 85.0623C159.147 84.9487 159.225 84.8501 159.324 84.777C159.426 84.7131 159.541 84.6715 159.66 84.6547C159.912 84.6241 160.165 84.6122 160.419 84.6191H160.562C160.848 84.6115 161.134 84.6268 161.417 84.6649C161.566 84.693 161.708 84.7501 161.835 84.833C161.913 84.8868 161.971 84.9634 162.003 85.0521C162.043 85.1685 162.062 85.2909 162.059 85.4138C162.062 85.446 162.062 85.4784 162.059 85.5106V85.5666H161.616V85.4902C161.618 85.3978 161.609 85.3056 161.591 85.2151C161.58 85.1611 161.552 85.1124 161.509 85.0775C161.42 85.0208 161.319 84.9875 161.214 84.9808C161.076 84.9808 160.806 84.9553 160.414 84.9553C160.152 84.9284 159.888 84.9669 159.645 85.0674C159.555 85.1863 159.503 85.3289 159.494 85.4774C159.485 85.626 159.519 85.7739 159.594 85.9028C159.705 85.99 159.845 86.0335 159.986 86.0251L161.229 86.1117C161.476 86.1065 161.718 86.1835 161.917 86.3307C161.991 86.4152 162.046 86.514 162.081 86.6209C162.115 86.7278 162.127 86.8406 162.115 86.9522C162.119 87.1117 162.102 87.271 162.064 87.426C162.032 87.5272 161.974 87.6184 161.896 87.6909C161.787 87.7868 161.653 87.8503 161.509 87.8743C161.216 87.923 160.919 87.9418 160.623 87.9303H160.424C160.165 87.9374 159.906 87.922 159.65 87.8845C159.514 87.8612 159.385 87.8072 159.273 87.7266C159.173 87.6576 159.097 87.5599 159.054 87.4464C159 87.3014 158.976 87.1473 158.982 86.993L158.987 86.8554Z" fill="white"/>
<path d="M163.257 85.021V84.6797H166.217V85.021H164.953V87.9044H164.515V85.021H163.257Z" fill="white"/>
<path d="M167.454 87.9044V84.6797H167.887V87.9044H167.454Z" fill="white"/>
<path d="M169.665 87.9044V84.6797H170.103V86.045H170.434L172.039 84.6797H172.62L170.796 86.208L172.834 87.8942H172.233L170.414 86.3659H170.078V87.8942L169.665 87.9044Z" fill="white"/>
<path d="M176.66 85.7415C176.643 85.5855 176.66 85.4276 176.71 85.2788C176.76 85.1301 176.842 84.9942 176.95 84.8806C177.253 84.6884 177.612 84.6024 177.969 84.636H178.433C178.785 84.6087 179.138 84.6811 179.452 84.8449C179.555 84.9307 179.636 85.0405 179.688 85.1648C179.739 85.2891 179.76 85.4241 179.747 85.5581V85.6956H179.294V85.609C179.306 85.5157 179.295 85.4208 179.263 85.3323C179.231 85.2438 179.179 85.164 179.11 85.0996C178.888 84.9903 178.639 84.9445 178.392 84.9672H178.086C177.916 84.9625 177.745 84.9744 177.577 85.0028C177.479 85.0236 177.387 85.0653 177.307 85.1251C177.235 85.1791 177.182 85.2538 177.154 85.339C177.113 85.5056 177.098 85.6773 177.108 85.8485V86.7654C177.1 86.9281 177.116 87.0911 177.154 87.2494C177.181 87.3353 177.234 87.4103 177.307 87.4633C177.384 87.5251 177.475 87.567 177.572 87.5856C177.74 87.6145 177.911 87.6265 178.081 87.6213H178.387C178.638 87.6466 178.891 87.5988 179.115 87.4837C179.184 87.4128 179.235 87.3275 179.266 87.234C179.297 87.1406 179.306 87.0413 179.294 86.9437V86.852C179.296 86.8317 179.296 86.8112 179.294 86.7909H179.747V87.0049C179.762 87.1438 179.744 87.2844 179.693 87.4148C179.643 87.5451 179.562 87.6614 179.457 87.7537C179.144 87.9191 178.79 87.9916 178.438 87.9626H177.974C177.617 87.9962 177.259 87.9102 176.955 87.7181C176.847 87.6047 176.764 87.4687 176.714 87.32C176.664 87.1712 176.647 87.0131 176.665 86.8571L176.66 85.7415Z" fill="white"/>
<path d="M181.193 85.7426C181.175 85.5844 181.194 85.4241 181.249 85.2746C181.304 85.1251 181.393 84.9905 181.509 84.8817C181.845 84.6862 182.233 84.6007 182.62 84.6371H183.129C183.518 84.6017 183.909 84.6852 184.25 84.8766C184.363 84.9883 184.449 85.1243 184.502 85.2744C184.555 85.4244 184.574 85.5845 184.555 85.7426V86.8531C184.574 87.0109 184.556 87.171 184.502 87.3205C184.448 87.47 184.36 87.6047 184.245 87.7141C183.907 87.9087 183.517 87.9941 183.129 87.9586H182.62C182.233 87.9951 181.845 87.9096 181.509 87.7141C181.393 87.6052 181.304 87.4707 181.249 87.3211C181.194 87.1716 181.175 87.0113 181.193 86.8531V85.7426ZM182.992 84.9733H182.747C182.549 84.9695 182.352 84.9814 182.156 85.009C182.048 85.0303 181.946 85.0737 181.856 85.1364C181.778 85.1891 181.721 85.2662 181.693 85.3554C181.655 85.5122 181.64 85.6733 181.647 85.8343V86.7513C181.639 86.9105 181.655 87.0701 181.693 87.225C181.721 87.3156 181.778 87.3943 181.856 87.4492C181.947 87.5081 182.049 87.5495 182.156 87.5714C182.352 87.6016 182.549 87.6136 182.747 87.6071H182.992C183.189 87.6134 183.387 87.6014 183.582 87.5714C183.69 87.5505 183.792 87.5089 183.883 87.4492C183.958 87.3962 184.015 87.3215 184.046 87.2352C184.084 87.0768 184.099 86.9139 184.092 86.7513V85.8343C184.101 85.6713 184.084 85.5079 184.041 85.3503C184.013 85.2611 183.955 85.184 183.878 85.1313C183.788 85.0715 183.688 85.03 183.582 85.009C183.387 84.9788 183.189 84.9669 182.992 84.9733Z" fill="white"/>
<path d="M8.97672 64.6484L8.27881 65.7845C8.27881 65.5043 8.27881 65.3056 8.27881 65.0713V65.0356C8.52333 64.9082 8.75258 64.7809 8.97672 64.6484Z" fill="#EA5B0C"/>
</svg>
