<svg width="24" height="24" viewBox="0 0 24 24" fill="none" xmlns="http://www.w3.org/2000/svg">
<path d="M2.29004 7.78193V17.5119C2.29004 19.4119 3.64004 20.1919 5.28004 19.2519L7.63004 17.9119C8.14004 17.6219 8.99004 17.5919 9.52004 17.8619L14.77 20.4919C15.3 20.7519 16.15 20.7319 16.66 20.4419L20.99 17.9619C21.54 17.6419 22 16.8619 22 16.2219V6.49193C22 4.59193 20.65 3.81193 19.01 4.75193L16.66 6.09193C16.15 6.38193 15.3 6.41193 14.77 6.14193L9.52004 3.52193C8.99004 3.26193 8.14004 3.28193 7.63004 3.57193L3.30004 6.05193C2.74004 6.37193 2.29004 7.15193 2.29004 7.78193Z" stroke="#FD4D00" stroke-width="2" stroke-linecap="round" stroke-linejoin="round"/>
<path opacity="0.4" d="M8.55957 4V17" stroke="#FD4D00" stroke-width="2" stroke-linecap="round" stroke-linejoin="round"/>
<path opacity="0.4" d="M15.7305 6.62109V20.0011" stroke="#FD4D00" stroke-width="2" stroke-linecap="round" stroke-linejoin="round"/>
</svg>
