<svg width="16" height="16" viewBox="0 0 16 16" fill="none" xmlns="http://www.w3.org/2000/svg">
<path d="M14 5.16797H2C1.72667 5.16797 1.5 4.9413 1.5 4.66797C1.5 4.39464 1.72667 4.16797 2 4.16797H14C14.2733 4.16797 14.5 4.39464 14.5 4.66797C14.5 4.9413 14.2733 5.16797 14 5.16797Z" fill="#B7B7B7"/>
<path d="M14 8.5H2C1.72667 8.5 1.5 8.27333 1.5 8C1.5 7.72667 1.72667 7.5 2 7.5H14C14.2733 7.5 14.5 7.72667 14.5 8C14.5 8.27333 14.2733 8.5 14 8.5Z" fill="#B7B7B7"/>
<path d="M14 11.832H2C1.72667 11.832 1.5 11.6054 1.5 11.332C1.5 11.0587 1.72667 10.832 2 10.832H14C14.2733 10.832 14.5 11.0587 14.5 11.332C14.5 11.6054 14.2733 11.832 14 11.832Z" fill="#B7B7B7"/>
</svg>
