<svg width="20" height="20" viewBox="0 0 20 20" fill="none" xmlns="http://www.w3.org/2000/svg">
<path d="M7.08366 15.8346H6.66699C3.33366 15.8346 1.66699 15.0013 1.66699 10.8346V6.66797C1.66699 3.33464 3.33366 1.66797 6.66699 1.66797H13.3337C16.667 1.66797 18.3337 3.33464 18.3337 6.66797V10.8346C18.3337 14.168 16.667 15.8346 13.3337 15.8346H12.917C12.6587 15.8346 12.4087 15.9596 12.2503 16.168L11.0003 17.8346C10.4503 18.568 9.55033 18.568 9.00033 17.8346L7.75033 16.168C7.61699 15.9846 7.30866 15.8346 7.08366 15.8346Z" stroke="#0A1E56" stroke-width="1.5" stroke-miterlimit="10" stroke-linecap="round" stroke-linejoin="round"/>
<path d="M5.83301 6.66797H14.1663" stroke="#0A1E56" stroke-width="1.5" stroke-linecap="round" stroke-linejoin="round"/>
<path d="M5.83301 10.832H10.833" stroke="#0A1E56" stroke-width="1.5" stroke-linecap="round" stroke-linejoin="round"/>
</svg>
