<svg width="24" height="24" viewBox="0 0 24 24" fill="none" xmlns="http://www.w3.org/2000/svg">
<path d="M17 21.25H7C3.35 21.25 1.25 19.15 1.25 15.5V8.5C1.25 4.85 3.35 2.75 7 2.75H17C20.65 2.75 22.75 4.85 22.75 8.5V15.5C22.75 19.15 20.65 21.25 17 21.25ZM7 4.25C4.14 4.25 2.75 5.64 2.75 8.5V15.5C2.75 18.36 4.14 19.75 7 19.75H17C19.86 19.75 21.25 18.36 21.25 15.5V8.5C21.25 5.64 19.86 4.25 17 4.25H7Z" fill="url(#paint0_linear_1096_959)"/>
<path d="M6.66016 13.2009V9.24001H7.76172V13.2009C7.76693 13.4145 7.88672 13.5551 8.12109 13.6228C8.15755 13.6332 8.18359 13.6384 8.19922 13.6384V14.7478C7.89714 14.7478 7.59505 14.641 7.29297 14.4275C6.8763 14.1202 6.66536 13.7114 6.66016 13.2009ZM8.62109 14.7478V13.6384C8.71484 13.6384 8.8138 13.5942 8.91797 13.5056C9.00651 13.4223 9.05339 13.3207 9.05859 13.2009V9.24001H10.1523V13.2009C10.1523 13.7895 9.89193 14.2296 9.37109 14.5213C9.11068 14.6723 8.86068 14.7478 8.62109 14.7478Z" fill="url(#paint1_linear_1096_959)"/>
<path d="M10.6445 14.7088V13.6072L12.2852 10.3338H10.6445V9.24001H13.5039V10.3103L11.8633 13.5838H13.5039V14.7088H10.6445Z" fill="url(#paint2_linear_1096_959)"/>
<path d="M13.8945 13.4744L14.8867 13.1228C14.8867 13.253 14.9232 13.3676 14.9961 13.4666C15.069 13.5655 15.1419 13.6306 15.2148 13.6619L15.3242 13.7166V14.7322C14.8815 14.7322 14.5039 14.5395 14.1914 14.1541C13.9987 13.9093 13.8997 13.6827 13.8945 13.4744ZM13.957 10.74C13.957 10.1671 14.2018 9.7374 14.6914 9.45094C14.9154 9.31553 15.1263 9.24521 15.3242 9.24001V10.2713C15.194 10.3077 15.0977 10.4015 15.0352 10.5525C15.0143 10.5994 15.0039 10.6489 15.0039 10.7009C15.0039 10.9145 15.1628 11.0968 15.4805 11.2478C15.5482 11.2791 15.6576 11.3259 15.8086 11.3884C16.0586 11.4874 16.2357 11.5681 16.3398 11.6306C16.7617 11.8806 17.043 12.1358 17.1836 12.3963C17.2878 12.5994 17.3398 12.8259 17.3398 13.0759C17.3398 13.5499 17.1602 13.9562 16.8008 14.2947C16.4935 14.5864 16.1445 14.7322 15.7539 14.7322V13.7166C15.957 13.6905 16.1003 13.5838 16.1836 13.3963C16.2201 13.3129 16.2383 13.2218 16.2383 13.1228C16.2383 12.8572 16.0404 12.6384 15.6445 12.4666C15.5716 12.4353 15.457 12.391 15.3008 12.3338C15.1185 12.2713 14.9909 12.2218 14.918 12.1853C14.4701 11.9718 14.1836 11.6957 14.0586 11.3572C13.9909 11.1749 13.957 10.9692 13.957 10.74ZM15.7539 10.2713V9.24001C16.1914 9.24001 16.5586 9.4249 16.8555 9.79469C17.0273 10.0134 17.1159 10.2114 17.1211 10.3884L16.1055 10.7244C16.1055 10.5056 15.9987 10.3572 15.7852 10.2791C15.7643 10.2739 15.7539 10.2713 15.7539 10.2713Z" fill="url(#paint3_linear_1096_959)"/>
<defs>
<linearGradient id="paint0_linear_1096_959" x1="1.25" y1="12" x2="22.75" y2="12" gradientUnits="userSpaceOnUse">
<stop offset="0.22" stop-color="#FE9D04"/>
<stop offset="1" stop-color="#FFC73F"/>
</linearGradient>
<linearGradient id="paint1_linear_1096_959" x1="6.66016" y1="11.9939" x2="17.3398" y2="11.9939" gradientUnits="userSpaceOnUse">
<stop offset="0.22" stop-color="#FE9D04"/>
<stop offset="1" stop-color="#FFC73F"/>
</linearGradient>
<linearGradient id="paint2_linear_1096_959" x1="6.66016" y1="11.9939" x2="17.3398" y2="11.9939" gradientUnits="userSpaceOnUse">
<stop offset="0.22" stop-color="#FE9D04"/>
<stop offset="1" stop-color="#FFC73F"/>
</linearGradient>
<linearGradient id="paint3_linear_1096_959" x1="6.66016" y1="11.9939" x2="17.3398" y2="11.9939" gradientUnits="userSpaceOnUse">
<stop offset="0.22" stop-color="#FE9D04"/>
<stop offset="1" stop-color="#FFC73F"/>
</linearGradient>
</defs>
</svg>
