<svg width="20" height="20" viewBox="0 0 20 20" fill="none" xmlns="http://www.w3.org/2000/svg">
<path d="M16.2998 7.54167C16.2998 8.46214 15.7402 9.20833 15.0498 9.20833C14.3594 9.20833 13.7998 8.46214 13.7998 7.54167C13.7998 6.62119 14.3594 5.875 15.0498 5.875C15.7402 5.875 16.2998 6.62119 16.2998 7.54167ZM14.5752 7.54167C14.5752 7.89112 14.7877 8.17441 15.0498 8.17441C15.3119 8.17441 15.5244 7.89112 15.5244 7.54167C15.5244 7.19221 15.3119 6.90892 15.0498 6.90892C14.7877 6.90892 14.5752 7.19221 14.5752 7.54167Z" fill="#292D32"/>
<path d="M5.4668 7.54167C5.4668 8.46214 4.90715 9.20833 4.2168 9.20833C3.52644 9.20833 2.9668 8.46214 2.9668 7.54167C2.9668 6.62119 3.52644 5.875 4.2168 5.875C4.90715 5.875 5.4668 6.62119 5.4668 7.54167ZM3.74224 7.54167C3.74224 7.89112 3.95471 8.17441 4.2168 8.17441C4.47889 8.17441 4.69135 7.89112 4.69135 7.54167C4.69135 7.19221 4.47889 6.90892 4.2168 6.90892C3.95471 6.90892 3.74224 7.19221 3.74224 7.54167Z" fill="#292D32"/>
<path d="M4.2168 6.7083C4.2168 4.625 4.62216 0.875 9.63326 0.875C14.6333 0.875 15.0499 4.625 15.05 6.70833" stroke="#292D32" stroke-width="1.2"/>
<path d="M4.2168 9.2085V9.87516C4.2168 10.4274 4.66451 10.8752 5.2168 10.8752H9.63346" stroke="#292D32" stroke-width="1.2" stroke-linecap="round"/>
<path d="M9.63314 11.9167C7.10633 11.9167 5.0498 9.86015 5.0498 7.33333C5.0498 4.80652 7.10633 2.75 9.63314 2.75C12.16 2.75 14.2165 4.80652 14.2165 7.33333C14.2165 9.86015 12.16 11.9167 9.63314 11.9167ZM9.63314 3.94565C7.76792 3.94565 6.24546 5.46812 6.24546 7.33333C6.24546 9.19855 7.76792 10.721 9.63314 10.721C11.4984 10.721 13.0208 9.19855 13.0208 7.33333C13.0208 5.46812 11.4984 3.94565 9.63314 3.94565Z" fill="#292D32"/>
<path d="M16.4546 19.8332C16.129 19.8332 15.859 19.5665 15.859 19.2449C15.859 16.5391 13.0639 14.343 9.63346 14.343C6.20306 14.343 3.40791 16.5391 3.40791 19.2449C3.40791 19.5665 3.13792 19.8332 2.81235 19.8332C2.48678 19.8332 2.2168 19.5665 2.2168 19.2449C2.2168 15.8959 5.54397 13.1665 9.63346 13.1665C13.723 13.1665 17.0501 15.8959 17.0501 19.2449C17.0501 19.5665 16.7801 19.8332 16.4546 19.8332Z" fill="#292D32"/>
</svg>
