<svg width="17" height="16" viewBox="0 0 17 16" fill="none" xmlns="http://www.w3.org/2000/svg">
<rect x="1" y="0.5" width="15" height="15" rx="3.5" stroke="#FF680A"/>
<path d="M6.42969 12.4713V3.53125H9.58569C10.1777 3.53125 10.6977 3.64325 11.1457 3.86725C11.5937 4.09125 11.9417 4.41125 12.1897 4.82725C12.4457 5.24325 12.5737 5.73125 12.5737 6.29125C12.5737 6.85125 12.4457 7.33925 12.1897 7.75525C11.9417 8.16325 11.5937 8.48325 11.1457 8.71525C10.7057 8.93925 10.1857 9.05125 9.58569 9.05125H7.60569V12.4713H6.42969ZM7.60569 7.97125H9.62169C9.98169 7.97125 10.2937 7.90325 10.5577 7.76725C10.8217 7.63125 11.0257 7.43525 11.1697 7.17925C11.3137 6.92325 11.3857 6.62725 11.3857 6.29125C11.3857 5.94725 11.3137 5.65125 11.1697 5.40325C11.0257 5.14725 10.8217 4.95125 10.5577 4.81525C10.2937 4.67925 9.98169 4.61125 9.62169 4.61125H7.60569V7.97125Z" fill="#FF680A"/>
</svg>
