<svg width="24" height="25" viewBox="0 0 24 25" fill="none" xmlns="http://www.w3.org/2000/svg">
<path fill-rule="evenodd" clip-rule="evenodd" d="M16.5902 4.96427C16.8639 4.9641 17.1264 5.07276 17.32 5.26631L18.9233 6.86961C19.1168 7.06317 19.2255 7.32573 19.2253 7.59945C19.2252 7.87318 19.1162 8.1356 18.9224 8.32892L6.13489 21.085C6.03907 21.1806 5.92538 21.2564 5.8003 21.308L3.92905 22.081C3.54388 22.2401 2.6272 21.6781 2.33252 21.3835C2.03784 21.0888 1.94948 20.6457 2.10859 20.2606L2.88156 18.3893C2.93323 18.2642 3.00901 18.1505 3.10459 18.0547L15.8607 5.26721C16.054 5.07342 16.3164 4.96444 16.5902 4.96427Z" fill="white" fill-opacity="0.8"/>
<path fill-rule="evenodd" clip-rule="evenodd" d="M18.9993 2.32289C19.2183 2.23216 19.4531 2.18546 19.6902 2.18546C19.9272 2.18546 20.162 2.23216 20.381 2.32289C20.6 2.41361 20.799 2.54658 20.9666 2.71421L21.4759 3.22348C21.8141 3.56197 22.0041 4.02092 22.0041 4.49944C22.0041 4.97797 21.8141 5.43691 21.4759 5.77541L20.923 6.32833C20.5202 6.73106 19.8673 6.73106 19.4646 6.32833L17.861 4.7248C17.6676 4.53135 17.5589 4.26896 17.559 3.99538C17.5591 3.7218 17.6678 3.45946 17.8614 3.26609L18.4137 2.71425C18.5812 2.54677 18.7804 2.41356 18.9993 2.32289Z" fill="white" fill-opacity="0.8"/>
</svg>
