<svg width="30" height="30" viewBox="0 0 30 30" fill="none" xmlns="http://www.w3.org/2000/svg">
<circle cx="15" cy="15" r="15" fill="white"/>
<path d="M5.49917 14.3377C5.54281 14.3169 5.58646 14.2971 5.629 14.2783C6.36858 13.9516 7.11798 13.6456 7.86629 13.3397C7.90665 13.3397 7.97427 13.2949 8.01245 13.2804C8.07026 13.2564 8.12808 13.2336 8.1859 13.2096C8.29716 13.1638 8.40843 13.1191 8.5186 13.0733C8.74113 12.9828 8.96256 12.8922 9.18509 12.8017C9.62905 12.6206 10.073 12.4396 10.517 12.2575C11.4049 11.8953 12.294 11.5321 13.1819 11.17C14.0698 10.8079 14.9588 10.4447 15.8468 10.0825C16.7347 9.72041 17.6237 9.35724 18.5117 8.9951C19.3996 8.63296 20.2886 8.26979 21.1766 7.90765C21.374 7.82649 21.5878 7.70577 21.7994 7.67039C21.9772 7.64021 22.1507 7.58195 22.3296 7.54969C22.6688 7.48829 23.043 7.46331 23.368 7.59755C23.4804 7.64438 23.584 7.70992 23.6702 7.79213C24.0825 8.18133 24.0247 8.82028 23.9374 9.36765C23.3299 13.1826 22.7223 16.9985 22.1136 20.8135C22.0307 21.3369 21.9172 21.9113 21.4842 22.2422C21.1177 22.5222 20.5962 22.5534 20.1435 22.4347C19.6909 22.3151 19.2916 22.0643 18.9 21.8176C17.2758 20.7916 15.6504 19.7655 14.0262 18.7395C13.64 18.496 13.2103 18.1776 13.2146 17.7353C13.2168 17.4689 13.3837 17.2316 13.5539 17.0204C14.9654 15.2638 17.002 14.0567 18.5171 12.3813C18.7309 12.1451 18.8989 11.7184 18.6055 11.5821C18.431 11.5009 18.2302 11.6112 18.071 11.7163C16.0682 13.0431 14.0666 14.3709 12.0638 15.6977C11.4104 16.1306 10.7254 16.576 9.93777 16.6822C9.2331 16.7779 8.52406 16.5906 7.8423 16.3991C7.2707 16.2389 6.70018 16.0744 6.13186 15.9048C5.8297 15.8153 5.51772 15.7186 5.28428 15.5156C5.05085 15.3127 4.91669 14.9714 5.05741 14.7008C5.14577 14.5312 5.31703 14.424 5.49702 14.3366L5.49917 14.3377Z" fill="url(#paint0_linear_610_8411)"/>
<defs>
<linearGradient id="paint0_linear_610_8411" x1="5" y1="15" x2="24" y2="15" gradientUnits="userSpaceOnUse">
<stop stop-color="#D15701"/>
<stop offset="1" stop-color="#FC842C"/>
</linearGradient>
</defs>
</svg>
