<svg width="24" height="25" viewBox="0 0 24 25" fill="none" xmlns="http://www.w3.org/2000/svg">
<path d="M3.09847 17.2344C2.95369 17.2344 2.81199 17.1926 2.69047 17.1139C2.56895 17.0352 2.4728 16.9231 2.41362 16.7909C1.69759 15.1918 1.39313 13.4389 1.52797 11.6919C1.66281 9.94498 2.23268 8.25956 3.18564 6.78923C4.1386 5.3189 5.44435 4.11042 6.98391 3.27392C8.52347 2.43741 10.2479 1.99947 12 2C12.1989 2 12.3897 2.07902 12.5304 2.21967C12.671 2.36032 12.75 2.55109 12.75 2.75V12.5C12.7501 12.6448 12.7082 12.7866 12.6294 12.9081C12.5506 13.0296 12.4383 13.1257 12.3061 13.1848L3.40456 17.1669C3.30845 17.2108 3.20412 17.2338 3.09847 17.2344Z" fill="white"/>
<path d="M14.6996 3.69594C14.6452 3.68491 14.589 3.68609 14.5352 3.69938C14.4813 3.71268 14.431 3.73777 14.388 3.77283C14.345 3.8079 14.3104 3.85207 14.2865 3.90216C14.2626 3.95225 14.2502 4.00701 14.25 4.0625V12.5C14.2497 12.9343 14.1238 13.3591 13.8876 13.7236C13.6515 14.088 13.315 14.3764 12.9188 14.5541L4.83425 18.1719C4.78414 18.1942 4.73955 18.2273 4.70362 18.2688C4.6677 18.3103 4.64132 18.3592 4.62634 18.412C4.61137 18.4648 4.60816 18.5202 4.61695 18.5744C4.62574 18.6285 4.64631 18.6801 4.67722 18.7255C5.29593 19.6354 6.06392 20.4343 6.94878 21.0884C8.62526 22.3356 10.6606 23.0062 12.75 23C18.1261 23 22.5 18.6261 22.5 13.25C22.5 8.54141 19.1447 4.60156 14.6996 3.69594Z" fill="white"/>
</svg>
