<svg width="28" height="28" viewBox="0 0 28 28" fill="none" xmlns="http://www.w3.org/2000/svg">
<g clip-path="url(#clip0_2916_102268)">
<path d="M27.6423 16.1497L25.9227 14.9754L26.4003 14.5939C26.8232 14.256 26.8086 13.6058 26.3685 13.288L10.5951 1.89686C9.88663 1.38515 8.90291 1.51815 8.35559 2.19939L3.17171 8.65175C2.58218 9.38572 2.73098 10.4672 3.49727 11.0144L7.43805 13.8286L5.85594 16.0764C5.59409 16.4484 5.68526 16.9628 6.05877 17.2223L6.62271 17.614C5.69826 18.5057 4.46399 19.004 3.17959 19.0043H1.64062V17.2269C1.64062 16.7739 1.27334 16.4066 0.820312 16.4066C0.367281 16.4066 0 16.7739 0 17.2269V25.5941C0 26.0471 0.367281 26.4144 0.820312 26.4144C1.27334 26.4144 1.64062 26.0471 1.64062 25.5941V23.9261H2.75253C5.69702 23.9261 8.57577 22.6878 10.6205 20.3906L11.441 20.9604C11.8155 21.2205 12.3303 21.1251 12.5869 20.7485L14.073 18.5668L17.452 20.9798C17.5973 21.0836 17.7724 21.1371 17.9508 21.1323C18.1293 21.1275 18.3013 21.0646 18.4407 20.9532L19.665 19.975L22.8484 22.2663C23.202 22.5208 23.6926 22.4544 23.966 22.1156L27.8181 17.3424C28.1185 16.9701 28.0377 16.4197 27.6423 16.1497ZM2.75253 22.2855H1.64062V20.6448H3.17953C4.08093 20.6446 4.97274 20.4599 5.8 20.1019C6.62726 19.7439 7.37244 19.2203 7.98962 18.5633L9.26144 19.4466C7.59287 21.2372 5.21834 22.2855 2.75253 22.2855ZM11.6969 19.1407L7.6726 16.3457L8.77319 14.7821L12.7375 17.6131L11.6969 19.1407ZM17.9009 19.2844L4.45069 9.67928L9.63457 3.22692L24.5328 13.986L17.9009 19.2844ZM23.1767 20.4811L20.996 18.9115L24.5821 16.0464L25.9833 17.0034L23.1767 20.4811Z" fill="#FD4D00" stroke="#FD4D00" stroke-width="0.2"/>
<path d="M20.5625 14C21.0155 14 21.3828 13.6327 21.3828 13.1797C21.3828 12.7266 21.0155 12.3594 20.5625 12.3594C20.1095 12.3594 19.7422 12.7266 19.7422 13.1797C19.7422 13.6327 20.1095 14 20.5625 14Z" fill="#FD4D00" stroke="#FD4D00" stroke-width="0.2"/>
</g>
<defs>
<clipPath id="clip0_2916_102268">
<rect width="28" height="28" fill="white"/>
</clipPath>
</defs>
</svg>
