<svg width="16" height="16" viewBox="0 0 16 16" fill="none" xmlns="http://www.w3.org/2000/svg">
<path d="M7.9987 15.1681C4.04536 15.1681 0.832031 11.9548 0.832031 8.00146C0.832031 6.74813 1.15869 5.51481 1.78536 4.42814C1.92536 4.18814 2.22537 4.10812 2.46537 4.24146L8.24536 7.56146C8.48536 7.70146 8.56536 8.00146 8.43203 8.24146C8.29203 8.48146 7.99203 8.56147 7.75203 8.42814L2.4187 5.36812C2.03203 6.18812 1.83203 7.08146 1.83203 7.99479C1.83203 11.3948 4.5987 14.1615 7.9987 14.1615C11.3987 14.1615 14.1654 11.3948 14.1654 7.99479C14.1654 4.59479 11.3987 1.82812 7.9987 1.82812C6.65203 1.82812 5.37204 2.2548 4.29871 3.06146C4.07871 3.22813 3.76536 3.18147 3.59869 2.96147C3.43203 2.74147 3.47869 2.42814 3.69869 2.26147C4.94536 1.32814 6.43203 0.828125 7.9987 0.828125C11.952 0.828125 15.1654 4.04146 15.1654 7.99479C15.1654 11.9481 11.952 15.1681 7.9987 15.1681Z" fill="#FD4D00"/>
<path d="M8 12.5C5.52 12.5 3.5 10.48 3.5 8C3.5 7.2 3.71333 6.40666 4.12 5.71999C4.26 5.47999 4.56666 5.4 4.80666 5.54C5.04666 5.68 5.12667 5.98666 4.98667 6.22666C4.67334 6.76 4.50667 7.37333 4.50667 8C4.50667 9.93333 6.08001 11.5 8.00667 11.5C9.93334 11.5 11.5067 9.93333 11.5067 8C11.5067 6.06667 9.93334 4.5 8.00667 4.5C7.48667 4.5 6.98666 4.61333 6.51333 4.83333C6.25999 4.94667 5.96666 4.84001 5.84666 4.59334C5.72666 4.34001 5.83334 4.04668 6.08667 3.92668C6.68667 3.64668 7.33333 3.5 8 3.5C10.48 3.5 12.5 5.52 12.5 8C12.5 10.48 10.48 12.5 8 12.5Z" fill="#FD4D00"/>
</svg>
