<svg width="17" height="16" viewBox="0 0 17 16" fill="none" xmlns="http://www.w3.org/2000/svg">
<path d="M13.446 7.83203H11.166C10.8927 7.83203 10.666 7.60536 10.666 7.33203V2.67203C10.666 2.1787 10.8593 1.7187 11.206 1.37203C11.5527 1.02537 12.0127 0.832031 12.506 0.832031H12.5127C13.346 0.838698 14.1327 1.16536 14.7327 1.7587C15.3327 2.36536 15.6593 3.16536 15.6593 3.9987V5.61203C15.666 6.9387 14.7727 7.83203 13.446 7.83203ZM11.666 6.83203H13.446C14.2193 6.83203 14.666 6.38536 14.666 5.61203V3.9987C14.666 3.42536 14.4393 2.8787 14.0327 2.46537C13.626 2.06537 13.0793 1.8387 12.5127 1.83203C12.5127 1.83203 12.5127 1.83203 12.506 1.83203C12.286 1.83203 12.0727 1.9187 11.9127 2.0787C11.7527 2.2387 11.666 2.44536 11.666 2.67203V6.83203V6.83203Z" fill="white"/>
<path d="M6.50065 15.552C6.18732 15.552 5.89398 15.432 5.67398 15.2054L4.56732 14.092C4.50732 14.032 4.41398 14.0254 4.34732 14.0787L3.20065 14.932C2.84732 15.1987 2.38065 15.2454 1.98065 15.0454C1.58065 14.8454 1.33398 14.4454 1.33398 13.9987V3.9987C1.33398 1.98536 2.48732 0.832031 4.50065 0.832031H12.5007C12.774 0.832031 13.0007 1.0587 13.0007 1.33203C13.0007 1.60536 12.774 1.83203 12.5007 1.83203C12.0407 1.83203 11.6673 2.20536 11.6673 2.66536V13.9987C11.6673 14.4454 11.4207 14.8454 11.0207 15.0454C10.6207 15.2454 10.154 15.2054 9.80065 14.9387L8.66065 14.0854C8.59398 14.032 8.50065 14.0454 8.44732 14.0987L7.32732 15.2187C7.10732 15.432 6.81398 15.552 6.50065 15.552ZM4.44065 13.0454C4.74732 13.0454 5.04732 13.1587 5.27398 13.392L6.38065 14.5054C6.42065 14.5454 6.47398 14.552 6.50065 14.552C6.52732 14.552 6.58065 14.5454 6.62065 14.5054L7.74065 13.3854C8.15398 12.972 8.80732 12.932 9.26732 13.2854L10.4007 14.132C10.474 14.1854 10.5407 14.1654 10.574 14.1454C10.6073 14.1254 10.6673 14.0854 10.6673 13.9987V2.66536C10.6673 2.36536 10.7407 2.0787 10.8673 1.83203H4.50065C3.02065 1.83203 2.33398 2.5187 2.33398 3.9987V13.9987C2.33398 14.092 2.39398 14.132 2.42732 14.152C2.46732 14.172 2.53398 14.1854 2.60065 14.132L3.74065 13.2787C3.94732 13.1254 4.19398 13.0454 4.44065 13.0454Z" fill="white"/>
<path d="M8.5 9.17188H6.5C6.22667 9.17188 6 8.94521 6 8.67188C6 8.39854 6.22667 8.17188 6.5 8.17188H8.5C8.77333 8.17188 9 8.39854 9 8.67188C9 8.94521 8.77333 9.17188 8.5 9.17188Z" fill="white"/>
<path d="M8.5 6.50781H6.5C6.22667 6.50781 6 6.28115 6 6.00781C6 5.73448 6.22667 5.50781 6.5 5.50781H8.5C8.77333 5.50781 9 5.73448 9 6.00781C9 6.28115 8.77333 6.50781 8.5 6.50781Z" fill="white"/>
<path d="M4.47917 6.67318C4.1125 6.67318 3.8125 6.37318 3.8125 6.00651C3.8125 5.63984 4.1125 5.33984 4.47917 5.33984C4.84583 5.33984 5.14583 5.63984 5.14583 6.00651C5.14583 6.37318 4.84583 6.67318 4.47917 6.67318Z" fill="white"/>
<path d="M4.47917 9.34115C4.1125 9.34115 3.8125 9.04115 3.8125 8.67448C3.8125 8.30781 4.1125 8.00781 4.47917 8.00781C4.84583 8.00781 5.14583 8.30781 5.14583 8.67448C5.14583 9.04115 4.84583 9.34115 4.47917 9.34115Z" fill="white"/>
</svg>
