<svg width="16" height="16" viewBox="0 0 16 16" fill="none" xmlns="http://www.w3.org/2000/svg">
<path d="M3.64661 7.16668C3.17327 7.16668 2.69327 6.99334 2.32661 6.64001C1.09994 5.47334 0.606607 4.20001 0.893274 2.95334C1.23327 1.48668 2.51994 0.833344 3.64661 0.833344C4.77327 0.833344 6.06661 1.49334 6.39994 2.95334C6.68661 4.20001 6.18661 5.47334 4.96661 6.64001C4.59994 6.99334 4.12661 7.16668 3.64661 7.16668ZM1.86661 3.18001C1.61327 4.29334 2.35327 5.28001 3.01994 5.91334C3.37327 6.25334 3.92661 6.24668 4.27994 5.91334C4.94661 5.28001 5.68661 4.29334 5.42661 3.17334C5.19994 2.18668 4.32661 1.83334 3.65327 1.83334C2.97327 1.83334 2.09994 2.18668 1.86661 3.18001Z" fill="white"/>
<path d="M3.6735 4.13332C3.30684 4.13332 3.00684 3.83332 3.00684 3.46665C3.00684 3.09999 3.30017 2.79999 3.6735 2.79999H3.68017C4.04684 2.79999 4.34684 3.09999 4.34684 3.46665C4.34684 3.83332 4.04684 4.13332 3.6735 4.13332Z" fill="white"/>
<path d="M12.3269 15.1667C11.8536 15.1667 11.3736 14.9933 11.0002 14.64C9.76691 13.4733 9.26691 12.2 9.56024 10.9467C9.90024 9.48666 11.1936 8.82666 12.3269 8.82666C13.4602 8.82666 14.7536 9.48666 15.0936 10.9467C15.3802 12.1933 14.8802 13.4733 13.6469 14.6333C13.2802 14.9933 12.8069 15.1667 12.3269 15.1667ZM12.3269 9.83333C11.6469 9.83333 10.7669 10.1867 10.5336 11.18C10.2736 12.2933 11.0202 13.2867 11.6869 13.92C12.0402 14.26 12.6002 14.26 12.9602 13.92C13.6269 13.2867 14.3736 12.3 14.1136 11.1867C13.8936 10.1867 13.0136 9.83333 12.3269 9.83333Z" fill="white"/>
<path d="M12.3532 12.1333C11.9865 12.1333 11.6865 11.8333 11.6865 11.4667C11.6865 11.1 11.9799 10.8 12.3532 10.8H12.3599C12.7265 10.8 13.0265 11.1 13.0265 11.4667C13.0265 11.8333 12.7199 12.1333 12.3532 12.1333Z" fill="white"/>
<path d="M8.00012 13.1667H6.21346C5.44012 13.1667 4.76679 12.7 4.50012 11.98C4.22679 11.26 4.42679 10.4667 5.00679 9.95334L10.3335 5.29334C10.6535 5.01334 10.6601 4.63334 10.5668 4.37334C10.4668 4.11334 10.2135 3.83334 9.78679 3.83334H8.00012C7.72679 3.83334 7.50012 3.60668 7.50012 3.33334C7.50012 3.06001 7.72679 2.83334 8.00012 2.83334H9.78679C10.5601 2.83334 11.2335 3.30001 11.5001 4.02001C11.7735 4.74001 11.5735 5.53334 10.9935 6.04668L5.66679 10.7067C5.34679 10.9867 5.34012 11.3667 5.43346 11.6267C5.53346 11.8867 5.78679 12.1667 6.21346 12.1667H8.00012C8.27346 12.1667 8.50012 12.3933 8.50012 12.6667C8.50012 12.94 8.27346 13.1667 8.00012 13.1667Z" fill="white"/>
<path d="M8.00012 13.1667H6.21346C5.44012 13.1667 4.76679 12.7 4.50012 11.98C4.22679 11.26 4.42679 10.4667 5.00679 9.95334L10.3335 5.29334C10.6535 5.01334 10.6601 4.63334 10.5668 4.37334C10.4668 4.11334 10.2135 3.83334 9.78679 3.83334H8.00012C7.72679 3.83334 7.50012 3.60668 7.50012 3.33334C7.50012 3.06001 7.72679 2.83334 8.00012 2.83334H9.78679C10.5601 2.83334 11.2335 3.30001 11.5001 4.02001C11.7735 4.74001 11.5735 5.53334 10.9935 6.04668L5.66679 10.7067C5.34679 10.9867 5.34012 11.3667 5.43346 11.6267C5.53346 11.8867 5.78679 12.1667 6.21346 12.1667H8.00012C8.27346 12.1667 8.50012 12.3933 8.50012 12.6667C8.50012 12.94 8.27346 13.1667 8.00012 13.1667Z" fill="white"/>
</svg>
