<svg width="20" height="20" viewBox="0 0 20 20" fill="none" xmlns="http://www.w3.org/2000/svg">
<mask id="path-1-inside-1_2916_100834" fill="white">
<path d="M1.66797 8.1263C1.3263 8.1263 1.04297 7.84297 1.04297 7.5013V5.41797C1.04297 3.0013 3.00964 1.04297 5.41797 1.04297H7.5013C7.84297 1.04297 8.1263 1.3263 8.1263 1.66797C8.1263 2.00964 7.84297 2.29297 7.5013 2.29297H5.41797C3.69297 2.29297 2.29297 3.69297 2.29297 5.41797V7.5013C2.29297 7.84297 2.00964 8.1263 1.66797 8.1263Z"/>
</mask>
<path d="M1.66797 8.1263C1.3263 8.1263 1.04297 7.84297 1.04297 7.5013V5.41797C1.04297 3.0013 3.00964 1.04297 5.41797 1.04297H7.5013C7.84297 1.04297 8.1263 1.3263 8.1263 1.66797C8.1263 2.00964 7.84297 2.29297 7.5013 2.29297H5.41797C3.69297 2.29297 2.29297 3.69297 2.29297 5.41797V7.5013C2.29297 7.84297 2.00964 8.1263 1.66797 8.1263Z" fill="white"/>
<path d="M1.66797 6.6263C2.15473 6.6263 2.54297 7.01454 2.54297 7.5013H-0.457031C-0.457031 8.6714 0.497875 9.6263 1.66797 9.6263V6.6263ZM2.54297 7.5013V5.41797H-0.457031V7.5013H2.54297ZM2.54297 5.41797C2.54297 3.83159 3.8362 2.54297 5.41797 2.54297V-0.457031C2.18307 -0.457031 -0.457031 2.17102 -0.457031 5.41797H2.54297ZM5.41797 2.54297H7.5013V-0.457031H5.41797V2.54297ZM7.5013 2.54297C7.01454 2.54297 6.6263 2.15473 6.6263 1.66797H9.6263C9.6263 0.497875 8.6714 -0.457031 7.5013 -0.457031V2.54297ZM6.6263 1.66797C6.6263 1.18121 7.01454 0.792969 7.5013 0.792969V3.79297C8.6714 3.79297 9.6263 2.83806 9.6263 1.66797H6.6263ZM7.5013 0.792969H5.41797V3.79297H7.5013V0.792969ZM5.41797 0.792969C2.86454 0.792969 0.792969 2.86454 0.792969 5.41797H3.79297C3.79297 4.5214 4.5214 3.79297 5.41797 3.79297V0.792969ZM0.792969 5.41797V7.5013H3.79297V5.41797H0.792969ZM0.792969 7.5013C0.792969 7.01454 1.18121 6.6263 1.66797 6.6263V9.6263C2.83806 9.6263 3.79297 8.6714 3.79297 7.5013H0.792969Z" fill="white" mask="url(#path-1-inside-1_2916_100834)"/>
<mask id="path-3-inside-2_2916_100834" fill="white">
<path d="M18.3333 8.1263C17.9917 8.1263 17.7083 7.84297 17.7083 7.5013V5.41797C17.7083 3.69297 16.3083 2.29297 14.5833 2.29297H12.5C12.1583 2.29297 11.875 2.00964 11.875 1.66797C11.875 1.3263 12.1583 1.04297 12.5 1.04297H14.5833C16.9917 1.04297 18.9583 3.0013 18.9583 5.41797V7.5013C18.9583 7.84297 18.675 8.1263 18.3333 8.1263Z"/>
</mask>
<path d="M18.3333 8.1263C17.9917 8.1263 17.7083 7.84297 17.7083 7.5013V5.41797C17.7083 3.69297 16.3083 2.29297 14.5833 2.29297H12.5C12.1583 2.29297 11.875 2.00964 11.875 1.66797C11.875 1.3263 12.1583 1.04297 12.5 1.04297H14.5833C16.9917 1.04297 18.9583 3.0013 18.9583 5.41797V7.5013C18.9583 7.84297 18.675 8.1263 18.3333 8.1263Z" fill="white"/>
<path d="M18.3333 6.6263C18.8201 6.6263 19.2083 7.01454 19.2083 7.5013H16.2083C16.2083 8.6714 17.1632 9.6263 18.3333 9.6263V6.6263ZM19.2083 7.5013V5.41797H16.2083V7.5013H19.2083ZM19.2083 5.41797C19.2083 2.86454 17.1368 0.792969 14.5833 0.792969V3.79297C15.4799 3.79297 16.2083 4.5214 16.2083 5.41797H19.2083ZM14.5833 0.792969H12.5V3.79297H14.5833V0.792969ZM12.5 0.792969C12.9868 0.792969 13.375 1.18121 13.375 1.66797H10.375C10.375 2.83806 11.3299 3.79297 12.5 3.79297V0.792969ZM13.375 1.66797C13.375 2.15473 12.9868 2.54297 12.5 2.54297V-0.457031C11.3299 -0.457031 10.375 0.497875 10.375 1.66797H13.375ZM12.5 2.54297H14.5833V-0.457031H12.5V2.54297ZM14.5833 2.54297C16.1651 2.54297 17.4583 3.83159 17.4583 5.41797H20.4583C20.4583 2.17102 17.8182 -0.457031 14.5833 -0.457031V2.54297ZM17.4583 5.41797V7.5013H20.4583V5.41797H17.4583ZM17.4583 7.5013C17.4583 7.01454 17.8466 6.6263 18.3333 6.6263V9.6263C19.5034 9.6263 20.4583 8.6714 20.4583 7.5013H17.4583Z" fill="white" mask="url(#path-3-inside-2_2916_100834)"/>
<mask id="path-5-inside-3_2916_100834" fill="white">
<path d="M14.582 18.957H13.332C12.9904 18.957 12.707 18.6737 12.707 18.332C12.707 17.9904 12.9904 17.707 13.332 17.707H14.582C16.307 17.707 17.707 16.307 17.707 14.582V13.332C17.707 12.9904 17.9904 12.707 18.332 12.707C18.6737 12.707 18.957 12.9904 18.957 13.332V14.582C18.957 16.9987 16.9904 18.957 14.582 18.957Z"/>
</mask>
<path d="M14.582 18.957H13.332C12.9904 18.957 12.707 18.6737 12.707 18.332C12.707 17.9904 12.9904 17.707 13.332 17.707H14.582C16.307 17.707 17.707 16.307 17.707 14.582V13.332C17.707 12.9904 17.9904 12.707 18.332 12.707C18.6737 12.707 18.957 12.9904 18.957 13.332V14.582C18.957 16.9987 16.9904 18.957 14.582 18.957Z" fill="white"/>
<path d="M14.582 17.457H13.332V20.457H14.582V17.457ZM13.332 17.457C13.8188 17.457 14.207 17.8453 14.207 18.332H11.207C11.207 19.5021 12.1619 20.457 13.332 20.457V17.457ZM14.207 18.332C14.207 18.8188 13.8188 19.207 13.332 19.207V16.207C12.1619 16.207 11.207 17.1619 11.207 18.332H14.207ZM13.332 19.207H14.582V16.207H13.332V19.207ZM14.582 19.207C17.1355 19.207 19.207 17.1355 19.207 14.582H16.207C16.207 15.4786 15.4786 16.207 14.582 16.207V19.207ZM19.207 14.582V13.332H16.207V14.582H19.207ZM19.207 13.332C19.207 13.8188 18.8188 14.207 18.332 14.207V11.207C17.1619 11.207 16.207 12.1619 16.207 13.332H19.207ZM18.332 14.207C17.8453 14.207 17.457 13.8188 17.457 13.332H20.457C20.457 12.1619 19.5021 11.207 18.332 11.207V14.207ZM17.457 13.332V14.582H20.457V13.332H17.457ZM17.457 14.582C17.457 16.1684 16.1638 17.457 14.582 17.457V20.457C17.8169 20.457 20.457 17.829 20.457 14.582H17.457Z" fill="white" mask="url(#path-5-inside-3_2916_100834)"/>
<path d="M7.5013 18.9583H5.41797C3.00964 18.9583 1.04297 17 1.04297 14.5833V12.5C1.04297 12.1583 1.3263 11.875 1.66797 11.875C2.00964 11.875 2.29297 12.1583 2.29297 12.5V14.5833C2.29297 16.3083 3.69297 17.7083 5.41797 17.7083H7.5013C7.84297 17.7083 8.1263 17.9917 8.1263 18.3333C8.1263 18.675 7.84297 18.9583 7.5013 18.9583Z" fill="white"/>
<path d="M7.4987 9.3737H5.83203C4.65703 9.3737 3.95703 8.6737 3.95703 7.4987V5.83203C3.95703 4.65703 4.65703 3.95703 5.83203 3.95703H7.4987C8.6737 3.95703 9.3737 4.65703 9.3737 5.83203V7.4987C9.3737 8.6737 8.6737 9.3737 7.4987 9.3737ZM5.83203 5.20703C5.34036 5.20703 5.20703 5.34036 5.20703 5.83203V7.4987C5.20703 7.99036 5.34036 8.1237 5.83203 8.1237H7.4987C7.99036 8.1237 8.1237 7.99036 8.1237 7.4987V5.83203C8.1237 5.34036 7.99036 5.20703 7.4987 5.20703H5.83203Z" fill="white"/>
<path d="M14.1667 9.3737H12.5C11.325 9.3737 10.625 8.6737 10.625 7.4987V5.83203C10.625 4.65703 11.325 3.95703 12.5 3.95703H14.1667C15.3417 3.95703 16.0417 4.65703 16.0417 5.83203V7.4987C16.0417 8.6737 15.3417 9.3737 14.1667 9.3737ZM12.5 5.20703C12.0083 5.20703 11.875 5.34036 11.875 5.83203V7.4987C11.875 7.99036 12.0083 8.1237 12.5 8.1237H14.1667C14.6583 8.1237 14.7917 7.99036 14.7917 7.4987V5.83203C14.7917 5.34036 14.6583 5.20703 14.1667 5.20703H12.5Z" fill="white"/>
<path d="M7.4987 16.0417H5.83203C4.65703 16.0417 3.95703 15.3417 3.95703 14.1667V12.5C3.95703 11.325 4.65703 10.625 5.83203 10.625H7.4987C8.6737 10.625 9.3737 11.325 9.3737 12.5V14.1667C9.3737 15.3417 8.6737 16.0417 7.4987 16.0417ZM5.83203 11.875C5.34036 11.875 5.20703 12.0083 5.20703 12.5V14.1667C5.20703 14.6583 5.34036 14.7917 5.83203 14.7917H7.4987C7.99036 14.7917 8.1237 14.6583 8.1237 14.1667V12.5C8.1237 12.0083 7.99036 11.875 7.4987 11.875H5.83203Z" fill="white"/>
<path d="M14.1667 16.0417H12.5C11.325 16.0417 10.625 15.3417 10.625 14.1667V12.5C10.625 11.325 11.325 10.625 12.5 10.625H14.1667C15.3417 10.625 16.0417 11.325 16.0417 12.5V14.1667C16.0417 15.3417 15.3417 16.0417 14.1667 16.0417ZM12.5 11.875C12.0083 11.875 11.875 12.0083 11.875 12.5V14.1667C11.875 14.6583 12.0083 14.7917 12.5 14.7917H14.1667C14.6583 14.7917 14.7917 14.6583 14.7917 14.1667V12.5C14.7917 12.0083 14.6583 11.875 14.1667 11.875H12.5Z" fill="white"/>
</svg>
