<svg width="28" height="28" viewBox="0 0 28 28" fill="none" xmlns="http://www.w3.org/2000/svg">
<path d="M12.2365 2.59938L6.41489 4.78104C5.07322 5.2827 3.97656 6.86936 3.97656 8.30436V16.9727C3.97656 18.3493 4.88658 20.1577 5.99491 20.986L11.0116 24.731C12.6566 25.9677 15.3632 25.9677 17.0082 24.731L22.0249 20.986C23.1332 20.1577 24.0432 18.3493 24.0432 16.9727V8.30436C24.0432 6.86936 22.9465 5.2827 21.6049 4.78104L15.7832 2.59938C14.7916 2.23771 13.2049 2.23771 12.2365 2.59938Z" stroke="#FD4D00" stroke-width="2" stroke-linecap="round" stroke-linejoin="round"/>
<path d="M14.0022 12.7356C13.9556 12.7356 13.8972 12.7356 13.8506 12.7356C12.7539 12.7006 11.8789 11.7906 11.8789 10.6823C11.8789 9.55058 12.8006 8.62891 13.9323 8.62891C15.0639 8.62891 15.9856 9.55058 15.9856 10.6823C15.9739 11.8023 15.0989 12.7006 14.0022 12.7356Z" stroke="#FD4D00" stroke-width="2" stroke-linecap="round" stroke-linejoin="round"/>
<path d="M11.6798 16.002C10.5598 16.7487 10.5598 17.9737 11.6798 18.7203C12.9515 19.572 15.0398 19.572 16.3115 18.7203C17.4315 17.9737 17.4315 16.7487 16.3115 16.002C15.0515 15.1504 12.9632 15.1504 11.6798 16.002Z" stroke="#FD4D00" stroke-width="1.75" stroke-linecap="round" stroke-linejoin="round"/>
</svg>
