<svg width="16" height="16" viewBox="0 0 16 16" fill="none" xmlns="http://www.w3.org/2000/svg">
<path d="M9.47927 14.4196C8.6926 14.4196 7.57927 13.8662 6.69927 11.2196L6.21927 9.77956L4.77927 9.29956C2.13927 8.41956 1.58594 7.30623 1.58594 6.51956C1.58594 5.73956 2.13927 4.61956 4.77927 3.73289L10.4393 1.84623C11.8526 1.37289 13.0326 1.51289 13.7593 2.23289C14.4859 2.95289 14.6259 4.13956 14.1526 5.55289L12.2659 11.2129C11.3793 13.8662 10.2659 14.4196 9.47927 14.4196ZM5.0926 4.68623C3.23927 5.30623 2.57927 6.03956 2.57927 6.51956C2.57927 6.99956 3.23927 7.73289 5.0926 8.34623L6.7726 8.90623C6.91927 8.95289 7.03927 9.07289 7.08594 9.21956L7.64594 10.8996C8.25927 12.7529 8.99927 13.4129 9.47927 13.4129C9.95927 13.4129 10.6926 12.7529 11.3126 10.8996L13.1993 5.23956C13.5393 4.21289 13.4793 3.37289 13.0459 2.93956C12.6126 2.50623 11.7726 2.45289 10.7526 2.79289L5.0926 4.68623Z" fill="white"/>
<path d="M6.74052 9.60065C6.61385 9.60065 6.48719 9.55399 6.38719 9.45398C6.19385 9.26065 6.19385 8.94065 6.38719 8.74732L8.77385 6.35398C8.96719 6.16065 9.28719 6.16065 9.48052 6.35398C9.67385 6.54732 9.67385 6.86732 9.48052 7.06065L7.09385 9.45398C7.00052 9.55399 6.86719 9.60065 6.74052 9.60065Z" fill="white"/>
</svg>
