<svg width="26" height="27" viewBox="0 0 26 27" fill="none" xmlns="http://www.w3.org/2000/svg">
<path d="M3.99917 12.8377C4.04281 12.8169 4.08646 12.7971 4.129 12.7783C4.86858 12.4516 5.61798 12.1456 6.36629 11.8397C6.40665 11.8397 6.47427 11.7949 6.51245 11.7804C6.57026 11.7564 6.62808 11.7336 6.6859 11.7096C6.79716 11.6638 6.90843 11.6191 7.0186 11.5733C7.24113 11.4828 7.46256 11.3922 7.68509 11.3017C8.12905 11.1206 8.57302 10.9396 9.01698 10.7575C9.90492 10.3953 10.794 10.0321 11.6819 9.66999C12.5698 9.30785 13.4588 8.94468 14.3468 8.58255C15.2347 8.22041 16.1237 7.85724 17.0117 7.4951C17.8996 7.13296 18.7886 6.76979 19.6766 6.40765C19.874 6.32649 20.0878 6.20577 20.2994 6.17039C20.4772 6.14021 20.6507 6.08195 20.8296 6.04969C21.1688 5.98829 21.543 5.96331 21.868 6.09755C21.9804 6.14438 22.084 6.20992 22.1702 6.29213C22.5825 6.68133 22.5247 7.32028 22.4374 7.86765C21.8299 11.6826 21.2223 15.4985 20.6136 19.3135C20.5307 19.8369 20.4172 20.4113 19.9842 20.7422C19.6177 21.0222 19.0962 21.0534 18.6435 20.9347C18.1909 20.8151 17.7916 20.5643 17.4 20.3176C15.7758 19.2916 14.1504 18.2655 12.5262 17.2395C12.14 16.996 11.7103 16.6776 11.7146 16.2353C11.7168 15.9689 11.8837 15.7316 12.0539 15.5204C13.4654 13.7638 15.502 12.5567 17.0171 10.8813C17.2309 10.6451 17.3989 10.2184 17.1055 10.0821C16.931 10.0009 16.7302 10.1112 16.571 10.2163C14.5682 11.5431 12.5666 12.8709 10.5638 14.1977C9.91039 14.6306 9.22535 15.076 8.43777 15.1822C7.7331 15.2779 7.02406 15.0906 6.3423 14.8991C5.7707 14.7389 5.20018 14.5744 4.63186 14.4048C4.3297 14.3153 4.01772 14.2186 3.78428 14.0156C3.55085 13.8127 3.41669 13.4714 3.55741 13.2008C3.64577 13.0312 3.81703 12.924 3.99702 12.8366L3.99917 12.8377Z" fill="white"/>
</svg>
