<svg width="25" height="25" viewBox="0 0 25 25" fill="none" xmlns="http://www.w3.org/2000/svg">
<path d="M19 3.5L20.5 4.5L21.5 7L16.5 20.5L15 21H14L12.5 20L11.5 17.5L10.5 14.5L7 13.5L3.5 10.5L4.5 8.5L19 3.5Z" fill="white"/>
<path d="M14.7199 22.1299C13.5399 22.1299 11.8699 21.2999 10.5499 17.3299L9.82988 15.1699L7.66988 14.4499C3.70988 13.1299 2.87988 11.4599 2.87988 10.2799C2.87988 9.10995 3.70988 7.42995 7.66988 6.09995L16.1599 3.26995C18.2799 2.55995 20.0499 2.76995 21.1399 3.84995C22.2299 4.92995 22.4399 6.70995 21.7299 8.82995L18.8999 17.3199C17.5699 21.2999 15.8999 22.1299 14.7199 22.1299ZM8.13988 7.52995C5.35988 8.45995 4.36988 9.55995 4.36988 10.2799C4.36988 10.9999 5.35988 12.0999 8.13988 13.0199L10.6599 13.8599C10.8799 13.9299 11.0599 14.1099 11.1299 14.3299L11.9699 16.8499C12.8899 19.6299 13.9999 20.6199 14.7199 20.6199C15.4399 20.6199 16.5399 19.6299 17.4699 16.8499L20.2999 8.35995C20.8099 6.81995 20.7199 5.55995 20.0699 4.90995C19.4199 4.25995 18.1599 4.17995 16.6299 4.68995L8.13988 7.52995Z" fill="white"/>
<path d="M11.6098 13.9875C11.4198 13.9875 11.2298 13.9175 11.0798 13.7675C10.7898 13.4775 10.7898 12.9975 11.0798 12.7075L14.6598 9.1175C14.9498 8.8275 15.4298 8.8275 15.7198 9.1175C16.0098 9.4075 16.0098 9.8875 15.7198 10.1775L12.1398 13.7675C11.9998 13.9175 11.7998 13.9875 11.6098 13.9875Z" fill="url(#paint0_linear_1196_6298)"/>
<defs>
<linearGradient id="paint0_linear_1196_6298" x1="10.8623" y1="11.4437" x2="15.9373" y2="11.4437" gradientUnits="userSpaceOnUse">
<stop offset="0.22" stop-color="#FE9D04"/>
<stop offset="1" stop-color="#FFC73F"/>
</linearGradient>
</defs>
</svg>
