<svg width="28" height="29" viewBox="0 0 28 29" fill="none" xmlns="http://www.w3.org/2000/svg">
<path d="M4.9657 10.3833C5.40793 10.3833 5.83645 10.3248 6.24434 10.2157L9.35681 13.3281L12.8433 9.83201L9.73568 6.72437C10.599 3.65743 8.16419 0.459646 4.96564 0.508362C-1.57634 0.750134 -1.57525 10.1421 4.9657 10.3833ZM3.66451 4.14465L5.44194 3.66835L6.74308 4.96953L6.26683 6.74686L4.48945 7.22316L3.18832 5.92208L3.66451 4.14465Z" fill="#FD4D00"/>
<path d="M23.068 18.6177C22.6257 18.6177 22.1972 18.6762 21.7893 18.7852C21.4643 18.4602 19.2179 16.2139 18.6603 15.6562L15.1738 19.1524L18.298 22.2766C17.4346 25.3435 19.8694 28.5413 23.068 28.4926C29.61 28.2508 29.6089 18.8588 23.068 18.6177ZM24.3691 24.8563L22.5917 25.3326L21.2906 24.0315L21.7668 22.2541L23.5442 21.7778L24.8454 23.079L24.3691 24.8563Z" fill="#FD4D00"/>
<path d="M21.7576 10.2171C25.7925 11.3197 29.31 7.07971 27.4916 3.31938L24.7811 6.02984L23.0354 5.44804L22.4535 3.70237L25.164 0.991913C21.4012 -0.827162 17.164 2.69348 18.2663 6.72586L6.24244 18.7828C2.20748 17.6801 -1.30986 21.9201 0.508443 25.6804L3.21895 22.97L4.96462 23.5519L5.54653 25.2975L2.83602 28.008C6.59898 29.827 10.836 26.3064 9.73378 22.274L21.7576 10.2171Z" fill="#FD4D00"/>
</svg>
