<svg width="24" height="24" viewBox="0 0 24 24" fill="none" xmlns="http://www.w3.org/2000/svg">
<path d="M11.9995 14.25C13.2422 14.25 14.2495 13.2426 14.2495 12C14.2495 10.7574 13.2422 9.75 11.9995 9.75C10.7569 9.75 9.74953 10.7574 9.74953 12C9.74953 13.2426 10.7569 14.25 11.9995 14.25Z" fill="white"/>
<path d="M22.0491 14.0625L22.027 14.0447L20.5477 12.8845C20.454 12.8104 20.3792 12.7151 20.3295 12.6065C20.2798 12.4979 20.2566 12.379 20.2617 12.2597V11.7178C20.257 11.5992 20.2805 11.4812 20.3303 11.3735C20.3801 11.2658 20.4548 11.1714 20.5481 11.0981L22.027 9.9375L22.0491 9.91969C22.2771 9.72969 22.4302 9.46475 22.4809 9.17225C22.5315 8.87976 22.4765 8.57877 22.3256 8.32312L20.3236 4.85906C20.3213 4.85579 20.3193 4.85235 20.3175 4.84875C20.1658 4.59664 19.9306 4.40562 19.6527 4.30886C19.3749 4.2121 19.0719 4.21571 18.7964 4.31906L18.78 4.32516L17.0409 5.025C16.9312 5.06938 16.8124 5.08704 16.6945 5.07653C16.5766 5.06602 16.4628 5.02763 16.3627 4.96453C16.2089 4.86766 16.0527 4.77609 15.8939 4.68984C15.791 4.63403 15.7026 4.55481 15.6359 4.45856C15.5692 4.36232 15.5261 4.25176 15.51 4.13578L15.248 2.28L15.2423 2.24625C15.1853 1.95881 15.0311 1.69977 14.8055 1.51265C14.58 1.32554 14.2969 1.22176 14.0039 1.21875H9.99516C9.698 1.2197 9.41071 1.32549 9.1839 1.51749C8.9571 1.70948 8.80532 1.97536 8.75532 2.26828L8.7511 2.29453L8.49 4.15406C8.47399 4.2697 8.4312 4.38001 8.36504 4.4762C8.29887 4.57239 8.21117 4.6518 8.10891 4.70813C7.9486 4.79437 7.79204 4.88578 7.64016 4.98094C7.54016 5.04365 7.4267 5.08174 7.30912 5.09209C7.19153 5.10244 7.07317 5.08475 6.96375 5.04047L5.22328 4.33734L5.20688 4.33078C4.931 4.22731 4.62758 4.22384 4.34941 4.32096C4.07123 4.41808 3.83591 4.60965 3.68438 4.86234L3.67828 4.87266L1.67344 8.33906C1.52233 8.59497 1.46718 8.89629 1.51784 9.18913C1.56851 9.48197 1.7217 9.74724 1.95 9.9375L1.97203 9.95531L3.45141 11.1155C3.54509 11.1896 3.61986 11.2849 3.66957 11.3935C3.71927 11.5021 3.7425 11.621 3.73735 11.7403V12.2822C3.74204 12.4008 3.71853 12.5188 3.66874 12.6265C3.61895 12.7342 3.5443 12.8286 3.45094 12.9019L1.97203 14.0625L1.95 14.0803C1.72192 14.2703 1.56886 14.5353 1.5182 14.8277C1.46753 15.1202 1.52256 15.4212 1.67344 15.6769L3.67547 19.1409C3.67778 19.1442 3.67981 19.1477 3.68157 19.1512C3.83326 19.4034 4.06847 19.5944 4.34633 19.6911C4.6242 19.7879 4.92718 19.7843 5.20266 19.6809L5.21907 19.6748L6.95672 18.975C7.06649 18.9306 7.18522 18.913 7.30315 18.9235C7.42108 18.934 7.53482 18.9724 7.635 19.0355C7.78875 19.1327 7.945 19.2242 8.10375 19.3102C8.20668 19.366 8.29505 19.4452 8.36174 19.5414C8.42842 19.6377 8.47156 19.7482 8.48766 19.8642L8.74828 21.72L8.75391 21.7537C8.81105 22.0417 8.96571 22.3011 9.19182 22.4882C9.41792 22.6754 9.70165 22.7789 9.99516 22.7812H14.0039C14.3011 22.7803 14.5884 22.6745 14.8152 22.4825C15.042 22.2905 15.1937 22.0246 15.2438 21.7317L15.248 21.7055L15.5091 19.8459C15.5253 19.7301 15.5685 19.6196 15.6351 19.5234C15.7016 19.4272 15.7898 19.3479 15.8925 19.2919C16.0528 19.2056 16.2094 19.1142 16.3613 19.0191C16.4613 18.9564 16.5747 18.9183 16.6923 18.9079C16.8099 18.8976 16.9282 18.9153 17.0377 18.9595L18.7781 19.6603L18.7945 19.6669C19.0704 19.7705 19.3739 19.7741 19.6521 19.677C19.9303 19.5798 20.1656 19.3881 20.317 19.1353C20.3189 19.1318 20.3209 19.1283 20.3231 19.125L22.3252 15.6614C22.4765 15.4055 22.5319 15.1041 22.4813 14.8112C22.4307 14.5182 22.2775 14.2528 22.0491 14.0625ZM15.7453 12.1763C15.7112 12.9021 15.4669 13.6025 15.0421 14.1921C14.6173 14.7817 14.0304 15.2352 13.3526 15.4974C12.6749 15.7597 11.9356 15.8193 11.2245 15.6692C10.5135 15.519 9.86147 15.1655 9.34765 14.6516C8.83382 14.1377 8.48038 13.4856 8.3303 12.7746C8.18022 12.0635 8.23996 11.3242 8.50227 10.6465C8.76458 9.96881 9.21814 9.38192 9.80781 8.95721C10.3975 8.5325 11.0979 8.28827 11.8238 8.25422C12.3449 8.23127 12.8651 8.31702 13.3513 8.50601C13.8375 8.695 14.2791 8.98309 14.6479 9.35197C15.0167 9.72085 15.3048 10.1624 15.4937 10.6487C15.6826 11.1349 15.7683 11.6551 15.7453 12.1763Z" fill="white"/>
</svg>
