<svg width="17" height="16" viewBox="0 0 17 16" fill="none" xmlns="http://www.w3.org/2000/svg">
<path d="M10.5233 9.00732L5.97 11.6607M5.97667 4.34065L10.5233 6.99398M2.25 3.33398C2.25 4.43855 3.14543 5.33398 4.25 5.33398C5.35457 5.33398 6.25 4.43855 6.25 3.33398C6.25 2.22941 5.35457 1.33398 4.25 1.33398C3.14543 1.33398 2.25 2.22941 2.25 3.33398ZM10.25 8.00065C10.25 9.10522 11.1454 10.0007 12.25 10.0007C13.3546 10.0007 14.25 9.10522 14.25 8.00065C14.25 6.89608 13.3546 6.00065 12.25 6.00065C11.1454 6.00065 10.25 6.89608 10.25 8.00065ZM2.25 12.6673C2.25 13.7719 3.14543 14.6673 4.25 14.6673C5.35457 14.6673 6.25 13.7719 6.25 12.6673C6.25 11.5627 5.35457 10.6673 4.25 10.6673C3.14543 10.6673 2.25 11.5627 2.25 12.6673Z" stroke="#FD4D00" stroke-width="1.2" stroke-linecap="round" stroke-linejoin="round"/>
</svg>
