<svg width="16" height="17" viewBox="0 0 16 17" fill="none" xmlns="http://www.w3.org/2000/svg">
<path d="M9.80017 15.4992H6.20017C2.90684 15.4992 1.50684 14.0925 1.50684 10.8058V7.8125C1.50684 7.53917 1.7335 7.3125 2.00684 7.3125C2.28017 7.3125 2.50684 7.53917 2.50684 7.8125V10.8058C2.50684 13.5325 3.4735 14.4992 6.20017 14.4992H9.7935C12.5202 14.4992 13.4868 13.5325 13.4868 10.8058V7.8125C13.4868 7.53917 13.7135 7.3125 13.9868 7.3125C14.2602 7.3125 14.4868 7.53917 14.4868 7.8125V10.8058C14.4935 14.0925 13.0868 15.4992 9.80017 15.4992Z" fill="#B7B7B7"/>
<path d="M8.00033 8.83073C7.26699 8.83073 6.60033 8.54406 6.12699 8.0174C5.65366 7.49073 5.43366 6.80406 5.50699 6.07073L5.95366 1.6174C5.98033 1.36406 6.19366 1.16406 6.45366 1.16406H9.56699C9.82699 1.16406 10.0403 1.3574 10.067 1.6174L10.5137 6.07073C10.587 6.80406 10.367 7.49073 9.89366 8.0174C9.40033 8.54406 8.73366 8.83073 8.00033 8.83073ZM6.90033 2.16406L6.50033 6.17073C6.45366 6.6174 6.58699 7.0374 6.86699 7.34406C7.43366 7.97073 8.56699 7.97073 9.13366 7.34406C9.41366 7.03073 9.54699 6.61073 9.50033 6.17073L9.10033 2.16406H6.90033Z" fill="#B7B7B7"/>
<path d="M12.207 8.83073C10.8537 8.83073 9.64699 7.7374 9.50699 6.39073L9.04033 1.7174C9.02699 1.5774 9.07366 1.4374 9.16699 1.33073C9.26033 1.22406 9.39366 1.16406 9.54033 1.16406H11.5737C13.5337 1.16406 14.447 1.98406 14.7203 3.9974L14.907 5.85073C14.987 6.6374 14.747 7.38406 14.2337 7.95073C13.7203 8.5174 13.0003 8.83073 12.207 8.83073ZM10.0937 2.16406L10.507 6.29073C10.5937 7.12406 11.367 7.83073 12.207 7.83073C12.7137 7.83073 13.167 7.6374 13.4937 7.28406C13.8137 6.93073 13.9603 6.4574 13.9137 5.95073L13.727 4.1174C13.5203 2.61073 13.0337 2.16406 11.5737 2.16406H10.0937Z" fill="#B7B7B7"/>
<path d="M3.76001 8.83073C2.96668 8.83073 2.24668 8.5174 1.73335 7.95073C1.22001 7.38406 0.980014 6.6374 1.06001 5.85073L1.24001 4.0174C1.52001 1.98406 2.43335 1.16406 4.39335 1.16406H6.42668C6.56668 1.16406 6.70001 1.22406 6.80001 1.33073C6.90001 1.4374 6.94001 1.5774 6.92668 1.7174L6.46001 6.39073C6.32001 7.7374 5.11335 8.83073 3.76001 8.83073ZM4.39335 2.16406C2.93335 2.16406 2.44668 2.60406 2.23335 4.13073L2.05335 5.95073C2.00001 6.4574 2.15335 6.93073 2.47335 7.28406C2.79335 7.6374 3.24668 7.83073 3.76001 7.83073C4.60001 7.83073 5.38001 7.12406 5.46001 6.29073L5.87335 2.16406H4.39335Z" fill="#B7B7B7"/>
<path d="M9.66634 15.4974H6.33301C6.05967 15.4974 5.83301 15.2707 5.83301 14.9974V13.3307C5.83301 11.9307 6.59967 11.1641 7.99967 11.1641C9.39967 11.1641 10.1663 11.9307 10.1663 13.3307V14.9974C10.1663 15.2707 9.93967 15.4974 9.66634 15.4974ZM6.83301 14.4974H9.16634V13.3307C9.16634 12.4907 8.83967 12.1641 7.99967 12.1641C7.15967 12.1641 6.83301 12.4907 6.83301 13.3307V14.4974Z" fill="#B7B7B7"/>
</svg>
