<svg width="16" height="16" viewBox="0 0 16 16" fill="none" xmlns="http://www.w3.org/2000/svg">
<path d="M6.65856 15.0317C6.62523 15.0317 6.5919 15.0317 6.55856 15.0184C4.00523 14.4984 1.9319 12.6184 1.15856 10.1251C1.07856 9.85841 1.22523 9.57841 1.48523 9.49841C1.7519 9.41841 2.0319 9.56507 2.1119 9.82507C2.77856 11.9717 4.55856 13.5851 6.75856 14.0317C7.0319 14.0851 7.20523 14.3517 7.14523 14.6251C7.09856 14.8651 6.88523 15.0317 6.65856 15.0317Z" fill="#2AD43B"/>
<path d="M14.6335 7.8187C14.3801 7.8187 14.1601 7.62536 14.1335 7.37203C13.8135 4.21203 11.1735 1.83203 8.00015 1.83203C4.82015 1.83203 2.18682 4.21203 1.86682 7.36536C1.84015 7.6387 1.60015 7.84536 1.32015 7.81203C1.04682 7.78536 0.846812 7.5387 0.873479 7.26536C1.24681 3.5987 4.31348 0.832031 8.00015 0.832031C11.6935 0.832031 14.7601 3.5987 15.1268 7.26536C15.1535 7.5387 14.9535 7.78536 14.6801 7.81203C14.6668 7.8187 14.6468 7.8187 14.6335 7.8187Z" fill="#2AD43B"/>
<path d="M9.34006 15.0339C9.10673 15.0339 8.90006 14.8739 8.85339 14.6339C8.80006 14.3605 8.97339 14.1005 9.24006 14.0472C11.4267 13.6005 13.2067 12.0005 13.8801 9.86721C13.9601 9.60055 14.2467 9.45388 14.5067 9.54055C14.7734 9.62055 14.9134 9.90721 14.8334 10.1672C14.0467 12.6472 11.9801 14.5072 9.44006 15.0272C9.40673 15.0272 9.37339 15.0339 9.34006 15.0339Z" fill="#2AD43B"/>
</svg>
