<svg width="71" height="70" viewBox="0 0 71 70" fill="none" xmlns="http://www.w3.org/2000/svg">
<path d="M35.5107 68.9545C54.2514 68.9545 69.4438 53.7622 69.4438 35.0214C69.4438 16.2807 54.2514 1.08838 35.5107 1.08838C16.77 1.08838 1.57764 16.2807 1.57764 35.0214C1.57764 53.7622 16.77 68.9545 35.5107 68.9545Z" fill="#36D488"/>
<path opacity="0.2" d="M63.8167 41.6833C67.5078 26.0445 57.8222 10.3744 42.1833 6.68331C26.5445 2.99221 10.8744 12.6778 7.18334 28.3167C3.49223 43.9555 13.1778 59.6255 28.8166 63.3166C44.4555 67.0077 60.1256 57.3222 63.8167 41.6833Z" fill="black"/>
<path d="M32.2642 47.682C31.899 47.6899 31.5359 47.6256 31.1956 47.4929C30.8553 47.3602 30.5446 47.1616 30.2812 46.9086L18.8391 35.7046C18.3132 35.1944 18.0115 34.4962 18.0003 33.7636C17.9892 33.031 18.2695 32.324 18.7797 31.798C19.2898 31.2721 19.988 30.9704 20.7206 30.9592C21.4532 30.9481 22.1603 31.2284 22.6862 31.7386L32.0659 40.9199L48.2869 22.815C48.7843 22.3137 49.4551 22.0224 50.161 22.0012C50.8668 21.9801 51.5538 22.2306 52.0804 22.7012C52.6069 23.1717 52.9328 23.8265 52.9907 24.5302C53.0486 25.234 52.8343 25.9332 52.3918 26.4835L34.2472 46.7301C33.9969 47.0101 33.6917 47.2356 33.3505 47.3925C33.0094 47.5494 32.6396 47.6345 32.2642 47.6423V47.682Z" fill="white"/>
</svg>
