<svg width="24" height="24" viewBox="0 0 24 24" fill="none" xmlns="http://www.w3.org/2000/svg">
<rect x="1.5" y="6.5" width="21" height="11" rx="1" stroke="#292D32"/>
<path d="M5.53279 14.5C5.36885 14.4952 5.21311 14.4643 5.06557 14.4073C4.35519 14.1267 4 13.3207 4 11.9893C4 11.3331 4.09563 10.7981 4.28689 10.3845C4.55464 9.82335 4.97268 9.53329 5.54098 9.51427V10.1063C5.40984 10.1205 5.28689 10.1847 5.17213 10.2989C4.87158 10.6032 4.71311 11.0977 4.69672 11.7825V12.082C4.69672 12.5956 4.77049 13.0164 4.91803 13.3445C5.0765 13.6869 5.28142 13.8747 5.53279 13.908V14.5ZM6.01639 14.5V13.908C6.07104 13.8985 6.12568 13.8842 6.18033 13.8652C6.62842 13.675 6.85246 13.0806 6.85246 12.082V11.7825C6.85246 11.3545 6.77869 10.9836 6.63115 10.6698C6.46721 10.3226 6.25956 10.1348 6.0082 10.1063V9.51427C6.18852 9.51902 6.35792 9.55468 6.51639 9.62126C7.19945 9.91607 7.54098 10.7054 7.54098 11.9893C7.54098 12.6598 7.44809 13.2019 7.2623 13.6155C7 14.1909 6.5847 14.4857 6.01639 14.5Z" fill="#292D32"/>
<path d="M8.04098 13.4729V12.8951L10.041 9.93509V11.0407L8.78688 12.8951H10.041V13.4729H8.04098ZM10.4508 14.5V9.5H11.1721V12.8951H11.6148V13.4729H11.1721V14.5H10.4508Z" fill="#292D32"/>
<path d="M13.7213 14.5C13.5574 14.4952 13.4016 14.4643 13.2541 14.4073C12.5437 14.1267 12.1885 13.3207 12.1885 11.9893C12.1885 11.3331 12.2842 10.7981 12.4754 10.3845C12.7432 9.82335 13.1612 9.53329 13.7295 9.51427V10.1063C13.5984 10.1205 13.4754 10.1847 13.3607 10.2989C13.0601 10.6032 12.9016 11.0977 12.8852 11.7825V12.082C12.8852 12.5956 12.959 13.0164 13.1066 13.3445C13.265 13.6869 13.4699 13.8747 13.7213 13.908V14.5ZM14.2049 14.5V13.908C14.2596 13.8985 14.3142 13.8842 14.3689 13.8652C14.8169 13.675 15.041 13.0806 15.041 12.082V11.7825C15.041 11.3545 14.9672 10.9836 14.8197 10.6698C14.6557 10.3226 14.4481 10.1348 14.1967 10.1063V9.51427C14.377 9.51902 14.5464 9.55468 14.7049 9.62126C15.388 9.91607 15.7295 10.7054 15.7295 11.9893C15.7295 12.6598 15.6366 13.2019 15.4508 13.6155C15.1885 14.1909 14.7732 14.4857 14.2049 14.5Z" fill="#292D32"/>
<path d="M16.3689 11.975L16.6066 9.50713H19.5328V10.0849L17.2295 10.092L17.0984 11.5114C17.3388 11.3783 17.5956 11.3117 17.8689 11.3117V11.868C17.4973 11.8823 17.2022 12.025 16.9836 12.296L16.3689 11.975ZM18.2705 14.5V13.9365C18.5984 13.9127 18.8689 13.7844 19.082 13.5514C19.2514 13.3659 19.3361 13.1495 19.3361 12.9023C19.3361 12.4696 19.1339 12.1629 18.7295 11.9822C18.5765 11.9108 18.4235 11.8728 18.2705 11.868V11.3117C18.959 11.3165 19.4536 11.559 19.7541 12.0392C19.918 12.3008 20 12.5908 20 12.9094C20 13.48 19.7568 13.9151 19.2705 14.2147C18.9699 14.3954 18.6366 14.4905 18.2705 14.5ZM16.3197 13.5086L16.9344 13.3445C17.071 13.6774 17.3497 13.8676 17.7705 13.9151C17.7978 13.9199 17.8251 13.9223 17.8525 13.9223V14.5C17.388 14.5 16.9945 14.3526 16.6721 14.0578C16.4918 13.8866 16.3743 13.7035 16.3197 13.5086Z" fill="#292D32"/>
</svg>
