<svg width="28" height="28" viewBox="0 0 28 28" fill="none" xmlns="http://www.w3.org/2000/svg">
<path d="M9.33366 17.3846C9.33366 12.5001 14.0659 7.68321 16.3258 5.66136C17.0033 5.05525 17.9973 5.05525 18.6748 5.66136C20.9347 7.68321 25.667 12.5001 25.667 17.3846C25.667 21.468 22.5744 25.668 17.5003 25.668C12.4262 25.668 9.33366 21.468 9.33366 17.3846Z" stroke="#FD4D00" stroke-width="2"/>
<path d="M8.13871 3.39071C6.13972 5.27987 2.33301 9.4296 2.33301 13.6357C2.33301 17.2654 4.98376 20.9987 9.33301 20.9987C9.60556 20.9987 9.87143 20.984 10.1304 20.9557C9.60866 19.8306 9.33301 18.6011 9.33301 17.382C9.33301 13.7472 11.9536 10.1497 14.2259 7.7137C13.0163 5.88496 11.5415 4.34932 10.5292 3.39251C9.84942 2.74995 8.81856 2.74821 8.13871 3.39071Z" stroke="#FD4D00" stroke-width="2"/>
<path d="M22.167 18.668C21.8002 20.3157 20.5511 21.8037 18.667 22.168" stroke="#FD4D00" stroke-width="2" stroke-linecap="round"/>
</svg>
