<svg width="16" height="16" viewBox="0 0 16 16" fill="none" xmlns="http://www.w3.org/2000/svg">
<path d="M14.5488 2.58112C14.5487 2.58099 14.5487 2.58087 14.5486 2.58074L14.5488 2.58112ZM13.8932 2.94535C14.0265 3.18535 14.3331 3.27205 14.5731 3.13871C14.8131 3.00538 14.8998 2.6987 14.7665 2.4587L13.8932 2.94535Z" fill="#0A1E56" stroke="#0A1E56" stroke-width="1.5"/>
<mask id="path-2-inside-1_984_42771" fill="white">
<path d="M3.33366 13.832H4.00033C4.27366 13.832 4.50033 13.6054 4.50033 13.332C4.50033 12.872 4.87366 12.4987 5.33366 12.4987C5.79366 12.4987 6.16699 12.872 6.16699 13.332C6.16699 13.6054 6.39366 13.832 6.66699 13.832H9.33366C9.60699 13.832 9.83366 13.6054 9.83366 13.332C9.83366 12.872 10.207 12.4987 10.667 12.4987C11.127 12.4987 11.5003 12.872 11.5003 13.332C11.5003 13.6054 11.727 13.832 12.0003 13.832H12.667C14.047 13.832 15.167 12.712 15.167 11.332C15.167 11.0587 14.9403 10.832 14.667 10.832C14.3937 10.832 14.167 11.0587 14.167 11.332C14.167 12.1587 13.4937 12.832 12.667 12.832H12.4337C12.2137 12.0654 11.507 11.4987 10.667 11.4987C9.82699 11.4987 9.12031 12.0654 8.90031 12.832H7.09367C6.87367 12.0654 6.16699 11.4987 5.32699 11.4987C4.48699 11.4987 3.78034 12.0654 3.56034 12.832H3.33366C2.50699 12.832 1.83366 12.1587 1.83366 11.332V9.83203H3.33366C3.97366 9.83203 4.50033 9.30536 4.50033 8.66536V6.66536C4.50033 6.02536 3.98032 5.4987 3.33366 5.4987L4.047 4.25203C4.19366 3.99203 4.47364 3.83203 4.77364 3.83203H5.50033V7.9987C5.50033 9.01203 6.32032 9.83203 7.33366 9.83203H8.00033C8.27366 9.83203 8.50033 9.60536 8.50033 9.33203C8.50033 9.0587 8.27366 8.83203 8.00033 8.83203H7.33366C6.87366 8.83203 6.50033 8.4587 6.50033 7.9987V3.33203C6.50033 3.0587 6.27366 2.83203 6.00033 2.83203H4.77364C4.11364 2.83203 3.507 3.18537 3.18034 3.75871L2.04032 5.75203C1.95366 5.90537 1.95366 6.0987 2.04032 6.25203C2.12699 6.40537 2.29367 6.4987 2.47367 6.4987H3.33366C3.42699 6.4987 3.50033 6.57203 3.50033 6.66536V8.66536C3.50033 8.7587 3.42699 8.83203 3.33366 8.83203H1.33366C1.06032 8.83203 0.833658 9.0587 0.833658 9.33203V11.332C0.833658 12.712 1.95366 13.832 3.33366 13.832Z"/>
</mask>
<path d="M3.33366 13.832H4.00033C4.27366 13.832 4.50033 13.6054 4.50033 13.332C4.50033 12.872 4.87366 12.4987 5.33366 12.4987C5.79366 12.4987 6.16699 12.872 6.16699 13.332C6.16699 13.6054 6.39366 13.832 6.66699 13.832H9.33366C9.60699 13.832 9.83366 13.6054 9.83366 13.332C9.83366 12.872 10.207 12.4987 10.667 12.4987C11.127 12.4987 11.5003 12.872 11.5003 13.332C11.5003 13.6054 11.727 13.832 12.0003 13.832H12.667C14.047 13.832 15.167 12.712 15.167 11.332C15.167 11.0587 14.9403 10.832 14.667 10.832C14.3937 10.832 14.167 11.0587 14.167 11.332C14.167 12.1587 13.4937 12.832 12.667 12.832H12.4337C12.2137 12.0654 11.507 11.4987 10.667 11.4987C9.82699 11.4987 9.12031 12.0654 8.90031 12.832H7.09367C6.87367 12.0654 6.16699 11.4987 5.32699 11.4987C4.48699 11.4987 3.78034 12.0654 3.56034 12.832H3.33366C2.50699 12.832 1.83366 12.1587 1.83366 11.332V9.83203H3.33366C3.97366 9.83203 4.50033 9.30536 4.50033 8.66536V6.66536C4.50033 6.02536 3.98032 5.4987 3.33366 5.4987L4.047 4.25203C4.19366 3.99203 4.47364 3.83203 4.77364 3.83203H5.50033V7.9987C5.50033 9.01203 6.32032 9.83203 7.33366 9.83203H8.00033C8.27366 9.83203 8.50033 9.60536 8.50033 9.33203C8.50033 9.0587 8.27366 8.83203 8.00033 8.83203H7.33366C6.87366 8.83203 6.50033 8.4587 6.50033 7.9987V3.33203C6.50033 3.0587 6.27366 2.83203 6.00033 2.83203H4.77364C4.11364 2.83203 3.507 3.18537 3.18034 3.75871L2.04032 5.75203C1.95366 5.90537 1.95366 6.0987 2.04032 6.25203C2.12699 6.40537 2.29367 6.4987 2.47367 6.4987H3.33366C3.42699 6.4987 3.50033 6.57203 3.50033 6.66536V8.66536C3.50033 8.7587 3.42699 8.83203 3.33366 8.83203H1.33366C1.06032 8.83203 0.833658 9.0587 0.833658 9.33203V11.332C0.833658 12.712 1.95366 13.832 3.33366 13.832Z" fill="#0A1E56"/>
<path d="M12.4337 12.832V14.332H11.3036L10.9919 13.2458L12.4337 12.832ZM8.90031 12.832L10.3421 13.2458L10.0304 14.332H8.90031V12.832ZM7.09367 12.832V14.332H5.96357L5.65186 13.2458L7.09367 12.832ZM3.56034 12.832L5.00216 13.2458L4.69044 14.332H3.56034V12.832ZM1.83366 9.83203H0.333658V8.33203H1.83366V9.83203ZM3.33366 5.4987V6.9987H0.747162L2.03173 4.75373L3.33366 5.4987ZM4.047 4.25203L5.35349 4.98903L5.34893 4.997L4.047 4.25203ZM5.50033 3.83203V2.33203H7.00033V3.83203H5.50033ZM3.18034 3.75871L4.48364 4.50128L4.48243 4.50339L3.18034 3.75871ZM2.04032 5.75203L0.734463 5.01394L0.738232 5.00735L2.04032 5.75203ZM3.33366 12.332H4.00033V15.332H3.33366V12.332ZM4.00033 12.332C3.44523 12.332 3.00033 12.7769 3.00033 13.332H6.00033C6.00033 14.4338 5.10209 15.332 4.00033 15.332V12.332ZM3.00033 13.332C3.00033 12.0436 4.04523 10.9987 5.33366 10.9987V13.9987C5.70209 13.9987 6.00033 13.7005 6.00033 13.332H3.00033ZM5.33366 10.9987C6.62209 10.9987 7.66699 12.0436 7.66699 13.332H4.66699C4.66699 13.7005 4.96523 13.9987 5.33366 13.9987V10.9987ZM7.66699 13.332C7.66699 12.7769 7.22209 12.332 6.66699 12.332V15.332C5.56523 15.332 4.66699 14.4338 4.66699 13.332H7.66699ZM6.66699 12.332H9.33366V15.332H6.66699V12.332ZM9.33366 12.332C8.77856 12.332 8.33366 12.7769 8.33366 13.332H11.3337C11.3337 14.4338 10.4354 15.332 9.33366 15.332V12.332ZM8.33366 13.332C8.33366 12.0436 9.37856 10.9987 10.667 10.9987V13.9987C11.0354 13.9987 11.3337 13.7005 11.3337 13.332H8.33366ZM10.667 10.9987C11.9554 10.9987 13.0003 12.0436 13.0003 13.332H10.0003C10.0003 13.7005 10.2986 13.9987 10.667 13.9987V10.9987ZM13.0003 13.332C13.0003 12.7769 12.5554 12.332 12.0003 12.332V15.332C10.8986 15.332 10.0003 14.4338 10.0003 13.332H13.0003ZM12.0003 12.332H12.667V15.332H12.0003V12.332ZM12.667 12.332C13.2186 12.332 13.667 11.8836 13.667 11.332H16.667C16.667 13.5405 14.8754 15.332 12.667 15.332V12.332ZM13.667 11.332C13.667 11.8871 14.1119 12.332 14.667 12.332V9.33203C15.7688 9.33203 16.667 10.2303 16.667 11.332H13.667ZM14.667 12.332C15.2221 12.332 15.667 11.8871 15.667 11.332H12.667C12.667 10.2303 13.5652 9.33203 14.667 9.33203V12.332ZM15.667 11.332C15.667 12.9871 14.3221 14.332 12.667 14.332V11.332H15.667ZM12.667 14.332H12.4337V11.332H12.667V14.332ZM10.9919 13.2458C10.9499 13.0996 10.8146 12.9987 10.667 12.9987V9.9987C12.1994 9.9987 13.4774 11.0312 13.8755 12.4183L10.9919 13.2458ZM10.667 12.9987C10.5194 12.9987 10.3841 13.0996 10.3421 13.2458L7.4585 12.4183C7.85654 11.0312 9.13461 9.9987 10.667 9.9987V12.9987ZM8.90031 14.332H7.09367V11.332H8.90031V14.332ZM5.65186 13.2458C5.6099 13.0996 5.4746 12.9987 5.32699 12.9987V9.9987C6.85937 9.9987 8.13744 11.0312 8.53548 12.4183L5.65186 13.2458ZM5.32699 12.9987C5.17941 12.9987 5.04412 13.0995 5.00216 13.2458L2.11853 12.4183C2.51656 11.0312 3.79456 9.9987 5.32699 9.9987V12.9987ZM3.56034 14.332H3.33366V11.332H3.56034V14.332ZM3.33366 14.332C1.67857 14.332 0.333658 12.9871 0.333658 11.332H3.33366V14.332ZM0.333658 11.332V9.83203H3.33366V11.332H0.333658ZM1.83366 8.33203H3.33366V11.332H1.83366V8.33203ZM3.33366 8.33203C3.14523 8.33203 3.00033 8.47694 3.00033 8.66536H6.00033C6.00033 10.1338 4.80209 11.332 3.33366 11.332V8.33203ZM3.00033 8.66536V6.66536H6.00033V8.66536H3.00033ZM3.00033 6.66536C3.00033 6.84821 3.14633 6.9987 3.33366 6.9987V3.9987C4.81433 3.9987 6.00033 5.20252 6.00033 6.66536H3.00033ZM2.03173 4.75373L2.74506 3.50707L5.34893 4.997L4.63559 6.24366L2.03173 4.75373ZM2.74053 3.51505C3.15977 2.77186 3.94604 2.33203 4.77364 2.33203V5.33203C5.00124 5.33203 5.22756 5.21221 5.35346 4.98902L2.74053 3.51505ZM4.77364 2.33203H5.50033V5.33203H4.77364V2.33203ZM7.00033 3.83203V7.9987H4.00033V3.83203H7.00033ZM7.00033 7.9987C7.00033 8.1836 7.14875 8.33203 7.33366 8.33203V11.332C5.4919 11.332 4.00033 9.84046 4.00033 7.9987H7.00033ZM7.33366 8.33203H8.00033V11.332H7.33366V8.33203ZM8.00033 8.33203C7.44523 8.33203 7.00033 8.77694 7.00033 9.33203H10.0003C10.0003 10.4338 9.10209 11.332 8.00033 11.332V8.33203ZM7.00033 9.33203C7.00033 9.88713 7.44523 10.332 8.00033 10.332V7.33203C9.10209 7.33203 10.0003 8.23027 10.0003 9.33203H7.00033ZM8.00033 10.332H7.33366V7.33203H8.00033V10.332ZM7.33366 10.332C6.04523 10.332 5.00033 9.28713 5.00033 7.9987H8.00033C8.00033 7.63027 7.70209 7.33203 7.33366 7.33203V10.332ZM5.00033 7.9987V3.33203H8.00033V7.9987H5.00033ZM5.00033 3.33203C5.00033 3.88713 5.44523 4.33203 6.00033 4.33203V1.33203C7.10209 1.33203 8.00033 2.23027 8.00033 3.33203H5.00033ZM6.00033 4.33203H4.77364V1.33203H6.00033V4.33203ZM4.77364 4.33203C4.65378 4.33203 4.54408 4.3952 4.48363 4.50128L1.87704 3.01613C2.46993 1.97554 3.5735 1.33203 4.77364 1.33203V4.33203ZM4.48243 4.50339L3.34241 6.49672L0.738232 5.00735L1.87825 3.01402L4.48243 4.50339ZM3.34617 6.49012C3.51838 6.18545 3.51838 5.81862 3.34617 5.51395L0.734479 6.99012C0.388938 6.37878 0.388938 5.62529 0.734479 5.01395L3.34617 6.49012ZM3.34617 5.51395C3.15247 5.17125 2.80486 4.9987 2.47367 4.9987V7.9987C1.78249 7.9987 1.10151 7.63949 0.734479 6.99012L3.34617 5.51395ZM2.47367 4.9987H3.33366V7.9987H2.47367V4.9987ZM3.33366 4.9987C4.25542 4.9987 5.00033 5.7436 5.00033 6.66536H2.00033C2.00033 7.40046 2.59857 7.9987 3.33366 7.9987V4.9987ZM5.00033 6.66536V8.66536H2.00033V6.66536H5.00033ZM5.00033 8.66536C5.00033 9.58713 4.25542 10.332 3.33366 10.332V7.33203C2.59857 7.33203 2.00033 7.93027 2.00033 8.66536H5.00033ZM3.33366 10.332H1.33366V7.33203H3.33366V10.332ZM1.33366 10.332C1.88875 10.332 2.33366 9.88713 2.33366 9.33203H-0.666342C-0.666342 8.23027 0.231898 7.33203 1.33366 7.33203V10.332ZM2.33366 9.33203V11.332H-0.666342V9.33203H2.33366ZM2.33366 11.332C2.33366 11.8836 2.78209 12.332 3.33366 12.332V15.332C1.12523 15.332 -0.666342 13.5405 -0.666342 11.332H2.33366Z" fill="#0A1E56" mask="url(#path-2-inside-1_984_42771)"/>
<mask id="path-4-inside-2_984_42771" fill="white">
<path d="M10.6667 15.1667C11.68 15.1667 12.5 14.3467 12.5 13.3333C12.5 12.32 11.68 11.5 10.6667 11.5C9.65333 11.5 8.83333 12.32 8.83333 13.3333C8.83333 14.3467 9.65333 15.1667 10.6667 15.1667ZM10.6667 12.5C11.1267 12.5 11.5 12.8733 11.5 13.3333C11.5 13.7933 11.1267 14.1667 10.6667 14.1667C10.2067 14.1667 9.83333 13.7933 9.83333 13.3333C9.83333 12.8733 10.2067 12.5 10.6667 12.5Z"/>
</mask>
<path d="M10.6667 15.1667C11.68 15.1667 12.5 14.3467 12.5 13.3333C12.5 12.32 11.68 11.5 10.6667 11.5C9.65333 11.5 8.83333 12.32 8.83333 13.3333C8.83333 14.3467 9.65333 15.1667 10.6667 15.1667ZM10.6667 12.5C11.1267 12.5 11.5 12.8733 11.5 13.3333C11.5 13.7933 11.1267 14.1667 10.6667 14.1667C10.2067 14.1667 9.83333 13.7933 9.83333 13.3333C9.83333 12.8733 10.2067 12.5 10.6667 12.5Z" fill="#0A1E56"/>
<path d="M10.6667 13.6667C10.8516 13.6667 11 13.5182 11 13.3333H14C14 15.1751 12.5084 16.6667 10.6667 16.6667V13.6667ZM11 13.3333C11 13.1484 10.8516 13 10.6667 13V10C12.5084 10 14 11.4916 14 13.3333H11ZM10.6667 13C10.4818 13 10.3333 13.1484 10.3333 13.3333H7.33333C7.33333 11.4916 8.82491 10 10.6667 10V13ZM10.3333 13.3333C10.3333 13.5182 10.4818 13.6667 10.6667 13.6667V16.6667C8.82491 16.6667 7.33333 15.1751 7.33333 13.3333H10.3333ZM10.6667 11C11.9551 11 13 12.0449 13 13.3333H10C10 13.7018 10.2982 14 10.6667 14V11ZM13 13.3333C13 14.6218 11.9551 15.6667 10.6667 15.6667V12.6667C10.2982 12.6667 10 12.9649 10 13.3333H13ZM10.6667 15.6667C9.37824 15.6667 8.33333 14.6218 8.33333 13.3333H11.3333C11.3333 12.9649 11.0351 12.6667 10.6667 12.6667V15.6667ZM8.33333 13.3333C8.33333 12.0449 9.37824 11 10.6667 11V14C11.0351 14 11.3333 13.7018 11.3333 13.3333H8.33333Z" fill="#0A1E56" mask="url(#path-4-inside-2_984_42771)"/>
<mask id="path-6-inside-3_984_42771" fill="white">
<path d="M5.33366 15.1667C6.34699 15.1667 7.16699 14.3467 7.16699 13.3333C7.16699 12.32 6.34699 11.5 5.33366 11.5C4.32033 11.5 3.50033 12.32 3.50033 13.3333C3.50033 14.3467 4.32033 15.1667 5.33366 15.1667ZM5.33366 12.5C5.79366 12.5 6.16699 12.8733 6.16699 13.3333C6.16699 13.7933 5.79366 14.1667 5.33366 14.1667C4.87366 14.1667 4.50033 13.7933 4.50033 13.3333C4.50033 12.8733 4.87366 12.5 5.33366 12.5Z"/>
</mask>
<path d="M5.33366 15.1667C6.34699 15.1667 7.16699 14.3467 7.16699 13.3333C7.16699 12.32 6.34699 11.5 5.33366 11.5C4.32033 11.5 3.50033 12.32 3.50033 13.3333C3.50033 14.3467 4.32033 15.1667 5.33366 15.1667ZM5.33366 12.5C5.79366 12.5 6.16699 12.8733 6.16699 13.3333C6.16699 13.7933 5.79366 14.1667 5.33366 14.1667C4.87366 14.1667 4.50033 13.7933 4.50033 13.3333C4.50033 12.8733 4.87366 12.5 5.33366 12.5Z" fill="#0A1E56"/>
<path d="M5.33366 13.6667C5.51856 13.6667 5.66699 13.5182 5.66699 13.3333H8.66699C8.66699 15.1751 7.17542 16.6667 5.33366 16.6667V13.6667ZM5.66699 13.3333C5.66699 13.1484 5.51856 13 5.33366 13V10C7.17542 10 8.66699 11.4916 8.66699 13.3333H5.66699ZM5.33366 13C5.14875 13 5.00033 13.1484 5.00033 13.3333H2.00033C2.00033 11.4916 3.4919 10 5.33366 10V13ZM5.00033 13.3333C5.00033 13.5182 5.14875 13.6667 5.33366 13.6667V16.6667C3.4919 16.6667 2.00033 15.1751 2.00033 13.3333H5.00033ZM5.33366 11C6.62209 11 7.66699 12.0449 7.66699 13.3333H4.66699C4.66699 13.7018 4.96523 14 5.33366 14V11ZM7.66699 13.3333C7.66699 14.6218 6.62209 15.6667 5.33366 15.6667V12.6667C4.96523 12.6667 4.66699 12.9649 4.66699 13.3333H7.66699ZM5.33366 15.6667C4.04523 15.6667 3.00033 14.6218 3.00033 13.3333H6.00033C6.00033 12.9649 5.70209 12.6667 5.33366 12.6667V15.6667ZM3.00033 13.3333C3.00033 12.0449 4.04523 11 5.33366 11V14C5.70209 14 6.00033 13.7018 6.00033 13.3333H3.00033Z" fill="#0A1E56" mask="url(#path-6-inside-3_984_42771)"/>
<mask id="path-8-inside-4_984_42771" fill="white">
<path d="M1.33333 9.83333H3.33333C3.97333 9.83333 4.5 9.30667 4.5 8.66667V6.66667C4.5 6.02667 3.97333 5.5 3.33333 5.5H2.47335C2.29335 5.5 2.12666 5.59334 2.04 5.75334L0.899983 7.75334C0.859983 7.82667 0.833333 7.91333 0.833333 8V9.33333C0.833333 9.60667 1.06 9.83333 1.33333 9.83333ZM3.33333 6.5C3.42667 6.5 3.5 6.57333 3.5 6.66667V8.66667C3.5 8.76 3.42667 8.83333 3.33333 8.83333H1.83333V8.13334L2.76668 6.5H3.33333Z"/>
</mask>
<path d="M1.33333 9.83333H3.33333C3.97333 9.83333 4.5 9.30667 4.5 8.66667V6.66667C4.5 6.02667 3.97333 5.5 3.33333 5.5H2.47335C2.29335 5.5 2.12666 5.59334 2.04 5.75334L0.899983 7.75334C0.859983 7.82667 0.833333 7.91333 0.833333 8V9.33333C0.833333 9.60667 1.06 9.83333 1.33333 9.83333ZM3.33333 6.5C3.42667 6.5 3.5 6.57333 3.5 6.66667V8.66667C3.5 8.76 3.42667 8.83333 3.33333 8.83333H1.83333V8.13334L2.76668 6.5H3.33333Z" fill="#0A1E56"/>
<path d="M2.04 5.75334L3.35894 6.46776L3.3512 6.48204L3.34316 6.49615L2.04 5.75334ZM0.899983 7.75334L-0.41686 7.03506L-0.410134 7.02273L-0.403178 7.01052L0.899983 7.75334ZM1.83333 8.83333V10.3333H0.333333V8.83333H1.83333ZM1.83333 8.13334H0.333333V7.73499L0.530972 7.38913L1.83333 8.13334ZM2.76668 6.5L1.46432 5.75578L1.8962 5H2.76668V6.5ZM1.33333 8.33333H3.33333V11.3333H1.33333V8.33333ZM3.33333 8.33333C3.14491 8.33333 3 8.47824 3 8.66667H6C6 10.1351 4.80176 11.3333 3.33333 11.3333V8.33333ZM3 8.66667V6.66667H6V8.66667H3ZM3 6.66667C3 6.85509 3.14491 7 3.33333 7V4C4.80176 4 6 5.19824 6 6.66667H3ZM3.33333 7H2.47335V4H3.33333V7ZM2.47335 7C2.81257 7 3.16885 6.81869 3.35894 6.46776L0.72106 5.03891C1.08448 4.36799 1.77412 4 2.47335 4V7ZM3.34316 6.49615L2.20315 8.49615L-0.403178 7.01052L0.736836 5.01052L3.34316 6.49615ZM2.21683 8.47161C2.27298 8.36866 2.33333 8.21011 2.33333 8H-0.666667C-0.666667 7.61656 -0.553017 7.28468 -0.41686 7.03506L2.21683 8.47161ZM2.33333 8V9.33333H-0.666667V8H2.33333ZM2.33333 9.33333C2.33333 8.77824 1.88843 8.33333 1.33333 8.33333V11.3333C0.231573 11.3333 -0.666667 10.4351 -0.666667 9.33333H2.33333ZM3.33333 5C4.25509 5 5 5.74491 5 6.66667H2C2 7.40176 2.59824 8 3.33333 8V5ZM5 6.66667V8.66667H2V6.66667H5ZM5 8.66667C5 9.58843 4.25509 10.3333 3.33333 10.3333V7.33333C2.59824 7.33333 2 7.93157 2 8.66667H5ZM3.33333 10.3333H1.83333V7.33333H3.33333V10.3333ZM0.333333 8.83333V8.13334H3.33333V8.83333H0.333333ZM0.530972 7.38913L1.46432 5.75578L4.06904 7.24422L3.13569 8.87756L0.530972 7.38913ZM2.76668 5H3.33333V8H2.76668V5Z" fill="#0A1E56" mask="url(#path-8-inside-4_984_42771)"/>
<mask id="path-10-inside-5_984_42771" fill="white">
<path d="M10.667 5.83203H14.667C14.9403 5.83203 15.167 5.60536 15.167 5.33203C15.167 5.0587 14.9403 4.83203 14.667 4.83203H10.667C10.3937 4.83203 10.167 5.0587 10.167 5.33203C10.167 5.60536 10.3937 5.83203 10.667 5.83203Z"/>
</mask>
<path d="M10.667 5.83203H14.667C14.9403 5.83203 15.167 5.60536 15.167 5.33203C15.167 5.0587 14.9403 4.83203 14.667 4.83203H10.667C10.3937 4.83203 10.167 5.0587 10.167 5.33203C10.167 5.60536 10.3937 5.83203 10.667 5.83203Z" fill="#0A1E56"/>
<path d="M10.667 4.33203H14.667V7.33203H10.667V4.33203ZM14.667 4.33203C14.1119 4.33203 13.667 4.77694 13.667 5.33203H16.667C16.667 6.43379 15.7688 7.33203 14.667 7.33203V4.33203ZM13.667 5.33203C13.667 5.88713 14.1119 6.33203 14.667 6.33203V3.33203C15.7688 3.33203 16.667 4.23027 16.667 5.33203H13.667ZM14.667 6.33203H10.667V3.33203H14.667V6.33203ZM10.667 6.33203C11.2221 6.33203 11.667 5.88713 11.667 5.33203H8.66699C8.66699 4.23027 9.56523 3.33203 10.667 3.33203V6.33203ZM11.667 5.33203C11.667 4.77694 11.2221 4.33203 10.667 4.33203V7.33203C9.56523 7.33203 8.66699 6.43379 8.66699 5.33203H11.667Z" fill="#0A1E56" mask="url(#path-10-inside-5_984_42771)"/>
<mask id="path-12-inside-6_984_42771" fill="white">
<path d="M12.0003 7.83203H14.667C14.9403 7.83203 15.167 7.60536 15.167 7.33203C15.167 7.0587 14.9403 6.83203 14.667 6.83203H12.0003C11.727 6.83203 11.5003 7.0587 11.5003 7.33203C11.5003 7.60536 11.727 7.83203 12.0003 7.83203Z"/>
</mask>
<path d="M12.0003 7.83203H14.667C14.9403 7.83203 15.167 7.60536 15.167 7.33203C15.167 7.0587 14.9403 6.83203 14.667 6.83203H12.0003C11.727 6.83203 11.5003 7.0587 11.5003 7.33203C11.5003 7.60536 11.727 7.83203 12.0003 7.83203Z" fill="#0A1E56"/>
<path d="M12.0003 6.33203H14.667V9.33203H12.0003V6.33203ZM14.667 6.33203C14.1119 6.33203 13.667 6.77694 13.667 7.33203H16.667C16.667 8.43379 15.7688 9.33203 14.667 9.33203V6.33203ZM13.667 7.33203C13.667 7.88713 14.1119 8.33203 14.667 8.33203V5.33203C15.7688 5.33203 16.667 6.23027 16.667 7.33203H13.667ZM14.667 8.33203H12.0003V5.33203H14.667V8.33203ZM12.0003 8.33203C12.5554 8.33203 13.0003 7.88713 13.0003 7.33203H10.0003C10.0003 6.23027 10.8986 5.33203 12.0003 5.33203V8.33203ZM13.0003 7.33203C13.0003 6.77694 12.5554 6.33203 12.0003 6.33203V9.33203C10.8986 9.33203 10.0003 8.43379 10.0003 7.33203H13.0003Z" fill="#0A1E56" mask="url(#path-12-inside-6_984_42771)"/>
<mask id="path-14-inside-7_984_42771" fill="white">
<path d="M13.3337 9.83203H14.667C14.9403 9.83203 15.167 9.60536 15.167 9.33203C15.167 9.0587 14.9403 8.83203 14.667 8.83203H13.3337C13.0603 8.83203 12.8337 9.0587 12.8337 9.33203C12.8337 9.60536 13.0603 9.83203 13.3337 9.83203Z"/>
</mask>
<path d="M13.3337 9.83203H14.667C14.9403 9.83203 15.167 9.60536 15.167 9.33203C15.167 9.0587 14.9403 8.83203 14.667 8.83203H13.3337C13.0603 8.83203 12.8337 9.0587 12.8337 9.33203C12.8337 9.60536 13.0603 9.83203 13.3337 9.83203Z" fill="#0A1E56"/>
<path d="M13.3337 8.33203H14.667V11.332H13.3337V8.33203ZM14.667 8.33203C14.1119 8.33203 13.667 8.77694 13.667 9.33203H16.667C16.667 10.4338 15.7688 11.332 14.667 11.332V8.33203ZM13.667 9.33203C13.667 9.88713 14.1119 10.332 14.667 10.332V7.33203C15.7688 7.33203 16.667 8.23027 16.667 9.33203H13.667ZM14.667 10.332H13.3337V7.33203H14.667V10.332ZM13.3337 10.332C13.8888 10.332 14.3337 9.88713 14.3337 9.33203H11.3337C11.3337 8.23027 12.2319 7.33203 13.3337 7.33203V10.332ZM14.3337 9.33203C14.3337 8.77694 13.8888 8.33203 13.3337 8.33203V11.332C12.2319 11.332 11.3337 10.4338 11.3337 9.33203H14.3337Z" fill="#0A1E56" mask="url(#path-14-inside-7_984_42771)"/>
</svg>
