<svg width="32" height="32" viewBox="0 0 32 32" fill="none" xmlns="http://www.w3.org/2000/svg">
<path d="M24.1868 28.825C23.0135 29.1717 21.6268 29.3317 20.0001 29.3317H12.0001C10.3735 29.3317 8.98681 29.1717 7.81348 28.825C8.10681 25.3584 11.6668 22.625 16.0001 22.625C20.3335 22.625 23.8935 25.3584 24.1868 28.825Z" stroke="#FD4D00" stroke-width="2" stroke-linecap="round" stroke-linejoin="round"/>
<path d="M20.0003 2.66797H12.0003C5.33366 2.66797 2.66699 5.33464 2.66699 12.0013V20.0013C2.66699 25.0413 4.18699 27.8013 7.81366 28.828C8.10699 25.3613 11.667 22.6279 16.0003 22.6279C20.3337 22.6279 23.8937 25.3613 24.187 28.828C27.8137 27.8013 29.3337 25.0413 29.3337 20.0013V12.0013C29.3337 5.33464 26.667 2.66797 20.0003 2.66797ZM16.0003 18.8946C13.3603 18.8946 11.227 16.748 11.227 14.108C11.227 11.468 13.3603 9.33464 16.0003 9.33464C18.6403 9.33464 20.7737 11.468 20.7737 14.108C20.7737 16.748 18.6403 18.8946 16.0003 18.8946Z" stroke="#FD4D00" stroke-width="2" stroke-linecap="round" stroke-linejoin="round"/>
<path d="M20.7732 14.1054C20.7732 16.7454 18.6399 18.892 15.9999 18.892C13.3599 18.892 11.2266 16.7454 11.2266 14.1054C11.2266 11.4654 13.3599 9.33203 15.9999 9.33203C18.6399 9.33203 20.7732 11.4654 20.7732 14.1054Z" stroke="#FD4D00" stroke-width="2" stroke-linecap="round" stroke-linejoin="round"/>
</svg>
