<svg width="28" height="28" viewBox="0 0 28 28" fill="none" xmlns="http://www.w3.org/2000/svg">
<path d="M9.77734 13.9991L12.589 16.8224L18.224 11.1758" stroke="#FD4D00" stroke-width="2" stroke-linecap="round" stroke-linejoin="round"/>
<path d="M12.5423 2.86C13.3473 2.17167 14.6657 2.17167 15.4823 2.86L17.3257 4.44667C17.6757 4.75 18.329 4.995 18.7957 4.995H20.779C22.0157 4.995 23.0307 6.01 23.0307 7.24667V9.23C23.0307 9.685 23.2757 10.35 23.579 10.7L25.1657 12.5433C25.854 13.3483 25.854 14.6667 25.1657 15.4833L23.579 17.3267C23.2757 17.6767 23.0307 18.33 23.0307 18.7967V20.78C23.0307 22.0167 22.0157 23.0317 20.779 23.0317H18.7957C18.3407 23.0317 17.6757 23.2767 17.3257 23.58L15.4823 25.1667C14.6773 25.855 13.359 25.855 12.5423 25.1667L10.699 23.58C10.349 23.2767 9.69568 23.0317 9.22901 23.0317H7.21068C5.97401 23.0317 4.95901 22.0167 4.95901 20.78V18.785C4.95901 18.33 4.71401 17.6767 4.42234 17.3267L2.84734 15.4717C2.17068 14.6667 2.17068 13.36 2.84734 12.555L4.42234 10.7C4.71401 10.35 4.95901 9.69667 4.95901 9.24167V7.235C4.95901 5.99833 5.97401 4.98333 7.21068 4.98333H9.22901C9.68401 4.98333 10.349 4.73833 10.699 4.435L12.5423 2.86Z" stroke="#FD4D00" stroke-width="2" stroke-linecap="round" stroke-linejoin="round"/>
</svg>
